G04 #@! TF.GenerationSoftware,KiCad,Pcbnew,8.0.2-1*
G04 #@! TF.CreationDate,2024-07-27T23:17:35+01:00*
G04 #@! TF.ProjectId,pcb__raven-split-38key__choc-hotswap-n!n,7063625f-5f72-4617-9665-6e2d73706c69,0.1*
G04 #@! TF.SameCoordinates,Original*
G04 #@! TF.FileFunction,Legend,Top*
G04 #@! TF.FilePolarity,Positive*
%FSLAX46Y46*%
G04 Gerber Fmt 4.6, Leading zero omitted, Abs format (unit mm)*
G04 Created by KiCad (PCBNEW 8.0.2-1) date 2024-07-27 23:17:35*
%MOMM*%
%LPD*%
G01*
G04 APERTURE LIST*
%ADD10C,0.125000*%
%ADD11C,0.150000*%
%ADD12C,0.000000*%
%ADD13C,1.524000*%
%ADD14C,2.000000*%
%ADD15C,1.397000*%
G04 APERTURE END LIST*
D10*
X143523080Y-70909735D02*
X143499271Y-70945450D01*
X143499271Y-70945450D02*
X143427842Y-70981164D01*
X143427842Y-70981164D02*
X143380223Y-70981164D01*
X143380223Y-70981164D02*
X143308795Y-70945450D01*
X143308795Y-70945450D02*
X143261176Y-70874021D01*
X143261176Y-70874021D02*
X143237366Y-70802592D01*
X143237366Y-70802592D02*
X143213557Y-70659735D01*
X143213557Y-70659735D02*
X143213557Y-70552592D01*
X143213557Y-70552592D02*
X143237366Y-70409735D01*
X143237366Y-70409735D02*
X143261176Y-70338307D01*
X143261176Y-70338307D02*
X143308795Y-70266878D01*
X143308795Y-70266878D02*
X143380223Y-70231164D01*
X143380223Y-70231164D02*
X143427842Y-70231164D01*
X143427842Y-70231164D02*
X143499271Y-70266878D01*
X143499271Y-70266878D02*
X143523080Y-70302592D01*
X143832604Y-70231164D02*
X143927842Y-70231164D01*
X143927842Y-70231164D02*
X143975461Y-70266878D01*
X143975461Y-70266878D02*
X144023080Y-70338307D01*
X144023080Y-70338307D02*
X144046890Y-70481164D01*
X144046890Y-70481164D02*
X144046890Y-70731164D01*
X144046890Y-70731164D02*
X144023080Y-70874021D01*
X144023080Y-70874021D02*
X143975461Y-70945450D01*
X143975461Y-70945450D02*
X143927842Y-70981164D01*
X143927842Y-70981164D02*
X143832604Y-70981164D01*
X143832604Y-70981164D02*
X143784985Y-70945450D01*
X143784985Y-70945450D02*
X143737366Y-70874021D01*
X143737366Y-70874021D02*
X143713557Y-70731164D01*
X143713557Y-70731164D02*
X143713557Y-70481164D01*
X143713557Y-70481164D02*
X143737366Y-70338307D01*
X143737366Y-70338307D02*
X143784985Y-70266878D01*
X143784985Y-70266878D02*
X143832604Y-70231164D01*
X144499271Y-70981164D02*
X144261176Y-70981164D01*
X144261176Y-70981164D02*
X144261176Y-70231164D01*
X144761176Y-70231164D02*
X144808795Y-70231164D01*
X144808795Y-70231164D02*
X144856414Y-70266878D01*
X144856414Y-70266878D02*
X144880224Y-70302592D01*
X144880224Y-70302592D02*
X144904033Y-70374021D01*
X144904033Y-70374021D02*
X144927843Y-70516878D01*
X144927843Y-70516878D02*
X144927843Y-70695450D01*
X144927843Y-70695450D02*
X144904033Y-70838307D01*
X144904033Y-70838307D02*
X144880224Y-70909735D01*
X144880224Y-70909735D02*
X144856414Y-70945450D01*
X144856414Y-70945450D02*
X144808795Y-70981164D01*
X144808795Y-70981164D02*
X144761176Y-70981164D01*
X144761176Y-70981164D02*
X144713557Y-70945450D01*
X144713557Y-70945450D02*
X144689748Y-70909735D01*
X144689748Y-70909735D02*
X144665938Y-70838307D01*
X144665938Y-70838307D02*
X144642129Y-70695450D01*
X144642129Y-70695450D02*
X144642129Y-70516878D01*
X144642129Y-70516878D02*
X144665938Y-70374021D01*
X144665938Y-70374021D02*
X144689748Y-70302592D01*
X144689748Y-70302592D02*
X144713557Y-70266878D01*
X144713557Y-70266878D02*
X144761176Y-70231164D01*
X158539747Y-76081164D02*
X158373081Y-75724021D01*
X158254033Y-76081164D02*
X158254033Y-75331164D01*
X158254033Y-75331164D02*
X158444509Y-75331164D01*
X158444509Y-75331164D02*
X158492128Y-75366878D01*
X158492128Y-75366878D02*
X158515938Y-75402592D01*
X158515938Y-75402592D02*
X158539747Y-75474021D01*
X158539747Y-75474021D02*
X158539747Y-75581164D01*
X158539747Y-75581164D02*
X158515938Y-75652592D01*
X158515938Y-75652592D02*
X158492128Y-75688307D01*
X158492128Y-75688307D02*
X158444509Y-75724021D01*
X158444509Y-75724021D02*
X158254033Y-75724021D01*
X158849271Y-75331164D02*
X158944509Y-75331164D01*
X158944509Y-75331164D02*
X158992128Y-75366878D01*
X158992128Y-75366878D02*
X159039747Y-75438307D01*
X159039747Y-75438307D02*
X159063557Y-75581164D01*
X159063557Y-75581164D02*
X159063557Y-75831164D01*
X159063557Y-75831164D02*
X159039747Y-75974021D01*
X159039747Y-75974021D02*
X158992128Y-76045450D01*
X158992128Y-76045450D02*
X158944509Y-76081164D01*
X158944509Y-76081164D02*
X158849271Y-76081164D01*
X158849271Y-76081164D02*
X158801652Y-76045450D01*
X158801652Y-76045450D02*
X158754033Y-75974021D01*
X158754033Y-75974021D02*
X158730224Y-75831164D01*
X158730224Y-75831164D02*
X158730224Y-75581164D01*
X158730224Y-75581164D02*
X158754033Y-75438307D01*
X158754033Y-75438307D02*
X158801652Y-75366878D01*
X158801652Y-75366878D02*
X158849271Y-75331164D01*
X159230224Y-75331164D02*
X159349272Y-76081164D01*
X159349272Y-76081164D02*
X159444510Y-75545450D01*
X159444510Y-75545450D02*
X159539748Y-76081164D01*
X159539748Y-76081164D02*
X159658796Y-75331164D01*
X159944510Y-75331164D02*
X159992129Y-75331164D01*
X159992129Y-75331164D02*
X160039748Y-75366878D01*
X160039748Y-75366878D02*
X160063558Y-75402592D01*
X160063558Y-75402592D02*
X160087367Y-75474021D01*
X160087367Y-75474021D02*
X160111177Y-75616878D01*
X160111177Y-75616878D02*
X160111177Y-75795450D01*
X160111177Y-75795450D02*
X160087367Y-75938307D01*
X160087367Y-75938307D02*
X160063558Y-76009735D01*
X160063558Y-76009735D02*
X160039748Y-76045450D01*
X160039748Y-76045450D02*
X159992129Y-76081164D01*
X159992129Y-76081164D02*
X159944510Y-76081164D01*
X159944510Y-76081164D02*
X159896891Y-76045450D01*
X159896891Y-76045450D02*
X159873082Y-76009735D01*
X159873082Y-76009735D02*
X159849272Y-75938307D01*
X159849272Y-75938307D02*
X159825463Y-75795450D01*
X159825463Y-75795450D02*
X159825463Y-75616878D01*
X159825463Y-75616878D02*
X159849272Y-75474021D01*
X159849272Y-75474021D02*
X159873082Y-75402592D01*
X159873082Y-75402592D02*
X159896891Y-75366878D01*
X159896891Y-75366878D02*
X159944510Y-75331164D01*
X143909961Y-60803164D02*
X143743295Y-60446021D01*
X143624247Y-60803164D02*
X143624247Y-60053164D01*
X143624247Y-60053164D02*
X143814723Y-60053164D01*
X143814723Y-60053164D02*
X143862342Y-60088878D01*
X143862342Y-60088878D02*
X143886152Y-60124592D01*
X143886152Y-60124592D02*
X143909961Y-60196021D01*
X143909961Y-60196021D02*
X143909961Y-60303164D01*
X143909961Y-60303164D02*
X143886152Y-60374592D01*
X143886152Y-60374592D02*
X143862342Y-60410307D01*
X143862342Y-60410307D02*
X143814723Y-60446021D01*
X143814723Y-60446021D02*
X143624247Y-60446021D01*
X144100438Y-60588878D02*
X144338533Y-60588878D01*
X144052819Y-60803164D02*
X144219485Y-60053164D01*
X144219485Y-60053164D02*
X144386152Y-60803164D01*
X144505199Y-60053164D02*
X144624247Y-60803164D01*
X144624247Y-60803164D02*
X144719485Y-60267450D01*
X144719485Y-60267450D02*
X144814723Y-60803164D01*
X144814723Y-60803164D02*
X144933771Y-60053164D01*
X143523080Y-75971735D02*
X143499271Y-76007450D01*
X143499271Y-76007450D02*
X143427842Y-76043164D01*
X143427842Y-76043164D02*
X143380223Y-76043164D01*
X143380223Y-76043164D02*
X143308795Y-76007450D01*
X143308795Y-76007450D02*
X143261176Y-75936021D01*
X143261176Y-75936021D02*
X143237366Y-75864592D01*
X143237366Y-75864592D02*
X143213557Y-75721735D01*
X143213557Y-75721735D02*
X143213557Y-75614592D01*
X143213557Y-75614592D02*
X143237366Y-75471735D01*
X143237366Y-75471735D02*
X143261176Y-75400307D01*
X143261176Y-75400307D02*
X143308795Y-75328878D01*
X143308795Y-75328878D02*
X143380223Y-75293164D01*
X143380223Y-75293164D02*
X143427842Y-75293164D01*
X143427842Y-75293164D02*
X143499271Y-75328878D01*
X143499271Y-75328878D02*
X143523080Y-75364592D01*
X143832604Y-75293164D02*
X143927842Y-75293164D01*
X143927842Y-75293164D02*
X143975461Y-75328878D01*
X143975461Y-75328878D02*
X144023080Y-75400307D01*
X144023080Y-75400307D02*
X144046890Y-75543164D01*
X144046890Y-75543164D02*
X144046890Y-75793164D01*
X144046890Y-75793164D02*
X144023080Y-75936021D01*
X144023080Y-75936021D02*
X143975461Y-76007450D01*
X143975461Y-76007450D02*
X143927842Y-76043164D01*
X143927842Y-76043164D02*
X143832604Y-76043164D01*
X143832604Y-76043164D02*
X143784985Y-76007450D01*
X143784985Y-76007450D02*
X143737366Y-75936021D01*
X143737366Y-75936021D02*
X143713557Y-75793164D01*
X143713557Y-75793164D02*
X143713557Y-75543164D01*
X143713557Y-75543164D02*
X143737366Y-75400307D01*
X143737366Y-75400307D02*
X143784985Y-75328878D01*
X143784985Y-75328878D02*
X143832604Y-75293164D01*
X144499271Y-76043164D02*
X144261176Y-76043164D01*
X144261176Y-76043164D02*
X144261176Y-75293164D01*
X144642129Y-75364592D02*
X144665938Y-75328878D01*
X144665938Y-75328878D02*
X144713557Y-75293164D01*
X144713557Y-75293164D02*
X144832605Y-75293164D01*
X144832605Y-75293164D02*
X144880224Y-75328878D01*
X144880224Y-75328878D02*
X144904033Y-75364592D01*
X144904033Y-75364592D02*
X144927843Y-75436021D01*
X144927843Y-75436021D02*
X144927843Y-75507450D01*
X144927843Y-75507450D02*
X144904033Y-75614592D01*
X144904033Y-75614592D02*
X144618319Y-76043164D01*
X144618319Y-76043164D02*
X144927843Y-76043164D01*
X158539747Y-81131164D02*
X158373081Y-80774021D01*
X158254033Y-81131164D02*
X158254033Y-80381164D01*
X158254033Y-80381164D02*
X158444509Y-80381164D01*
X158444509Y-80381164D02*
X158492128Y-80416878D01*
X158492128Y-80416878D02*
X158515938Y-80452592D01*
X158515938Y-80452592D02*
X158539747Y-80524021D01*
X158539747Y-80524021D02*
X158539747Y-80631164D01*
X158539747Y-80631164D02*
X158515938Y-80702592D01*
X158515938Y-80702592D02*
X158492128Y-80738307D01*
X158492128Y-80738307D02*
X158444509Y-80774021D01*
X158444509Y-80774021D02*
X158254033Y-80774021D01*
X158849271Y-80381164D02*
X158944509Y-80381164D01*
X158944509Y-80381164D02*
X158992128Y-80416878D01*
X158992128Y-80416878D02*
X159039747Y-80488307D01*
X159039747Y-80488307D02*
X159063557Y-80631164D01*
X159063557Y-80631164D02*
X159063557Y-80881164D01*
X159063557Y-80881164D02*
X159039747Y-81024021D01*
X159039747Y-81024021D02*
X158992128Y-81095450D01*
X158992128Y-81095450D02*
X158944509Y-81131164D01*
X158944509Y-81131164D02*
X158849271Y-81131164D01*
X158849271Y-81131164D02*
X158801652Y-81095450D01*
X158801652Y-81095450D02*
X158754033Y-81024021D01*
X158754033Y-81024021D02*
X158730224Y-80881164D01*
X158730224Y-80881164D02*
X158730224Y-80631164D01*
X158730224Y-80631164D02*
X158754033Y-80488307D01*
X158754033Y-80488307D02*
X158801652Y-80416878D01*
X158801652Y-80416878D02*
X158849271Y-80381164D01*
X159230224Y-80381164D02*
X159349272Y-81131164D01*
X159349272Y-81131164D02*
X159444510Y-80595450D01*
X159444510Y-80595450D02*
X159539748Y-81131164D01*
X159539748Y-81131164D02*
X159658796Y-80381164D01*
X159825463Y-80452592D02*
X159849272Y-80416878D01*
X159849272Y-80416878D02*
X159896891Y-80381164D01*
X159896891Y-80381164D02*
X160015939Y-80381164D01*
X160015939Y-80381164D02*
X160063558Y-80416878D01*
X160063558Y-80416878D02*
X160087367Y-80452592D01*
X160087367Y-80452592D02*
X160111177Y-80524021D01*
X160111177Y-80524021D02*
X160111177Y-80595450D01*
X160111177Y-80595450D02*
X160087367Y-80702592D01*
X160087367Y-80702592D02*
X159801653Y-81131164D01*
X159801653Y-81131164D02*
X160111177Y-81131164D01*
X143473080Y-81059735D02*
X143449271Y-81095450D01*
X143449271Y-81095450D02*
X143377842Y-81131164D01*
X143377842Y-81131164D02*
X143330223Y-81131164D01*
X143330223Y-81131164D02*
X143258795Y-81095450D01*
X143258795Y-81095450D02*
X143211176Y-81024021D01*
X143211176Y-81024021D02*
X143187366Y-80952592D01*
X143187366Y-80952592D02*
X143163557Y-80809735D01*
X143163557Y-80809735D02*
X143163557Y-80702592D01*
X143163557Y-80702592D02*
X143187366Y-80559735D01*
X143187366Y-80559735D02*
X143211176Y-80488307D01*
X143211176Y-80488307D02*
X143258795Y-80416878D01*
X143258795Y-80416878D02*
X143330223Y-80381164D01*
X143330223Y-80381164D02*
X143377842Y-80381164D01*
X143377842Y-80381164D02*
X143449271Y-80416878D01*
X143449271Y-80416878D02*
X143473080Y-80452592D01*
X143782604Y-80381164D02*
X143877842Y-80381164D01*
X143877842Y-80381164D02*
X143925461Y-80416878D01*
X143925461Y-80416878D02*
X143973080Y-80488307D01*
X143973080Y-80488307D02*
X143996890Y-80631164D01*
X143996890Y-80631164D02*
X143996890Y-80881164D01*
X143996890Y-80881164D02*
X143973080Y-81024021D01*
X143973080Y-81024021D02*
X143925461Y-81095450D01*
X143925461Y-81095450D02*
X143877842Y-81131164D01*
X143877842Y-81131164D02*
X143782604Y-81131164D01*
X143782604Y-81131164D02*
X143734985Y-81095450D01*
X143734985Y-81095450D02*
X143687366Y-81024021D01*
X143687366Y-81024021D02*
X143663557Y-80881164D01*
X143663557Y-80881164D02*
X143663557Y-80631164D01*
X143663557Y-80631164D02*
X143687366Y-80488307D01*
X143687366Y-80488307D02*
X143734985Y-80416878D01*
X143734985Y-80416878D02*
X143782604Y-80381164D01*
X144449271Y-81131164D02*
X144211176Y-81131164D01*
X144211176Y-81131164D02*
X144211176Y-80381164D01*
X144830224Y-80631164D02*
X144830224Y-81131164D01*
X144711176Y-80345450D02*
X144592129Y-80881164D01*
X144592129Y-80881164D02*
X144901652Y-80881164D01*
X159114247Y-65232378D02*
X159066628Y-65196664D01*
X159066628Y-65196664D02*
X158995199Y-65196664D01*
X158995199Y-65196664D02*
X158923771Y-65232378D01*
X158923771Y-65232378D02*
X158876152Y-65303807D01*
X158876152Y-65303807D02*
X158852342Y-65375235D01*
X158852342Y-65375235D02*
X158828533Y-65518092D01*
X158828533Y-65518092D02*
X158828533Y-65625235D01*
X158828533Y-65625235D02*
X158852342Y-65768092D01*
X158852342Y-65768092D02*
X158876152Y-65839521D01*
X158876152Y-65839521D02*
X158923771Y-65910950D01*
X158923771Y-65910950D02*
X158995199Y-65946664D01*
X158995199Y-65946664D02*
X159042818Y-65946664D01*
X159042818Y-65946664D02*
X159114247Y-65910950D01*
X159114247Y-65910950D02*
X159138056Y-65875235D01*
X159138056Y-65875235D02*
X159138056Y-65625235D01*
X159138056Y-65625235D02*
X159042818Y-65625235D01*
X159352342Y-65946664D02*
X159352342Y-65196664D01*
X159352342Y-65196664D02*
X159638056Y-65946664D01*
X159638056Y-65946664D02*
X159638056Y-65196664D01*
X159876152Y-65946664D02*
X159876152Y-65196664D01*
X159876152Y-65196664D02*
X159995200Y-65196664D01*
X159995200Y-65196664D02*
X160066628Y-65232378D01*
X160066628Y-65232378D02*
X160114247Y-65303807D01*
X160114247Y-65303807D02*
X160138057Y-65375235D01*
X160138057Y-65375235D02*
X160161866Y-65518092D01*
X160161866Y-65518092D02*
X160161866Y-65625235D01*
X160161866Y-65625235D02*
X160138057Y-65768092D01*
X160138057Y-65768092D02*
X160114247Y-65839521D01*
X160114247Y-65839521D02*
X160066628Y-65910950D01*
X160066628Y-65910950D02*
X159995200Y-65946664D01*
X159995200Y-65946664D02*
X159876152Y-65946664D01*
X158968319Y-88413807D02*
X159039747Y-88449521D01*
X159039747Y-88449521D02*
X159063557Y-88485235D01*
X159063557Y-88485235D02*
X159087366Y-88556664D01*
X159087366Y-88556664D02*
X159087366Y-88663807D01*
X159087366Y-88663807D02*
X159063557Y-88735235D01*
X159063557Y-88735235D02*
X159039747Y-88770950D01*
X159039747Y-88770950D02*
X158992128Y-88806664D01*
X158992128Y-88806664D02*
X158801652Y-88806664D01*
X158801652Y-88806664D02*
X158801652Y-88056664D01*
X158801652Y-88056664D02*
X158968319Y-88056664D01*
X158968319Y-88056664D02*
X159015938Y-88092378D01*
X159015938Y-88092378D02*
X159039747Y-88128092D01*
X159039747Y-88128092D02*
X159063557Y-88199521D01*
X159063557Y-88199521D02*
X159063557Y-88270950D01*
X159063557Y-88270950D02*
X159039747Y-88342378D01*
X159039747Y-88342378D02*
X159015938Y-88378092D01*
X159015938Y-88378092D02*
X158968319Y-88413807D01*
X158968319Y-88413807D02*
X158801652Y-88413807D01*
X159539747Y-88056664D02*
X159301652Y-88056664D01*
X159301652Y-88056664D02*
X159277843Y-88413807D01*
X159277843Y-88413807D02*
X159301652Y-88378092D01*
X159301652Y-88378092D02*
X159349271Y-88342378D01*
X159349271Y-88342378D02*
X159468319Y-88342378D01*
X159468319Y-88342378D02*
X159515938Y-88378092D01*
X159515938Y-88378092D02*
X159539747Y-88413807D01*
X159539747Y-88413807D02*
X159563557Y-88485235D01*
X159563557Y-88485235D02*
X159563557Y-88663807D01*
X159563557Y-88663807D02*
X159539747Y-88735235D01*
X159539747Y-88735235D02*
X159515938Y-88770950D01*
X159515938Y-88770950D02*
X159468319Y-88806664D01*
X159468319Y-88806664D02*
X159349271Y-88806664D01*
X159349271Y-88806664D02*
X159301652Y-88770950D01*
X159301652Y-88770950D02*
X159277843Y-88735235D01*
X143718319Y-88388307D02*
X143789747Y-88424021D01*
X143789747Y-88424021D02*
X143813557Y-88459735D01*
X143813557Y-88459735D02*
X143837366Y-88531164D01*
X143837366Y-88531164D02*
X143837366Y-88638307D01*
X143837366Y-88638307D02*
X143813557Y-88709735D01*
X143813557Y-88709735D02*
X143789747Y-88745450D01*
X143789747Y-88745450D02*
X143742128Y-88781164D01*
X143742128Y-88781164D02*
X143551652Y-88781164D01*
X143551652Y-88781164D02*
X143551652Y-88031164D01*
X143551652Y-88031164D02*
X143718319Y-88031164D01*
X143718319Y-88031164D02*
X143765938Y-88066878D01*
X143765938Y-88066878D02*
X143789747Y-88102592D01*
X143789747Y-88102592D02*
X143813557Y-88174021D01*
X143813557Y-88174021D02*
X143813557Y-88245450D01*
X143813557Y-88245450D02*
X143789747Y-88316878D01*
X143789747Y-88316878D02*
X143765938Y-88352592D01*
X143765938Y-88352592D02*
X143718319Y-88388307D01*
X143718319Y-88388307D02*
X143551652Y-88388307D01*
X144265938Y-88031164D02*
X144170700Y-88031164D01*
X144170700Y-88031164D02*
X144123081Y-88066878D01*
X144123081Y-88066878D02*
X144099271Y-88102592D01*
X144099271Y-88102592D02*
X144051652Y-88209735D01*
X144051652Y-88209735D02*
X144027843Y-88352592D01*
X144027843Y-88352592D02*
X144027843Y-88638307D01*
X144027843Y-88638307D02*
X144051652Y-88709735D01*
X144051652Y-88709735D02*
X144075462Y-88745450D01*
X144075462Y-88745450D02*
X144123081Y-88781164D01*
X144123081Y-88781164D02*
X144218319Y-88781164D01*
X144218319Y-88781164D02*
X144265938Y-88745450D01*
X144265938Y-88745450D02*
X144289747Y-88709735D01*
X144289747Y-88709735D02*
X144313557Y-88638307D01*
X144313557Y-88638307D02*
X144313557Y-88459735D01*
X144313557Y-88459735D02*
X144289747Y-88388307D01*
X144289747Y-88388307D02*
X144265938Y-88352592D01*
X144265938Y-88352592D02*
X144218319Y-88316878D01*
X144218319Y-88316878D02*
X144123081Y-88316878D01*
X144123081Y-88316878D02*
X144075462Y-88352592D01*
X144075462Y-88352592D02*
X144051652Y-88388307D01*
X144051652Y-88388307D02*
X144027843Y-88459735D01*
X158968319Y-85810307D02*
X159039747Y-85846021D01*
X159039747Y-85846021D02*
X159063557Y-85881735D01*
X159063557Y-85881735D02*
X159087366Y-85953164D01*
X159087366Y-85953164D02*
X159087366Y-86060307D01*
X159087366Y-86060307D02*
X159063557Y-86131735D01*
X159063557Y-86131735D02*
X159039747Y-86167450D01*
X159039747Y-86167450D02*
X158992128Y-86203164D01*
X158992128Y-86203164D02*
X158801652Y-86203164D01*
X158801652Y-86203164D02*
X158801652Y-85453164D01*
X158801652Y-85453164D02*
X158968319Y-85453164D01*
X158968319Y-85453164D02*
X159015938Y-85488878D01*
X159015938Y-85488878D02*
X159039747Y-85524592D01*
X159039747Y-85524592D02*
X159063557Y-85596021D01*
X159063557Y-85596021D02*
X159063557Y-85667450D01*
X159063557Y-85667450D02*
X159039747Y-85738878D01*
X159039747Y-85738878D02*
X159015938Y-85774592D01*
X159015938Y-85774592D02*
X158968319Y-85810307D01*
X158968319Y-85810307D02*
X158801652Y-85810307D01*
X159515938Y-85703164D02*
X159515938Y-86203164D01*
X159396890Y-85417450D02*
X159277843Y-85953164D01*
X159277843Y-85953164D02*
X159587366Y-85953164D01*
X143818319Y-85838307D02*
X143889747Y-85874021D01*
X143889747Y-85874021D02*
X143913557Y-85909735D01*
X143913557Y-85909735D02*
X143937366Y-85981164D01*
X143937366Y-85981164D02*
X143937366Y-86088307D01*
X143937366Y-86088307D02*
X143913557Y-86159735D01*
X143913557Y-86159735D02*
X143889747Y-86195450D01*
X143889747Y-86195450D02*
X143842128Y-86231164D01*
X143842128Y-86231164D02*
X143651652Y-86231164D01*
X143651652Y-86231164D02*
X143651652Y-85481164D01*
X143651652Y-85481164D02*
X143818319Y-85481164D01*
X143818319Y-85481164D02*
X143865938Y-85516878D01*
X143865938Y-85516878D02*
X143889747Y-85552592D01*
X143889747Y-85552592D02*
X143913557Y-85624021D01*
X143913557Y-85624021D02*
X143913557Y-85695450D01*
X143913557Y-85695450D02*
X143889747Y-85766878D01*
X143889747Y-85766878D02*
X143865938Y-85802592D01*
X143865938Y-85802592D02*
X143818319Y-85838307D01*
X143818319Y-85838307D02*
X143651652Y-85838307D01*
X144127843Y-85552592D02*
X144151652Y-85516878D01*
X144151652Y-85516878D02*
X144199271Y-85481164D01*
X144199271Y-85481164D02*
X144318319Y-85481164D01*
X144318319Y-85481164D02*
X144365938Y-85516878D01*
X144365938Y-85516878D02*
X144389747Y-85552592D01*
X144389747Y-85552592D02*
X144413557Y-85624021D01*
X144413557Y-85624021D02*
X144413557Y-85695450D01*
X144413557Y-85695450D02*
X144389747Y-85802592D01*
X144389747Y-85802592D02*
X144104033Y-86231164D01*
X144104033Y-86231164D02*
X144413557Y-86231164D01*
X158836462Y-73467450D02*
X158907890Y-73503164D01*
X158907890Y-73503164D02*
X159026938Y-73503164D01*
X159026938Y-73503164D02*
X159074557Y-73467450D01*
X159074557Y-73467450D02*
X159098366Y-73431735D01*
X159098366Y-73431735D02*
X159122176Y-73360307D01*
X159122176Y-73360307D02*
X159122176Y-73288878D01*
X159122176Y-73288878D02*
X159098366Y-73217450D01*
X159098366Y-73217450D02*
X159074557Y-73181735D01*
X159074557Y-73181735D02*
X159026938Y-73146021D01*
X159026938Y-73146021D02*
X158931700Y-73110307D01*
X158931700Y-73110307D02*
X158884081Y-73074592D01*
X158884081Y-73074592D02*
X158860271Y-73038878D01*
X158860271Y-73038878D02*
X158836462Y-72967450D01*
X158836462Y-72967450D02*
X158836462Y-72896021D01*
X158836462Y-72896021D02*
X158860271Y-72824592D01*
X158860271Y-72824592D02*
X158884081Y-72788878D01*
X158884081Y-72788878D02*
X158931700Y-72753164D01*
X158931700Y-72753164D02*
X159050747Y-72753164D01*
X159050747Y-72753164D02*
X159122176Y-72788878D01*
X159622175Y-73431735D02*
X159598366Y-73467450D01*
X159598366Y-73467450D02*
X159526937Y-73503164D01*
X159526937Y-73503164D02*
X159479318Y-73503164D01*
X159479318Y-73503164D02*
X159407890Y-73467450D01*
X159407890Y-73467450D02*
X159360271Y-73396021D01*
X159360271Y-73396021D02*
X159336461Y-73324592D01*
X159336461Y-73324592D02*
X159312652Y-73181735D01*
X159312652Y-73181735D02*
X159312652Y-73074592D01*
X159312652Y-73074592D02*
X159336461Y-72931735D01*
X159336461Y-72931735D02*
X159360271Y-72860307D01*
X159360271Y-72860307D02*
X159407890Y-72788878D01*
X159407890Y-72788878D02*
X159479318Y-72753164D01*
X159479318Y-72753164D02*
X159526937Y-72753164D01*
X159526937Y-72753164D02*
X159598366Y-72788878D01*
X159598366Y-72788878D02*
X159622175Y-72824592D01*
X160074556Y-73503164D02*
X159836461Y-73503164D01*
X159836461Y-73503164D02*
X159836461Y-72753164D01*
X159149271Y-60803164D02*
X158911176Y-60803164D01*
X158911176Y-60803164D02*
X158911176Y-60053164D01*
X159315938Y-60410307D02*
X159482605Y-60410307D01*
X159554033Y-60803164D02*
X159315938Y-60803164D01*
X159315938Y-60803164D02*
X159315938Y-60053164D01*
X159315938Y-60053164D02*
X159554033Y-60053164D01*
X159768319Y-60803164D02*
X159768319Y-60053164D01*
X159768319Y-60053164D02*
X159887367Y-60053164D01*
X159887367Y-60053164D02*
X159958795Y-60088878D01*
X159958795Y-60088878D02*
X160006414Y-60160307D01*
X160006414Y-60160307D02*
X160030224Y-60231735D01*
X160030224Y-60231735D02*
X160054033Y-60374592D01*
X160054033Y-60374592D02*
X160054033Y-60481735D01*
X160054033Y-60481735D02*
X160030224Y-60624592D01*
X160030224Y-60624592D02*
X160006414Y-60696021D01*
X160006414Y-60696021D02*
X159958795Y-60767450D01*
X159958795Y-60767450D02*
X159887367Y-60803164D01*
X159887367Y-60803164D02*
X159768319Y-60803164D01*
X143588534Y-67673164D02*
X143755200Y-68423164D01*
X143755200Y-68423164D02*
X143921867Y-67673164D01*
X144374247Y-68351735D02*
X144350438Y-68387450D01*
X144350438Y-68387450D02*
X144279009Y-68423164D01*
X144279009Y-68423164D02*
X144231390Y-68423164D01*
X144231390Y-68423164D02*
X144159962Y-68387450D01*
X144159962Y-68387450D02*
X144112343Y-68316021D01*
X144112343Y-68316021D02*
X144088533Y-68244592D01*
X144088533Y-68244592D02*
X144064724Y-68101735D01*
X144064724Y-68101735D02*
X144064724Y-67994592D01*
X144064724Y-67994592D02*
X144088533Y-67851735D01*
X144088533Y-67851735D02*
X144112343Y-67780307D01*
X144112343Y-67780307D02*
X144159962Y-67708878D01*
X144159962Y-67708878D02*
X144231390Y-67673164D01*
X144231390Y-67673164D02*
X144279009Y-67673164D01*
X144279009Y-67673164D02*
X144350438Y-67708878D01*
X144350438Y-67708878D02*
X144374247Y-67744592D01*
X144874247Y-68351735D02*
X144850438Y-68387450D01*
X144850438Y-68387450D02*
X144779009Y-68423164D01*
X144779009Y-68423164D02*
X144731390Y-68423164D01*
X144731390Y-68423164D02*
X144659962Y-68387450D01*
X144659962Y-68387450D02*
X144612343Y-68316021D01*
X144612343Y-68316021D02*
X144588533Y-68244592D01*
X144588533Y-68244592D02*
X144564724Y-68101735D01*
X144564724Y-68101735D02*
X144564724Y-67994592D01*
X144564724Y-67994592D02*
X144588533Y-67851735D01*
X144588533Y-67851735D02*
X144612343Y-67780307D01*
X144612343Y-67780307D02*
X144659962Y-67708878D01*
X144659962Y-67708878D02*
X144731390Y-67673164D01*
X144731390Y-67673164D02*
X144779009Y-67673164D01*
X144779009Y-67673164D02*
X144850438Y-67708878D01*
X144850438Y-67708878D02*
X144874247Y-67744592D01*
X158539747Y-83726664D02*
X158373081Y-83369521D01*
X158254033Y-83726664D02*
X158254033Y-82976664D01*
X158254033Y-82976664D02*
X158444509Y-82976664D01*
X158444509Y-82976664D02*
X158492128Y-83012378D01*
X158492128Y-83012378D02*
X158515938Y-83048092D01*
X158515938Y-83048092D02*
X158539747Y-83119521D01*
X158539747Y-83119521D02*
X158539747Y-83226664D01*
X158539747Y-83226664D02*
X158515938Y-83298092D01*
X158515938Y-83298092D02*
X158492128Y-83333807D01*
X158492128Y-83333807D02*
X158444509Y-83369521D01*
X158444509Y-83369521D02*
X158254033Y-83369521D01*
X158849271Y-82976664D02*
X158944509Y-82976664D01*
X158944509Y-82976664D02*
X158992128Y-83012378D01*
X158992128Y-83012378D02*
X159039747Y-83083807D01*
X159039747Y-83083807D02*
X159063557Y-83226664D01*
X159063557Y-83226664D02*
X159063557Y-83476664D01*
X159063557Y-83476664D02*
X159039747Y-83619521D01*
X159039747Y-83619521D02*
X158992128Y-83690950D01*
X158992128Y-83690950D02*
X158944509Y-83726664D01*
X158944509Y-83726664D02*
X158849271Y-83726664D01*
X158849271Y-83726664D02*
X158801652Y-83690950D01*
X158801652Y-83690950D02*
X158754033Y-83619521D01*
X158754033Y-83619521D02*
X158730224Y-83476664D01*
X158730224Y-83476664D02*
X158730224Y-83226664D01*
X158730224Y-83226664D02*
X158754033Y-83083807D01*
X158754033Y-83083807D02*
X158801652Y-83012378D01*
X158801652Y-83012378D02*
X158849271Y-82976664D01*
X159230224Y-82976664D02*
X159349272Y-83726664D01*
X159349272Y-83726664D02*
X159444510Y-83190950D01*
X159444510Y-83190950D02*
X159539748Y-83726664D01*
X159539748Y-83726664D02*
X159658796Y-82976664D01*
X159801653Y-82976664D02*
X160111177Y-82976664D01*
X160111177Y-82976664D02*
X159944510Y-83262378D01*
X159944510Y-83262378D02*
X160015939Y-83262378D01*
X160015939Y-83262378D02*
X160063558Y-83298092D01*
X160063558Y-83298092D02*
X160087367Y-83333807D01*
X160087367Y-83333807D02*
X160111177Y-83405235D01*
X160111177Y-83405235D02*
X160111177Y-83583807D01*
X160111177Y-83583807D02*
X160087367Y-83655235D01*
X160087367Y-83655235D02*
X160063558Y-83690950D01*
X160063558Y-83690950D02*
X160015939Y-83726664D01*
X160015939Y-83726664D02*
X159873082Y-83726664D01*
X159873082Y-83726664D02*
X159825463Y-83690950D01*
X159825463Y-83690950D02*
X159801653Y-83655235D01*
X158824558Y-70927450D02*
X158895986Y-70963164D01*
X158895986Y-70963164D02*
X159015034Y-70963164D01*
X159015034Y-70963164D02*
X159062653Y-70927450D01*
X159062653Y-70927450D02*
X159086462Y-70891735D01*
X159086462Y-70891735D02*
X159110272Y-70820307D01*
X159110272Y-70820307D02*
X159110272Y-70748878D01*
X159110272Y-70748878D02*
X159086462Y-70677450D01*
X159086462Y-70677450D02*
X159062653Y-70641735D01*
X159062653Y-70641735D02*
X159015034Y-70606021D01*
X159015034Y-70606021D02*
X158919796Y-70570307D01*
X158919796Y-70570307D02*
X158872177Y-70534592D01*
X158872177Y-70534592D02*
X158848367Y-70498878D01*
X158848367Y-70498878D02*
X158824558Y-70427450D01*
X158824558Y-70427450D02*
X158824558Y-70356021D01*
X158824558Y-70356021D02*
X158848367Y-70284592D01*
X158848367Y-70284592D02*
X158872177Y-70248878D01*
X158872177Y-70248878D02*
X158919796Y-70213164D01*
X158919796Y-70213164D02*
X159038843Y-70213164D01*
X159038843Y-70213164D02*
X159110272Y-70248878D01*
X159324557Y-70963164D02*
X159324557Y-70213164D01*
X159324557Y-70213164D02*
X159443605Y-70213164D01*
X159443605Y-70213164D02*
X159515033Y-70248878D01*
X159515033Y-70248878D02*
X159562652Y-70320307D01*
X159562652Y-70320307D02*
X159586462Y-70391735D01*
X159586462Y-70391735D02*
X159610271Y-70534592D01*
X159610271Y-70534592D02*
X159610271Y-70641735D01*
X159610271Y-70641735D02*
X159586462Y-70784592D01*
X159586462Y-70784592D02*
X159562652Y-70856021D01*
X159562652Y-70856021D02*
X159515033Y-70927450D01*
X159515033Y-70927450D02*
X159443605Y-70963164D01*
X159443605Y-70963164D02*
X159324557Y-70963164D01*
X159800748Y-70748878D02*
X160038843Y-70748878D01*
X159753129Y-70963164D02*
X159919795Y-70213164D01*
X159919795Y-70213164D02*
X160086462Y-70963164D01*
X143423080Y-78559735D02*
X143399271Y-78595450D01*
X143399271Y-78595450D02*
X143327842Y-78631164D01*
X143327842Y-78631164D02*
X143280223Y-78631164D01*
X143280223Y-78631164D02*
X143208795Y-78595450D01*
X143208795Y-78595450D02*
X143161176Y-78524021D01*
X143161176Y-78524021D02*
X143137366Y-78452592D01*
X143137366Y-78452592D02*
X143113557Y-78309735D01*
X143113557Y-78309735D02*
X143113557Y-78202592D01*
X143113557Y-78202592D02*
X143137366Y-78059735D01*
X143137366Y-78059735D02*
X143161176Y-77988307D01*
X143161176Y-77988307D02*
X143208795Y-77916878D01*
X143208795Y-77916878D02*
X143280223Y-77881164D01*
X143280223Y-77881164D02*
X143327842Y-77881164D01*
X143327842Y-77881164D02*
X143399271Y-77916878D01*
X143399271Y-77916878D02*
X143423080Y-77952592D01*
X143732604Y-77881164D02*
X143827842Y-77881164D01*
X143827842Y-77881164D02*
X143875461Y-77916878D01*
X143875461Y-77916878D02*
X143923080Y-77988307D01*
X143923080Y-77988307D02*
X143946890Y-78131164D01*
X143946890Y-78131164D02*
X143946890Y-78381164D01*
X143946890Y-78381164D02*
X143923080Y-78524021D01*
X143923080Y-78524021D02*
X143875461Y-78595450D01*
X143875461Y-78595450D02*
X143827842Y-78631164D01*
X143827842Y-78631164D02*
X143732604Y-78631164D01*
X143732604Y-78631164D02*
X143684985Y-78595450D01*
X143684985Y-78595450D02*
X143637366Y-78524021D01*
X143637366Y-78524021D02*
X143613557Y-78381164D01*
X143613557Y-78381164D02*
X143613557Y-78131164D01*
X143613557Y-78131164D02*
X143637366Y-77988307D01*
X143637366Y-77988307D02*
X143684985Y-77916878D01*
X143684985Y-77916878D02*
X143732604Y-77881164D01*
X144399271Y-78631164D02*
X144161176Y-78631164D01*
X144161176Y-78631164D02*
X144161176Y-77881164D01*
X144518319Y-77881164D02*
X144827843Y-77881164D01*
X144827843Y-77881164D02*
X144661176Y-78166878D01*
X144661176Y-78166878D02*
X144732605Y-78166878D01*
X144732605Y-78166878D02*
X144780224Y-78202592D01*
X144780224Y-78202592D02*
X144804033Y-78238307D01*
X144804033Y-78238307D02*
X144827843Y-78309735D01*
X144827843Y-78309735D02*
X144827843Y-78488307D01*
X144827843Y-78488307D02*
X144804033Y-78559735D01*
X144804033Y-78559735D02*
X144780224Y-78595450D01*
X144780224Y-78595450D02*
X144732605Y-78631164D01*
X144732605Y-78631164D02*
X144589748Y-78631164D01*
X144589748Y-78631164D02*
X144542129Y-78595450D01*
X144542129Y-78595450D02*
X144518319Y-78559735D01*
X143573080Y-73431735D02*
X143549271Y-73467450D01*
X143549271Y-73467450D02*
X143477842Y-73503164D01*
X143477842Y-73503164D02*
X143430223Y-73503164D01*
X143430223Y-73503164D02*
X143358795Y-73467450D01*
X143358795Y-73467450D02*
X143311176Y-73396021D01*
X143311176Y-73396021D02*
X143287366Y-73324592D01*
X143287366Y-73324592D02*
X143263557Y-73181735D01*
X143263557Y-73181735D02*
X143263557Y-73074592D01*
X143263557Y-73074592D02*
X143287366Y-72931735D01*
X143287366Y-72931735D02*
X143311176Y-72860307D01*
X143311176Y-72860307D02*
X143358795Y-72788878D01*
X143358795Y-72788878D02*
X143430223Y-72753164D01*
X143430223Y-72753164D02*
X143477842Y-72753164D01*
X143477842Y-72753164D02*
X143549271Y-72788878D01*
X143549271Y-72788878D02*
X143573080Y-72824592D01*
X143882604Y-72753164D02*
X143977842Y-72753164D01*
X143977842Y-72753164D02*
X144025461Y-72788878D01*
X144025461Y-72788878D02*
X144073080Y-72860307D01*
X144073080Y-72860307D02*
X144096890Y-73003164D01*
X144096890Y-73003164D02*
X144096890Y-73253164D01*
X144096890Y-73253164D02*
X144073080Y-73396021D01*
X144073080Y-73396021D02*
X144025461Y-73467450D01*
X144025461Y-73467450D02*
X143977842Y-73503164D01*
X143977842Y-73503164D02*
X143882604Y-73503164D01*
X143882604Y-73503164D02*
X143834985Y-73467450D01*
X143834985Y-73467450D02*
X143787366Y-73396021D01*
X143787366Y-73396021D02*
X143763557Y-73253164D01*
X143763557Y-73253164D02*
X143763557Y-73003164D01*
X143763557Y-73003164D02*
X143787366Y-72860307D01*
X143787366Y-72860307D02*
X143834985Y-72788878D01*
X143834985Y-72788878D02*
X143882604Y-72753164D01*
X144549271Y-73503164D02*
X144311176Y-73503164D01*
X144311176Y-73503164D02*
X144311176Y-72753164D01*
X144977843Y-73503164D02*
X144692129Y-73503164D01*
X144834986Y-73503164D02*
X144834986Y-72753164D01*
X144834986Y-72753164D02*
X144787367Y-72860307D01*
X144787367Y-72860307D02*
X144739748Y-72931735D01*
X144739748Y-72931735D02*
X144692129Y-72967450D01*
X143874247Y-62628878D02*
X143826628Y-62593164D01*
X143826628Y-62593164D02*
X143755199Y-62593164D01*
X143755199Y-62593164D02*
X143683771Y-62628878D01*
X143683771Y-62628878D02*
X143636152Y-62700307D01*
X143636152Y-62700307D02*
X143612342Y-62771735D01*
X143612342Y-62771735D02*
X143588533Y-62914592D01*
X143588533Y-62914592D02*
X143588533Y-63021735D01*
X143588533Y-63021735D02*
X143612342Y-63164592D01*
X143612342Y-63164592D02*
X143636152Y-63236021D01*
X143636152Y-63236021D02*
X143683771Y-63307450D01*
X143683771Y-63307450D02*
X143755199Y-63343164D01*
X143755199Y-63343164D02*
X143802818Y-63343164D01*
X143802818Y-63343164D02*
X143874247Y-63307450D01*
X143874247Y-63307450D02*
X143898056Y-63271735D01*
X143898056Y-63271735D02*
X143898056Y-63021735D01*
X143898056Y-63021735D02*
X143802818Y-63021735D01*
X144112342Y-63343164D02*
X144112342Y-62593164D01*
X144112342Y-62593164D02*
X144398056Y-63343164D01*
X144398056Y-63343164D02*
X144398056Y-62593164D01*
X144636152Y-63343164D02*
X144636152Y-62593164D01*
X144636152Y-62593164D02*
X144755200Y-62593164D01*
X144755200Y-62593164D02*
X144826628Y-62628878D01*
X144826628Y-62628878D02*
X144874247Y-62700307D01*
X144874247Y-62700307D02*
X144898057Y-62771735D01*
X144898057Y-62771735D02*
X144921866Y-62914592D01*
X144921866Y-62914592D02*
X144921866Y-63021735D01*
X144921866Y-63021735D02*
X144898057Y-63164592D01*
X144898057Y-63164592D02*
X144874247Y-63236021D01*
X144874247Y-63236021D02*
X144826628Y-63307450D01*
X144826628Y-63307450D02*
X144755200Y-63343164D01*
X144755200Y-63343164D02*
X144636152Y-63343164D01*
X143473080Y-83655235D02*
X143449271Y-83690950D01*
X143449271Y-83690950D02*
X143377842Y-83726664D01*
X143377842Y-83726664D02*
X143330223Y-83726664D01*
X143330223Y-83726664D02*
X143258795Y-83690950D01*
X143258795Y-83690950D02*
X143211176Y-83619521D01*
X143211176Y-83619521D02*
X143187366Y-83548092D01*
X143187366Y-83548092D02*
X143163557Y-83405235D01*
X143163557Y-83405235D02*
X143163557Y-83298092D01*
X143163557Y-83298092D02*
X143187366Y-83155235D01*
X143187366Y-83155235D02*
X143211176Y-83083807D01*
X143211176Y-83083807D02*
X143258795Y-83012378D01*
X143258795Y-83012378D02*
X143330223Y-82976664D01*
X143330223Y-82976664D02*
X143377842Y-82976664D01*
X143377842Y-82976664D02*
X143449271Y-83012378D01*
X143449271Y-83012378D02*
X143473080Y-83048092D01*
X143782604Y-82976664D02*
X143877842Y-82976664D01*
X143877842Y-82976664D02*
X143925461Y-83012378D01*
X143925461Y-83012378D02*
X143973080Y-83083807D01*
X143973080Y-83083807D02*
X143996890Y-83226664D01*
X143996890Y-83226664D02*
X143996890Y-83476664D01*
X143996890Y-83476664D02*
X143973080Y-83619521D01*
X143973080Y-83619521D02*
X143925461Y-83690950D01*
X143925461Y-83690950D02*
X143877842Y-83726664D01*
X143877842Y-83726664D02*
X143782604Y-83726664D01*
X143782604Y-83726664D02*
X143734985Y-83690950D01*
X143734985Y-83690950D02*
X143687366Y-83619521D01*
X143687366Y-83619521D02*
X143663557Y-83476664D01*
X143663557Y-83476664D02*
X143663557Y-83226664D01*
X143663557Y-83226664D02*
X143687366Y-83083807D01*
X143687366Y-83083807D02*
X143734985Y-83012378D01*
X143734985Y-83012378D02*
X143782604Y-82976664D01*
X144449271Y-83726664D02*
X144211176Y-83726664D01*
X144211176Y-83726664D02*
X144211176Y-82976664D01*
X144854033Y-82976664D02*
X144615938Y-82976664D01*
X144615938Y-82976664D02*
X144592129Y-83333807D01*
X144592129Y-83333807D02*
X144615938Y-83298092D01*
X144615938Y-83298092D02*
X144663557Y-83262378D01*
X144663557Y-83262378D02*
X144782605Y-83262378D01*
X144782605Y-83262378D02*
X144830224Y-83298092D01*
X144830224Y-83298092D02*
X144854033Y-83333807D01*
X144854033Y-83333807D02*
X144877843Y-83405235D01*
X144877843Y-83405235D02*
X144877843Y-83583807D01*
X144877843Y-83583807D02*
X144854033Y-83655235D01*
X144854033Y-83655235D02*
X144830224Y-83690950D01*
X144830224Y-83690950D02*
X144782605Y-83726664D01*
X144782605Y-83726664D02*
X144663557Y-83726664D01*
X144663557Y-83726664D02*
X144615938Y-83690950D01*
X144615938Y-83690950D02*
X144592129Y-83655235D01*
X158589747Y-78583164D02*
X158423081Y-78226021D01*
X158304033Y-78583164D02*
X158304033Y-77833164D01*
X158304033Y-77833164D02*
X158494509Y-77833164D01*
X158494509Y-77833164D02*
X158542128Y-77868878D01*
X158542128Y-77868878D02*
X158565938Y-77904592D01*
X158565938Y-77904592D02*
X158589747Y-77976021D01*
X158589747Y-77976021D02*
X158589747Y-78083164D01*
X158589747Y-78083164D02*
X158565938Y-78154592D01*
X158565938Y-78154592D02*
X158542128Y-78190307D01*
X158542128Y-78190307D02*
X158494509Y-78226021D01*
X158494509Y-78226021D02*
X158304033Y-78226021D01*
X158899271Y-77833164D02*
X158994509Y-77833164D01*
X158994509Y-77833164D02*
X159042128Y-77868878D01*
X159042128Y-77868878D02*
X159089747Y-77940307D01*
X159089747Y-77940307D02*
X159113557Y-78083164D01*
X159113557Y-78083164D02*
X159113557Y-78333164D01*
X159113557Y-78333164D02*
X159089747Y-78476021D01*
X159089747Y-78476021D02*
X159042128Y-78547450D01*
X159042128Y-78547450D02*
X158994509Y-78583164D01*
X158994509Y-78583164D02*
X158899271Y-78583164D01*
X158899271Y-78583164D02*
X158851652Y-78547450D01*
X158851652Y-78547450D02*
X158804033Y-78476021D01*
X158804033Y-78476021D02*
X158780224Y-78333164D01*
X158780224Y-78333164D02*
X158780224Y-78083164D01*
X158780224Y-78083164D02*
X158804033Y-77940307D01*
X158804033Y-77940307D02*
X158851652Y-77868878D01*
X158851652Y-77868878D02*
X158899271Y-77833164D01*
X159280224Y-77833164D02*
X159399272Y-78583164D01*
X159399272Y-78583164D02*
X159494510Y-78047450D01*
X159494510Y-78047450D02*
X159589748Y-78583164D01*
X159589748Y-78583164D02*
X159708796Y-77833164D01*
X160161177Y-78583164D02*
X159875463Y-78583164D01*
X160018320Y-78583164D02*
X160018320Y-77833164D01*
X160018320Y-77833164D02*
X159970701Y-77940307D01*
X159970701Y-77940307D02*
X159923082Y-78011735D01*
X159923082Y-78011735D02*
X159875463Y-78047450D01*
X158570700Y-63331164D02*
X158570700Y-62581164D01*
X158570700Y-62581164D02*
X158689748Y-62581164D01*
X158689748Y-62581164D02*
X158761176Y-62616878D01*
X158761176Y-62616878D02*
X158808795Y-62688307D01*
X158808795Y-62688307D02*
X158832605Y-62759735D01*
X158832605Y-62759735D02*
X158856414Y-62902592D01*
X158856414Y-62902592D02*
X158856414Y-63009735D01*
X158856414Y-63009735D02*
X158832605Y-63152592D01*
X158832605Y-63152592D02*
X158808795Y-63224021D01*
X158808795Y-63224021D02*
X158761176Y-63295450D01*
X158761176Y-63295450D02*
X158689748Y-63331164D01*
X158689748Y-63331164D02*
X158570700Y-63331164D01*
X159046891Y-63116878D02*
X159284986Y-63116878D01*
X158999272Y-63331164D02*
X159165938Y-62581164D01*
X159165938Y-62581164D02*
X159332605Y-63331164D01*
X159427843Y-62581164D02*
X159713557Y-62581164D01*
X159570700Y-63331164D02*
X159570700Y-62581164D01*
X159856414Y-63116878D02*
X160094509Y-63116878D01*
X159808795Y-63331164D02*
X159975461Y-62581164D01*
X159975461Y-62581164D02*
X160142128Y-63331164D01*
X159050747Y-67772378D02*
X159003128Y-67736664D01*
X159003128Y-67736664D02*
X158931699Y-67736664D01*
X158931699Y-67736664D02*
X158860271Y-67772378D01*
X158860271Y-67772378D02*
X158812652Y-67843807D01*
X158812652Y-67843807D02*
X158788842Y-67915235D01*
X158788842Y-67915235D02*
X158765033Y-68058092D01*
X158765033Y-68058092D02*
X158765033Y-68165235D01*
X158765033Y-68165235D02*
X158788842Y-68308092D01*
X158788842Y-68308092D02*
X158812652Y-68379521D01*
X158812652Y-68379521D02*
X158860271Y-68450950D01*
X158860271Y-68450950D02*
X158931699Y-68486664D01*
X158931699Y-68486664D02*
X158979318Y-68486664D01*
X158979318Y-68486664D02*
X159050747Y-68450950D01*
X159050747Y-68450950D02*
X159074556Y-68415235D01*
X159074556Y-68415235D02*
X159074556Y-68165235D01*
X159074556Y-68165235D02*
X158979318Y-68165235D01*
X159288842Y-68486664D02*
X159288842Y-67736664D01*
X159288842Y-67736664D02*
X159574556Y-68486664D01*
X159574556Y-68486664D02*
X159574556Y-67736664D01*
X159812652Y-68486664D02*
X159812652Y-67736664D01*
X159812652Y-67736664D02*
X159931700Y-67736664D01*
X159931700Y-67736664D02*
X160003128Y-67772378D01*
X160003128Y-67772378D02*
X160050747Y-67843807D01*
X160050747Y-67843807D02*
X160074557Y-67915235D01*
X160074557Y-67915235D02*
X160098366Y-68058092D01*
X160098366Y-68058092D02*
X160098366Y-68165235D01*
X160098366Y-68165235D02*
X160074557Y-68308092D01*
X160074557Y-68308092D02*
X160050747Y-68379521D01*
X160050747Y-68379521D02*
X160003128Y-68450950D01*
X160003128Y-68450950D02*
X159931700Y-68486664D01*
X159931700Y-68486664D02*
X159812652Y-68486664D01*
X143981390Y-65946664D02*
X143814724Y-65589521D01*
X143695676Y-65946664D02*
X143695676Y-65196664D01*
X143695676Y-65196664D02*
X143886152Y-65196664D01*
X143886152Y-65196664D02*
X143933771Y-65232378D01*
X143933771Y-65232378D02*
X143957581Y-65268092D01*
X143957581Y-65268092D02*
X143981390Y-65339521D01*
X143981390Y-65339521D02*
X143981390Y-65446664D01*
X143981390Y-65446664D02*
X143957581Y-65518092D01*
X143957581Y-65518092D02*
X143933771Y-65553807D01*
X143933771Y-65553807D02*
X143886152Y-65589521D01*
X143886152Y-65589521D02*
X143695676Y-65589521D01*
X144171867Y-65910950D02*
X144243295Y-65946664D01*
X144243295Y-65946664D02*
X144362343Y-65946664D01*
X144362343Y-65946664D02*
X144409962Y-65910950D01*
X144409962Y-65910950D02*
X144433771Y-65875235D01*
X144433771Y-65875235D02*
X144457581Y-65803807D01*
X144457581Y-65803807D02*
X144457581Y-65732378D01*
X144457581Y-65732378D02*
X144433771Y-65660950D01*
X144433771Y-65660950D02*
X144409962Y-65625235D01*
X144409962Y-65625235D02*
X144362343Y-65589521D01*
X144362343Y-65589521D02*
X144267105Y-65553807D01*
X144267105Y-65553807D02*
X144219486Y-65518092D01*
X144219486Y-65518092D02*
X144195676Y-65482378D01*
X144195676Y-65482378D02*
X144171867Y-65410950D01*
X144171867Y-65410950D02*
X144171867Y-65339521D01*
X144171867Y-65339521D02*
X144195676Y-65268092D01*
X144195676Y-65268092D02*
X144219486Y-65232378D01*
X144219486Y-65232378D02*
X144267105Y-65196664D01*
X144267105Y-65196664D02*
X144386152Y-65196664D01*
X144386152Y-65196664D02*
X144457581Y-65232378D01*
X144600438Y-65196664D02*
X144886152Y-65196664D01*
X144743295Y-65946664D02*
X144743295Y-65196664D01*
D11*
X152176713Y-96494636D02*
X152026349Y-95933157D01*
X151639746Y-96299196D02*
X151981766Y-95359503D01*
X151981766Y-95359503D02*
X152339744Y-95489797D01*
X152339744Y-95489797D02*
X152412952Y-95567117D01*
X152412952Y-95567117D02*
X152441413Y-95628151D01*
X152441413Y-95628151D02*
X152453587Y-95733933D01*
X152453587Y-95733933D02*
X152404727Y-95868174D01*
X152404727Y-95868174D02*
X152327406Y-95941382D01*
X152327406Y-95941382D02*
X152266372Y-95969843D01*
X152266372Y-95969843D02*
X152160591Y-95982017D01*
X152160591Y-95982017D02*
X151802613Y-95851723D01*
X152953704Y-96726762D02*
X152847922Y-96738936D01*
X152847922Y-96738936D02*
X152668933Y-96673790D01*
X152668933Y-96673790D02*
X152595725Y-96596469D01*
X152595725Y-96596469D02*
X152583551Y-96490688D01*
X152583551Y-96490688D02*
X152713845Y-96132710D01*
X152713845Y-96132710D02*
X152791165Y-96059502D01*
X152791165Y-96059502D02*
X152896947Y-96047328D01*
X152896947Y-96047328D02*
X153075936Y-96112474D01*
X153075936Y-96112474D02*
X153149144Y-96189795D01*
X153149144Y-96189795D02*
X153161318Y-96295576D01*
X153161318Y-96295576D02*
X153128744Y-96385071D01*
X153128744Y-96385071D02*
X152648698Y-96311699D01*
X153356429Y-96873342D02*
X153429637Y-96950663D01*
X153429637Y-96950663D02*
X153608626Y-97015810D01*
X153608626Y-97015810D02*
X153714407Y-97003636D01*
X153714407Y-97003636D02*
X153791728Y-96930428D01*
X153791728Y-96930428D02*
X153808015Y-96885681D01*
X153808015Y-96885681D02*
X153795841Y-96779899D01*
X153795841Y-96779899D02*
X153722633Y-96702579D01*
X153722633Y-96702579D02*
X153588391Y-96653719D01*
X153588391Y-96653719D02*
X153515183Y-96576398D01*
X153515183Y-96576398D02*
X153503009Y-96470617D01*
X153503009Y-96470617D02*
X153519296Y-96425870D01*
X153519296Y-96425870D02*
X153596616Y-96352662D01*
X153596616Y-96352662D02*
X153702398Y-96340488D01*
X153702398Y-96340488D02*
X153836639Y-96389348D01*
X153836639Y-96389348D02*
X153909847Y-96466669D01*
X154519858Y-97296796D02*
X154414077Y-97308970D01*
X154414077Y-97308970D02*
X154235088Y-97243823D01*
X154235088Y-97243823D02*
X154161880Y-97166503D01*
X154161880Y-97166503D02*
X154149706Y-97060721D01*
X154149706Y-97060721D02*
X154280000Y-96702743D01*
X154280000Y-96702743D02*
X154357320Y-96629535D01*
X154357320Y-96629535D02*
X154463101Y-96617361D01*
X154463101Y-96617361D02*
X154642090Y-96682508D01*
X154642090Y-96682508D02*
X154715298Y-96759829D01*
X154715298Y-96759829D02*
X154727472Y-96865610D01*
X154727472Y-96865610D02*
X154694899Y-96955105D01*
X154694899Y-96955105D02*
X154214853Y-96881732D01*
X155044816Y-96829088D02*
X155402794Y-96959382D01*
X155293064Y-96564717D02*
X154999904Y-97370168D01*
X154999904Y-97370168D02*
X155012078Y-97475949D01*
X155012078Y-97475949D02*
X155085286Y-97553270D01*
X155085286Y-97553270D02*
X155174781Y-97585843D01*
X149584986Y-57772900D02*
X149727843Y-57820519D01*
X149727843Y-57820519D02*
X149965938Y-57820519D01*
X149965938Y-57820519D02*
X150061176Y-57772900D01*
X150061176Y-57772900D02*
X150108795Y-57725280D01*
X150108795Y-57725280D02*
X150156414Y-57630042D01*
X150156414Y-57630042D02*
X150156414Y-57534804D01*
X150156414Y-57534804D02*
X150108795Y-57439566D01*
X150108795Y-57439566D02*
X150061176Y-57391947D01*
X150061176Y-57391947D02*
X149965938Y-57344328D01*
X149965938Y-57344328D02*
X149775462Y-57296709D01*
X149775462Y-57296709D02*
X149680224Y-57249090D01*
X149680224Y-57249090D02*
X149632605Y-57201471D01*
X149632605Y-57201471D02*
X149584986Y-57106233D01*
X149584986Y-57106233D02*
X149584986Y-57010995D01*
X149584986Y-57010995D02*
X149632605Y-56915757D01*
X149632605Y-56915757D02*
X149680224Y-56868138D01*
X149680224Y-56868138D02*
X149775462Y-56820519D01*
X149775462Y-56820519D02*
X150013557Y-56820519D01*
X150013557Y-56820519D02*
X150156414Y-56868138D01*
X150489748Y-56820519D02*
X150727843Y-57820519D01*
X150727843Y-57820519D02*
X150918319Y-57106233D01*
X150918319Y-57106233D02*
X151108795Y-57820519D01*
X151108795Y-57820519D02*
X151346891Y-56820519D01*
X151489748Y-57915757D02*
X152251652Y-57915757D01*
X152489748Y-57820519D02*
X152489748Y-56820519D01*
X152489748Y-56820519D02*
X152870700Y-56820519D01*
X152870700Y-56820519D02*
X152965938Y-56868138D01*
X152965938Y-56868138D02*
X153013557Y-56915757D01*
X153013557Y-56915757D02*
X153061176Y-57010995D01*
X153061176Y-57010995D02*
X153061176Y-57153852D01*
X153061176Y-57153852D02*
X153013557Y-57249090D01*
X153013557Y-57249090D02*
X152965938Y-57296709D01*
X152965938Y-57296709D02*
X152870700Y-57344328D01*
X152870700Y-57344328D02*
X152489748Y-57344328D01*
X153680224Y-56820519D02*
X153870700Y-56820519D01*
X153870700Y-56820519D02*
X153965938Y-56868138D01*
X153965938Y-56868138D02*
X154061176Y-56963376D01*
X154061176Y-56963376D02*
X154108795Y-57153852D01*
X154108795Y-57153852D02*
X154108795Y-57487185D01*
X154108795Y-57487185D02*
X154061176Y-57677661D01*
X154061176Y-57677661D02*
X153965938Y-57772900D01*
X153965938Y-57772900D02*
X153870700Y-57820519D01*
X153870700Y-57820519D02*
X153680224Y-57820519D01*
X153680224Y-57820519D02*
X153584986Y-57772900D01*
X153584986Y-57772900D02*
X153489748Y-57677661D01*
X153489748Y-57677661D02*
X153442129Y-57487185D01*
X153442129Y-57487185D02*
X153442129Y-57153852D01*
X153442129Y-57153852D02*
X153489748Y-56963376D01*
X153489748Y-56963376D02*
X153584986Y-56868138D01*
X153584986Y-56868138D02*
X153680224Y-56820519D01*
X154442129Y-56820519D02*
X154680224Y-57820519D01*
X154680224Y-57820519D02*
X154870700Y-57106233D01*
X154870700Y-57106233D02*
X155061176Y-57820519D01*
X155061176Y-57820519D02*
X155299272Y-56820519D01*
X155680224Y-57296709D02*
X156013557Y-57296709D01*
X156156414Y-57820519D02*
X155680224Y-57820519D01*
X155680224Y-57820519D02*
X155680224Y-56820519D01*
X155680224Y-56820519D02*
X156156414Y-56820519D01*
X157156414Y-57820519D02*
X156823081Y-57344328D01*
X156584986Y-57820519D02*
X156584986Y-56820519D01*
X156584986Y-56820519D02*
X156965938Y-56820519D01*
X156965938Y-56820519D02*
X157061176Y-56868138D01*
X157061176Y-56868138D02*
X157108795Y-56915757D01*
X157108795Y-56915757D02*
X157156414Y-57010995D01*
X157156414Y-57010995D02*
X157156414Y-57153852D01*
X157156414Y-57153852D02*
X157108795Y-57249090D01*
X157108795Y-57249090D02*
X157061176Y-57296709D01*
X157061176Y-57296709D02*
X156965938Y-57344328D01*
X156965938Y-57344328D02*
X156584986Y-57344328D01*
X146601424Y-56172321D02*
X146524014Y-56133616D01*
X146524014Y-56133616D02*
X146407900Y-56133616D01*
X146407900Y-56133616D02*
X146291786Y-56172321D01*
X146291786Y-56172321D02*
X146214376Y-56249731D01*
X146214376Y-56249731D02*
X146175671Y-56327140D01*
X146175671Y-56327140D02*
X146136967Y-56481959D01*
X146136967Y-56481959D02*
X146136967Y-56598073D01*
X146136967Y-56598073D02*
X146175671Y-56752892D01*
X146175671Y-56752892D02*
X146214376Y-56830302D01*
X146214376Y-56830302D02*
X146291786Y-56907712D01*
X146291786Y-56907712D02*
X146407900Y-56946416D01*
X146407900Y-56946416D02*
X146485309Y-56946416D01*
X146485309Y-56946416D02*
X146601424Y-56907712D01*
X146601424Y-56907712D02*
X146640128Y-56869007D01*
X146640128Y-56869007D02*
X146640128Y-56598073D01*
X146640128Y-56598073D02*
X146485309Y-56598073D01*
X146988471Y-56946416D02*
X146988471Y-56133616D01*
X146988471Y-56133616D02*
X147452928Y-56946416D01*
X147452928Y-56946416D02*
X147452928Y-56133616D01*
X147839976Y-56946416D02*
X147839976Y-56133616D01*
X147839976Y-56133616D02*
X148033500Y-56133616D01*
X148033500Y-56133616D02*
X148149614Y-56172321D01*
X148149614Y-56172321D02*
X148227024Y-56249731D01*
X148227024Y-56249731D02*
X148265729Y-56327140D01*
X148265729Y-56327140D02*
X148304433Y-56481959D01*
X148304433Y-56481959D02*
X148304433Y-56598073D01*
X148304433Y-56598073D02*
X148265729Y-56752892D01*
X148265729Y-56752892D02*
X148227024Y-56830302D01*
X148227024Y-56830302D02*
X148149614Y-56907712D01*
X148149614Y-56907712D02*
X148033500Y-56946416D01*
X148033500Y-56946416D02*
X147839976Y-56946416D01*
X158575672Y-56545664D02*
X158691786Y-56584369D01*
X158691786Y-56584369D02*
X158730491Y-56623073D01*
X158730491Y-56623073D02*
X158769195Y-56700483D01*
X158769195Y-56700483D02*
X158769195Y-56816597D01*
X158769195Y-56816597D02*
X158730491Y-56894007D01*
X158730491Y-56894007D02*
X158691786Y-56932712D01*
X158691786Y-56932712D02*
X158614376Y-56971416D01*
X158614376Y-56971416D02*
X158304738Y-56971416D01*
X158304738Y-56971416D02*
X158304738Y-56158616D01*
X158304738Y-56158616D02*
X158575672Y-56158616D01*
X158575672Y-56158616D02*
X158653081Y-56197321D01*
X158653081Y-56197321D02*
X158691786Y-56236026D01*
X158691786Y-56236026D02*
X158730491Y-56313435D01*
X158730491Y-56313435D02*
X158730491Y-56390845D01*
X158730491Y-56390845D02*
X158691786Y-56468254D01*
X158691786Y-56468254D02*
X158653081Y-56506959D01*
X158653081Y-56506959D02*
X158575672Y-56545664D01*
X158575672Y-56545664D02*
X158304738Y-56545664D01*
X159465881Y-56971416D02*
X159465881Y-56545664D01*
X159465881Y-56545664D02*
X159427176Y-56468254D01*
X159427176Y-56468254D02*
X159349767Y-56429550D01*
X159349767Y-56429550D02*
X159194948Y-56429550D01*
X159194948Y-56429550D02*
X159117538Y-56468254D01*
X159465881Y-56932712D02*
X159388472Y-56971416D01*
X159388472Y-56971416D02*
X159194948Y-56971416D01*
X159194948Y-56971416D02*
X159117538Y-56932712D01*
X159117538Y-56932712D02*
X159078834Y-56855302D01*
X159078834Y-56855302D02*
X159078834Y-56777892D01*
X159078834Y-56777892D02*
X159117538Y-56700483D01*
X159117538Y-56700483D02*
X159194948Y-56661778D01*
X159194948Y-56661778D02*
X159388472Y-56661778D01*
X159388472Y-56661778D02*
X159465881Y-56623073D01*
X159736814Y-56429550D02*
X160046452Y-56429550D01*
X159852928Y-56158616D02*
X159852928Y-56855302D01*
X159852928Y-56855302D02*
X159891633Y-56932712D01*
X159891633Y-56932712D02*
X159969043Y-56971416D01*
X159969043Y-56971416D02*
X160046452Y-56971416D01*
X160317385Y-56661778D02*
X160936662Y-56661778D01*
X160627023Y-56971416D02*
X160627023Y-56352140D01*
X65120700Y-62515700D02*
X66020700Y-63015700D01*
X66020700Y-63015700D02*
X65120700Y-63515700D01*
X66120700Y-63515700D02*
X66120700Y-62515700D01*
X65120700Y-63515700D02*
X65120700Y-62515700D01*
X68320700Y-62265700D02*
X62920700Y-62265700D01*
X68320700Y-63765700D02*
X68320700Y-62265700D01*
X62920700Y-63765700D02*
X68320700Y-63765700D01*
X62920700Y-63765700D02*
X62920700Y-62265700D01*
X79920700Y-53015700D02*
X79920700Y-51515700D01*
X83120700Y-52765700D02*
X83120700Y-51765700D01*
X82120700Y-52765700D02*
X82120700Y-51765700D01*
X82120700Y-51765700D02*
X83020700Y-52265700D01*
X85320700Y-53015700D02*
X85320700Y-51515700D01*
X79920700Y-53015700D02*
X85320700Y-53015700D01*
X83020700Y-52265700D02*
X82120700Y-52765700D01*
X85320700Y-51515700D02*
X79920700Y-51515700D01*
X99120700Y-48390700D02*
X100020700Y-48890700D01*
X100020700Y-48890700D02*
X99120700Y-49390700D01*
X100120700Y-49390700D02*
X100120700Y-48390700D01*
X96920700Y-49640700D02*
X96920700Y-48140700D01*
X96920700Y-49640700D02*
X102320700Y-49640700D01*
X102320700Y-49640700D02*
X102320700Y-48140700D01*
X102320700Y-48140700D02*
X96920700Y-48140700D01*
X99120700Y-49390700D02*
X99120700Y-48390700D01*
X117120700Y-56765700D02*
X117120700Y-55765700D01*
X116120700Y-55765700D02*
X117020700Y-56265700D01*
X113920700Y-57015700D02*
X119320700Y-57015700D01*
X117020700Y-56265700D02*
X116120700Y-56765700D01*
X113920700Y-57015700D02*
X113920700Y-55515700D01*
X119320700Y-55515700D02*
X113920700Y-55515700D01*
X119320700Y-57015700D02*
X119320700Y-55515700D01*
X116120700Y-56765700D02*
X116120700Y-55765700D01*
X133170700Y-57015700D02*
X134070700Y-57515700D01*
X134170700Y-58015700D02*
X134170700Y-57015700D01*
X136370700Y-58265700D02*
X136370700Y-56765700D01*
X133170700Y-58015700D02*
X133170700Y-57015700D01*
X130970700Y-58265700D02*
X130970700Y-56765700D01*
X134070700Y-57515700D02*
X133170700Y-58015700D01*
X136370700Y-56765700D02*
X130970700Y-56765700D01*
X130970700Y-58265700D02*
X136370700Y-58265700D01*
X45645700Y-87415700D02*
X44145700Y-87415700D01*
X45645700Y-82015700D02*
X44145700Y-82015700D01*
X44145700Y-82015700D02*
X44145700Y-87415700D01*
X45645700Y-87415700D02*
X45645700Y-82015700D01*
X44895700Y-84315700D02*
X45395700Y-85215700D01*
X44395700Y-85215700D02*
X44895700Y-84315700D01*
X45395700Y-85215700D02*
X44395700Y-85215700D01*
X45395700Y-84215700D02*
X44395700Y-84215700D01*
X66120700Y-80015700D02*
X65220700Y-80515700D01*
X65220700Y-79515700D02*
X66120700Y-80015700D01*
X66220700Y-80515700D02*
X66220700Y-79515700D01*
X68420700Y-80765700D02*
X68420700Y-79265700D01*
X63020700Y-80765700D02*
X68420700Y-80765700D01*
X63020700Y-80765700D02*
X63020700Y-79265700D01*
X68420700Y-79265700D02*
X63020700Y-79265700D01*
X65220700Y-80515700D02*
X65220700Y-79515700D01*
X82220700Y-69765700D02*
X82220700Y-68765700D01*
X80020700Y-70015700D02*
X85420700Y-70015700D01*
X80020700Y-70015700D02*
X80020700Y-68515700D01*
X85420700Y-70015700D02*
X85420700Y-68515700D01*
X82220700Y-68765700D02*
X83120700Y-69265700D01*
X85420700Y-68515700D02*
X80020700Y-68515700D01*
X83220700Y-69765700D02*
X83220700Y-68765700D01*
X83120700Y-69265700D02*
X82220700Y-69765700D01*
X97020700Y-66640700D02*
X97020700Y-65140700D01*
X99220700Y-66390700D02*
X99220700Y-65390700D01*
X102420700Y-65140700D02*
X97020700Y-65140700D01*
X100220700Y-66390700D02*
X100220700Y-65390700D01*
X99220700Y-65390700D02*
X100120700Y-65890700D01*
X102420700Y-66640700D02*
X102420700Y-65140700D01*
X100120700Y-65890700D02*
X99220700Y-66390700D01*
X97020700Y-66640700D02*
X102420700Y-66640700D01*
X114020700Y-74015700D02*
X114020700Y-72515700D01*
X119420700Y-74015700D02*
X119420700Y-72515700D01*
X119420700Y-72515700D02*
X114020700Y-72515700D01*
X116220700Y-73765700D02*
X116220700Y-72765700D01*
X117220700Y-73765700D02*
X117220700Y-72765700D01*
X117120700Y-73265700D02*
X116220700Y-73765700D01*
X116220700Y-72765700D02*
X117120700Y-73265700D01*
X114020700Y-74015700D02*
X119420700Y-74015700D01*
X136370700Y-73965700D02*
X130970700Y-73965700D01*
X130970700Y-75465700D02*
X136370700Y-75465700D01*
X130970700Y-75465700D02*
X130970700Y-73965700D01*
X133170700Y-74215700D02*
X134070700Y-74715700D01*
X134170700Y-75215700D02*
X134170700Y-74215700D01*
X136370700Y-75465700D02*
X136370700Y-73965700D01*
X134070700Y-74715700D02*
X133170700Y-75215700D01*
X133170700Y-75215700D02*
X133170700Y-74215700D01*
X65970700Y-97115700D02*
X65070700Y-97615700D01*
X68270700Y-96365700D02*
X62870700Y-96365700D01*
X66070700Y-97615700D02*
X66070700Y-96615700D01*
X65070700Y-96615700D02*
X65970700Y-97115700D01*
X62870700Y-97865700D02*
X62870700Y-96365700D01*
X62870700Y-97865700D02*
X68270700Y-97865700D01*
X68270700Y-97865700D02*
X68270700Y-96365700D01*
X65070700Y-97615700D02*
X65070700Y-96615700D01*
X82070700Y-85865700D02*
X82970700Y-86365700D01*
X83070700Y-86865700D02*
X83070700Y-85865700D01*
X85270700Y-85615700D02*
X79870700Y-85615700D01*
X79870700Y-87115700D02*
X79870700Y-85615700D01*
X82970700Y-86365700D02*
X82070700Y-86865700D01*
X82070700Y-86865700D02*
X82070700Y-85865700D01*
X85270700Y-87115700D02*
X85270700Y-85615700D01*
X79870700Y-87115700D02*
X85270700Y-87115700D01*
X96870700Y-83740700D02*
X96870700Y-82240700D01*
X99070700Y-82490700D02*
X99970700Y-82990700D01*
X102270700Y-82240700D02*
X96870700Y-82240700D01*
X102270700Y-83740700D02*
X102270700Y-82240700D01*
X99970700Y-82990700D02*
X99070700Y-83490700D01*
X100070700Y-83490700D02*
X100070700Y-82490700D01*
X96870700Y-83740700D02*
X102270700Y-83740700D01*
X99070700Y-83490700D02*
X99070700Y-82490700D01*
X116070700Y-90865700D02*
X116070700Y-89865700D01*
X117070700Y-90865700D02*
X117070700Y-89865700D01*
X116970700Y-90365700D02*
X116070700Y-90865700D01*
X113870700Y-91115700D02*
X113870700Y-89615700D01*
X116070700Y-89865700D02*
X116970700Y-90365700D01*
X119270700Y-91115700D02*
X119270700Y-89615700D01*
X119270700Y-89615700D02*
X113870700Y-89615700D01*
X113870700Y-91115700D02*
X119270700Y-91115700D01*
X134120700Y-92065700D02*
X134120700Y-91065700D01*
X136320700Y-92315700D02*
X136320700Y-90815700D01*
X136320700Y-90815700D02*
X130920700Y-90815700D01*
X130920700Y-92315700D02*
X136320700Y-92315700D01*
X133120700Y-91065700D02*
X134020700Y-91565700D01*
X130920700Y-92315700D02*
X130920700Y-90815700D01*
X134020700Y-91565700D02*
X133120700Y-92065700D01*
X133120700Y-92065700D02*
X133120700Y-91065700D01*
X115845700Y-116190700D02*
X110445700Y-116190700D01*
X115845700Y-117690700D02*
X115845700Y-116190700D01*
X112645700Y-116440700D02*
X113545700Y-116940700D01*
X110445700Y-117690700D02*
X110445700Y-116190700D01*
X113545700Y-116940700D02*
X112645700Y-117440700D01*
X110445700Y-117690700D02*
X115845700Y-117690700D01*
X113645700Y-117440700D02*
X113645700Y-116440700D01*
X112645700Y-117440700D02*
X112645700Y-116440700D01*
X130511972Y-118891880D02*
X130685620Y-117907072D01*
X133619945Y-119693756D02*
X133880417Y-118216544D01*
X131496780Y-119065528D02*
X131670428Y-118080720D01*
X128301983Y-118756056D02*
X128562455Y-117278844D01*
X130685620Y-117907072D02*
X131485123Y-118555759D01*
X128301983Y-118756056D02*
X133619945Y-119693756D01*
X131485123Y-118555759D02*
X130511972Y-118891880D01*
X133880417Y-118216544D02*
X128562455Y-117278844D01*
X155188485Y-112800015D02*
X153341576Y-117874355D01*
X154751115Y-118387385D02*
X153341576Y-117874355D01*
X154328944Y-115892536D02*
X155106608Y-115217823D01*
X154751115Y-118387385D02*
X156598024Y-113313045D01*
X155106608Y-115217823D02*
X155268636Y-116234556D01*
X156598024Y-113313045D02*
X155188485Y-112800015D01*
X155268636Y-116234556D02*
X154328944Y-115892536D01*
X155610656Y-115294864D02*
X154670964Y-114952844D01*
X67270700Y-70240700D02*
X67270700Y-74790700D01*
X69370700Y-68240700D02*
X69370700Y-72840700D01*
X69670700Y-68240700D02*
X69670700Y-72840700D01*
X71320700Y-68240700D02*
X71320700Y-72840700D01*
X71470700Y-68240700D02*
X71470700Y-72840700D01*
X71170700Y-68240700D02*
X71170700Y-72840700D01*
X68570700Y-68890700D02*
X68570700Y-73090700D01*
X65320700Y-70440700D02*
X65320700Y-75040700D01*
X65620700Y-70440700D02*
X65620700Y-75040700D01*
X65170700Y-70440700D02*
X65170700Y-75040700D01*
X72070700Y-68240700D02*
X72070700Y-72790700D01*
X71020700Y-68240700D02*
X71020700Y-72840700D01*
X63820700Y-70990700D02*
X63820700Y-74490700D01*
X64120700Y-70690700D02*
X64120700Y-74790700D01*
X65020700Y-70440700D02*
X65020700Y-75040700D01*
X67120700Y-70340700D02*
X67120700Y-74890700D01*
X68670700Y-68640700D02*
X68670700Y-73040700D01*
X68270700Y-69390700D02*
X68270700Y-73540700D01*
X63670700Y-71190700D02*
X63670700Y-74340700D01*
X67870700Y-69890700D02*
X67870700Y-74290700D01*
X64570700Y-70440700D02*
X64570700Y-75040700D01*
X70270700Y-68240700D02*
X70270700Y-72840700D01*
X66820700Y-70390700D02*
X66820700Y-75040700D01*
X64870700Y-70440700D02*
X64870700Y-75040700D01*
X66970700Y-70390700D02*
X66970700Y-74990700D01*
X66945700Y-75065700D02*
X68220700Y-74040700D01*
X72220700Y-68290700D02*
X72220700Y-72790700D01*
X68370700Y-69240700D02*
X68370700Y-73390700D01*
X72370700Y-68340700D02*
X72370700Y-72740700D01*
X68020700Y-69740700D02*
X68020700Y-74190700D01*
X69070700Y-68290700D02*
X69070700Y-72840700D01*
X66220700Y-70440700D02*
X66220700Y-75040700D01*
X70870700Y-68240700D02*
X70870700Y-72840700D01*
X67720700Y-69990700D02*
X67720700Y-74390700D01*
X63370700Y-74040700D02*
X63370700Y-71440700D01*
X72520700Y-68440700D02*
X72520700Y-72640700D01*
X68770700Y-68490700D02*
X68770700Y-72990700D01*
X66070700Y-70440700D02*
X66070700Y-75040700D01*
X71970700Y-72865700D02*
X69395700Y-72865700D01*
X69820700Y-68240700D02*
X69820700Y-72840700D01*
X65470700Y-70440700D02*
X65470700Y-75040700D01*
X68920700Y-68390700D02*
X68920700Y-72940700D01*
X65770700Y-70440700D02*
X65770700Y-75040700D01*
X70420700Y-68240700D02*
X70420700Y-72840700D01*
X66945700Y-75065700D02*
X64395700Y-75065700D01*
X67570700Y-70090700D02*
X67570700Y-74540700D01*
X72720700Y-68640700D02*
X72720700Y-72390700D01*
X68170700Y-69590700D02*
X68170700Y-74040700D01*
X70120700Y-68240700D02*
X70120700Y-72840700D01*
X64720700Y-70440700D02*
X64720700Y-75040700D01*
X71920700Y-68240700D02*
X71920700Y-72840700D01*
X68470700Y-69040700D02*
X68470700Y-73190700D01*
X63970700Y-70840700D02*
X63970700Y-74640700D01*
X71970700Y-68215700D02*
X69370700Y-68215700D01*
X65920700Y-70440700D02*
X65920700Y-75040700D01*
X66370700Y-70440700D02*
X66370700Y-75040700D01*
X63370700Y-71440700D02*
X64395700Y-70415700D01*
X71620700Y-68240700D02*
X71620700Y-72840700D01*
X69970700Y-68240700D02*
X69970700Y-72840700D01*
X63520700Y-71290700D02*
X63520700Y-74190700D01*
X69520700Y-68240700D02*
X69520700Y-72790700D01*
X66370700Y-70415700D02*
X64395700Y-70415700D01*
X64420700Y-70440700D02*
X64420700Y-75040700D01*
X69220700Y-68240700D02*
X69220700Y-72840700D01*
X66670700Y-70390700D02*
X66670700Y-75040700D01*
X72620700Y-68540700D02*
X72620700Y-72490700D01*
X66520700Y-70440700D02*
X66520700Y-74990700D01*
X72820700Y-68790700D02*
X72820700Y-72340700D01*
X70570700Y-68240700D02*
X70570700Y-72840700D01*
X64270700Y-70590700D02*
X64270700Y-74940700D01*
X72970700Y-71865700D02*
X72970700Y-69215700D01*
X71770700Y-68240700D02*
X71770700Y-72840700D01*
X70720700Y-68240700D02*
X70720700Y-72840700D01*
X63370700Y-74040700D02*
X64395700Y-75065700D01*
X67420700Y-70190700D02*
X67420700Y-74640700D01*
X68508501Y-68918796D02*
G75*
G02*
X69369705Y-68216909I900000J-225000D01*
G01*
X68220700Y-74040700D02*
G75*
G02*
X69395700Y-72865700I1175002J-2D01*
G01*
X71970700Y-68215700D02*
G75*
G02*
X72970700Y-69215700I1J-999999D01*
G01*
X68508501Y-68918796D02*
G75*
G02*
X66370700Y-70415700I-2137800J778095D01*
G01*
X72970700Y-71865700D02*
G75*
G02*
X71970700Y-72865700I-999999J-1D01*
G01*
X84270700Y-59490700D02*
X84270700Y-64040700D01*
X83370700Y-59665700D02*
X81395700Y-59665700D01*
X83970700Y-59640700D02*
X83970700Y-64240700D01*
X81720700Y-59690700D02*
X81720700Y-64290700D01*
X83370700Y-59690700D02*
X83370700Y-64290700D01*
X88770700Y-57490700D02*
X88770700Y-62090700D01*
X80970700Y-60090700D02*
X80970700Y-63890700D01*
X80370700Y-63290700D02*
X81395700Y-64315700D01*
X80820700Y-60240700D02*
X80820700Y-63740700D01*
X88470700Y-57490700D02*
X88470700Y-62090700D01*
X80370700Y-60690700D02*
X81395700Y-59665700D01*
X86370700Y-57490700D02*
X86370700Y-62090700D01*
X81570700Y-59690700D02*
X81570700Y-64290700D01*
X81870700Y-59690700D02*
X81870700Y-64290700D01*
X89620700Y-57790700D02*
X89620700Y-61740700D01*
X82770700Y-59690700D02*
X82770700Y-64290700D01*
X86820700Y-57490700D02*
X86820700Y-62090700D01*
X81420700Y-59690700D02*
X81420700Y-64290700D01*
X83670700Y-59640700D02*
X83670700Y-64290700D01*
X88920700Y-57490700D02*
X88920700Y-62090700D01*
X86970700Y-57490700D02*
X86970700Y-62090700D01*
X88170700Y-57490700D02*
X88170700Y-62090700D01*
X89820700Y-58040700D02*
X89820700Y-61590700D01*
X81120700Y-59940700D02*
X81120700Y-64040700D01*
X88620700Y-57490700D02*
X88620700Y-62090700D01*
X86520700Y-57490700D02*
X86520700Y-62040700D01*
X89070700Y-57490700D02*
X89070700Y-62040700D01*
X83070700Y-59690700D02*
X83070700Y-64290700D01*
X82920700Y-59690700D02*
X82920700Y-64290700D01*
X82620700Y-59690700D02*
X82620700Y-64290700D01*
X87270700Y-57490700D02*
X87270700Y-62090700D01*
X87870700Y-57490700D02*
X87870700Y-62090700D01*
X85920700Y-57640700D02*
X85920700Y-62190700D01*
X84870700Y-59140700D02*
X84870700Y-63540700D01*
X84120700Y-59590700D02*
X84120700Y-64140700D01*
X85470700Y-58290700D02*
X85470700Y-62440700D01*
X85670700Y-57890700D02*
X85670700Y-62290700D01*
X89520700Y-57690700D02*
X89520700Y-61890700D01*
X83220700Y-59690700D02*
X83220700Y-64290700D01*
X80670700Y-60440700D02*
X80670700Y-63590700D01*
X83520700Y-59690700D02*
X83520700Y-64240700D01*
X84570700Y-59340700D02*
X84570700Y-63790700D01*
X85370700Y-58490700D02*
X85370700Y-62640700D01*
X86670700Y-57490700D02*
X86670700Y-62090700D01*
X85570700Y-58140700D02*
X85570700Y-62340700D01*
X86220700Y-57490700D02*
X86220700Y-62090700D01*
X88970700Y-57465700D02*
X86370700Y-57465700D01*
X80520700Y-60540700D02*
X80520700Y-63440700D01*
X88320700Y-57490700D02*
X88320700Y-62090700D01*
X87570700Y-57490700D02*
X87570700Y-62090700D01*
X83820700Y-59640700D02*
X83820700Y-64290700D01*
X82020700Y-59690700D02*
X82020700Y-64290700D01*
X82470700Y-59690700D02*
X82470700Y-64290700D01*
X82320700Y-59690700D02*
X82320700Y-64290700D01*
X88020700Y-57490700D02*
X88020700Y-62090700D01*
X87720700Y-57490700D02*
X87720700Y-62090700D01*
X85770700Y-57740700D02*
X85770700Y-62240700D01*
X80370700Y-63290700D02*
X80370700Y-60690700D01*
X88970700Y-62115700D02*
X86395700Y-62115700D01*
X89720700Y-57890700D02*
X89720700Y-61640700D01*
X89220700Y-57540700D02*
X89220700Y-62040700D01*
X85020700Y-58990700D02*
X85020700Y-63440700D01*
X89970700Y-61115700D02*
X89970700Y-58465700D01*
X85170700Y-58840700D02*
X85170700Y-63290700D01*
X82170700Y-59690700D02*
X82170700Y-64290700D01*
X83945700Y-64315700D02*
X81395700Y-64315700D01*
X84420700Y-59440700D02*
X84420700Y-63890700D01*
X89370700Y-57590700D02*
X89370700Y-61990700D01*
X85270700Y-58640700D02*
X85270700Y-62790700D01*
X86070700Y-57540700D02*
X86070700Y-62090700D01*
X84720700Y-59240700D02*
X84720700Y-63640700D01*
X87420700Y-57490700D02*
X87420700Y-62090700D01*
X87120700Y-57490700D02*
X87120700Y-62090700D01*
X81270700Y-59840700D02*
X81270700Y-64190700D01*
X83945700Y-64315700D02*
X85220700Y-63290700D01*
X88970700Y-57465700D02*
G75*
G02*
X89970700Y-58465700I1J-999999D01*
G01*
X85508501Y-58168796D02*
G75*
G02*
X83370700Y-59665700I-2137800J778095D01*
G01*
X85220700Y-63290700D02*
G75*
G02*
X86395700Y-62115700I1175002J-2D01*
G01*
X85508501Y-58168796D02*
G75*
G02*
X86369705Y-57466909I900000J-225000D01*
G01*
X89970700Y-61115700D02*
G75*
G02*
X88970700Y-62115700I-999999J-1D01*
G01*
X103970700Y-54115700D02*
X103970700Y-58715700D01*
X106370700Y-54215700D02*
X106370700Y-58615700D01*
X97370700Y-59915700D02*
X98395700Y-60940700D01*
X102270700Y-55265700D02*
X102270700Y-59415700D01*
X103220700Y-54115700D02*
X103220700Y-58715700D01*
X105770700Y-54115700D02*
X105770700Y-58715700D01*
X104570700Y-54115700D02*
X104570700Y-58715700D01*
X105320700Y-54115700D02*
X105320700Y-58715700D01*
X101420700Y-56065700D02*
X101420700Y-60515700D01*
X98120700Y-56565700D02*
X98120700Y-60665700D01*
X101120700Y-56215700D02*
X101120700Y-60765700D01*
X98870700Y-56315700D02*
X98870700Y-60915700D01*
X100670700Y-56265700D02*
X100670700Y-60915700D01*
X100070700Y-56315700D02*
X100070700Y-60915700D01*
X106620700Y-54415700D02*
X106620700Y-58365700D01*
X102020700Y-55615700D02*
X102020700Y-60065700D01*
X98720700Y-56315700D02*
X98720700Y-60915700D01*
X98270700Y-56465700D02*
X98270700Y-60815700D01*
X100820700Y-56265700D02*
X100820700Y-60915700D01*
X106070700Y-54115700D02*
X106070700Y-58665700D01*
X106820700Y-54665700D02*
X106820700Y-58215700D01*
X102770700Y-54365700D02*
X102770700Y-58865700D01*
X101870700Y-55765700D02*
X101870700Y-60165700D01*
X100220700Y-56315700D02*
X100220700Y-60915700D01*
X97520700Y-57165700D02*
X97520700Y-60065700D01*
X101270700Y-56115700D02*
X101270700Y-60665700D01*
X105920700Y-54115700D02*
X105920700Y-58715700D01*
X105970700Y-58740700D02*
X103395700Y-58740700D01*
X101570700Y-55965700D02*
X101570700Y-60415700D01*
X100970700Y-56265700D02*
X100970700Y-60865700D01*
X102370700Y-55115700D02*
X102370700Y-59265700D01*
X97820700Y-56865700D02*
X97820700Y-60365700D01*
X100370700Y-56315700D02*
X100370700Y-60915700D01*
X97370700Y-59915700D02*
X97370700Y-57315700D01*
X105020700Y-54115700D02*
X105020700Y-58715700D01*
X102570700Y-54765700D02*
X102570700Y-58965700D01*
X102670700Y-54515700D02*
X102670700Y-58915700D01*
X105620700Y-54115700D02*
X105620700Y-58715700D01*
X99770700Y-56315700D02*
X99770700Y-60915700D01*
X106720700Y-54515700D02*
X106720700Y-58265700D01*
X99170700Y-56315700D02*
X99170700Y-60915700D01*
X104870700Y-54115700D02*
X104870700Y-58715700D01*
X99470700Y-56315700D02*
X99470700Y-60915700D01*
X104120700Y-54115700D02*
X104120700Y-58715700D01*
X102170700Y-55465700D02*
X102170700Y-59915700D01*
X103820700Y-54115700D02*
X103820700Y-58715700D01*
X102470700Y-54915700D02*
X102470700Y-59065700D01*
X104420700Y-54115700D02*
X104420700Y-58715700D01*
X105170700Y-54115700D02*
X105170700Y-58715700D01*
X106220700Y-54165700D02*
X106220700Y-58665700D01*
X100945700Y-60940700D02*
X102220700Y-59915700D01*
X104720700Y-54115700D02*
X104720700Y-58715700D01*
X97670700Y-57065700D02*
X97670700Y-60215700D01*
X99320700Y-56315700D02*
X99320700Y-60915700D01*
X103370700Y-54115700D02*
X103370700Y-58715700D01*
X100945700Y-60940700D02*
X98395700Y-60940700D01*
X106970700Y-57740700D02*
X106970700Y-55090700D01*
X106520700Y-54315700D02*
X106520700Y-58515700D01*
X103070700Y-54165700D02*
X103070700Y-58715700D01*
X99620700Y-56315700D02*
X99620700Y-60915700D01*
X99920700Y-56315700D02*
X99920700Y-60915700D01*
X105970700Y-54090700D02*
X103370700Y-54090700D01*
X98420700Y-56315700D02*
X98420700Y-60915700D01*
X100520700Y-56315700D02*
X100520700Y-60865700D01*
X97970700Y-56715700D02*
X97970700Y-60515700D01*
X105470700Y-54115700D02*
X105470700Y-58715700D01*
X97370700Y-57315700D02*
X98395700Y-56290700D01*
X100370700Y-56290700D02*
X98395700Y-56290700D01*
X101720700Y-55865700D02*
X101720700Y-60265700D01*
X104270700Y-54115700D02*
X104270700Y-58715700D01*
X102920700Y-54265700D02*
X102920700Y-58815700D01*
X103520700Y-54115700D02*
X103520700Y-58665700D01*
X99020700Y-56315700D02*
X99020700Y-60915700D01*
X103670700Y-54115700D02*
X103670700Y-58715700D01*
X98570700Y-56315700D02*
X98570700Y-60915700D01*
X102508501Y-54793796D02*
G75*
G02*
X103369705Y-54091909I900000J-225000D01*
G01*
X105970700Y-54090700D02*
G75*
G02*
X106970700Y-55090700I1J-999999D01*
G01*
X102220700Y-59915700D02*
G75*
G02*
X103395700Y-58740700I1175002J-2D01*
G01*
X102508501Y-54793796D02*
G75*
G02*
X100370700Y-56290700I-2137800J778095D01*
G01*
X106970700Y-57740700D02*
G75*
G02*
X105970700Y-58740700I-999999J-1D01*
G01*
X121720700Y-61490700D02*
X121720700Y-66090700D01*
X117945700Y-68315700D02*
X115395700Y-68315700D01*
X114370700Y-67290700D02*
X115395700Y-68315700D01*
X121570700Y-61490700D02*
X121570700Y-66090700D01*
X121120700Y-61490700D02*
X121120700Y-66090700D01*
X119920700Y-61640700D02*
X119920700Y-66190700D01*
X120520700Y-61490700D02*
X120520700Y-66040700D01*
X117370700Y-63665700D02*
X115395700Y-63665700D01*
X114970700Y-64090700D02*
X114970700Y-67890700D01*
X118120700Y-63590700D02*
X118120700Y-68140700D01*
X118870700Y-63140700D02*
X118870700Y-67540700D01*
X117670700Y-63640700D02*
X117670700Y-68290700D01*
X121870700Y-61490700D02*
X121870700Y-66090700D01*
X117370700Y-63690700D02*
X117370700Y-68290700D01*
X116620700Y-63690700D02*
X116620700Y-68290700D01*
X122470700Y-61490700D02*
X122470700Y-66090700D01*
X120820700Y-61490700D02*
X120820700Y-66090700D01*
X115570700Y-63690700D02*
X115570700Y-68290700D01*
X114820700Y-64240700D02*
X114820700Y-67740700D01*
X120970700Y-61490700D02*
X120970700Y-66090700D01*
X119020700Y-62990700D02*
X119020700Y-67440700D01*
X120070700Y-61540700D02*
X120070700Y-66090700D01*
X118420700Y-63440700D02*
X118420700Y-67890700D01*
X120220700Y-61490700D02*
X120220700Y-66090700D01*
X117820700Y-63640700D02*
X117820700Y-68290700D01*
X120670700Y-61490700D02*
X120670700Y-66090700D01*
X122770700Y-61490700D02*
X122770700Y-66090700D01*
X119370700Y-62490700D02*
X119370700Y-66640700D01*
X117070700Y-63690700D02*
X117070700Y-68290700D01*
X122970700Y-66115700D02*
X120395700Y-66115700D01*
X123620700Y-61790700D02*
X123620700Y-65740700D01*
X115120700Y-63940700D02*
X115120700Y-68040700D01*
X115420700Y-63690700D02*
X115420700Y-68290700D01*
X119270700Y-62640700D02*
X119270700Y-66790700D01*
X117970700Y-63640700D02*
X117970700Y-68240700D01*
X123520700Y-61690700D02*
X123520700Y-65890700D01*
X122020700Y-61490700D02*
X122020700Y-66090700D01*
X116920700Y-63690700D02*
X116920700Y-68290700D01*
X114370700Y-67290700D02*
X114370700Y-64690700D01*
X123370700Y-61590700D02*
X123370700Y-65990700D01*
X122920700Y-61490700D02*
X122920700Y-66090700D01*
X121420700Y-61490700D02*
X121420700Y-66090700D01*
X119470700Y-62290700D02*
X119470700Y-66440700D01*
X123220700Y-61540700D02*
X123220700Y-66040700D01*
X120370700Y-61490700D02*
X120370700Y-66090700D01*
X118270700Y-63490700D02*
X118270700Y-68040700D01*
X116470700Y-63690700D02*
X116470700Y-68290700D01*
X116020700Y-63690700D02*
X116020700Y-68290700D01*
X114370700Y-64690700D02*
X115395700Y-63665700D01*
X115870700Y-63690700D02*
X115870700Y-68290700D01*
X115720700Y-63690700D02*
X115720700Y-68290700D01*
X116170700Y-63690700D02*
X116170700Y-68290700D01*
X119770700Y-61740700D02*
X119770700Y-66240700D01*
X117945700Y-68315700D02*
X119220700Y-67290700D01*
X116320700Y-63690700D02*
X116320700Y-68290700D01*
X123720700Y-61890700D02*
X123720700Y-65640700D01*
X121270700Y-61490700D02*
X121270700Y-66090700D01*
X118720700Y-63240700D02*
X118720700Y-67640700D01*
X114670700Y-64440700D02*
X114670700Y-67590700D01*
X123820700Y-62040700D02*
X123820700Y-65590700D01*
X117220700Y-63690700D02*
X117220700Y-68290700D01*
X114520700Y-64540700D02*
X114520700Y-67440700D01*
X123970700Y-65115700D02*
X123970700Y-62465700D01*
X119570700Y-62140700D02*
X119570700Y-66340700D01*
X122620700Y-61490700D02*
X122620700Y-66090700D01*
X123070700Y-61490700D02*
X123070700Y-66040700D01*
X118570700Y-63340700D02*
X118570700Y-67790700D01*
X115270700Y-63840700D02*
X115270700Y-68190700D01*
X116770700Y-63690700D02*
X116770700Y-68290700D01*
X122170700Y-61490700D02*
X122170700Y-66090700D01*
X117520700Y-63690700D02*
X117520700Y-68240700D01*
X119670700Y-61890700D02*
X119670700Y-66290700D01*
X122320700Y-61490700D02*
X122320700Y-66090700D01*
X119170700Y-62840700D02*
X119170700Y-67290700D01*
X122970700Y-61465700D02*
X120370700Y-61465700D01*
X119220700Y-67290700D02*
G75*
G02*
X120395700Y-66115700I1175002J-2D01*
G01*
X123970700Y-65115700D02*
G75*
G02*
X122970700Y-66115700I-999999J-1D01*
G01*
X122970700Y-61465700D02*
G75*
G02*
X123970700Y-62465700I1J-999999D01*
G01*
X119508501Y-62168796D02*
G75*
G02*
X120369705Y-61466909I900000J-225000D01*
G01*
X119508501Y-62168796D02*
G75*
G02*
X117370700Y-63665700I-2137800J778095D01*
G01*
X135570700Y-64715700D02*
X135570700Y-69165700D01*
X135870700Y-64515700D02*
X135870700Y-68915700D01*
X132120700Y-65315700D02*
X132120700Y-69415700D01*
X134070700Y-65065700D02*
X134070700Y-69665700D01*
X133920700Y-65065700D02*
X133920700Y-69665700D01*
X136020700Y-64365700D02*
X136020700Y-68815700D01*
X133770700Y-65065700D02*
X133770700Y-69665700D01*
X134220700Y-65065700D02*
X134220700Y-69665700D01*
X139470700Y-62865700D02*
X139470700Y-67465700D01*
X135120700Y-64965700D02*
X135120700Y-69515700D01*
X140070700Y-62865700D02*
X140070700Y-67415700D01*
X136770700Y-63115700D02*
X136770700Y-67615700D01*
X136570700Y-63515700D02*
X136570700Y-67715700D01*
X137670700Y-62865700D02*
X137670700Y-67465700D01*
X137220700Y-62865700D02*
X137220700Y-67465700D01*
X131370700Y-66065700D02*
X132395700Y-65040700D01*
X134670700Y-65015700D02*
X134670700Y-69665700D01*
X134970700Y-65015700D02*
X134970700Y-69615700D01*
X138120700Y-62865700D02*
X138120700Y-67465700D01*
X140370700Y-62965700D02*
X140370700Y-67365700D01*
X135720700Y-64615700D02*
X135720700Y-69015700D01*
X140520700Y-63065700D02*
X140520700Y-67265700D01*
X139170700Y-62865700D02*
X139170700Y-67465700D01*
X132720700Y-65065700D02*
X132720700Y-69665700D01*
X133320700Y-65065700D02*
X133320700Y-69665700D01*
X138720700Y-62865700D02*
X138720700Y-67465700D01*
X133620700Y-65065700D02*
X133620700Y-69665700D01*
X134370700Y-65065700D02*
X134370700Y-69665700D01*
X132570700Y-65065700D02*
X132570700Y-69665700D01*
X140820700Y-63415700D02*
X140820700Y-66965700D01*
X139970700Y-67490700D02*
X137395700Y-67490700D01*
X136370700Y-63865700D02*
X136370700Y-68015700D01*
X139920700Y-62865700D02*
X139920700Y-67465700D01*
X139020700Y-62865700D02*
X139020700Y-67465700D01*
X134370700Y-65040700D02*
X132395700Y-65040700D01*
X134520700Y-65065700D02*
X134520700Y-69615700D01*
X139320700Y-62865700D02*
X139320700Y-67465700D01*
X139970700Y-62840700D02*
X137370700Y-62840700D01*
X139770700Y-62865700D02*
X139770700Y-67465700D01*
X135270700Y-64865700D02*
X135270700Y-69415700D01*
X132270700Y-65215700D02*
X132270700Y-69565700D01*
X134945700Y-69690700D02*
X136220700Y-68665700D01*
X135420700Y-64815700D02*
X135420700Y-69265700D01*
X134820700Y-65015700D02*
X134820700Y-69665700D01*
X140620700Y-63165700D02*
X140620700Y-67115700D01*
X140720700Y-63265700D02*
X140720700Y-67015700D01*
X134945700Y-69690700D02*
X132395700Y-69690700D01*
X131820700Y-65615700D02*
X131820700Y-69115700D01*
X137520700Y-62865700D02*
X137520700Y-67415700D01*
X131670700Y-65815700D02*
X131670700Y-68965700D01*
X138570700Y-62865700D02*
X138570700Y-67465700D01*
X140220700Y-62915700D02*
X140220700Y-67415700D01*
X132870700Y-65065700D02*
X132870700Y-69665700D01*
X138870700Y-62865700D02*
X138870700Y-67465700D01*
X131370700Y-68665700D02*
X131370700Y-66065700D01*
X139620700Y-62865700D02*
X139620700Y-67465700D01*
X136170700Y-64215700D02*
X136170700Y-68665700D01*
X133170700Y-65065700D02*
X133170700Y-69665700D01*
X136920700Y-63015700D02*
X136920700Y-67565700D01*
X136470700Y-63665700D02*
X136470700Y-67815700D01*
X138270700Y-62865700D02*
X138270700Y-67465700D01*
X137820700Y-62865700D02*
X137820700Y-67465700D01*
X137970700Y-62865700D02*
X137970700Y-67465700D01*
X138420700Y-62865700D02*
X138420700Y-67465700D01*
X131520700Y-65915700D02*
X131520700Y-68815700D01*
X136270700Y-64015700D02*
X136270700Y-68165700D01*
X136670700Y-63265700D02*
X136670700Y-67665700D01*
X137070700Y-62915700D02*
X137070700Y-67465700D01*
X131370700Y-68665700D02*
X132395700Y-69690700D01*
X133470700Y-65065700D02*
X133470700Y-69665700D01*
X131970700Y-65465700D02*
X131970700Y-69265700D01*
X132420700Y-65065700D02*
X132420700Y-69665700D01*
X140970700Y-66490700D02*
X140970700Y-63840700D01*
X137370700Y-62865700D02*
X137370700Y-67465700D01*
X133020700Y-65065700D02*
X133020700Y-69665700D01*
X136508501Y-63543796D02*
G75*
G02*
X134370700Y-65040700I-2137800J778095D01*
G01*
X136508501Y-63543796D02*
G75*
G02*
X137369705Y-62841909I900000J-225000D01*
G01*
X139970700Y-62840700D02*
G75*
G02*
X140970700Y-63840700I1J-999999D01*
G01*
X140970700Y-66490700D02*
G75*
G02*
X139970700Y-67490700I-999999J-1D01*
G01*
X136220700Y-68665700D02*
G75*
G02*
X137395700Y-67490700I1175002J-2D01*
G01*
X55870700Y-87115700D02*
X53270700Y-87115700D01*
X53120700Y-86965700D02*
X56020700Y-86965700D01*
X52270700Y-85765700D02*
X56870700Y-85765700D01*
X51220700Y-82215700D02*
X55370700Y-82215700D01*
X50070700Y-80815700D02*
X54670700Y-80815700D01*
X50070700Y-80665700D02*
X54670700Y-80665700D01*
X56895700Y-83540700D02*
X55870700Y-82265700D01*
X52270700Y-85015700D02*
X56870700Y-85015700D01*
X52270700Y-84415700D02*
X56870700Y-84415700D01*
X50070700Y-80365700D02*
X54670700Y-80365700D01*
X52420700Y-86215700D02*
X56770700Y-86215700D01*
X50070700Y-78715700D02*
X54670700Y-78715700D01*
X52270700Y-84565700D02*
X56870700Y-84565700D01*
X52270700Y-85615700D02*
X56870700Y-85615700D01*
X50070700Y-80515700D02*
X54670700Y-80515700D01*
X52220700Y-83665700D02*
X56870700Y-83665700D01*
X50070700Y-79915700D02*
X54670700Y-79915700D01*
X52270700Y-83965700D02*
X56820700Y-83965700D01*
X53020700Y-86815700D02*
X56170700Y-86815700D01*
X50070700Y-78865700D02*
X54670700Y-78865700D01*
X51070700Y-82115700D02*
X55220700Y-82115700D01*
X56895700Y-83540700D02*
X56895700Y-86090700D01*
X52245700Y-84115700D02*
X52245700Y-86090700D01*
X50120700Y-78265700D02*
X54620700Y-78265700D01*
X51570700Y-82465700D02*
X56020700Y-82465700D01*
X52270700Y-85915700D02*
X56870700Y-85915700D01*
X52520700Y-86365700D02*
X56620700Y-86365700D01*
X50070700Y-78415700D02*
X54620700Y-78415700D01*
X50620700Y-77665700D02*
X54170700Y-77665700D01*
X50120700Y-81415700D02*
X54670700Y-81415700D01*
X52670700Y-86515700D02*
X56470700Y-86515700D01*
X50370700Y-77865700D02*
X54320700Y-77865700D01*
X50070700Y-79015700D02*
X54670700Y-79015700D01*
X50070700Y-80065700D02*
X54670700Y-80065700D01*
X52270700Y-84265700D02*
X56870700Y-84265700D01*
X52220700Y-83515700D02*
X56820700Y-83515700D01*
X50070700Y-79165700D02*
X54670700Y-79165700D01*
X52270700Y-84865700D02*
X56870700Y-84865700D01*
X50470700Y-81815700D02*
X54870700Y-81815700D01*
X52170700Y-83365700D02*
X56720700Y-83365700D01*
X51420700Y-82315700D02*
X55870700Y-82315700D01*
X55870700Y-87115700D02*
X56895700Y-86090700D01*
X52070700Y-83215700D02*
X56620700Y-83215700D01*
X52820700Y-86665700D02*
X56320700Y-86665700D01*
X54695700Y-78515700D02*
X54695700Y-81090700D01*
X53270700Y-87115700D02*
X52245700Y-86090700D01*
X50320700Y-81715700D02*
X54820700Y-81715700D01*
X50070700Y-79765700D02*
X54670700Y-79765700D01*
X50045700Y-78515700D02*
X50045700Y-81115700D01*
X52270700Y-85165700D02*
X56870700Y-85165700D01*
X52270700Y-86065700D02*
X56870700Y-86065700D01*
X52020700Y-83065700D02*
X56470700Y-83065700D01*
X50070700Y-80215700D02*
X54670700Y-80215700D01*
X50070700Y-81265700D02*
X54670700Y-81265700D01*
X50070700Y-80965700D02*
X54620700Y-80965700D01*
X52270700Y-84715700D02*
X56870700Y-84715700D01*
X52270700Y-85465700D02*
X56870700Y-85465700D01*
X50270700Y-77965700D02*
X54470700Y-77965700D01*
X50070700Y-79315700D02*
X54670700Y-79315700D01*
X50070700Y-78565700D02*
X54670700Y-78565700D01*
X50720700Y-81915700D02*
X54920700Y-81915700D01*
X50470700Y-77765700D02*
X54220700Y-77765700D01*
X50070700Y-79615700D02*
X54670700Y-79615700D01*
X50870700Y-82015700D02*
X55020700Y-82015700D01*
X52270700Y-84115700D02*
X56870700Y-84115700D01*
X52220700Y-83815700D02*
X56870700Y-83815700D01*
X50070700Y-79465700D02*
X54670700Y-79465700D01*
X51820700Y-82765700D02*
X56220700Y-82765700D01*
X50070700Y-81115700D02*
X54670700Y-81115700D01*
X50220700Y-81565700D02*
X54770700Y-81565700D01*
X52270700Y-85315700D02*
X56870700Y-85315700D01*
X50170700Y-78115700D02*
X54570700Y-78115700D01*
X53695700Y-77515700D02*
X51045700Y-77515700D01*
X51720700Y-82615700D02*
X56120700Y-82615700D01*
X51920700Y-82915700D02*
X56370700Y-82915700D01*
X53695700Y-77515700D02*
G75*
G02*
X54695700Y-78515700I1J-999999D01*
G01*
X50045700Y-78515700D02*
G75*
G02*
X51045700Y-77515700I999999J1D01*
G01*
X55870700Y-82265700D02*
G75*
G02*
X54695700Y-81090700I2J1175002D01*
G01*
X50748796Y-81977899D02*
G75*
G02*
X52245700Y-84115700I-778095J-2137800D01*
G01*
X50748796Y-81977899D02*
G75*
G02*
X50046909Y-81116695I225000J900000D01*
G01*
X68020700Y-86740700D02*
X68020700Y-91190700D01*
X68570700Y-85890700D02*
X68570700Y-90090700D01*
X67720700Y-86990700D02*
X67720700Y-91390700D01*
X71470700Y-85240700D02*
X71470700Y-89840700D01*
X63670700Y-88190700D02*
X63670700Y-91340700D01*
X64870700Y-87440700D02*
X64870700Y-92040700D01*
X68170700Y-86590700D02*
X68170700Y-91040700D01*
X65920700Y-87440700D02*
X65920700Y-92040700D01*
X70570700Y-85240700D02*
X70570700Y-89840700D01*
X69970700Y-85240700D02*
X69970700Y-89840700D01*
X65770700Y-87440700D02*
X65770700Y-92040700D01*
X65470700Y-87440700D02*
X65470700Y-92040700D01*
X64570700Y-87440700D02*
X64570700Y-92040700D01*
X70420700Y-85240700D02*
X70420700Y-89840700D01*
X64270700Y-87590700D02*
X64270700Y-91940700D01*
X66945700Y-92065700D02*
X64395700Y-92065700D01*
X71170700Y-85240700D02*
X71170700Y-89840700D01*
X67870700Y-86890700D02*
X67870700Y-91290700D01*
X66220700Y-87440700D02*
X66220700Y-92040700D01*
X68270700Y-86390700D02*
X68270700Y-90540700D01*
X66370700Y-87415700D02*
X64395700Y-87415700D01*
X67270700Y-87240700D02*
X67270700Y-91790700D01*
X72970700Y-88865700D02*
X72970700Y-86215700D01*
X66970700Y-87390700D02*
X66970700Y-91990700D01*
X65320700Y-87440700D02*
X65320700Y-92040700D01*
X64420700Y-87440700D02*
X64420700Y-92040700D01*
X65170700Y-87440700D02*
X65170700Y-92040700D01*
X66520700Y-87440700D02*
X66520700Y-91990700D01*
X71920700Y-85240700D02*
X71920700Y-89840700D01*
X63970700Y-87840700D02*
X63970700Y-91640700D01*
X63370700Y-91040700D02*
X63370700Y-88440700D01*
X69820700Y-85240700D02*
X69820700Y-89840700D01*
X63820700Y-87990700D02*
X63820700Y-91490700D01*
X70120700Y-85240700D02*
X70120700Y-89840700D01*
X63520700Y-88290700D02*
X63520700Y-91190700D01*
X70270700Y-85240700D02*
X70270700Y-89840700D01*
X72820700Y-85790700D02*
X72820700Y-89340700D01*
X70720700Y-85240700D02*
X70720700Y-89840700D01*
X65620700Y-87440700D02*
X65620700Y-92040700D01*
X66370700Y-87440700D02*
X66370700Y-92040700D01*
X70870700Y-85240700D02*
X70870700Y-89840700D01*
X69370700Y-85240700D02*
X69370700Y-89840700D01*
X72220700Y-85290700D02*
X72220700Y-89790700D01*
X69220700Y-85240700D02*
X69220700Y-89840700D01*
X64720700Y-87440700D02*
X64720700Y-92040700D01*
X71320700Y-85240700D02*
X71320700Y-89840700D01*
X63370700Y-91040700D02*
X64395700Y-92065700D01*
X72070700Y-85240700D02*
X72070700Y-89790700D01*
X68470700Y-86040700D02*
X68470700Y-90190700D01*
X67420700Y-87190700D02*
X67420700Y-91640700D01*
X71770700Y-85240700D02*
X71770700Y-89840700D01*
X63370700Y-88440700D02*
X64395700Y-87415700D01*
X66670700Y-87390700D02*
X66670700Y-92040700D01*
X71970700Y-89865700D02*
X69395700Y-89865700D01*
X64120700Y-87690700D02*
X64120700Y-91790700D01*
X67570700Y-87090700D02*
X67570700Y-91540700D01*
X66945700Y-92065700D02*
X68220700Y-91040700D01*
X65020700Y-87440700D02*
X65020700Y-92040700D01*
X68770700Y-85490700D02*
X68770700Y-89990700D01*
X69670700Y-85240700D02*
X69670700Y-89840700D01*
X68920700Y-85390700D02*
X68920700Y-89940700D01*
X72720700Y-85640700D02*
X72720700Y-89390700D01*
X69070700Y-85290700D02*
X69070700Y-89840700D01*
X72520700Y-85440700D02*
X72520700Y-89640700D01*
X68370700Y-86240700D02*
X68370700Y-90390700D01*
X66820700Y-87390700D02*
X66820700Y-92040700D01*
X69520700Y-85240700D02*
X69520700Y-89790700D01*
X67120700Y-87340700D02*
X67120700Y-91890700D01*
X71020700Y-85240700D02*
X71020700Y-89840700D01*
X68670700Y-85640700D02*
X68670700Y-90040700D01*
X71620700Y-85240700D02*
X71620700Y-89840700D01*
X72620700Y-85540700D02*
X72620700Y-89490700D01*
X66070700Y-87440700D02*
X66070700Y-92040700D01*
X71970700Y-85215700D02*
X69370700Y-85215700D01*
X72370700Y-85340700D02*
X72370700Y-89740700D01*
X72970700Y-88865700D02*
G75*
G02*
X71970700Y-89865700I-999999J-1D01*
G01*
X71970700Y-85215700D02*
G75*
G02*
X72970700Y-86215700I1J-999999D01*
G01*
X68220700Y-91040700D02*
G75*
G02*
X69395700Y-89865700I1175002J-2D01*
G01*
X68508501Y-85918796D02*
G75*
G02*
X69369705Y-85216909I900000J-225000D01*
G01*
X68508501Y-85918796D02*
G75*
G02*
X66370700Y-87415700I-2137800J778095D01*
G01*
X86520700Y-74490700D02*
X86520700Y-79040700D01*
X80520700Y-77540700D02*
X80520700Y-80440700D01*
X85670700Y-74890700D02*
X85670700Y-79290700D01*
X82620700Y-76690700D02*
X82620700Y-81290700D01*
X81870700Y-76690700D02*
X81870700Y-81290700D01*
X89370700Y-74590700D02*
X89370700Y-78990700D01*
X89070700Y-74490700D02*
X89070700Y-79040700D01*
X88970700Y-79115700D02*
X86395700Y-79115700D01*
X87270700Y-74490700D02*
X87270700Y-79090700D01*
X88170700Y-74490700D02*
X88170700Y-79090700D01*
X80370700Y-77690700D02*
X81395700Y-76665700D01*
X81270700Y-76840700D02*
X81270700Y-81190700D01*
X85920700Y-74640700D02*
X85920700Y-79190700D01*
X85370700Y-75490700D02*
X85370700Y-79640700D01*
X86670700Y-74490700D02*
X86670700Y-79090700D01*
X82320700Y-76690700D02*
X82320700Y-81290700D01*
X82020700Y-76690700D02*
X82020700Y-81290700D01*
X82470700Y-76690700D02*
X82470700Y-81290700D01*
X83370700Y-76665700D02*
X81395700Y-76665700D01*
X83370700Y-76690700D02*
X83370700Y-81290700D01*
X88770700Y-74490700D02*
X88770700Y-79090700D01*
X88320700Y-74490700D02*
X88320700Y-79090700D01*
X82920700Y-76690700D02*
X82920700Y-81290700D01*
X88470700Y-74490700D02*
X88470700Y-79090700D01*
X83945700Y-81315700D02*
X85220700Y-80290700D01*
X84270700Y-76490700D02*
X84270700Y-81040700D01*
X83970700Y-76640700D02*
X83970700Y-81240700D01*
X80820700Y-77240700D02*
X80820700Y-80740700D01*
X85470700Y-75290700D02*
X85470700Y-79440700D01*
X88970700Y-74465700D02*
X86370700Y-74465700D01*
X83820700Y-76640700D02*
X83820700Y-81290700D01*
X82170700Y-76690700D02*
X82170700Y-81290700D01*
X81120700Y-76940700D02*
X81120700Y-81040700D01*
X89820700Y-75040700D02*
X89820700Y-78590700D01*
X87870700Y-74490700D02*
X87870700Y-79090700D01*
X80670700Y-77440700D02*
X80670700Y-80590700D01*
X88920700Y-74490700D02*
X88920700Y-79090700D01*
X80370700Y-80290700D02*
X81395700Y-81315700D01*
X83520700Y-76690700D02*
X83520700Y-81240700D01*
X88020700Y-74490700D02*
X88020700Y-79090700D01*
X82770700Y-76690700D02*
X82770700Y-81290700D01*
X80370700Y-80290700D02*
X80370700Y-77690700D01*
X83220700Y-76690700D02*
X83220700Y-81290700D01*
X84570700Y-76340700D02*
X84570700Y-80790700D01*
X89520700Y-74690700D02*
X89520700Y-78890700D01*
X80970700Y-77090700D02*
X80970700Y-80890700D01*
X85270700Y-75640700D02*
X85270700Y-79790700D01*
X85770700Y-74740700D02*
X85770700Y-79240700D01*
X87570700Y-74490700D02*
X87570700Y-79090700D01*
X89720700Y-74890700D02*
X89720700Y-78640700D01*
X84120700Y-76590700D02*
X84120700Y-81140700D01*
X88620700Y-74490700D02*
X88620700Y-79090700D01*
X86970700Y-74490700D02*
X86970700Y-79090700D01*
X86370700Y-74490700D02*
X86370700Y-79090700D01*
X83670700Y-76640700D02*
X83670700Y-81290700D01*
X84420700Y-76440700D02*
X84420700Y-80890700D01*
X89220700Y-74540700D02*
X89220700Y-79040700D01*
X81570700Y-76690700D02*
X81570700Y-81290700D01*
X81420700Y-76690700D02*
X81420700Y-81290700D01*
X87420700Y-74490700D02*
X87420700Y-79090700D01*
X84720700Y-76240700D02*
X84720700Y-80640700D01*
X89970700Y-78115700D02*
X89970700Y-75465700D01*
X86820700Y-74490700D02*
X86820700Y-79090700D01*
X85570700Y-75140700D02*
X85570700Y-79340700D01*
X84870700Y-76140700D02*
X84870700Y-80540700D01*
X86220700Y-74490700D02*
X86220700Y-79090700D01*
X85170700Y-75840700D02*
X85170700Y-80290700D01*
X89620700Y-74790700D02*
X89620700Y-78740700D01*
X87720700Y-74490700D02*
X87720700Y-79090700D01*
X81720700Y-76690700D02*
X81720700Y-81290700D01*
X83945700Y-81315700D02*
X81395700Y-81315700D01*
X85020700Y-75990700D02*
X85020700Y-80440700D01*
X83070700Y-76690700D02*
X83070700Y-81290700D01*
X86070700Y-74540700D02*
X86070700Y-79090700D01*
X87120700Y-74490700D02*
X87120700Y-79090700D01*
X89970700Y-78115700D02*
G75*
G02*
X88970700Y-79115700I-999999J-1D01*
G01*
X85220700Y-80290700D02*
G75*
G02*
X86395700Y-79115700I1175002J-2D01*
G01*
X88970700Y-74465700D02*
G75*
G02*
X89970700Y-75465700I1J-999999D01*
G01*
X85508501Y-75168796D02*
G75*
G02*
X86369705Y-74466909I900000J-225000D01*
G01*
X85508501Y-75168796D02*
G75*
G02*
X83370700Y-76665700I-2137800J778095D01*
G01*
X102770700Y-71365700D02*
X102770700Y-75865700D01*
X99770700Y-73315700D02*
X99770700Y-77915700D01*
X105770700Y-71115700D02*
X105770700Y-75715700D01*
X102270700Y-72265700D02*
X102270700Y-76415700D01*
X100670700Y-73265700D02*
X100670700Y-77915700D01*
X105970700Y-71090700D02*
X103370700Y-71090700D01*
X102670700Y-71515700D02*
X102670700Y-75915700D01*
X103820700Y-71115700D02*
X103820700Y-75715700D01*
X97520700Y-74165700D02*
X97520700Y-77065700D01*
X105320700Y-71115700D02*
X105320700Y-75715700D01*
X101870700Y-72765700D02*
X101870700Y-77165700D01*
X100945700Y-77940700D02*
X98395700Y-77940700D01*
X100520700Y-73315700D02*
X100520700Y-77865700D01*
X97670700Y-74065700D02*
X97670700Y-77215700D01*
X102470700Y-71915700D02*
X102470700Y-76065700D01*
X100070700Y-73315700D02*
X100070700Y-77915700D01*
X99470700Y-73315700D02*
X99470700Y-77915700D01*
X103970700Y-71115700D02*
X103970700Y-75715700D01*
X104870700Y-71115700D02*
X104870700Y-75715700D01*
X102570700Y-71765700D02*
X102570700Y-75965700D01*
X105620700Y-71115700D02*
X105620700Y-75715700D01*
X98270700Y-73465700D02*
X98270700Y-77815700D01*
X104270700Y-71115700D02*
X104270700Y-75715700D01*
X103370700Y-71115700D02*
X103370700Y-75715700D01*
X97370700Y-74315700D02*
X98395700Y-73290700D01*
X97370700Y-76915700D02*
X97370700Y-74315700D01*
X101420700Y-73065700D02*
X101420700Y-77515700D01*
X106070700Y-71115700D02*
X106070700Y-75665700D01*
X104420700Y-71115700D02*
X104420700Y-75715700D01*
X99620700Y-73315700D02*
X99620700Y-77915700D01*
X97970700Y-73715700D02*
X97970700Y-77515700D01*
X105920700Y-71115700D02*
X105920700Y-75715700D01*
X105970700Y-75740700D02*
X103395700Y-75740700D01*
X98420700Y-73315700D02*
X98420700Y-77915700D01*
X100945700Y-77940700D02*
X102220700Y-76915700D01*
X99320700Y-73315700D02*
X99320700Y-77915700D01*
X103520700Y-71115700D02*
X103520700Y-75665700D01*
X98720700Y-73315700D02*
X98720700Y-77915700D01*
X104120700Y-71115700D02*
X104120700Y-75715700D01*
X97370700Y-76915700D02*
X98395700Y-77940700D01*
X104720700Y-71115700D02*
X104720700Y-75715700D01*
X106370700Y-71215700D02*
X106370700Y-75615700D01*
X99170700Y-73315700D02*
X99170700Y-77915700D01*
X98870700Y-73315700D02*
X98870700Y-77915700D01*
X106520700Y-71315700D02*
X106520700Y-75515700D01*
X97820700Y-73865700D02*
X97820700Y-77365700D01*
X101270700Y-73115700D02*
X101270700Y-77665700D01*
X102370700Y-72115700D02*
X102370700Y-76265700D01*
X101120700Y-73215700D02*
X101120700Y-77765700D01*
X105470700Y-71115700D02*
X105470700Y-75715700D01*
X100820700Y-73265700D02*
X100820700Y-77915700D01*
X100220700Y-73315700D02*
X100220700Y-77915700D01*
X99920700Y-73315700D02*
X99920700Y-77915700D01*
X103670700Y-71115700D02*
X103670700Y-75715700D01*
X102170700Y-72465700D02*
X102170700Y-76915700D01*
X106220700Y-71165700D02*
X106220700Y-75665700D01*
X106820700Y-71665700D02*
X106820700Y-75215700D01*
X103070700Y-71165700D02*
X103070700Y-75715700D01*
X101720700Y-72865700D02*
X101720700Y-77265700D01*
X100370700Y-73290700D02*
X98395700Y-73290700D01*
X98570700Y-73315700D02*
X98570700Y-77915700D01*
X101570700Y-72965700D02*
X101570700Y-77415700D01*
X105020700Y-71115700D02*
X105020700Y-75715700D01*
X103220700Y-71115700D02*
X103220700Y-75715700D01*
X98120700Y-73565700D02*
X98120700Y-77665700D01*
X102920700Y-71265700D02*
X102920700Y-75815700D01*
X106970700Y-74740700D02*
X106970700Y-72090700D01*
X100970700Y-73265700D02*
X100970700Y-77865700D01*
X102020700Y-72615700D02*
X102020700Y-77065700D01*
X106720700Y-71515700D02*
X106720700Y-75265700D01*
X106620700Y-71415700D02*
X106620700Y-75365700D01*
X99020700Y-73315700D02*
X99020700Y-77915700D01*
X104570700Y-71115700D02*
X104570700Y-75715700D01*
X105170700Y-71115700D02*
X105170700Y-75715700D01*
X100370700Y-73315700D02*
X100370700Y-77915700D01*
X105970700Y-71090700D02*
G75*
G02*
X106970700Y-72090700I1J-999999D01*
G01*
X106970700Y-74740700D02*
G75*
G02*
X105970700Y-75740700I-999999J-1D01*
G01*
X102220700Y-76915700D02*
G75*
G02*
X103395700Y-75740700I1175002J-2D01*
G01*
X102508501Y-71793796D02*
G75*
G02*
X103369705Y-71091909I900000J-225000D01*
G01*
X102508501Y-71793796D02*
G75*
G02*
X100370700Y-73290700I-2137800J778095D01*
G01*
X114820700Y-81240700D02*
X114820700Y-84740700D01*
X114520700Y-81540700D02*
X114520700Y-84440700D01*
X123220700Y-78540700D02*
X123220700Y-83040700D01*
X116320700Y-80690700D02*
X116320700Y-85290700D01*
X117520700Y-80690700D02*
X117520700Y-85240700D01*
X122970700Y-83115700D02*
X120395700Y-83115700D01*
X123520700Y-78690700D02*
X123520700Y-82890700D01*
X122970700Y-78465700D02*
X120370700Y-78465700D01*
X114370700Y-81690700D02*
X115395700Y-80665700D01*
X121420700Y-78490700D02*
X121420700Y-83090700D01*
X119470700Y-79290700D02*
X119470700Y-83440700D01*
X122470700Y-78490700D02*
X122470700Y-83090700D01*
X114370700Y-84290700D02*
X114370700Y-81690700D01*
X116020700Y-80690700D02*
X116020700Y-85290700D01*
X118570700Y-80340700D02*
X118570700Y-84790700D01*
X119170700Y-79840700D02*
X119170700Y-84290700D01*
X117670700Y-80640700D02*
X117670700Y-85290700D01*
X120520700Y-78490700D02*
X120520700Y-83040700D01*
X122170700Y-78490700D02*
X122170700Y-83090700D01*
X122770700Y-78490700D02*
X122770700Y-83090700D01*
X114970700Y-81090700D02*
X114970700Y-84890700D01*
X120670700Y-78490700D02*
X120670700Y-83090700D01*
X116770700Y-80690700D02*
X116770700Y-85290700D01*
X117370700Y-80690700D02*
X117370700Y-85290700D01*
X118420700Y-80440700D02*
X118420700Y-84890700D01*
X117945700Y-85315700D02*
X115395700Y-85315700D01*
X120970700Y-78490700D02*
X120970700Y-83090700D01*
X116470700Y-80690700D02*
X116470700Y-85290700D01*
X116620700Y-80690700D02*
X116620700Y-85290700D01*
X121120700Y-78490700D02*
X121120700Y-83090700D01*
X115420700Y-80690700D02*
X115420700Y-85290700D01*
X122020700Y-78490700D02*
X122020700Y-83090700D01*
X121870700Y-78490700D02*
X121870700Y-83090700D01*
X118720700Y-80240700D02*
X118720700Y-84640700D01*
X123070700Y-78490700D02*
X123070700Y-83040700D01*
X121270700Y-78490700D02*
X121270700Y-83090700D01*
X123370700Y-78590700D02*
X123370700Y-82990700D01*
X121720700Y-78490700D02*
X121720700Y-83090700D01*
X118270700Y-80490700D02*
X118270700Y-85040700D01*
X120820700Y-78490700D02*
X120820700Y-83090700D01*
X118120700Y-80590700D02*
X118120700Y-85140700D01*
X119570700Y-79140700D02*
X119570700Y-83340700D01*
X121570700Y-78490700D02*
X121570700Y-83090700D01*
X115270700Y-80840700D02*
X115270700Y-85190700D01*
X118870700Y-80140700D02*
X118870700Y-84540700D01*
X117820700Y-80640700D02*
X117820700Y-85290700D01*
X123970700Y-82115700D02*
X123970700Y-79465700D01*
X122620700Y-78490700D02*
X122620700Y-83090700D01*
X115720700Y-80690700D02*
X115720700Y-85290700D01*
X115570700Y-80690700D02*
X115570700Y-85290700D01*
X117220700Y-80690700D02*
X117220700Y-85290700D01*
X116170700Y-80690700D02*
X116170700Y-85290700D01*
X117070700Y-80690700D02*
X117070700Y-85290700D01*
X117370700Y-80665700D02*
X115395700Y-80665700D01*
X116920700Y-80690700D02*
X116920700Y-85290700D01*
X122920700Y-78490700D02*
X122920700Y-83090700D01*
X120370700Y-78490700D02*
X120370700Y-83090700D01*
X120070700Y-78540700D02*
X120070700Y-83090700D01*
X119270700Y-79640700D02*
X119270700Y-83790700D01*
X123820700Y-79040700D02*
X123820700Y-82590700D01*
X119920700Y-78640700D02*
X119920700Y-83190700D01*
X114670700Y-81440700D02*
X114670700Y-84590700D01*
X115120700Y-80940700D02*
X115120700Y-85040700D01*
X123620700Y-78790700D02*
X123620700Y-82740700D01*
X119670700Y-78890700D02*
X119670700Y-83290700D01*
X117945700Y-85315700D02*
X119220700Y-84290700D01*
X117970700Y-80640700D02*
X117970700Y-85240700D01*
X119770700Y-78740700D02*
X119770700Y-83240700D01*
X122320700Y-78490700D02*
X122320700Y-83090700D01*
X119370700Y-79490700D02*
X119370700Y-83640700D01*
X123720700Y-78890700D02*
X123720700Y-82640700D01*
X119020700Y-79990700D02*
X119020700Y-84440700D01*
X120220700Y-78490700D02*
X120220700Y-83090700D01*
X114370700Y-84290700D02*
X115395700Y-85315700D01*
X115870700Y-80690700D02*
X115870700Y-85290700D01*
X119508501Y-79168796D02*
G75*
G02*
X117370700Y-80665700I-2137800J778095D01*
G01*
X119220700Y-84290700D02*
G75*
G02*
X120395700Y-83115700I1175002J-2D01*
G01*
X119508501Y-79168796D02*
G75*
G02*
X120369705Y-78466909I900000J-225000D01*
G01*
X122970700Y-78465700D02*
G75*
G02*
X123970700Y-79465700I1J-999999D01*
G01*
X123970700Y-82115700D02*
G75*
G02*
X122970700Y-83115700I-999999J-1D01*
G01*
X132120700Y-82315700D02*
X132120700Y-86415700D01*
X131370700Y-85665700D02*
X132395700Y-86690700D01*
X134520700Y-82065700D02*
X134520700Y-86615700D01*
X134970700Y-82015700D02*
X134970700Y-86615700D01*
X136370700Y-80865700D02*
X136370700Y-85015700D01*
X139620700Y-79865700D02*
X139620700Y-84465700D01*
X140370700Y-79965700D02*
X140370700Y-84365700D01*
X134820700Y-82015700D02*
X134820700Y-86665700D01*
X140070700Y-79865700D02*
X140070700Y-84415700D01*
X131520700Y-82915700D02*
X131520700Y-85815700D01*
X137070700Y-79915700D02*
X137070700Y-84465700D01*
X137220700Y-79865700D02*
X137220700Y-84465700D01*
X139970700Y-84490700D02*
X137395700Y-84490700D01*
X139320700Y-79865700D02*
X139320700Y-84465700D01*
X136670700Y-80265700D02*
X136670700Y-84665700D01*
X139170700Y-79865700D02*
X139170700Y-84465700D01*
X137370700Y-79865700D02*
X137370700Y-84465700D01*
X133170700Y-82065700D02*
X133170700Y-86665700D01*
X135120700Y-81965700D02*
X135120700Y-86515700D01*
X138420700Y-79865700D02*
X138420700Y-84465700D01*
X131370700Y-85665700D02*
X131370700Y-83065700D01*
X138270700Y-79865700D02*
X138270700Y-84465700D01*
X134370700Y-82065700D02*
X134370700Y-86665700D01*
X137520700Y-79865700D02*
X137520700Y-84415700D01*
X133770700Y-82065700D02*
X133770700Y-86665700D01*
X140220700Y-79915700D02*
X140220700Y-84415700D01*
X132720700Y-82065700D02*
X132720700Y-86665700D01*
X131670700Y-82815700D02*
X131670700Y-85965700D01*
X136270700Y-81015700D02*
X136270700Y-85165700D01*
X134945700Y-86690700D02*
X132395700Y-86690700D01*
X140520700Y-80065700D02*
X140520700Y-84265700D01*
X136020700Y-81365700D02*
X136020700Y-85815700D01*
X140620700Y-80165700D02*
X140620700Y-84115700D01*
X139970700Y-79840700D02*
X137370700Y-79840700D01*
X138720700Y-79865700D02*
X138720700Y-84465700D01*
X139470700Y-79865700D02*
X139470700Y-84465700D01*
X135570700Y-81715700D02*
X135570700Y-86165700D01*
X136570700Y-80515700D02*
X136570700Y-84715700D01*
X134370700Y-82040700D02*
X132395700Y-82040700D01*
X131970700Y-82465700D02*
X131970700Y-86265700D01*
X137970700Y-79865700D02*
X137970700Y-84465700D01*
X133320700Y-82065700D02*
X133320700Y-86665700D01*
X132270700Y-82215700D02*
X132270700Y-86565700D01*
X140970700Y-83490700D02*
X140970700Y-80840700D01*
X133620700Y-82065700D02*
X133620700Y-86665700D01*
X135720700Y-81615700D02*
X135720700Y-86015700D01*
X136770700Y-80115700D02*
X136770700Y-84615700D01*
X140720700Y-80265700D02*
X140720700Y-84015700D01*
X133920700Y-82065700D02*
X133920700Y-86665700D01*
X138870700Y-79865700D02*
X138870700Y-84465700D01*
X136170700Y-81215700D02*
X136170700Y-85665700D01*
X133470700Y-82065700D02*
X133470700Y-86665700D01*
X139920700Y-79865700D02*
X139920700Y-84465700D01*
X132870700Y-82065700D02*
X132870700Y-86665700D01*
X134945700Y-86690700D02*
X136220700Y-85665700D01*
X139770700Y-79865700D02*
X139770700Y-84465700D01*
X133020700Y-82065700D02*
X133020700Y-86665700D01*
X132570700Y-82065700D02*
X132570700Y-86665700D01*
X131820700Y-82615700D02*
X131820700Y-86115700D01*
X134220700Y-82065700D02*
X134220700Y-86665700D01*
X135420700Y-81815700D02*
X135420700Y-86265700D01*
X139020700Y-79865700D02*
X139020700Y-84465700D01*
X134670700Y-82015700D02*
X134670700Y-86665700D01*
X135270700Y-81865700D02*
X135270700Y-86415700D01*
X137820700Y-79865700D02*
X137820700Y-84465700D01*
X140820700Y-80415700D02*
X140820700Y-83965700D01*
X131370700Y-83065700D02*
X132395700Y-82040700D01*
X134070700Y-82065700D02*
X134070700Y-86665700D01*
X138120700Y-79865700D02*
X138120700Y-84465700D01*
X135870700Y-81515700D02*
X135870700Y-85915700D01*
X136470700Y-80665700D02*
X136470700Y-84815700D01*
X132420700Y-82065700D02*
X132420700Y-86665700D01*
X137670700Y-79865700D02*
X137670700Y-84465700D01*
X136920700Y-80015700D02*
X136920700Y-84565700D01*
X138570700Y-79865700D02*
X138570700Y-84465700D01*
X140970700Y-83490700D02*
G75*
G02*
X139970700Y-84490700I-999999J-1D01*
G01*
X136508501Y-80543796D02*
G75*
G02*
X134370700Y-82040700I-2137800J778095D01*
G01*
X139970700Y-79840700D02*
G75*
G02*
X140970700Y-80840700I1J-999999D01*
G01*
X136508501Y-80543796D02*
G75*
G02*
X137369705Y-79841909I900000J-225000D01*
G01*
X136220700Y-85665700D02*
G75*
G02*
X137395700Y-84490700I1175002J-2D01*
G01*
X69970700Y-102240700D02*
X69970700Y-106840700D01*
X63370700Y-105440700D02*
X64395700Y-104415700D01*
X64720700Y-104440700D02*
X64720700Y-109040700D01*
X67870700Y-103890700D02*
X67870700Y-108290700D01*
X68670700Y-102640700D02*
X68670700Y-107040700D01*
X68370700Y-103240700D02*
X68370700Y-107390700D01*
X68020700Y-103740700D02*
X68020700Y-108190700D01*
X70720700Y-102240700D02*
X70720700Y-106840700D01*
X71320700Y-102240700D02*
X71320700Y-106840700D01*
X66370700Y-104440700D02*
X66370700Y-109040700D01*
X72220700Y-102290700D02*
X72220700Y-106790700D01*
X64870700Y-104440700D02*
X64870700Y-109040700D01*
X63370700Y-108040700D02*
X64395700Y-109065700D01*
X69520700Y-102240700D02*
X69520700Y-106790700D01*
X70420700Y-102240700D02*
X70420700Y-106840700D01*
X65920700Y-104440700D02*
X65920700Y-109040700D01*
X64570700Y-104440700D02*
X64570700Y-109040700D01*
X66220700Y-104440700D02*
X66220700Y-109040700D01*
X65320700Y-104440700D02*
X65320700Y-109040700D01*
X69370700Y-102240700D02*
X69370700Y-106840700D01*
X64270700Y-104590700D02*
X64270700Y-108940700D01*
X66970700Y-104390700D02*
X66970700Y-108990700D01*
X69670700Y-102240700D02*
X69670700Y-106840700D01*
X67270700Y-104240700D02*
X67270700Y-108790700D01*
X65470700Y-104440700D02*
X65470700Y-109040700D01*
X72370700Y-102340700D02*
X72370700Y-106740700D01*
X64420700Y-104440700D02*
X64420700Y-109040700D01*
X67420700Y-104190700D02*
X67420700Y-108640700D01*
X72970700Y-105865700D02*
X72970700Y-103215700D01*
X70870700Y-102240700D02*
X70870700Y-106840700D01*
X68920700Y-102390700D02*
X68920700Y-106940700D01*
X67120700Y-104340700D02*
X67120700Y-108890700D01*
X72820700Y-102790700D02*
X72820700Y-106340700D01*
X71020700Y-102240700D02*
X71020700Y-106840700D01*
X63820700Y-104990700D02*
X63820700Y-108490700D01*
X67720700Y-103990700D02*
X67720700Y-108390700D01*
X72620700Y-102540700D02*
X72620700Y-106490700D01*
X71920700Y-102240700D02*
X71920700Y-106840700D01*
X66945700Y-109065700D02*
X68220700Y-108040700D01*
X72720700Y-102640700D02*
X72720700Y-106390700D01*
X72520700Y-102440700D02*
X72520700Y-106640700D01*
X72070700Y-102240700D02*
X72070700Y-106790700D01*
X69820700Y-102240700D02*
X69820700Y-106840700D01*
X68770700Y-102490700D02*
X68770700Y-106990700D01*
X63670700Y-105190700D02*
X63670700Y-108340700D01*
X66520700Y-104440700D02*
X66520700Y-108990700D01*
X69070700Y-102290700D02*
X69070700Y-106840700D01*
X65620700Y-104440700D02*
X65620700Y-109040700D01*
X68570700Y-102890700D02*
X68570700Y-107090700D01*
X69220700Y-102240700D02*
X69220700Y-106840700D01*
X71170700Y-102240700D02*
X71170700Y-106840700D01*
X66670700Y-104390700D02*
X66670700Y-109040700D01*
X70120700Y-102240700D02*
X70120700Y-106840700D01*
X65770700Y-104440700D02*
X65770700Y-109040700D01*
X71970700Y-102215700D02*
X69370700Y-102215700D01*
X63520700Y-105290700D02*
X63520700Y-108190700D01*
X66820700Y-104390700D02*
X66820700Y-109040700D01*
X68170700Y-103590700D02*
X68170700Y-108040700D01*
X68470700Y-103040700D02*
X68470700Y-107190700D01*
X71470700Y-102240700D02*
X71470700Y-106840700D01*
X70570700Y-102240700D02*
X70570700Y-106840700D01*
X65020700Y-104440700D02*
X65020700Y-109040700D01*
X64120700Y-104690700D02*
X64120700Y-108790700D01*
X71620700Y-102240700D02*
X71620700Y-106840700D01*
X63970700Y-104840700D02*
X63970700Y-108640700D01*
X65170700Y-104440700D02*
X65170700Y-109040700D01*
X66070700Y-104440700D02*
X66070700Y-109040700D01*
X66370700Y-104415700D02*
X64395700Y-104415700D01*
X63370700Y-108040700D02*
X63370700Y-105440700D01*
X66945700Y-109065700D02*
X64395700Y-109065700D01*
X68270700Y-103390700D02*
X68270700Y-107540700D01*
X67570700Y-104090700D02*
X67570700Y-108540700D01*
X70270700Y-102240700D02*
X70270700Y-106840700D01*
X71970700Y-106865700D02*
X69395700Y-106865700D01*
X71770700Y-102240700D02*
X71770700Y-106840700D01*
X68220700Y-108040700D02*
G75*
G02*
X69395700Y-106865700I1175002J-2D01*
G01*
X71970700Y-102215700D02*
G75*
G02*
X72970700Y-103215700I1J-999999D01*
G01*
X68508501Y-102918796D02*
G75*
G02*
X66370700Y-104415700I-2137800J778095D01*
G01*
X68508501Y-102918796D02*
G75*
G02*
X69369705Y-102216909I900000J-225000D01*
G01*
X72970700Y-105865700D02*
G75*
G02*
X71970700Y-106865700I-999999J-1D01*
G01*
X89370700Y-91590700D02*
X89370700Y-95990700D01*
X86520700Y-91490700D02*
X86520700Y-96040700D01*
X86670700Y-91490700D02*
X86670700Y-96090700D01*
X82920700Y-93690700D02*
X82920700Y-98290700D01*
X85770700Y-91740700D02*
X85770700Y-96240700D01*
X83820700Y-93640700D02*
X83820700Y-98290700D01*
X88170700Y-91490700D02*
X88170700Y-96090700D01*
X84420700Y-93440700D02*
X84420700Y-97890700D01*
X87270700Y-91490700D02*
X87270700Y-96090700D01*
X88470700Y-91490700D02*
X88470700Y-96090700D01*
X85370700Y-92490700D02*
X85370700Y-96640700D01*
X83670700Y-93640700D02*
X83670700Y-98290700D01*
X83370700Y-93690700D02*
X83370700Y-98290700D01*
X80670700Y-94440700D02*
X80670700Y-97590700D01*
X80820700Y-94240700D02*
X80820700Y-97740700D01*
X86070700Y-91540700D02*
X86070700Y-96090700D01*
X80520700Y-94540700D02*
X80520700Y-97440700D01*
X84720700Y-93240700D02*
X84720700Y-97640700D01*
X88770700Y-91490700D02*
X88770700Y-96090700D01*
X87870700Y-91490700D02*
X87870700Y-96090700D01*
X83220700Y-93690700D02*
X83220700Y-98290700D01*
X83520700Y-93690700D02*
X83520700Y-98240700D01*
X87720700Y-91490700D02*
X87720700Y-96090700D01*
X85470700Y-92290700D02*
X85470700Y-96440700D01*
X83945700Y-98315700D02*
X81395700Y-98315700D01*
X82620700Y-93690700D02*
X82620700Y-98290700D01*
X84570700Y-93340700D02*
X84570700Y-97790700D01*
X81720700Y-93690700D02*
X81720700Y-98290700D01*
X80970700Y-94090700D02*
X80970700Y-97890700D01*
X86370700Y-91490700D02*
X86370700Y-96090700D01*
X88320700Y-91490700D02*
X88320700Y-96090700D01*
X83070700Y-93690700D02*
X83070700Y-98290700D01*
X84120700Y-93590700D02*
X84120700Y-98140700D01*
X87570700Y-91490700D02*
X87570700Y-96090700D01*
X81120700Y-93940700D02*
X81120700Y-98040700D01*
X80370700Y-97290700D02*
X81395700Y-98315700D01*
X85170700Y-92840700D02*
X85170700Y-97290700D01*
X82320700Y-93690700D02*
X82320700Y-98290700D01*
X87420700Y-91490700D02*
X87420700Y-96090700D01*
X82170700Y-93690700D02*
X82170700Y-98290700D01*
X89720700Y-91890700D02*
X89720700Y-95640700D01*
X82020700Y-93690700D02*
X82020700Y-98290700D01*
X89820700Y-92040700D02*
X89820700Y-95590700D01*
X88620700Y-91490700D02*
X88620700Y-96090700D01*
X85270700Y-92640700D02*
X85270700Y-96790700D01*
X82470700Y-93690700D02*
X82470700Y-98290700D01*
X88020700Y-91490700D02*
X88020700Y-96090700D01*
X84270700Y-93490700D02*
X84270700Y-98040700D01*
X86220700Y-91490700D02*
X86220700Y-96090700D01*
X88920700Y-91490700D02*
X88920700Y-96090700D01*
X85920700Y-91640700D02*
X85920700Y-96190700D01*
X85020700Y-92990700D02*
X85020700Y-97440700D01*
X85670700Y-91890700D02*
X85670700Y-96290700D01*
X80370700Y-94690700D02*
X81395700Y-93665700D01*
X89070700Y-91490700D02*
X89070700Y-96040700D01*
X88970700Y-96115700D02*
X86395700Y-96115700D01*
X89970700Y-95115700D02*
X89970700Y-92465700D01*
X80370700Y-97290700D02*
X80370700Y-94690700D01*
X82770700Y-93690700D02*
X82770700Y-98290700D01*
X84870700Y-93140700D02*
X84870700Y-97540700D01*
X89220700Y-91540700D02*
X89220700Y-96040700D01*
X81570700Y-93690700D02*
X81570700Y-98290700D01*
X83945700Y-98315700D02*
X85220700Y-97290700D01*
X87120700Y-91490700D02*
X87120700Y-96090700D01*
X89620700Y-91790700D02*
X89620700Y-95740700D01*
X83970700Y-93640700D02*
X83970700Y-98240700D01*
X86820700Y-91490700D02*
X86820700Y-96090700D01*
X81870700Y-93690700D02*
X81870700Y-98290700D01*
X88970700Y-91465700D02*
X86370700Y-91465700D01*
X81420700Y-93690700D02*
X81420700Y-98290700D01*
X83370700Y-93665700D02*
X81395700Y-93665700D01*
X89520700Y-91690700D02*
X89520700Y-95890700D01*
X86970700Y-91490700D02*
X86970700Y-96090700D01*
X81270700Y-93840700D02*
X81270700Y-98190700D01*
X85570700Y-92140700D02*
X85570700Y-96340700D01*
X85220700Y-97290700D02*
G75*
G02*
X86395700Y-96115700I1175002J-2D01*
G01*
X89970700Y-95115700D02*
G75*
G02*
X88970700Y-96115700I-999999J-1D01*
G01*
X85508501Y-92168796D02*
G75*
G02*
X86369705Y-91466909I900000J-225000D01*
G01*
X85508501Y-92168796D02*
G75*
G02*
X83370700Y-93665700I-2137800J778095D01*
G01*
X88970700Y-91465700D02*
G75*
G02*
X89970700Y-92465700I1J-999999D01*
G01*
X102920700Y-88265700D02*
X102920700Y-92815700D01*
X104120700Y-88115700D02*
X104120700Y-92715700D01*
X102470700Y-88915700D02*
X102470700Y-93065700D01*
X100820700Y-90265700D02*
X100820700Y-94915700D01*
X103670700Y-88115700D02*
X103670700Y-92715700D01*
X102020700Y-89615700D02*
X102020700Y-94065700D01*
X100370700Y-90290700D02*
X98395700Y-90290700D01*
X101120700Y-90215700D02*
X101120700Y-94765700D01*
X106520700Y-88315700D02*
X106520700Y-92515700D01*
X106820700Y-88665700D02*
X106820700Y-92215700D01*
X104270700Y-88115700D02*
X104270700Y-92715700D01*
X104420700Y-88115700D02*
X104420700Y-92715700D01*
X97370700Y-93915700D02*
X98395700Y-94940700D01*
X97370700Y-91315700D02*
X98395700Y-90290700D01*
X105020700Y-88115700D02*
X105020700Y-92715700D01*
X105320700Y-88115700D02*
X105320700Y-92715700D01*
X106620700Y-88415700D02*
X106620700Y-92365700D01*
X104570700Y-88115700D02*
X104570700Y-92715700D01*
X97370700Y-93915700D02*
X97370700Y-91315700D01*
X100220700Y-90315700D02*
X100220700Y-94915700D01*
X106970700Y-91740700D02*
X106970700Y-89090700D01*
X100070700Y-90315700D02*
X100070700Y-94915700D01*
X105920700Y-88115700D02*
X105920700Y-92715700D01*
X98870700Y-90315700D02*
X98870700Y-94915700D01*
X105970700Y-88090700D02*
X103370700Y-88090700D01*
X102270700Y-89265700D02*
X102270700Y-93415700D01*
X102370700Y-89115700D02*
X102370700Y-93265700D01*
X98270700Y-90465700D02*
X98270700Y-94815700D01*
X103520700Y-88115700D02*
X103520700Y-92665700D01*
X99320700Y-90315700D02*
X99320700Y-94915700D01*
X101420700Y-90065700D02*
X101420700Y-94515700D01*
X103220700Y-88115700D02*
X103220700Y-92715700D01*
X104870700Y-88115700D02*
X104870700Y-92715700D01*
X103820700Y-88115700D02*
X103820700Y-92715700D01*
X99620700Y-90315700D02*
X99620700Y-94915700D01*
X100945700Y-94940700D02*
X98395700Y-94940700D01*
X98570700Y-90315700D02*
X98570700Y-94915700D01*
X103370700Y-88115700D02*
X103370700Y-92715700D01*
X106220700Y-88165700D02*
X106220700Y-92665700D01*
X103970700Y-88115700D02*
X103970700Y-92715700D01*
X98720700Y-90315700D02*
X98720700Y-94915700D01*
X100970700Y-90265700D02*
X100970700Y-94865700D01*
X105770700Y-88115700D02*
X105770700Y-92715700D01*
X99920700Y-90315700D02*
X99920700Y-94915700D01*
X99020700Y-90315700D02*
X99020700Y-94915700D01*
X102670700Y-88515700D02*
X102670700Y-92915700D01*
X103070700Y-88165700D02*
X103070700Y-92715700D01*
X97820700Y-90865700D02*
X97820700Y-94365700D01*
X101870700Y-89765700D02*
X101870700Y-94165700D01*
X101720700Y-89865700D02*
X101720700Y-94265700D01*
X106070700Y-88115700D02*
X106070700Y-92665700D01*
X101270700Y-90115700D02*
X101270700Y-94665700D01*
X100945700Y-94940700D02*
X102220700Y-93915700D01*
X102170700Y-89465700D02*
X102170700Y-93915700D01*
X100520700Y-90315700D02*
X100520700Y-94865700D01*
X97670700Y-91065700D02*
X97670700Y-94215700D01*
X101570700Y-89965700D02*
X101570700Y-94415700D01*
X98420700Y-90315700D02*
X98420700Y-94915700D01*
X102770700Y-88365700D02*
X102770700Y-92865700D01*
X105470700Y-88115700D02*
X105470700Y-92715700D01*
X106720700Y-88515700D02*
X106720700Y-92265700D01*
X106370700Y-88215700D02*
X106370700Y-92615700D01*
X98120700Y-90565700D02*
X98120700Y-94665700D01*
X99170700Y-90315700D02*
X99170700Y-94915700D01*
X97970700Y-90715700D02*
X97970700Y-94515700D01*
X105620700Y-88115700D02*
X105620700Y-92715700D01*
X100670700Y-90265700D02*
X100670700Y-94915700D01*
X104720700Y-88115700D02*
X104720700Y-92715700D01*
X105170700Y-88115700D02*
X105170700Y-92715700D01*
X99770700Y-90315700D02*
X99770700Y-94915700D01*
X100370700Y-90315700D02*
X100370700Y-94915700D01*
X99470700Y-90315700D02*
X99470700Y-94915700D01*
X102570700Y-88765700D02*
X102570700Y-92965700D01*
X105970700Y-92740700D02*
X103395700Y-92740700D01*
X97520700Y-91165700D02*
X97520700Y-94065700D01*
X102220700Y-93915700D02*
G75*
G02*
X103395700Y-92740700I1175002J-2D01*
G01*
X102508501Y-88793796D02*
G75*
G02*
X103369705Y-88091909I900000J-225000D01*
G01*
X105970700Y-88090700D02*
G75*
G02*
X106970700Y-89090700I1J-999999D01*
G01*
X106970700Y-91740700D02*
G75*
G02*
X105970700Y-92740700I-999999J-1D01*
G01*
X102508501Y-88793796D02*
G75*
G02*
X100370700Y-90290700I-2137800J778095D01*
G01*
X120220700Y-95490700D02*
X120220700Y-100090700D01*
X118270700Y-97490700D02*
X118270700Y-102040700D01*
X117520700Y-97690700D02*
X117520700Y-102240700D01*
X122970700Y-100115700D02*
X120395700Y-100115700D01*
X114370700Y-101290700D02*
X114370700Y-98690700D01*
X123370700Y-95590700D02*
X123370700Y-99990700D01*
X115570700Y-97690700D02*
X115570700Y-102290700D01*
X120370700Y-95490700D02*
X120370700Y-100090700D01*
X123720700Y-95890700D02*
X123720700Y-99640700D01*
X122470700Y-95490700D02*
X122470700Y-100090700D01*
X117670700Y-97640700D02*
X117670700Y-102290700D01*
X117945700Y-102315700D02*
X115395700Y-102315700D01*
X116020700Y-97690700D02*
X116020700Y-102290700D01*
X122620700Y-95490700D02*
X122620700Y-100090700D01*
X117820700Y-97640700D02*
X117820700Y-102290700D01*
X119170700Y-96840700D02*
X119170700Y-101290700D01*
X121870700Y-95490700D02*
X121870700Y-100090700D01*
X116170700Y-97690700D02*
X116170700Y-102290700D01*
X116770700Y-97690700D02*
X116770700Y-102290700D01*
X115270700Y-97840700D02*
X115270700Y-102190700D01*
X117370700Y-97665700D02*
X115395700Y-97665700D01*
X123620700Y-95790700D02*
X123620700Y-99740700D01*
X118120700Y-97590700D02*
X118120700Y-102140700D01*
X121120700Y-95490700D02*
X121120700Y-100090700D01*
X119370700Y-96490700D02*
X119370700Y-100640700D01*
X115420700Y-97690700D02*
X115420700Y-102290700D01*
X119570700Y-96140700D02*
X119570700Y-100340700D01*
X122020700Y-95490700D02*
X122020700Y-100090700D01*
X123070700Y-95490700D02*
X123070700Y-100040700D01*
X115120700Y-97940700D02*
X115120700Y-102040700D01*
X122170700Y-95490700D02*
X122170700Y-100090700D01*
X119020700Y-96990700D02*
X119020700Y-101440700D01*
X119670700Y-95890700D02*
X119670700Y-100290700D01*
X119920700Y-95640700D02*
X119920700Y-100190700D01*
X115870700Y-97690700D02*
X115870700Y-102290700D01*
X121270700Y-95490700D02*
X121270700Y-100090700D01*
X119770700Y-95740700D02*
X119770700Y-100240700D01*
X116920700Y-97690700D02*
X116920700Y-102290700D01*
X114820700Y-98240700D02*
X114820700Y-101740700D01*
X114370700Y-98690700D02*
X115395700Y-97665700D01*
X118870700Y-97140700D02*
X118870700Y-101540700D01*
X117220700Y-97690700D02*
X117220700Y-102290700D01*
X119270700Y-96640700D02*
X119270700Y-100790700D01*
X122920700Y-95490700D02*
X122920700Y-100090700D01*
X116320700Y-97690700D02*
X116320700Y-102290700D01*
X123970700Y-99115700D02*
X123970700Y-96465700D01*
X117070700Y-97690700D02*
X117070700Y-102290700D01*
X117370700Y-97690700D02*
X117370700Y-102290700D01*
X114370700Y-101290700D02*
X115395700Y-102315700D01*
X118720700Y-97240700D02*
X118720700Y-101640700D01*
X118570700Y-97340700D02*
X118570700Y-101790700D01*
X123520700Y-95690700D02*
X123520700Y-99890700D01*
X116470700Y-97690700D02*
X116470700Y-102290700D01*
X121420700Y-95490700D02*
X121420700Y-100090700D01*
X114520700Y-98540700D02*
X114520700Y-101440700D01*
X121720700Y-95490700D02*
X121720700Y-100090700D01*
X114670700Y-98440700D02*
X114670700Y-101590700D01*
X117945700Y-102315700D02*
X119220700Y-101290700D01*
X120070700Y-95540700D02*
X120070700Y-100090700D01*
X116620700Y-97690700D02*
X116620700Y-102290700D01*
X122970700Y-95465700D02*
X120370700Y-95465700D01*
X122320700Y-95490700D02*
X122320700Y-100090700D01*
X114970700Y-98090700D02*
X114970700Y-101890700D01*
X115720700Y-97690700D02*
X115720700Y-102290700D01*
X119470700Y-96290700D02*
X119470700Y-100440700D01*
X121570700Y-95490700D02*
X121570700Y-100090700D01*
X120670700Y-95490700D02*
X120670700Y-100090700D01*
X120970700Y-95490700D02*
X120970700Y-100090700D01*
X117970700Y-97640700D02*
X117970700Y-102240700D01*
X118420700Y-97440700D02*
X118420700Y-101890700D01*
X120520700Y-95490700D02*
X120520700Y-100040700D01*
X123220700Y-95540700D02*
X123220700Y-100040700D01*
X120820700Y-95490700D02*
X120820700Y-100090700D01*
X123820700Y-96040700D02*
X123820700Y-99590700D01*
X122770700Y-95490700D02*
X122770700Y-100090700D01*
X119220700Y-101290700D02*
G75*
G02*
X120395700Y-100115700I1175002J-2D01*
G01*
X119508501Y-96168796D02*
G75*
G02*
X120369705Y-95466909I900000J-225000D01*
G01*
X122970700Y-95465700D02*
G75*
G02*
X123970700Y-96465700I1J-999999D01*
G01*
X123970700Y-99115700D02*
G75*
G02*
X122970700Y-100115700I-999999J-1D01*
G01*
X119508501Y-96168796D02*
G75*
G02*
X117370700Y-97665700I-2137800J778095D01*
G01*
X138270700Y-96865700D02*
X138270700Y-101465700D01*
X140370700Y-96965700D02*
X140370700Y-101365700D01*
X134070700Y-99065700D02*
X134070700Y-103665700D01*
X134370700Y-99040700D02*
X132395700Y-99040700D01*
X139020700Y-96865700D02*
X139020700Y-101465700D01*
X140720700Y-97265700D02*
X140720700Y-101015700D01*
X131970700Y-99465700D02*
X131970700Y-103265700D01*
X136770700Y-97115700D02*
X136770700Y-101615700D01*
X137220700Y-96865700D02*
X137220700Y-101465700D01*
X131370700Y-100065700D02*
X132395700Y-99040700D01*
X134670700Y-99015700D02*
X134670700Y-103665700D01*
X140070700Y-96865700D02*
X140070700Y-101415700D01*
X138570700Y-96865700D02*
X138570700Y-101465700D01*
X134945700Y-103690700D02*
X132395700Y-103690700D01*
X136570700Y-97515700D02*
X136570700Y-101715700D01*
X137820700Y-96865700D02*
X137820700Y-101465700D01*
X139170700Y-96865700D02*
X139170700Y-101465700D01*
X136270700Y-98015700D02*
X136270700Y-102165700D01*
X134220700Y-99065700D02*
X134220700Y-103665700D01*
X138420700Y-96865700D02*
X138420700Y-101465700D01*
X132420700Y-99065700D02*
X132420700Y-103665700D01*
X135570700Y-98715700D02*
X135570700Y-103165700D01*
X138120700Y-96865700D02*
X138120700Y-101465700D01*
X132720700Y-99065700D02*
X132720700Y-103665700D01*
X135420700Y-98815700D02*
X135420700Y-103265700D01*
X133620700Y-99065700D02*
X133620700Y-103665700D01*
X136170700Y-98215700D02*
X136170700Y-102665700D01*
X135720700Y-98615700D02*
X135720700Y-103015700D01*
X135270700Y-98865700D02*
X135270700Y-103415700D01*
X135120700Y-98965700D02*
X135120700Y-103515700D01*
X136470700Y-97665700D02*
X136470700Y-101815700D01*
X136670700Y-97265700D02*
X136670700Y-101665700D01*
X135870700Y-98515700D02*
X135870700Y-102915700D01*
X134970700Y-99015700D02*
X134970700Y-103615700D01*
X131820700Y-99615700D02*
X131820700Y-103115700D01*
X136920700Y-97015700D02*
X136920700Y-101565700D01*
X140220700Y-96915700D02*
X140220700Y-101415700D01*
X140520700Y-97065700D02*
X140520700Y-101265700D01*
X131370700Y-102665700D02*
X131370700Y-100065700D01*
X137370700Y-96865700D02*
X137370700Y-101465700D01*
X131370700Y-102665700D02*
X132395700Y-103690700D01*
X132570700Y-99065700D02*
X132570700Y-103665700D01*
X136020700Y-98365700D02*
X136020700Y-102815700D01*
X140820700Y-97415700D02*
X140820700Y-100965700D01*
X131520700Y-99915700D02*
X131520700Y-102815700D01*
X137520700Y-96865700D02*
X137520700Y-101415700D01*
X133320700Y-99065700D02*
X133320700Y-103665700D01*
X138870700Y-96865700D02*
X138870700Y-101465700D01*
X140970700Y-100490700D02*
X140970700Y-97840700D01*
X131670700Y-99815700D02*
X131670700Y-102965700D01*
X137070700Y-96915700D02*
X137070700Y-101465700D01*
X139320700Y-96865700D02*
X139320700Y-101465700D01*
X132270700Y-99215700D02*
X132270700Y-103565700D01*
X132120700Y-99315700D02*
X132120700Y-103415700D01*
X134520700Y-99065700D02*
X134520700Y-103615700D01*
X134370700Y-99065700D02*
X134370700Y-103665700D01*
X140620700Y-97165700D02*
X140620700Y-101115700D01*
X132870700Y-99065700D02*
X132870700Y-103665700D01*
X133020700Y-99065700D02*
X133020700Y-103665700D01*
X139470700Y-96865700D02*
X139470700Y-101465700D01*
X133920700Y-99065700D02*
X133920700Y-103665700D01*
X134945700Y-103690700D02*
X136220700Y-102665700D01*
X133470700Y-99065700D02*
X133470700Y-103665700D01*
X137670700Y-96865700D02*
X137670700Y-101465700D01*
X133170700Y-99065700D02*
X133170700Y-103665700D01*
X139920700Y-96865700D02*
X139920700Y-101465700D01*
X138720700Y-96865700D02*
X138720700Y-101465700D01*
X136370700Y-97865700D02*
X136370700Y-102015700D01*
X139620700Y-96865700D02*
X139620700Y-101465700D01*
X137970700Y-96865700D02*
X137970700Y-101465700D01*
X139970700Y-101490700D02*
X137395700Y-101490700D01*
X139970700Y-96840700D02*
X137370700Y-96840700D01*
X134820700Y-99015700D02*
X134820700Y-103665700D01*
X133770700Y-99065700D02*
X133770700Y-103665700D01*
X139770700Y-96865700D02*
X139770700Y-101465700D01*
X139970700Y-96840700D02*
G75*
G02*
X140970700Y-97840700I1J-999999D01*
G01*
X136220700Y-102665700D02*
G75*
G02*
X137395700Y-101490700I1175002J-2D01*
G01*
X136508501Y-97543796D02*
G75*
G02*
X137369705Y-96841909I900000J-225000D01*
G01*
X140970700Y-100490700D02*
G75*
G02*
X139970700Y-101490700I-999999J-1D01*
G01*
X136508501Y-97543796D02*
G75*
G02*
X134370700Y-99040700I-2137800J778095D01*
G01*
X108720700Y-111815700D02*
X108720700Y-107215700D01*
X107070700Y-111815700D02*
X107070700Y-107215700D01*
X115170700Y-108865700D02*
X115170700Y-105715700D01*
X115020700Y-109065700D02*
X115020700Y-105565700D01*
X106920700Y-111815700D02*
X106920700Y-107215700D01*
X107970700Y-111815700D02*
X107970700Y-107215700D01*
X113820700Y-109615700D02*
X113820700Y-105015700D01*
X109170700Y-111815700D02*
X109170700Y-107215700D01*
X111120700Y-110065700D02*
X111120700Y-105665700D01*
X111895700Y-104990700D02*
X114445700Y-104990700D01*
X111570700Y-109815700D02*
X111570700Y-105265700D01*
X110170700Y-111415700D02*
X110170700Y-107015700D01*
X112470700Y-109615700D02*
X112470700Y-105015700D01*
X107220700Y-111815700D02*
X107220700Y-107215700D01*
X114870700Y-109215700D02*
X114870700Y-105415700D01*
X109470700Y-111815700D02*
X109470700Y-107215700D01*
X112320700Y-109615700D02*
X112320700Y-105065700D01*
X106870700Y-111840700D02*
X109470700Y-111840700D01*
X110270700Y-111165700D02*
X110270700Y-106965700D01*
X108120700Y-111815700D02*
X108120700Y-107215700D01*
X115470700Y-106015700D02*
X115470700Y-108615700D01*
X108570700Y-111815700D02*
X108570700Y-107215700D01*
X115470700Y-106015700D02*
X114445700Y-104990700D01*
X111895700Y-104990700D02*
X110620700Y-106015700D01*
X110820700Y-110315700D02*
X110820700Y-105865700D01*
X113370700Y-109615700D02*
X113370700Y-105015700D01*
X107670700Y-111815700D02*
X107670700Y-107215700D01*
X110370700Y-111015700D02*
X110370700Y-106865700D01*
X109320700Y-111815700D02*
X109320700Y-107265700D01*
X106320700Y-111615700D02*
X106320700Y-107415700D01*
X108420700Y-111815700D02*
X108420700Y-107215700D01*
X113070700Y-109615700D02*
X113070700Y-105015700D01*
X110970700Y-110165700D02*
X110970700Y-105765700D01*
X111870700Y-109665700D02*
X111870700Y-105065700D01*
X109920700Y-111665700D02*
X109920700Y-107115700D01*
X108870700Y-111815700D02*
X108870700Y-107215700D01*
X110070700Y-111565700D02*
X110070700Y-107065700D01*
X111720700Y-109715700D02*
X111720700Y-105165700D01*
X114720700Y-109365700D02*
X114720700Y-105265700D01*
X110570700Y-110665700D02*
X110570700Y-106515700D01*
X108270700Y-111815700D02*
X108270700Y-107215700D01*
X113970700Y-109615700D02*
X113970700Y-105015700D01*
X114120700Y-109615700D02*
X114120700Y-105015700D01*
X110470700Y-110815700D02*
X110470700Y-106665700D01*
X105870700Y-108190700D02*
X105870700Y-110840700D01*
X106220700Y-111515700D02*
X106220700Y-107565700D01*
X112620700Y-109615700D02*
X112620700Y-105015700D01*
X106470700Y-111715700D02*
X106470700Y-107315700D01*
X112770700Y-109615700D02*
X112770700Y-105015700D01*
X112020700Y-109665700D02*
X112020700Y-105015700D01*
X111270700Y-109965700D02*
X111270700Y-105515700D01*
X114570700Y-109465700D02*
X114570700Y-105115700D01*
X112920700Y-109615700D02*
X112920700Y-105015700D01*
X111420700Y-109865700D02*
X111420700Y-105415700D01*
X112470700Y-109640700D02*
X114445700Y-109640700D01*
X109770700Y-111765700D02*
X109770700Y-107215700D01*
X113220700Y-109615700D02*
X113220700Y-105015700D01*
X114270700Y-109615700D02*
X114270700Y-105015700D01*
X107820700Y-111815700D02*
X107820700Y-107215700D01*
X112170700Y-109665700D02*
X112170700Y-105015700D01*
X110670700Y-110465700D02*
X110670700Y-106015700D01*
X107520700Y-111815700D02*
X107520700Y-107215700D01*
X106870700Y-107190700D02*
X109445700Y-107190700D01*
X114420700Y-109615700D02*
X114420700Y-105015700D01*
X113520700Y-109615700D02*
X113520700Y-105015700D01*
X109020700Y-111815700D02*
X109020700Y-107215700D01*
X106020700Y-111265700D02*
X106020700Y-107715700D01*
X106620700Y-111765700D02*
X106620700Y-107265700D01*
X109620700Y-111815700D02*
X109620700Y-107215700D01*
X106120700Y-111415700D02*
X106120700Y-107665700D01*
X115470700Y-108615700D02*
X114445700Y-109640700D01*
X113670700Y-109615700D02*
X113670700Y-105015700D01*
X106770700Y-111815700D02*
X106770700Y-107265700D01*
X107370700Y-111815700D02*
X107370700Y-107215700D01*
X115320700Y-108765700D02*
X115320700Y-105865700D01*
X110332899Y-111137604D02*
G75*
G02*
X109471695Y-111839491I-900000J225000D01*
G01*
X105870700Y-108190700D02*
G75*
G02*
X106870700Y-107190700I999999J1D01*
G01*
X110620700Y-106015700D02*
G75*
G02*
X109445700Y-107190700I-1175002J2D01*
G01*
X110332899Y-111137604D02*
G75*
G02*
X112470700Y-109640700I2137800J-778095D01*
G01*
X106870700Y-111840700D02*
G75*
G02*
X105870700Y-110840700I-1J999999D01*
G01*
X127657534Y-112698382D02*
X128456316Y-108168266D01*
X133357522Y-111469505D02*
X134156304Y-106939389D01*
X128248419Y-112802571D02*
X129047200Y-108272455D01*
X131880310Y-111209033D02*
X132679092Y-106678917D01*
X128396140Y-112828618D02*
X129194922Y-108298502D01*
X133844098Y-111301445D02*
X134556055Y-107263733D01*
X127952976Y-112750476D02*
X128751758Y-108220361D01*
X131133022Y-111128037D02*
X131940486Y-106548681D01*
X133062080Y-111417411D02*
X133860861Y-106887295D01*
X127805255Y-112724429D02*
X128604037Y-108194314D01*
X132766637Y-111365316D02*
X133565419Y-106835201D01*
X130177236Y-111365677D02*
X130941288Y-107032523D01*
X133505243Y-111495552D02*
X134304025Y-106965437D01*
X131584868Y-111156938D02*
X132383650Y-106626823D01*
X126918928Y-112568146D02*
X127717710Y-108038030D01*
X131580527Y-111181559D02*
X133525522Y-111524514D01*
X135164425Y-108132575D02*
X134712939Y-110693075D01*
X134539171Y-110814749D02*
X135042751Y-107958807D01*
X132471195Y-111313222D02*
X133269977Y-106783106D01*
X129664613Y-111681458D02*
X130437347Y-107299064D01*
X125181004Y-112058618D02*
X125910326Y-107922425D01*
X130012150Y-111438110D02*
X130776202Y-107104956D01*
X131732589Y-111182986D02*
X132531371Y-106652870D01*
X126491041Y-107796350D02*
X129026921Y-108243494D01*
X128882715Y-112660558D02*
X129664132Y-108228923D01*
X129273664Y-112171008D02*
X129994304Y-108084056D01*
X128100698Y-112776524D02*
X128890797Y-108295648D01*
X129838381Y-111559784D02*
X130611116Y-107177390D01*
X133209801Y-111443458D02*
X134008582Y-106913342D01*
X125884880Y-112385815D02*
X126683662Y-107855700D01*
X134374085Y-110887183D02*
X134921077Y-107785038D01*
X130985301Y-111101990D02*
X131784083Y-106571874D01*
X125311360Y-112183146D02*
X126075412Y-107849991D01*
X125332585Y-108607509D02*
X124872418Y-111217250D01*
X132175753Y-111261127D02*
X132974534Y-106731012D01*
X128717629Y-112732991D02*
X129507729Y-108252116D01*
X126475765Y-112490004D02*
X127274546Y-107959889D01*
X131280743Y-111154084D02*
X132088207Y-106574728D01*
X135164425Y-108132575D02*
X134332986Y-106945158D01*
X130507408Y-111220810D02*
X131280142Y-106838415D01*
X131821726Y-106502355D02*
X134332986Y-106945158D01*
X129531403Y-111861055D02*
X130252043Y-107774103D01*
X126180322Y-112437910D02*
X126979104Y-107907794D01*
X134191634Y-111058097D02*
X134799403Y-107611270D01*
X134017866Y-111179771D02*
X134677729Y-107437501D01*
X127362092Y-112646288D02*
X128160873Y-108116172D01*
X132914358Y-111391363D02*
X133713140Y-106861248D01*
X124946339Y-111661840D02*
X125562790Y-108165773D01*
X130342322Y-111293243D02*
X131115056Y-106910849D01*
X125450399Y-112258433D02*
X126231816Y-107826798D01*
X125737159Y-112359768D02*
X126535941Y-107829652D01*
X130828897Y-111125183D02*
X131618997Y-106644308D01*
X131437147Y-111130891D02*
X132227246Y-106650016D01*
X126771207Y-112542099D02*
X127569989Y-108011983D01*
X125099888Y-111942772D02*
X125785798Y-108052781D01*
X132028032Y-111235080D02*
X132826813Y-106704964D01*
X134712939Y-110693075D02*
X133525522Y-111524514D01*
X132618916Y-111339269D02*
X133417698Y-106809153D01*
X126032601Y-112411862D02*
X126831383Y-107881747D01*
X129149136Y-112301364D02*
X129878459Y-108165172D01*
X129007243Y-112530202D02*
X129771295Y-108197047D01*
X133679012Y-111373878D02*
X134434381Y-107089965D01*
X126328044Y-112463957D02*
X127126825Y-107933841D01*
X125589438Y-112333721D02*
X126379537Y-107852846D01*
X128552543Y-112805425D02*
X129342643Y-108324550D01*
X125018772Y-111826926D02*
X125669953Y-108133897D01*
X125683577Y-112375706D02*
X128244078Y-112827191D01*
X127509813Y-112672335D02*
X128308595Y-108142219D01*
X131821726Y-106502355D02*
X130388107Y-107290381D01*
X127214371Y-112620240D02*
X128013152Y-108090125D01*
X130663811Y-111197617D02*
X131453911Y-106716741D01*
X127066649Y-112594193D02*
X127865431Y-108064077D01*
X126623486Y-112516051D02*
X127422268Y-107985936D01*
X132323474Y-111287174D02*
X133122255Y-106757059D01*
X129406875Y-111991411D02*
X130127515Y-107904459D01*
X125683577Y-112375706D02*
G75*
G02*
X124872417Y-111217250I173650J984809D01*
G01*
X130388107Y-107290381D02*
G75*
G02*
X129026921Y-108243494I-1157151J204039D01*
G01*
X129215269Y-112284496D02*
G75*
G02*
X131580527Y-111181558I1970209J-1137502D01*
G01*
X129215269Y-112284496D02*
G75*
G02*
X128245267Y-112826173I-847256J377865D01*
G01*
X125332585Y-108607509D02*
G75*
G02*
X126491041Y-107796349I984807J-173647D01*
G01*
X160357100Y-89672700D02*
X160357100Y-59192700D01*
X147677100Y-59192700D02*
X147677100Y-89672700D01*
X162897100Y-89672700D02*
X160357100Y-89672700D01*
X160357100Y-59192700D02*
X162897100Y-59192700D01*
X147677100Y-89672700D02*
X145137100Y-89672700D01*
X145137100Y-89672700D02*
X145137100Y-59192700D01*
X145137100Y-59192700D02*
X147677100Y-59192700D01*
X162897100Y-59192700D02*
X162897100Y-89672700D01*
X156913313Y-95872298D02*
X151275157Y-93820177D01*
X150078087Y-97109102D02*
X150163592Y-96874179D01*
X155716243Y-99161223D02*
X150078087Y-97109102D01*
X151275157Y-93820177D02*
X151189652Y-94055101D01*
X155716243Y-99161223D02*
X155801748Y-98926299D01*
X156913313Y-95872298D02*
X156827808Y-96107221D01*
X147901185Y-113635063D02*
X148576675Y-111779170D01*
X148236814Y-112639835D02*
X143914228Y-111066542D01*
X148288117Y-112498881D02*
X143965531Y-110925589D01*
X148974577Y-116899026D02*
X144698976Y-115342833D01*
X148442026Y-112076019D02*
X144119440Y-110502727D01*
X148867653Y-117338988D02*
X144592051Y-115782797D01*
X148060795Y-115608676D02*
X143879163Y-114086687D01*
X148782493Y-116403442D02*
X144647844Y-114898553D01*
X147653654Y-120089662D02*
X143706945Y-118653178D01*
X143334953Y-112584992D02*
X143862062Y-114133671D01*
X148457228Y-118466619D02*
X144134643Y-116893327D01*
X148321283Y-115916322D02*
X144421560Y-114496938D01*
X148252016Y-119030436D02*
X143929431Y-117457143D01*
X148970259Y-117057081D02*
X144647673Y-115483788D01*
X144281297Y-119341105D02*
X146771483Y-120247457D01*
X147715147Y-114365484D02*
X143439545Y-112809292D01*
X148544632Y-111794112D02*
X144222046Y-110220819D01*
X148559834Y-118184713D02*
X144237250Y-116611419D01*
X148454981Y-111601854D02*
X144367318Y-110114067D01*
X148339420Y-112357926D02*
X144016834Y-110784634D01*
X148713744Y-117761850D02*
X144391158Y-116188557D01*
X148031602Y-113203650D02*
X143709015Y-111630358D01*
X148046804Y-119594251D02*
X143724218Y-118020958D01*
X143334953Y-112584992D02*
X144207104Y-110188776D01*
X147897214Y-119859057D02*
X143668597Y-118319967D01*
X148508531Y-118325665D02*
X144185946Y-116752372D01*
X147770768Y-114066475D02*
X143401197Y-112476081D01*
X148611138Y-118043758D02*
X144288552Y-116470465D01*
X147995501Y-119735206D02*
X143719900Y-118179013D01*
X147822071Y-113925521D02*
X143452501Y-112335127D01*
X148816349Y-117479943D02*
X144493765Y-115906650D01*
X148053196Y-119649786D02*
X148942448Y-117206585D01*
X145520859Y-109576162D02*
X144207104Y-110188776D01*
X148322664Y-111234442D02*
X144751832Y-109934765D01*
X148053711Y-110657671D02*
X145328603Y-109665813D01*
X148931912Y-116723870D02*
X144656310Y-115167678D01*
X148233013Y-111042185D02*
X144944089Y-109845115D01*
X147826390Y-113767467D02*
X143550788Y-112211275D01*
X147971144Y-115416419D02*
X143789512Y-113894430D01*
X147796160Y-114873850D02*
X143614529Y-113351861D01*
X148134209Y-112921743D02*
X143811622Y-111348450D01*
X147838827Y-115049006D02*
X143704179Y-113544118D01*
X147964060Y-110465414D02*
X148576675Y-111779170D01*
X148475020Y-116078695D02*
X144575295Y-114659311D01*
X143683625Y-118059392D02*
X144564327Y-115639684D01*
X147928995Y-113485558D02*
X143606409Y-111912266D01*
X148765046Y-117620896D02*
X144442461Y-116047603D01*
X147877693Y-113626513D02*
X143555106Y-112053220D01*
X147798926Y-119982910D02*
X143664279Y-118478022D01*
X148098107Y-119453297D02*
X143775521Y-117880004D01*
X148581772Y-116223967D02*
X144635063Y-114787483D01*
X148918956Y-117198034D02*
X144596370Y-115624742D01*
X148082905Y-113062697D02*
X143760318Y-111489404D01*
X148185511Y-112780789D02*
X143862925Y-111207496D01*
X148354623Y-118748527D02*
X144032037Y-117175235D01*
X148493329Y-111935066D02*
X144170743Y-110361773D01*
X145520859Y-109576162D02*
X147964060Y-110465414D01*
X148303320Y-118889481D02*
X143980734Y-117316189D01*
X148662441Y-117902804D02*
X144339855Y-116329511D01*
X147525483Y-120149429D02*
X143813696Y-118798451D01*
X148405926Y-118607573D02*
X144083340Y-117034281D01*
X148412315Y-111426699D02*
X144559575Y-110024416D01*
X147881493Y-115224162D02*
X143746846Y-113719274D01*
X148889245Y-116548714D02*
X144660628Y-115009623D01*
X148149410Y-119312343D02*
X143826824Y-117739050D01*
X148200713Y-119171389D02*
X143878128Y-117598095D01*
X147757813Y-114540640D02*
X143482211Y-112984448D01*
X147753494Y-114698695D02*
X143571862Y-113176705D01*
X147719465Y-114207429D02*
X143396879Y-112634136D01*
X147222155Y-120251864D02*
X143886247Y-119037691D01*
X148214531Y-115771049D02*
X144314807Y-114351666D01*
X147980299Y-113344605D02*
X143657712Y-111771312D01*
X147397311Y-120209197D02*
X143873464Y-118926621D01*
X148096376Y-110832827D02*
X145136345Y-109755463D01*
X148390724Y-112216974D02*
X144068137Y-110643681D01*
X148576643Y-116155910D02*
G75*
G02*
X148941652Y-117205237I-519249J-768769D01*
G01*
X143862062Y-114133671D02*
G75*
G02*
X144564327Y-115639684I-401876J-1104140D01*
G01*
X148576643Y-116155910D02*
G75*
G02*
X147901184Y-113635063I1462346J1742752D01*
G01*
X148053196Y-119649786D02*
G75*
G02*
X146771483Y-120247458I-939692J342019D01*
G01*
X144281298Y-119341105D02*
G75*
G02*
X143683625Y-118059392I342018J939692D01*
G01*
D12*
G36*
X153766129Y-69220472D02*
G01*
X154052893Y-69270455D01*
X154295442Y-69379816D01*
X154524773Y-69569275D01*
X154771884Y-69859553D01*
X155067774Y-70271369D01*
X155130904Y-70363364D01*
X155398075Y-70752877D01*
X155660812Y-71133368D01*
X155888806Y-71461095D01*
X156051136Y-71691457D01*
X156201531Y-71914738D01*
X156288596Y-72100151D01*
X156328962Y-72308899D01*
X156339261Y-72602187D01*
X156338742Y-72749790D01*
X156310559Y-73133176D01*
X156239512Y-73522307D01*
X156137582Y-73880959D01*
X156016750Y-74172909D01*
X155888999Y-74361934D01*
X155788044Y-74414724D01*
X155681143Y-74478752D01*
X155513117Y-74647455D01*
X155318469Y-74885760D01*
X155299055Y-74911814D01*
X155062085Y-75205405D01*
X154832405Y-75409500D01*
X154542120Y-75578153D01*
X154349929Y-75667461D01*
X154061717Y-75808863D01*
X153838679Y-75943180D01*
X153723883Y-76044053D01*
X153719072Y-76053555D01*
X153742436Y-76180314D01*
X153846906Y-76396013D01*
X154005070Y-76659599D01*
X154189515Y-76930023D01*
X154372826Y-77166234D01*
X154527590Y-77327180D01*
X154599417Y-77371853D01*
X154770189Y-77412378D01*
X155014410Y-77460808D01*
X155057508Y-77468584D01*
X155276710Y-77530850D01*
X155341434Y-77616722D01*
X155335332Y-77642432D01*
X155358132Y-77744240D01*
X155414922Y-77759057D01*
X155525939Y-77801338D01*
X155539265Y-77835797D01*
X155471200Y-77877525D01*
X155355650Y-77864521D01*
X155224946Y-77851883D01*
X155217569Y-77933596D01*
X155225993Y-77957114D01*
X155217986Y-78068749D01*
X155109750Y-78097191D01*
X154950206Y-78039423D01*
X154868598Y-77979155D01*
X154631949Y-77823350D01*
X154349987Y-77710567D01*
X154090260Y-77663207D01*
X153963216Y-77678893D01*
X153770453Y-77700179D01*
X153669037Y-77669163D01*
X153628384Y-77609411D01*
X153736570Y-77559358D01*
X153824765Y-77539341D01*
X154011381Y-77485474D01*
X154098991Y-77428166D01*
X154099931Y-77422933D01*
X154056538Y-77327632D01*
X153941726Y-77130926D01*
X153778549Y-76871939D01*
X153744480Y-76819683D01*
X153550883Y-76517231D01*
X153377991Y-76234818D01*
X153261672Y-76031108D01*
X153257647Y-76023390D01*
X153114444Y-75832972D01*
X152921809Y-75770316D01*
X152884940Y-75769390D01*
X152734733Y-75789447D01*
X152628870Y-75876000D01*
X152529474Y-76068624D01*
X152479752Y-76192724D01*
X152315889Y-76616057D01*
X153029764Y-77302552D01*
X153349514Y-77604131D01*
X153584325Y-77805798D01*
X153766930Y-77929410D01*
X153930062Y-77996822D01*
X154106453Y-78029891D01*
X154121731Y-78031664D01*
X154446240Y-78112115D01*
X154680876Y-78255335D01*
X154861931Y-78436390D01*
X154610588Y-78436390D01*
X154436003Y-78458168D01*
X154399277Y-78534859D01*
X154407980Y-78563390D01*
X154391750Y-78662869D01*
X154288867Y-78690853D01*
X154170166Y-78638076D01*
X154137934Y-78598717D01*
X153986338Y-78470605D01*
X153729052Y-78351577D01*
X153429305Y-78262546D01*
X153150329Y-78224428D01*
X153030490Y-78232394D01*
X152817148Y-78247769D01*
X152745265Y-78191813D01*
X152816202Y-78115798D01*
X152917255Y-78097724D01*
X153087395Y-78065671D01*
X153137385Y-77963978D01*
X153063734Y-77784346D01*
X152862951Y-77518471D01*
X152531545Y-77158054D01*
X152514829Y-77140841D01*
X152241122Y-76852625D01*
X152012461Y-76598961D01*
X151854817Y-76409497D01*
X151795564Y-76319724D01*
X151741916Y-76261635D01*
X151635079Y-76311703D01*
X151493287Y-76434806D01*
X151312716Y-76572012D01*
X151170458Y-76625050D01*
X151139769Y-76618017D01*
X151003253Y-76615505D01*
X150921222Y-76661468D01*
X150820378Y-76718729D01*
X150797931Y-76665778D01*
X150753843Y-76610326D01*
X150635428Y-76654735D01*
X150490724Y-76697287D01*
X150441198Y-76646523D01*
X150357195Y-76607344D01*
X150160449Y-76680235D01*
X150142239Y-76689533D01*
X149919624Y-76796477D01*
X149821411Y-76813993D01*
X149826771Y-76739727D01*
X149866598Y-76658390D01*
X149920646Y-76534733D01*
X149890476Y-76501588D01*
X149757547Y-76561318D01*
X149526249Y-76701786D01*
X149301264Y-76815406D01*
X149192417Y-76813569D01*
X149209155Y-76712312D01*
X149360926Y-76527673D01*
X149400931Y-76489057D01*
X149568398Y-76313583D01*
X149597374Y-76233137D01*
X149489635Y-76247877D01*
X149246954Y-76357962D01*
X149058172Y-76458345D01*
X148786693Y-76599332D01*
X148576301Y-76693206D01*
X148466495Y-76722663D01*
X148460740Y-76720088D01*
X148500331Y-76647848D01*
X148653532Y-76492456D01*
X148898624Y-76272548D01*
X149213892Y-76006757D01*
X149577616Y-75713718D01*
X149968080Y-75412065D01*
X150103528Y-75310511D01*
X150436176Y-75047533D01*
X150663409Y-74821214D01*
X150827103Y-74584678D01*
X150924820Y-74391178D01*
X151031218Y-74138388D01*
X151092178Y-73952229D01*
X151096605Y-73880842D01*
X151109562Y-73789552D01*
X151194079Y-73614437D01*
X151229286Y-73555078D01*
X151332445Y-73377576D01*
X151344375Y-73310479D01*
X151268677Y-73323904D01*
X151256608Y-73328455D01*
X151183384Y-73351896D01*
X151155744Y-73337075D01*
X151184609Y-73262619D01*
X151280897Y-73107154D01*
X151455530Y-72849309D01*
X151631666Y-72594390D01*
X151904247Y-72209631D01*
X152110948Y-71944239D01*
X152275534Y-71773924D01*
X152421771Y-71674396D01*
X152573424Y-71621363D01*
X152586564Y-71618388D01*
X152755419Y-71555813D01*
X152821263Y-71430031D01*
X152829931Y-71279313D01*
X152776364Y-70882827D01*
X152609208Y-70596026D01*
X152318777Y-70411227D01*
X151895386Y-70320742D01*
X151606469Y-70308390D01*
X151291634Y-70295254D01*
X151099706Y-70258674D01*
X151051931Y-70217317D01*
X151133777Y-70060585D01*
X151374421Y-69875889D01*
X151766525Y-69668007D01*
X152152598Y-69500955D01*
X152597595Y-69337333D01*
X152961517Y-69245590D01*
X153308640Y-69210739D01*
X153404151Y-69209148D01*
X153766129Y-69220472D01*
G37*
D11*
X148245700Y-59165700D02*
X148245700Y-57165700D01*
X146245700Y-59165700D02*
X148245700Y-59165700D01*
X146245700Y-57165700D02*
X146245700Y-59165700D01*
X148245700Y-57165700D02*
X146245700Y-57165700D01*
X160495700Y-59165700D02*
X160495700Y-57165700D01*
X158495700Y-59165700D02*
X160495700Y-59165700D01*
X158495700Y-57165700D02*
X158495700Y-59165700D01*
X160495700Y-57165700D02*
X158495700Y-57165700D01*
D13*
X161627100Y-60462700D03*
X145080700Y-61732700D03*
X145080700Y-64272700D03*
X161627100Y-63002700D03*
X145080700Y-66812700D03*
X161627100Y-65542700D03*
X145080700Y-69352700D03*
X161627100Y-68082700D03*
X161627100Y-70622700D03*
X145080700Y-71892700D03*
X161627100Y-73162700D03*
X145080700Y-74432700D03*
X145080700Y-76972700D03*
X161627100Y-75702700D03*
X145080700Y-79512700D03*
X161627100Y-78242700D03*
X161627100Y-80782700D03*
X145080700Y-82052700D03*
X161627100Y-83322700D03*
X145080700Y-84592700D03*
X145080700Y-87132700D03*
X161627100Y-85862700D03*
X145080700Y-89672700D03*
X161627100Y-88402700D03*
X160320700Y-89672700D03*
X146407100Y-88402700D03*
X146407100Y-85862700D03*
X160320700Y-87132700D03*
X160320700Y-84592700D03*
X146407100Y-83322700D03*
X146407100Y-80782700D03*
X160320700Y-82052700D03*
X160320700Y-79512700D03*
X146407100Y-78242700D03*
X160320700Y-76972700D03*
X146407100Y-75702700D03*
X160320700Y-74432700D03*
X146407100Y-73162700D03*
X146407100Y-70622700D03*
X160320700Y-71892700D03*
X160320700Y-69352700D03*
X146407100Y-68082700D03*
X160320700Y-66812700D03*
X146407100Y-65542700D03*
X160320700Y-64272700D03*
X146407100Y-63002700D03*
X160320700Y-61732700D03*
X146407100Y-60462700D03*
D14*
X150441699Y-95379135D03*
X156549701Y-97602265D03*
D15*
X147245700Y-58165700D03*
X159495700Y-58165700D03*
M02*
