G04 #@! TF.GenerationSoftware,KiCad,Pcbnew,8.0.2-1*
G04 #@! TF.CreationDate,2024-07-27T23:17:35+01:00*
G04 #@! TF.ProjectId,pcb__raven-split-38key__choc-hotswap-n!n,7063625f-5f72-4617-9665-6e2d73706c69,0.1*
G04 #@! TF.SameCoordinates,Original*
G04 #@! TF.FileFunction,Profile,NP*
%FSLAX46Y46*%
G04 Gerber Fmt 4.6, Leading zero omitted, Abs format (unit mm)*
G04 Created by KiCad (PCBNEW 8.0.2-1) date 2024-07-27 23:17:35*
%MOMM*%
%LPD*%
G01*
G04 APERTURE LIST*
G04 #@! TA.AperFunction,Profile*
%ADD10C,0.150000*%
G04 #@! TD*
G04 APERTURE END LIST*
D10*
X90870700Y-47465700D02*
X76070700Y-47465700D01*
X123270700Y-51465700D02*
X108470700Y-51465700D01*
X106270700Y-44115700D02*
X93070700Y-44115700D01*
X57070700Y-98365700D02*
X57070700Y-107465700D01*
X74270700Y-107465700D02*
X74270700Y-104665700D01*
X104370700Y-109615700D02*
G75*
G02*
X104570700Y-109915700I-163100J-325400D01*
G01*
X121720700Y-121815700D02*
X138545756Y-124810697D01*
X108270700Y-51265700D02*
X108270700Y-46115700D01*
X40070699Y-73465700D02*
X40070700Y-96165699D01*
X42070700Y-98165700D02*
G75*
G02*
X40070700Y-96165699I0J2000000D01*
G01*
X125320700Y-52865700D02*
G75*
G02*
X125120723Y-52715693I0J208300D01*
G01*
X106270700Y-44115700D02*
G75*
G02*
X108270700Y-46115700I0J-2000000D01*
G01*
X121670700Y-121815700D02*
X121720700Y-121815700D01*
X74270700Y-104665700D02*
G75*
G02*
X74470700Y-104465700I200000J0D01*
G01*
X73870700Y-58215700D02*
X59070700Y-58215700D01*
X74070700Y-49465700D02*
G75*
G02*
X76070700Y-47465700I2000000J0D01*
G01*
X56870700Y-71465700D02*
X42070700Y-71465700D01*
X152762431Y-129980753D02*
X138545756Y-124810697D01*
X59070700Y-109465700D02*
G75*
G02*
X57070700Y-107465700I0J2000000D01*
G01*
X123270700Y-51465700D02*
G75*
G02*
X125120700Y-52715700I0J-1994000D01*
G01*
X155325857Y-128785408D02*
G75*
G02*
X152762440Y-129980729I-1879257J683808D01*
G01*
X104570700Y-119815700D02*
X104570700Y-109915700D01*
X74470700Y-104465700D02*
X89945700Y-104440700D01*
X106570700Y-121815700D02*
X121670700Y-121815700D01*
X57070700Y-71265700D02*
G75*
G02*
X56870700Y-71465700I-200000J0D01*
G01*
X40070699Y-73465700D02*
G75*
G02*
X42070700Y-71465699I2000001J0D01*
G01*
X140270700Y-52865700D02*
X125320700Y-52865700D01*
X164492247Y-103542106D02*
G75*
G02*
X164452250Y-103748860I-366247J-36394D01*
G01*
X162506486Y-54865700D02*
G75*
G02*
X164506500Y-56865700I14J-2000000D01*
G01*
X164492247Y-103542106D02*
X164506486Y-56865700D01*
X104370700Y-109615700D02*
X90370700Y-104520154D01*
X91070700Y-46115700D02*
X91070700Y-47265700D01*
X59070700Y-109465700D02*
X72270700Y-109465700D01*
X74070700Y-49465700D02*
X74070700Y-58015700D01*
X91070700Y-46115700D02*
G75*
G02*
X93070700Y-44115700I2000000J0D01*
G01*
X142470700Y-54865700D02*
G75*
G02*
X142270700Y-54665700I0J200000D01*
G01*
X74070700Y-58015700D02*
G75*
G02*
X73870700Y-58215700I-200000J0D01*
G01*
X74270700Y-107465700D02*
G75*
G02*
X72270700Y-109465700I-2000000J0D01*
G01*
X140270700Y-52865700D02*
G75*
G02*
X142270690Y-54665701I0J-2011100D01*
G01*
X106570700Y-121815700D02*
G75*
G02*
X104570700Y-119815700I0J2000000D01*
G01*
X89945700Y-104440700D02*
G75*
G02*
X90370693Y-104520172I-2300J-1188400D01*
G01*
X142470700Y-54865700D02*
X162506486Y-54865700D01*
X91070700Y-47265700D02*
G75*
G02*
X90870700Y-47465700I-200000J0D01*
G01*
X56870700Y-98165700D02*
G75*
G02*
X57070700Y-98365700I0J-200000D01*
G01*
X108470700Y-51465700D02*
G75*
G02*
X108270700Y-51265700I0J200000D01*
G01*
X164452247Y-103748859D02*
X155325857Y-128785408D01*
X57070700Y-60215700D02*
G75*
G02*
X59070700Y-58215700I2000000J0D01*
G01*
X42070700Y-98165700D02*
X56870700Y-98165700D01*
X57070700Y-60215700D02*
X57070700Y-71265700D01*
M02*
