G04 #@! TF.GenerationSoftware,KiCad,Pcbnew,8.0.2-1*
G04 #@! TF.CreationDate,2024-07-27T23:17:35+01:00*
G04 #@! TF.ProjectId,pcb__raven-split-38key__choc-hotswap-n!n,7063625f-5f72-4617-9665-6e2d73706c69,0.1*
G04 #@! TF.SameCoordinates,Original*
G04 #@! TF.FileFunction,Legend,Bot*
G04 #@! TF.FilePolarity,Positive*
%FSLAX46Y46*%
G04 Gerber Fmt 4.6, Leading zero omitted, Abs format (unit mm)*
G04 Created by KiCad (PCBNEW 8.0.2-1) date 2024-07-27 23:17:35*
%MOMM*%
%LPD*%
G01*
G04 APERTURE LIST*
%ADD10C,0.125000*%
%ADD11C,0.150000*%
%ADD12C,0.000000*%
G04 APERTURE END LIST*
D10*
X123004033Y-86883033D02*
X122770700Y-87583033D01*
X122770700Y-87583033D02*
X122537366Y-86883033D01*
X121904033Y-87516366D02*
X121937366Y-87549700D01*
X121937366Y-87549700D02*
X122037366Y-87583033D01*
X122037366Y-87583033D02*
X122104033Y-87583033D01*
X122104033Y-87583033D02*
X122204033Y-87549700D01*
X122204033Y-87549700D02*
X122270700Y-87483033D01*
X122270700Y-87483033D02*
X122304033Y-87416366D01*
X122304033Y-87416366D02*
X122337366Y-87283033D01*
X122337366Y-87283033D02*
X122337366Y-87183033D01*
X122337366Y-87183033D02*
X122304033Y-87049700D01*
X122304033Y-87049700D02*
X122270700Y-86983033D01*
X122270700Y-86983033D02*
X122204033Y-86916366D01*
X122204033Y-86916366D02*
X122104033Y-86883033D01*
X122104033Y-86883033D02*
X122037366Y-86883033D01*
X122037366Y-86883033D02*
X121937366Y-86916366D01*
X121937366Y-86916366D02*
X121904033Y-86949700D01*
X121204033Y-87516366D02*
X121237366Y-87549700D01*
X121237366Y-87549700D02*
X121337366Y-87583033D01*
X121337366Y-87583033D02*
X121404033Y-87583033D01*
X121404033Y-87583033D02*
X121504033Y-87549700D01*
X121504033Y-87549700D02*
X121570700Y-87483033D01*
X121570700Y-87483033D02*
X121604033Y-87416366D01*
X121604033Y-87416366D02*
X121637366Y-87283033D01*
X121637366Y-87283033D02*
X121637366Y-87183033D01*
X121637366Y-87183033D02*
X121604033Y-87049700D01*
X121604033Y-87049700D02*
X121570700Y-86983033D01*
X121570700Y-86983033D02*
X121504033Y-86916366D01*
X121504033Y-86916366D02*
X121404033Y-86883033D01*
X121404033Y-86883033D02*
X121337366Y-86883033D01*
X121337366Y-86883033D02*
X121237366Y-86916366D01*
X121237366Y-86916366D02*
X121204033Y-86949700D01*
X122504033Y-81716366D02*
X122570700Y-81683033D01*
X122570700Y-81683033D02*
X122670700Y-81683033D01*
X122670700Y-81683033D02*
X122770700Y-81716366D01*
X122770700Y-81716366D02*
X122837367Y-81783033D01*
X122837367Y-81783033D02*
X122870700Y-81849700D01*
X122870700Y-81849700D02*
X122904033Y-81983033D01*
X122904033Y-81983033D02*
X122904033Y-82083033D01*
X122904033Y-82083033D02*
X122870700Y-82216366D01*
X122870700Y-82216366D02*
X122837367Y-82283033D01*
X122837367Y-82283033D02*
X122770700Y-82349700D01*
X122770700Y-82349700D02*
X122670700Y-82383033D01*
X122670700Y-82383033D02*
X122604033Y-82383033D01*
X122604033Y-82383033D02*
X122504033Y-82349700D01*
X122504033Y-82349700D02*
X122470700Y-82316366D01*
X122470700Y-82316366D02*
X122470700Y-82083033D01*
X122470700Y-82083033D02*
X122604033Y-82083033D01*
X122170700Y-82383033D02*
X122170700Y-81683033D01*
X122170700Y-81683033D02*
X121770700Y-82383033D01*
X121770700Y-82383033D02*
X121770700Y-81683033D01*
X121437367Y-82383033D02*
X121437367Y-81683033D01*
X121437367Y-81683033D02*
X121270700Y-81683033D01*
X121270700Y-81683033D02*
X121170700Y-81716366D01*
X121170700Y-81716366D02*
X121104034Y-81783033D01*
X121104034Y-81783033D02*
X121070700Y-81849700D01*
X121070700Y-81849700D02*
X121037367Y-81983033D01*
X121037367Y-81983033D02*
X121037367Y-82083033D01*
X121037367Y-82083033D02*
X121070700Y-82216366D01*
X121070700Y-82216366D02*
X121104034Y-82283033D01*
X121104034Y-82283033D02*
X121170700Y-82349700D01*
X121170700Y-82349700D02*
X121270700Y-82383033D01*
X121270700Y-82383033D02*
X121437367Y-82383033D01*
X122520700Y-85083033D02*
X122854033Y-85083033D01*
X122854033Y-85083033D02*
X122854033Y-84383033D01*
X122287366Y-84716366D02*
X122054033Y-84716366D01*
X121954033Y-85083033D02*
X122287366Y-85083033D01*
X122287366Y-85083033D02*
X122287366Y-84383033D01*
X122287366Y-84383033D02*
X121954033Y-84383033D01*
X121654033Y-85083033D02*
X121654033Y-84383033D01*
X121654033Y-84383033D02*
X121487366Y-84383033D01*
X121487366Y-84383033D02*
X121387366Y-84416366D01*
X121387366Y-84416366D02*
X121320700Y-84483033D01*
X121320700Y-84483033D02*
X121287366Y-84549700D01*
X121287366Y-84549700D02*
X121254033Y-84683033D01*
X121254033Y-84683033D02*
X121254033Y-84783033D01*
X121254033Y-84783033D02*
X121287366Y-84916366D01*
X121287366Y-84916366D02*
X121320700Y-84983033D01*
X121320700Y-84983033D02*
X121387366Y-85049700D01*
X121387366Y-85049700D02*
X121487366Y-85083033D01*
X121487366Y-85083033D02*
X121654033Y-85083033D01*
X158518319Y-77309735D02*
X158542128Y-77345450D01*
X158542128Y-77345450D02*
X158613557Y-77381164D01*
X158613557Y-77381164D02*
X158661176Y-77381164D01*
X158661176Y-77381164D02*
X158732604Y-77345450D01*
X158732604Y-77345450D02*
X158780223Y-77274021D01*
X158780223Y-77274021D02*
X158804033Y-77202592D01*
X158804033Y-77202592D02*
X158827842Y-77059735D01*
X158827842Y-77059735D02*
X158827842Y-76952592D01*
X158827842Y-76952592D02*
X158804033Y-76809735D01*
X158804033Y-76809735D02*
X158780223Y-76738307D01*
X158780223Y-76738307D02*
X158732604Y-76666878D01*
X158732604Y-76666878D02*
X158661176Y-76631164D01*
X158661176Y-76631164D02*
X158613557Y-76631164D01*
X158613557Y-76631164D02*
X158542128Y-76666878D01*
X158542128Y-76666878D02*
X158518319Y-76702592D01*
X158208795Y-76631164D02*
X158113557Y-76631164D01*
X158113557Y-76631164D02*
X158065938Y-76666878D01*
X158065938Y-76666878D02*
X158018319Y-76738307D01*
X158018319Y-76738307D02*
X157994509Y-76881164D01*
X157994509Y-76881164D02*
X157994509Y-77131164D01*
X157994509Y-77131164D02*
X158018319Y-77274021D01*
X158018319Y-77274021D02*
X158065938Y-77345450D01*
X158065938Y-77345450D02*
X158113557Y-77381164D01*
X158113557Y-77381164D02*
X158208795Y-77381164D01*
X158208795Y-77381164D02*
X158256414Y-77345450D01*
X158256414Y-77345450D02*
X158304033Y-77274021D01*
X158304033Y-77274021D02*
X158327842Y-77131164D01*
X158327842Y-77131164D02*
X158327842Y-76881164D01*
X158327842Y-76881164D02*
X158304033Y-76738307D01*
X158304033Y-76738307D02*
X158256414Y-76666878D01*
X158256414Y-76666878D02*
X158208795Y-76631164D01*
X157542128Y-77381164D02*
X157780223Y-77381164D01*
X157780223Y-77381164D02*
X157780223Y-76631164D01*
X157399270Y-76702592D02*
X157375461Y-76666878D01*
X157375461Y-76666878D02*
X157327842Y-76631164D01*
X157327842Y-76631164D02*
X157208794Y-76631164D01*
X157208794Y-76631164D02*
X157161175Y-76666878D01*
X157161175Y-76666878D02*
X157137366Y-76702592D01*
X157137366Y-76702592D02*
X157113556Y-76774021D01*
X157113556Y-76774021D02*
X157113556Y-76845450D01*
X157113556Y-76845450D02*
X157137366Y-76952592D01*
X157137366Y-76952592D02*
X157423080Y-77381164D01*
X157423080Y-77381164D02*
X157113556Y-77381164D01*
X158479152Y-63898878D02*
X158526771Y-63863164D01*
X158526771Y-63863164D02*
X158598200Y-63863164D01*
X158598200Y-63863164D02*
X158669628Y-63898878D01*
X158669628Y-63898878D02*
X158717247Y-63970307D01*
X158717247Y-63970307D02*
X158741057Y-64041735D01*
X158741057Y-64041735D02*
X158764866Y-64184592D01*
X158764866Y-64184592D02*
X158764866Y-64291735D01*
X158764866Y-64291735D02*
X158741057Y-64434592D01*
X158741057Y-64434592D02*
X158717247Y-64506021D01*
X158717247Y-64506021D02*
X158669628Y-64577450D01*
X158669628Y-64577450D02*
X158598200Y-64613164D01*
X158598200Y-64613164D02*
X158550581Y-64613164D01*
X158550581Y-64613164D02*
X158479152Y-64577450D01*
X158479152Y-64577450D02*
X158455343Y-64541735D01*
X158455343Y-64541735D02*
X158455343Y-64291735D01*
X158455343Y-64291735D02*
X158550581Y-64291735D01*
X158241057Y-64613164D02*
X158241057Y-63863164D01*
X158241057Y-63863164D02*
X157955343Y-64613164D01*
X157955343Y-64613164D02*
X157955343Y-63863164D01*
X157717247Y-64613164D02*
X157717247Y-63863164D01*
X157717247Y-63863164D02*
X157598199Y-63863164D01*
X157598199Y-63863164D02*
X157526771Y-63898878D01*
X157526771Y-63898878D02*
X157479152Y-63970307D01*
X157479152Y-63970307D02*
X157455342Y-64041735D01*
X157455342Y-64041735D02*
X157431533Y-64184592D01*
X157431533Y-64184592D02*
X157431533Y-64291735D01*
X157431533Y-64291735D02*
X157455342Y-64434592D01*
X157455342Y-64434592D02*
X157479152Y-64506021D01*
X157479152Y-64506021D02*
X157526771Y-64577450D01*
X157526771Y-64577450D02*
X157598199Y-64613164D01*
X157598199Y-64613164D02*
X157717247Y-64613164D01*
X143124080Y-89683807D02*
X143052652Y-89719521D01*
X143052652Y-89719521D02*
X143028842Y-89755235D01*
X143028842Y-89755235D02*
X143005033Y-89826664D01*
X143005033Y-89826664D02*
X143005033Y-89933807D01*
X143005033Y-89933807D02*
X143028842Y-90005235D01*
X143028842Y-90005235D02*
X143052652Y-90040950D01*
X143052652Y-90040950D02*
X143100271Y-90076664D01*
X143100271Y-90076664D02*
X143290747Y-90076664D01*
X143290747Y-90076664D02*
X143290747Y-89326664D01*
X143290747Y-89326664D02*
X143124080Y-89326664D01*
X143124080Y-89326664D02*
X143076461Y-89362378D01*
X143076461Y-89362378D02*
X143052652Y-89398092D01*
X143052652Y-89398092D02*
X143028842Y-89469521D01*
X143028842Y-89469521D02*
X143028842Y-89540950D01*
X143028842Y-89540950D02*
X143052652Y-89612378D01*
X143052652Y-89612378D02*
X143076461Y-89648092D01*
X143076461Y-89648092D02*
X143124080Y-89683807D01*
X143124080Y-89683807D02*
X143290747Y-89683807D01*
X142552652Y-89326664D02*
X142790747Y-89326664D01*
X142790747Y-89326664D02*
X142814556Y-89683807D01*
X142814556Y-89683807D02*
X142790747Y-89648092D01*
X142790747Y-89648092D02*
X142743128Y-89612378D01*
X142743128Y-89612378D02*
X142624080Y-89612378D01*
X142624080Y-89612378D02*
X142576461Y-89648092D01*
X142576461Y-89648092D02*
X142552652Y-89683807D01*
X142552652Y-89683807D02*
X142528842Y-89755235D01*
X142528842Y-89755235D02*
X142528842Y-89933807D01*
X142528842Y-89933807D02*
X142552652Y-90005235D01*
X142552652Y-90005235D02*
X142576461Y-90040950D01*
X142576461Y-90040950D02*
X142624080Y-90076664D01*
X142624080Y-90076664D02*
X142743128Y-90076664D01*
X142743128Y-90076664D02*
X142790747Y-90040950D01*
X142790747Y-90040950D02*
X142814556Y-90005235D01*
X158518319Y-72259735D02*
X158542128Y-72295450D01*
X158542128Y-72295450D02*
X158613557Y-72331164D01*
X158613557Y-72331164D02*
X158661176Y-72331164D01*
X158661176Y-72331164D02*
X158732604Y-72295450D01*
X158732604Y-72295450D02*
X158780223Y-72224021D01*
X158780223Y-72224021D02*
X158804033Y-72152592D01*
X158804033Y-72152592D02*
X158827842Y-72009735D01*
X158827842Y-72009735D02*
X158827842Y-71902592D01*
X158827842Y-71902592D02*
X158804033Y-71759735D01*
X158804033Y-71759735D02*
X158780223Y-71688307D01*
X158780223Y-71688307D02*
X158732604Y-71616878D01*
X158732604Y-71616878D02*
X158661176Y-71581164D01*
X158661176Y-71581164D02*
X158613557Y-71581164D01*
X158613557Y-71581164D02*
X158542128Y-71616878D01*
X158542128Y-71616878D02*
X158518319Y-71652592D01*
X158208795Y-71581164D02*
X158113557Y-71581164D01*
X158113557Y-71581164D02*
X158065938Y-71616878D01*
X158065938Y-71616878D02*
X158018319Y-71688307D01*
X158018319Y-71688307D02*
X157994509Y-71831164D01*
X157994509Y-71831164D02*
X157994509Y-72081164D01*
X157994509Y-72081164D02*
X158018319Y-72224021D01*
X158018319Y-72224021D02*
X158065938Y-72295450D01*
X158065938Y-72295450D02*
X158113557Y-72331164D01*
X158113557Y-72331164D02*
X158208795Y-72331164D01*
X158208795Y-72331164D02*
X158256414Y-72295450D01*
X158256414Y-72295450D02*
X158304033Y-72224021D01*
X158304033Y-72224021D02*
X158327842Y-72081164D01*
X158327842Y-72081164D02*
X158327842Y-71831164D01*
X158327842Y-71831164D02*
X158304033Y-71688307D01*
X158304033Y-71688307D02*
X158256414Y-71616878D01*
X158256414Y-71616878D02*
X158208795Y-71581164D01*
X157542128Y-72331164D02*
X157780223Y-72331164D01*
X157780223Y-72331164D02*
X157780223Y-71581164D01*
X157280223Y-71581164D02*
X157232604Y-71581164D01*
X157232604Y-71581164D02*
X157184985Y-71616878D01*
X157184985Y-71616878D02*
X157161175Y-71652592D01*
X157161175Y-71652592D02*
X157137366Y-71724021D01*
X157137366Y-71724021D02*
X157113556Y-71866878D01*
X157113556Y-71866878D02*
X157113556Y-72045450D01*
X157113556Y-72045450D02*
X157137366Y-72188307D01*
X157137366Y-72188307D02*
X157161175Y-72259735D01*
X157161175Y-72259735D02*
X157184985Y-72295450D01*
X157184985Y-72295450D02*
X157232604Y-72331164D01*
X157232604Y-72331164D02*
X157280223Y-72331164D01*
X157280223Y-72331164D02*
X157327842Y-72295450D01*
X157327842Y-72295450D02*
X157351651Y-72259735D01*
X157351651Y-72259735D02*
X157375461Y-72188307D01*
X157375461Y-72188307D02*
X157399270Y-72045450D01*
X157399270Y-72045450D02*
X157399270Y-71866878D01*
X157399270Y-71866878D02*
X157375461Y-71724021D01*
X157375461Y-71724021D02*
X157351651Y-71652592D01*
X157351651Y-71652592D02*
X157327842Y-71616878D01*
X157327842Y-71616878D02*
X157280223Y-71581164D01*
X158681580Y-87016807D02*
X158610152Y-87052521D01*
X158610152Y-87052521D02*
X158586342Y-87088235D01*
X158586342Y-87088235D02*
X158562533Y-87159664D01*
X158562533Y-87159664D02*
X158562533Y-87266807D01*
X158562533Y-87266807D02*
X158586342Y-87338235D01*
X158586342Y-87338235D02*
X158610152Y-87373950D01*
X158610152Y-87373950D02*
X158657771Y-87409664D01*
X158657771Y-87409664D02*
X158848247Y-87409664D01*
X158848247Y-87409664D02*
X158848247Y-86659664D01*
X158848247Y-86659664D02*
X158681580Y-86659664D01*
X158681580Y-86659664D02*
X158633961Y-86695378D01*
X158633961Y-86695378D02*
X158610152Y-86731092D01*
X158610152Y-86731092D02*
X158586342Y-86802521D01*
X158586342Y-86802521D02*
X158586342Y-86873950D01*
X158586342Y-86873950D02*
X158610152Y-86945378D01*
X158610152Y-86945378D02*
X158633961Y-86981092D01*
X158633961Y-86981092D02*
X158681580Y-87016807D01*
X158681580Y-87016807D02*
X158848247Y-87016807D01*
X158372056Y-86731092D02*
X158348247Y-86695378D01*
X158348247Y-86695378D02*
X158300628Y-86659664D01*
X158300628Y-86659664D02*
X158181580Y-86659664D01*
X158181580Y-86659664D02*
X158133961Y-86695378D01*
X158133961Y-86695378D02*
X158110152Y-86731092D01*
X158110152Y-86731092D02*
X158086342Y-86802521D01*
X158086342Y-86802521D02*
X158086342Y-86873950D01*
X158086342Y-86873950D02*
X158110152Y-86981092D01*
X158110152Y-86981092D02*
X158395866Y-87409664D01*
X158395866Y-87409664D02*
X158086342Y-87409664D01*
X143301652Y-79916664D02*
X143468318Y-79559521D01*
X143587366Y-79916664D02*
X143587366Y-79166664D01*
X143587366Y-79166664D02*
X143396890Y-79166664D01*
X143396890Y-79166664D02*
X143349271Y-79202378D01*
X143349271Y-79202378D02*
X143325461Y-79238092D01*
X143325461Y-79238092D02*
X143301652Y-79309521D01*
X143301652Y-79309521D02*
X143301652Y-79416664D01*
X143301652Y-79416664D02*
X143325461Y-79488092D01*
X143325461Y-79488092D02*
X143349271Y-79523807D01*
X143349271Y-79523807D02*
X143396890Y-79559521D01*
X143396890Y-79559521D02*
X143587366Y-79559521D01*
X142992128Y-79166664D02*
X142896890Y-79166664D01*
X142896890Y-79166664D02*
X142849271Y-79202378D01*
X142849271Y-79202378D02*
X142801652Y-79273807D01*
X142801652Y-79273807D02*
X142777842Y-79416664D01*
X142777842Y-79416664D02*
X142777842Y-79666664D01*
X142777842Y-79666664D02*
X142801652Y-79809521D01*
X142801652Y-79809521D02*
X142849271Y-79880950D01*
X142849271Y-79880950D02*
X142896890Y-79916664D01*
X142896890Y-79916664D02*
X142992128Y-79916664D01*
X142992128Y-79916664D02*
X143039747Y-79880950D01*
X143039747Y-79880950D02*
X143087366Y-79809521D01*
X143087366Y-79809521D02*
X143111175Y-79666664D01*
X143111175Y-79666664D02*
X143111175Y-79416664D01*
X143111175Y-79416664D02*
X143087366Y-79273807D01*
X143087366Y-79273807D02*
X143039747Y-79202378D01*
X143039747Y-79202378D02*
X142992128Y-79166664D01*
X142611175Y-79166664D02*
X142492127Y-79916664D01*
X142492127Y-79916664D02*
X142396889Y-79380950D01*
X142396889Y-79380950D02*
X142301651Y-79916664D01*
X142301651Y-79916664D02*
X142182604Y-79166664D01*
X141730222Y-79916664D02*
X142015936Y-79916664D01*
X141873079Y-79916664D02*
X141873079Y-79166664D01*
X141873079Y-79166664D02*
X141920698Y-79273807D01*
X141920698Y-79273807D02*
X141968317Y-79345235D01*
X141968317Y-79345235D02*
X142015936Y-79380950D01*
X143301652Y-85031164D02*
X143468318Y-84674021D01*
X143587366Y-85031164D02*
X143587366Y-84281164D01*
X143587366Y-84281164D02*
X143396890Y-84281164D01*
X143396890Y-84281164D02*
X143349271Y-84316878D01*
X143349271Y-84316878D02*
X143325461Y-84352592D01*
X143325461Y-84352592D02*
X143301652Y-84424021D01*
X143301652Y-84424021D02*
X143301652Y-84531164D01*
X143301652Y-84531164D02*
X143325461Y-84602592D01*
X143325461Y-84602592D02*
X143349271Y-84638307D01*
X143349271Y-84638307D02*
X143396890Y-84674021D01*
X143396890Y-84674021D02*
X143587366Y-84674021D01*
X142992128Y-84281164D02*
X142896890Y-84281164D01*
X142896890Y-84281164D02*
X142849271Y-84316878D01*
X142849271Y-84316878D02*
X142801652Y-84388307D01*
X142801652Y-84388307D02*
X142777842Y-84531164D01*
X142777842Y-84531164D02*
X142777842Y-84781164D01*
X142777842Y-84781164D02*
X142801652Y-84924021D01*
X142801652Y-84924021D02*
X142849271Y-84995450D01*
X142849271Y-84995450D02*
X142896890Y-85031164D01*
X142896890Y-85031164D02*
X142992128Y-85031164D01*
X142992128Y-85031164D02*
X143039747Y-84995450D01*
X143039747Y-84995450D02*
X143087366Y-84924021D01*
X143087366Y-84924021D02*
X143111175Y-84781164D01*
X143111175Y-84781164D02*
X143111175Y-84531164D01*
X143111175Y-84531164D02*
X143087366Y-84388307D01*
X143087366Y-84388307D02*
X143039747Y-84316878D01*
X143039747Y-84316878D02*
X142992128Y-84281164D01*
X142611175Y-84281164D02*
X142492127Y-85031164D01*
X142492127Y-85031164D02*
X142396889Y-84495450D01*
X142396889Y-84495450D02*
X142301651Y-85031164D01*
X142301651Y-85031164D02*
X142182604Y-84281164D01*
X142039746Y-84281164D02*
X141730222Y-84281164D01*
X141730222Y-84281164D02*
X141896889Y-84566878D01*
X141896889Y-84566878D02*
X141825460Y-84566878D01*
X141825460Y-84566878D02*
X141777841Y-84602592D01*
X141777841Y-84602592D02*
X141754032Y-84638307D01*
X141754032Y-84638307D02*
X141730222Y-84709735D01*
X141730222Y-84709735D02*
X141730222Y-84888307D01*
X141730222Y-84888307D02*
X141754032Y-84959735D01*
X141754032Y-84959735D02*
X141777841Y-84995450D01*
X141777841Y-84995450D02*
X141825460Y-85031164D01*
X141825460Y-85031164D02*
X141968317Y-85031164D01*
X141968317Y-85031164D02*
X142015936Y-84995450D01*
X142015936Y-84995450D02*
X142039746Y-84959735D01*
X158468319Y-82321735D02*
X158492128Y-82357450D01*
X158492128Y-82357450D02*
X158563557Y-82393164D01*
X158563557Y-82393164D02*
X158611176Y-82393164D01*
X158611176Y-82393164D02*
X158682604Y-82357450D01*
X158682604Y-82357450D02*
X158730223Y-82286021D01*
X158730223Y-82286021D02*
X158754033Y-82214592D01*
X158754033Y-82214592D02*
X158777842Y-82071735D01*
X158777842Y-82071735D02*
X158777842Y-81964592D01*
X158777842Y-81964592D02*
X158754033Y-81821735D01*
X158754033Y-81821735D02*
X158730223Y-81750307D01*
X158730223Y-81750307D02*
X158682604Y-81678878D01*
X158682604Y-81678878D02*
X158611176Y-81643164D01*
X158611176Y-81643164D02*
X158563557Y-81643164D01*
X158563557Y-81643164D02*
X158492128Y-81678878D01*
X158492128Y-81678878D02*
X158468319Y-81714592D01*
X158158795Y-81643164D02*
X158063557Y-81643164D01*
X158063557Y-81643164D02*
X158015938Y-81678878D01*
X158015938Y-81678878D02*
X157968319Y-81750307D01*
X157968319Y-81750307D02*
X157944509Y-81893164D01*
X157944509Y-81893164D02*
X157944509Y-82143164D01*
X157944509Y-82143164D02*
X157968319Y-82286021D01*
X157968319Y-82286021D02*
X158015938Y-82357450D01*
X158015938Y-82357450D02*
X158063557Y-82393164D01*
X158063557Y-82393164D02*
X158158795Y-82393164D01*
X158158795Y-82393164D02*
X158206414Y-82357450D01*
X158206414Y-82357450D02*
X158254033Y-82286021D01*
X158254033Y-82286021D02*
X158277842Y-82143164D01*
X158277842Y-82143164D02*
X158277842Y-81893164D01*
X158277842Y-81893164D02*
X158254033Y-81750307D01*
X158254033Y-81750307D02*
X158206414Y-81678878D01*
X158206414Y-81678878D02*
X158158795Y-81643164D01*
X157492128Y-82393164D02*
X157730223Y-82393164D01*
X157730223Y-82393164D02*
X157730223Y-81643164D01*
X157111175Y-81893164D02*
X157111175Y-82393164D01*
X157230223Y-81607450D02*
X157349270Y-82143164D01*
X157349270Y-82143164D02*
X157039747Y-82143164D01*
X143243128Y-62136664D02*
X143481223Y-62136664D01*
X143481223Y-62136664D02*
X143481223Y-61386664D01*
X143076461Y-61743807D02*
X142909794Y-61743807D01*
X142838366Y-62136664D02*
X143076461Y-62136664D01*
X143076461Y-62136664D02*
X143076461Y-61386664D01*
X143076461Y-61386664D02*
X142838366Y-61386664D01*
X142624080Y-62136664D02*
X142624080Y-61386664D01*
X142624080Y-61386664D02*
X142505032Y-61386664D01*
X142505032Y-61386664D02*
X142433604Y-61422378D01*
X142433604Y-61422378D02*
X142385985Y-61493807D01*
X142385985Y-61493807D02*
X142362175Y-61565235D01*
X142362175Y-61565235D02*
X142338366Y-61708092D01*
X142338366Y-61708092D02*
X142338366Y-61815235D01*
X142338366Y-61815235D02*
X142362175Y-61958092D01*
X142362175Y-61958092D02*
X142385985Y-62029521D01*
X142385985Y-62029521D02*
X142433604Y-62100950D01*
X142433604Y-62100950D02*
X142505032Y-62136664D01*
X142505032Y-62136664D02*
X142624080Y-62136664D01*
X158506938Y-62136664D02*
X158673604Y-61779521D01*
X158792652Y-62136664D02*
X158792652Y-61386664D01*
X158792652Y-61386664D02*
X158602176Y-61386664D01*
X158602176Y-61386664D02*
X158554557Y-61422378D01*
X158554557Y-61422378D02*
X158530747Y-61458092D01*
X158530747Y-61458092D02*
X158506938Y-61529521D01*
X158506938Y-61529521D02*
X158506938Y-61636664D01*
X158506938Y-61636664D02*
X158530747Y-61708092D01*
X158530747Y-61708092D02*
X158554557Y-61743807D01*
X158554557Y-61743807D02*
X158602176Y-61779521D01*
X158602176Y-61779521D02*
X158792652Y-61779521D01*
X158316461Y-61922378D02*
X158078366Y-61922378D01*
X158364080Y-62136664D02*
X158197414Y-61386664D01*
X158197414Y-61386664D02*
X158030747Y-62136664D01*
X157911700Y-61386664D02*
X157792652Y-62136664D01*
X157792652Y-62136664D02*
X157697414Y-61600950D01*
X157697414Y-61600950D02*
X157602176Y-62136664D01*
X157602176Y-62136664D02*
X157483129Y-61386664D01*
X158518319Y-84959735D02*
X158542128Y-84995450D01*
X158542128Y-84995450D02*
X158613557Y-85031164D01*
X158613557Y-85031164D02*
X158661176Y-85031164D01*
X158661176Y-85031164D02*
X158732604Y-84995450D01*
X158732604Y-84995450D02*
X158780223Y-84924021D01*
X158780223Y-84924021D02*
X158804033Y-84852592D01*
X158804033Y-84852592D02*
X158827842Y-84709735D01*
X158827842Y-84709735D02*
X158827842Y-84602592D01*
X158827842Y-84602592D02*
X158804033Y-84459735D01*
X158804033Y-84459735D02*
X158780223Y-84388307D01*
X158780223Y-84388307D02*
X158732604Y-84316878D01*
X158732604Y-84316878D02*
X158661176Y-84281164D01*
X158661176Y-84281164D02*
X158613557Y-84281164D01*
X158613557Y-84281164D02*
X158542128Y-84316878D01*
X158542128Y-84316878D02*
X158518319Y-84352592D01*
X158208795Y-84281164D02*
X158113557Y-84281164D01*
X158113557Y-84281164D02*
X158065938Y-84316878D01*
X158065938Y-84316878D02*
X158018319Y-84388307D01*
X158018319Y-84388307D02*
X157994509Y-84531164D01*
X157994509Y-84531164D02*
X157994509Y-84781164D01*
X157994509Y-84781164D02*
X158018319Y-84924021D01*
X158018319Y-84924021D02*
X158065938Y-84995450D01*
X158065938Y-84995450D02*
X158113557Y-85031164D01*
X158113557Y-85031164D02*
X158208795Y-85031164D01*
X158208795Y-85031164D02*
X158256414Y-84995450D01*
X158256414Y-84995450D02*
X158304033Y-84924021D01*
X158304033Y-84924021D02*
X158327842Y-84781164D01*
X158327842Y-84781164D02*
X158327842Y-84531164D01*
X158327842Y-84531164D02*
X158304033Y-84388307D01*
X158304033Y-84388307D02*
X158256414Y-84316878D01*
X158256414Y-84316878D02*
X158208795Y-84281164D01*
X157542128Y-85031164D02*
X157780223Y-85031164D01*
X157780223Y-85031164D02*
X157780223Y-84281164D01*
X157137366Y-84281164D02*
X157375461Y-84281164D01*
X157375461Y-84281164D02*
X157399270Y-84638307D01*
X157399270Y-84638307D02*
X157375461Y-84602592D01*
X157375461Y-84602592D02*
X157327842Y-84566878D01*
X157327842Y-84566878D02*
X157208794Y-84566878D01*
X157208794Y-84566878D02*
X157161175Y-84602592D01*
X157161175Y-84602592D02*
X157137366Y-84638307D01*
X157137366Y-84638307D02*
X157113556Y-84709735D01*
X157113556Y-84709735D02*
X157113556Y-84888307D01*
X157113556Y-84888307D02*
X157137366Y-84959735D01*
X157137366Y-84959735D02*
X157161175Y-84995450D01*
X157161175Y-84995450D02*
X157208794Y-85031164D01*
X157208794Y-85031164D02*
X157327842Y-85031164D01*
X157327842Y-85031164D02*
X157375461Y-84995450D01*
X157375461Y-84995450D02*
X157399270Y-84959735D01*
X158764865Y-69006664D02*
X158598199Y-69756664D01*
X158598199Y-69756664D02*
X158431532Y-69006664D01*
X157979152Y-69685235D02*
X158002961Y-69720950D01*
X158002961Y-69720950D02*
X158074390Y-69756664D01*
X158074390Y-69756664D02*
X158122009Y-69756664D01*
X158122009Y-69756664D02*
X158193437Y-69720950D01*
X158193437Y-69720950D02*
X158241056Y-69649521D01*
X158241056Y-69649521D02*
X158264866Y-69578092D01*
X158264866Y-69578092D02*
X158288675Y-69435235D01*
X158288675Y-69435235D02*
X158288675Y-69328092D01*
X158288675Y-69328092D02*
X158264866Y-69185235D01*
X158264866Y-69185235D02*
X158241056Y-69113807D01*
X158241056Y-69113807D02*
X158193437Y-69042378D01*
X158193437Y-69042378D02*
X158122009Y-69006664D01*
X158122009Y-69006664D02*
X158074390Y-69006664D01*
X158074390Y-69006664D02*
X158002961Y-69042378D01*
X158002961Y-69042378D02*
X157979152Y-69078092D01*
X157479152Y-69685235D02*
X157502961Y-69720950D01*
X157502961Y-69720950D02*
X157574390Y-69756664D01*
X157574390Y-69756664D02*
X157622009Y-69756664D01*
X157622009Y-69756664D02*
X157693437Y-69720950D01*
X157693437Y-69720950D02*
X157741056Y-69649521D01*
X157741056Y-69649521D02*
X157764866Y-69578092D01*
X157764866Y-69578092D02*
X157788675Y-69435235D01*
X157788675Y-69435235D02*
X157788675Y-69328092D01*
X157788675Y-69328092D02*
X157764866Y-69185235D01*
X157764866Y-69185235D02*
X157741056Y-69113807D01*
X157741056Y-69113807D02*
X157693437Y-69042378D01*
X157693437Y-69042378D02*
X157622009Y-69006664D01*
X157622009Y-69006664D02*
X157574390Y-69006664D01*
X157574390Y-69006664D02*
X157502961Y-69042378D01*
X157502961Y-69042378D02*
X157479152Y-69078092D01*
X158435509Y-67216664D02*
X158602175Y-66859521D01*
X158721223Y-67216664D02*
X158721223Y-66466664D01*
X158721223Y-66466664D02*
X158530747Y-66466664D01*
X158530747Y-66466664D02*
X158483128Y-66502378D01*
X158483128Y-66502378D02*
X158459318Y-66538092D01*
X158459318Y-66538092D02*
X158435509Y-66609521D01*
X158435509Y-66609521D02*
X158435509Y-66716664D01*
X158435509Y-66716664D02*
X158459318Y-66788092D01*
X158459318Y-66788092D02*
X158483128Y-66823807D01*
X158483128Y-66823807D02*
X158530747Y-66859521D01*
X158530747Y-66859521D02*
X158721223Y-66859521D01*
X158245032Y-67180950D02*
X158173604Y-67216664D01*
X158173604Y-67216664D02*
X158054556Y-67216664D01*
X158054556Y-67216664D02*
X158006937Y-67180950D01*
X158006937Y-67180950D02*
X157983128Y-67145235D01*
X157983128Y-67145235D02*
X157959318Y-67073807D01*
X157959318Y-67073807D02*
X157959318Y-67002378D01*
X157959318Y-67002378D02*
X157983128Y-66930950D01*
X157983128Y-66930950D02*
X158006937Y-66895235D01*
X158006937Y-66895235D02*
X158054556Y-66859521D01*
X158054556Y-66859521D02*
X158149794Y-66823807D01*
X158149794Y-66823807D02*
X158197413Y-66788092D01*
X158197413Y-66788092D02*
X158221223Y-66752378D01*
X158221223Y-66752378D02*
X158245032Y-66680950D01*
X158245032Y-66680950D02*
X158245032Y-66609521D01*
X158245032Y-66609521D02*
X158221223Y-66538092D01*
X158221223Y-66538092D02*
X158197413Y-66502378D01*
X158197413Y-66502378D02*
X158149794Y-66466664D01*
X158149794Y-66466664D02*
X158030747Y-66466664D01*
X158030747Y-66466664D02*
X157959318Y-66502378D01*
X157816461Y-66466664D02*
X157530747Y-66466664D01*
X157673604Y-67216664D02*
X157673604Y-66466664D01*
X143301652Y-82520164D02*
X143468318Y-82163021D01*
X143587366Y-82520164D02*
X143587366Y-81770164D01*
X143587366Y-81770164D02*
X143396890Y-81770164D01*
X143396890Y-81770164D02*
X143349271Y-81805878D01*
X143349271Y-81805878D02*
X143325461Y-81841592D01*
X143325461Y-81841592D02*
X143301652Y-81913021D01*
X143301652Y-81913021D02*
X143301652Y-82020164D01*
X143301652Y-82020164D02*
X143325461Y-82091592D01*
X143325461Y-82091592D02*
X143349271Y-82127307D01*
X143349271Y-82127307D02*
X143396890Y-82163021D01*
X143396890Y-82163021D02*
X143587366Y-82163021D01*
X142992128Y-81770164D02*
X142896890Y-81770164D01*
X142896890Y-81770164D02*
X142849271Y-81805878D01*
X142849271Y-81805878D02*
X142801652Y-81877307D01*
X142801652Y-81877307D02*
X142777842Y-82020164D01*
X142777842Y-82020164D02*
X142777842Y-82270164D01*
X142777842Y-82270164D02*
X142801652Y-82413021D01*
X142801652Y-82413021D02*
X142849271Y-82484450D01*
X142849271Y-82484450D02*
X142896890Y-82520164D01*
X142896890Y-82520164D02*
X142992128Y-82520164D01*
X142992128Y-82520164D02*
X143039747Y-82484450D01*
X143039747Y-82484450D02*
X143087366Y-82413021D01*
X143087366Y-82413021D02*
X143111175Y-82270164D01*
X143111175Y-82270164D02*
X143111175Y-82020164D01*
X143111175Y-82020164D02*
X143087366Y-81877307D01*
X143087366Y-81877307D02*
X143039747Y-81805878D01*
X143039747Y-81805878D02*
X142992128Y-81770164D01*
X142611175Y-81770164D02*
X142492127Y-82520164D01*
X142492127Y-82520164D02*
X142396889Y-81984450D01*
X142396889Y-81984450D02*
X142301651Y-82520164D01*
X142301651Y-82520164D02*
X142182604Y-81770164D01*
X142015936Y-81841592D02*
X141992127Y-81805878D01*
X141992127Y-81805878D02*
X141944508Y-81770164D01*
X141944508Y-81770164D02*
X141825460Y-81770164D01*
X141825460Y-81770164D02*
X141777841Y-81805878D01*
X141777841Y-81805878D02*
X141754032Y-81841592D01*
X141754032Y-81841592D02*
X141730222Y-81913021D01*
X141730222Y-81913021D02*
X141730222Y-81984450D01*
X141730222Y-81984450D02*
X141754032Y-82091592D01*
X141754032Y-82091592D02*
X142039746Y-82520164D01*
X142039746Y-82520164D02*
X141730222Y-82520164D01*
X158518319Y-79809735D02*
X158542128Y-79845450D01*
X158542128Y-79845450D02*
X158613557Y-79881164D01*
X158613557Y-79881164D02*
X158661176Y-79881164D01*
X158661176Y-79881164D02*
X158732604Y-79845450D01*
X158732604Y-79845450D02*
X158780223Y-79774021D01*
X158780223Y-79774021D02*
X158804033Y-79702592D01*
X158804033Y-79702592D02*
X158827842Y-79559735D01*
X158827842Y-79559735D02*
X158827842Y-79452592D01*
X158827842Y-79452592D02*
X158804033Y-79309735D01*
X158804033Y-79309735D02*
X158780223Y-79238307D01*
X158780223Y-79238307D02*
X158732604Y-79166878D01*
X158732604Y-79166878D02*
X158661176Y-79131164D01*
X158661176Y-79131164D02*
X158613557Y-79131164D01*
X158613557Y-79131164D02*
X158542128Y-79166878D01*
X158542128Y-79166878D02*
X158518319Y-79202592D01*
X158208795Y-79131164D02*
X158113557Y-79131164D01*
X158113557Y-79131164D02*
X158065938Y-79166878D01*
X158065938Y-79166878D02*
X158018319Y-79238307D01*
X158018319Y-79238307D02*
X157994509Y-79381164D01*
X157994509Y-79381164D02*
X157994509Y-79631164D01*
X157994509Y-79631164D02*
X158018319Y-79774021D01*
X158018319Y-79774021D02*
X158065938Y-79845450D01*
X158065938Y-79845450D02*
X158113557Y-79881164D01*
X158113557Y-79881164D02*
X158208795Y-79881164D01*
X158208795Y-79881164D02*
X158256414Y-79845450D01*
X158256414Y-79845450D02*
X158304033Y-79774021D01*
X158304033Y-79774021D02*
X158327842Y-79631164D01*
X158327842Y-79631164D02*
X158327842Y-79381164D01*
X158327842Y-79381164D02*
X158304033Y-79238307D01*
X158304033Y-79238307D02*
X158256414Y-79166878D01*
X158256414Y-79166878D02*
X158208795Y-79131164D01*
X157542128Y-79881164D02*
X157780223Y-79881164D01*
X157780223Y-79881164D02*
X157780223Y-79131164D01*
X157423080Y-79131164D02*
X157113556Y-79131164D01*
X157113556Y-79131164D02*
X157280223Y-79416878D01*
X157280223Y-79416878D02*
X157208794Y-79416878D01*
X157208794Y-79416878D02*
X157161175Y-79452592D01*
X157161175Y-79452592D02*
X157137366Y-79488307D01*
X157137366Y-79488307D02*
X157113556Y-79559735D01*
X157113556Y-79559735D02*
X157113556Y-79738307D01*
X157113556Y-79738307D02*
X157137366Y-79809735D01*
X157137366Y-79809735D02*
X157161175Y-79845450D01*
X157161175Y-79845450D02*
X157208794Y-79881164D01*
X157208794Y-79881164D02*
X157351651Y-79881164D01*
X157351651Y-79881164D02*
X157399270Y-79845450D01*
X157399270Y-79845450D02*
X157423080Y-79809735D01*
X158618080Y-89620307D02*
X158546652Y-89656021D01*
X158546652Y-89656021D02*
X158522842Y-89691735D01*
X158522842Y-89691735D02*
X158499033Y-89763164D01*
X158499033Y-89763164D02*
X158499033Y-89870307D01*
X158499033Y-89870307D02*
X158522842Y-89941735D01*
X158522842Y-89941735D02*
X158546652Y-89977450D01*
X158546652Y-89977450D02*
X158594271Y-90013164D01*
X158594271Y-90013164D02*
X158784747Y-90013164D01*
X158784747Y-90013164D02*
X158784747Y-89263164D01*
X158784747Y-89263164D02*
X158618080Y-89263164D01*
X158618080Y-89263164D02*
X158570461Y-89298878D01*
X158570461Y-89298878D02*
X158546652Y-89334592D01*
X158546652Y-89334592D02*
X158522842Y-89406021D01*
X158522842Y-89406021D02*
X158522842Y-89477450D01*
X158522842Y-89477450D02*
X158546652Y-89548878D01*
X158546652Y-89548878D02*
X158570461Y-89584592D01*
X158570461Y-89584592D02*
X158618080Y-89620307D01*
X158618080Y-89620307D02*
X158784747Y-89620307D01*
X158070461Y-89263164D02*
X158165699Y-89263164D01*
X158165699Y-89263164D02*
X158213318Y-89298878D01*
X158213318Y-89298878D02*
X158237128Y-89334592D01*
X158237128Y-89334592D02*
X158284747Y-89441735D01*
X158284747Y-89441735D02*
X158308556Y-89584592D01*
X158308556Y-89584592D02*
X158308556Y-89870307D01*
X158308556Y-89870307D02*
X158284747Y-89941735D01*
X158284747Y-89941735D02*
X158260937Y-89977450D01*
X158260937Y-89977450D02*
X158213318Y-90013164D01*
X158213318Y-90013164D02*
X158118080Y-90013164D01*
X158118080Y-90013164D02*
X158070461Y-89977450D01*
X158070461Y-89977450D02*
X158046652Y-89941735D01*
X158046652Y-89941735D02*
X158022842Y-89870307D01*
X158022842Y-89870307D02*
X158022842Y-89691735D01*
X158022842Y-89691735D02*
X158046652Y-89620307D01*
X158046652Y-89620307D02*
X158070461Y-89584592D01*
X158070461Y-89584592D02*
X158118080Y-89548878D01*
X158118080Y-89548878D02*
X158213318Y-89548878D01*
X158213318Y-89548878D02*
X158260937Y-89584592D01*
X158260937Y-89584592D02*
X158284747Y-89620307D01*
X158284747Y-89620307D02*
X158308556Y-89691735D01*
X143301652Y-77313164D02*
X143468318Y-76956021D01*
X143587366Y-77313164D02*
X143587366Y-76563164D01*
X143587366Y-76563164D02*
X143396890Y-76563164D01*
X143396890Y-76563164D02*
X143349271Y-76598878D01*
X143349271Y-76598878D02*
X143325461Y-76634592D01*
X143325461Y-76634592D02*
X143301652Y-76706021D01*
X143301652Y-76706021D02*
X143301652Y-76813164D01*
X143301652Y-76813164D02*
X143325461Y-76884592D01*
X143325461Y-76884592D02*
X143349271Y-76920307D01*
X143349271Y-76920307D02*
X143396890Y-76956021D01*
X143396890Y-76956021D02*
X143587366Y-76956021D01*
X142992128Y-76563164D02*
X142896890Y-76563164D01*
X142896890Y-76563164D02*
X142849271Y-76598878D01*
X142849271Y-76598878D02*
X142801652Y-76670307D01*
X142801652Y-76670307D02*
X142777842Y-76813164D01*
X142777842Y-76813164D02*
X142777842Y-77063164D01*
X142777842Y-77063164D02*
X142801652Y-77206021D01*
X142801652Y-77206021D02*
X142849271Y-77277450D01*
X142849271Y-77277450D02*
X142896890Y-77313164D01*
X142896890Y-77313164D02*
X142992128Y-77313164D01*
X142992128Y-77313164D02*
X143039747Y-77277450D01*
X143039747Y-77277450D02*
X143087366Y-77206021D01*
X143087366Y-77206021D02*
X143111175Y-77063164D01*
X143111175Y-77063164D02*
X143111175Y-76813164D01*
X143111175Y-76813164D02*
X143087366Y-76670307D01*
X143087366Y-76670307D02*
X143039747Y-76598878D01*
X143039747Y-76598878D02*
X142992128Y-76563164D01*
X142611175Y-76563164D02*
X142492127Y-77313164D01*
X142492127Y-77313164D02*
X142396889Y-76777450D01*
X142396889Y-76777450D02*
X142301651Y-77313164D01*
X142301651Y-77313164D02*
X142182604Y-76563164D01*
X141896889Y-76563164D02*
X141849270Y-76563164D01*
X141849270Y-76563164D02*
X141801651Y-76598878D01*
X141801651Y-76598878D02*
X141777841Y-76634592D01*
X141777841Y-76634592D02*
X141754032Y-76706021D01*
X141754032Y-76706021D02*
X141730222Y-76848878D01*
X141730222Y-76848878D02*
X141730222Y-77027450D01*
X141730222Y-77027450D02*
X141754032Y-77170307D01*
X141754032Y-77170307D02*
X141777841Y-77241735D01*
X141777841Y-77241735D02*
X141801651Y-77277450D01*
X141801651Y-77277450D02*
X141849270Y-77313164D01*
X141849270Y-77313164D02*
X141896889Y-77313164D01*
X141896889Y-77313164D02*
X141944508Y-77277450D01*
X141944508Y-77277450D02*
X141968317Y-77241735D01*
X141968317Y-77241735D02*
X141992127Y-77170307D01*
X141992127Y-77170307D02*
X142015936Y-77027450D01*
X142015936Y-77027450D02*
X142015936Y-76848878D01*
X142015936Y-76848878D02*
X141992127Y-76706021D01*
X141992127Y-76706021D02*
X141968317Y-76634592D01*
X141968317Y-76634592D02*
X141944508Y-76598878D01*
X141944508Y-76598878D02*
X141896889Y-76563164D01*
X143302652Y-66502378D02*
X143350271Y-66466664D01*
X143350271Y-66466664D02*
X143421700Y-66466664D01*
X143421700Y-66466664D02*
X143493128Y-66502378D01*
X143493128Y-66502378D02*
X143540747Y-66573807D01*
X143540747Y-66573807D02*
X143564557Y-66645235D01*
X143564557Y-66645235D02*
X143588366Y-66788092D01*
X143588366Y-66788092D02*
X143588366Y-66895235D01*
X143588366Y-66895235D02*
X143564557Y-67038092D01*
X143564557Y-67038092D02*
X143540747Y-67109521D01*
X143540747Y-67109521D02*
X143493128Y-67180950D01*
X143493128Y-67180950D02*
X143421700Y-67216664D01*
X143421700Y-67216664D02*
X143374081Y-67216664D01*
X143374081Y-67216664D02*
X143302652Y-67180950D01*
X143302652Y-67180950D02*
X143278843Y-67145235D01*
X143278843Y-67145235D02*
X143278843Y-66895235D01*
X143278843Y-66895235D02*
X143374081Y-66895235D01*
X143064557Y-67216664D02*
X143064557Y-66466664D01*
X143064557Y-66466664D02*
X142778843Y-67216664D01*
X142778843Y-67216664D02*
X142778843Y-66466664D01*
X142540747Y-67216664D02*
X142540747Y-66466664D01*
X142540747Y-66466664D02*
X142421699Y-66466664D01*
X142421699Y-66466664D02*
X142350271Y-66502378D01*
X142350271Y-66502378D02*
X142302652Y-66573807D01*
X142302652Y-66573807D02*
X142278842Y-66645235D01*
X142278842Y-66645235D02*
X142255033Y-66788092D01*
X142255033Y-66788092D02*
X142255033Y-66895235D01*
X142255033Y-66895235D02*
X142278842Y-67038092D01*
X142278842Y-67038092D02*
X142302652Y-67109521D01*
X142302652Y-67109521D02*
X142350271Y-67180950D01*
X142350271Y-67180950D02*
X142421699Y-67216664D01*
X142421699Y-67216664D02*
X142540747Y-67216664D01*
X158518319Y-74765235D02*
X158542128Y-74800950D01*
X158542128Y-74800950D02*
X158613557Y-74836664D01*
X158613557Y-74836664D02*
X158661176Y-74836664D01*
X158661176Y-74836664D02*
X158732604Y-74800950D01*
X158732604Y-74800950D02*
X158780223Y-74729521D01*
X158780223Y-74729521D02*
X158804033Y-74658092D01*
X158804033Y-74658092D02*
X158827842Y-74515235D01*
X158827842Y-74515235D02*
X158827842Y-74408092D01*
X158827842Y-74408092D02*
X158804033Y-74265235D01*
X158804033Y-74265235D02*
X158780223Y-74193807D01*
X158780223Y-74193807D02*
X158732604Y-74122378D01*
X158732604Y-74122378D02*
X158661176Y-74086664D01*
X158661176Y-74086664D02*
X158613557Y-74086664D01*
X158613557Y-74086664D02*
X158542128Y-74122378D01*
X158542128Y-74122378D02*
X158518319Y-74158092D01*
X158208795Y-74086664D02*
X158113557Y-74086664D01*
X158113557Y-74086664D02*
X158065938Y-74122378D01*
X158065938Y-74122378D02*
X158018319Y-74193807D01*
X158018319Y-74193807D02*
X157994509Y-74336664D01*
X157994509Y-74336664D02*
X157994509Y-74586664D01*
X157994509Y-74586664D02*
X158018319Y-74729521D01*
X158018319Y-74729521D02*
X158065938Y-74800950D01*
X158065938Y-74800950D02*
X158113557Y-74836664D01*
X158113557Y-74836664D02*
X158208795Y-74836664D01*
X158208795Y-74836664D02*
X158256414Y-74800950D01*
X158256414Y-74800950D02*
X158304033Y-74729521D01*
X158304033Y-74729521D02*
X158327842Y-74586664D01*
X158327842Y-74586664D02*
X158327842Y-74336664D01*
X158327842Y-74336664D02*
X158304033Y-74193807D01*
X158304033Y-74193807D02*
X158256414Y-74122378D01*
X158256414Y-74122378D02*
X158208795Y-74086664D01*
X157542128Y-74836664D02*
X157780223Y-74836664D01*
X157780223Y-74836664D02*
X157780223Y-74086664D01*
X157113556Y-74836664D02*
X157399270Y-74836664D01*
X157256413Y-74836664D02*
X157256413Y-74086664D01*
X157256413Y-74086664D02*
X157304032Y-74193807D01*
X157304032Y-74193807D02*
X157351651Y-74265235D01*
X157351651Y-74265235D02*
X157399270Y-74300950D01*
X143302652Y-69042378D02*
X143350271Y-69006664D01*
X143350271Y-69006664D02*
X143421700Y-69006664D01*
X143421700Y-69006664D02*
X143493128Y-69042378D01*
X143493128Y-69042378D02*
X143540747Y-69113807D01*
X143540747Y-69113807D02*
X143564557Y-69185235D01*
X143564557Y-69185235D02*
X143588366Y-69328092D01*
X143588366Y-69328092D02*
X143588366Y-69435235D01*
X143588366Y-69435235D02*
X143564557Y-69578092D01*
X143564557Y-69578092D02*
X143540747Y-69649521D01*
X143540747Y-69649521D02*
X143493128Y-69720950D01*
X143493128Y-69720950D02*
X143421700Y-69756664D01*
X143421700Y-69756664D02*
X143374081Y-69756664D01*
X143374081Y-69756664D02*
X143302652Y-69720950D01*
X143302652Y-69720950D02*
X143278843Y-69685235D01*
X143278843Y-69685235D02*
X143278843Y-69435235D01*
X143278843Y-69435235D02*
X143374081Y-69435235D01*
X143064557Y-69756664D02*
X143064557Y-69006664D01*
X143064557Y-69006664D02*
X142778843Y-69756664D01*
X142778843Y-69756664D02*
X142778843Y-69006664D01*
X142540747Y-69756664D02*
X142540747Y-69006664D01*
X142540747Y-69006664D02*
X142421699Y-69006664D01*
X142421699Y-69006664D02*
X142350271Y-69042378D01*
X142350271Y-69042378D02*
X142302652Y-69113807D01*
X142302652Y-69113807D02*
X142278842Y-69185235D01*
X142278842Y-69185235D02*
X142255033Y-69328092D01*
X142255033Y-69328092D02*
X142255033Y-69435235D01*
X142255033Y-69435235D02*
X142278842Y-69578092D01*
X142278842Y-69578092D02*
X142302652Y-69649521D01*
X142302652Y-69649521D02*
X142350271Y-69720950D01*
X142350271Y-69720950D02*
X142421699Y-69756664D01*
X142421699Y-69756664D02*
X142540747Y-69756664D01*
X143124080Y-87143807D02*
X143052652Y-87179521D01*
X143052652Y-87179521D02*
X143028842Y-87215235D01*
X143028842Y-87215235D02*
X143005033Y-87286664D01*
X143005033Y-87286664D02*
X143005033Y-87393807D01*
X143005033Y-87393807D02*
X143028842Y-87465235D01*
X143028842Y-87465235D02*
X143052652Y-87500950D01*
X143052652Y-87500950D02*
X143100271Y-87536664D01*
X143100271Y-87536664D02*
X143290747Y-87536664D01*
X143290747Y-87536664D02*
X143290747Y-86786664D01*
X143290747Y-86786664D02*
X143124080Y-86786664D01*
X143124080Y-86786664D02*
X143076461Y-86822378D01*
X143076461Y-86822378D02*
X143052652Y-86858092D01*
X143052652Y-86858092D02*
X143028842Y-86929521D01*
X143028842Y-86929521D02*
X143028842Y-87000950D01*
X143028842Y-87000950D02*
X143052652Y-87072378D01*
X143052652Y-87072378D02*
X143076461Y-87108092D01*
X143076461Y-87108092D02*
X143124080Y-87143807D01*
X143124080Y-87143807D02*
X143290747Y-87143807D01*
X142576461Y-87036664D02*
X142576461Y-87536664D01*
X142695509Y-86750950D02*
X142814556Y-87286664D01*
X142814556Y-87286664D02*
X142505033Y-87286664D01*
X143516937Y-74800950D02*
X143445509Y-74836664D01*
X143445509Y-74836664D02*
X143326461Y-74836664D01*
X143326461Y-74836664D02*
X143278842Y-74800950D01*
X143278842Y-74800950D02*
X143255033Y-74765235D01*
X143255033Y-74765235D02*
X143231223Y-74693807D01*
X143231223Y-74693807D02*
X143231223Y-74622378D01*
X143231223Y-74622378D02*
X143255033Y-74550950D01*
X143255033Y-74550950D02*
X143278842Y-74515235D01*
X143278842Y-74515235D02*
X143326461Y-74479521D01*
X143326461Y-74479521D02*
X143421699Y-74443807D01*
X143421699Y-74443807D02*
X143469318Y-74408092D01*
X143469318Y-74408092D02*
X143493128Y-74372378D01*
X143493128Y-74372378D02*
X143516937Y-74300950D01*
X143516937Y-74300950D02*
X143516937Y-74229521D01*
X143516937Y-74229521D02*
X143493128Y-74158092D01*
X143493128Y-74158092D02*
X143469318Y-74122378D01*
X143469318Y-74122378D02*
X143421699Y-74086664D01*
X143421699Y-74086664D02*
X143302652Y-74086664D01*
X143302652Y-74086664D02*
X143231223Y-74122378D01*
X142731224Y-74765235D02*
X142755033Y-74800950D01*
X142755033Y-74800950D02*
X142826462Y-74836664D01*
X142826462Y-74836664D02*
X142874081Y-74836664D01*
X142874081Y-74836664D02*
X142945509Y-74800950D01*
X142945509Y-74800950D02*
X142993128Y-74729521D01*
X142993128Y-74729521D02*
X143016938Y-74658092D01*
X143016938Y-74658092D02*
X143040747Y-74515235D01*
X143040747Y-74515235D02*
X143040747Y-74408092D01*
X143040747Y-74408092D02*
X143016938Y-74265235D01*
X143016938Y-74265235D02*
X142993128Y-74193807D01*
X142993128Y-74193807D02*
X142945509Y-74122378D01*
X142945509Y-74122378D02*
X142874081Y-74086664D01*
X142874081Y-74086664D02*
X142826462Y-74086664D01*
X142826462Y-74086664D02*
X142755033Y-74122378D01*
X142755033Y-74122378D02*
X142731224Y-74158092D01*
X142278843Y-74836664D02*
X142516938Y-74836664D01*
X142516938Y-74836664D02*
X142516938Y-74086664D01*
X143528841Y-72260950D02*
X143457413Y-72296664D01*
X143457413Y-72296664D02*
X143338365Y-72296664D01*
X143338365Y-72296664D02*
X143290746Y-72260950D01*
X143290746Y-72260950D02*
X143266937Y-72225235D01*
X143266937Y-72225235D02*
X143243127Y-72153807D01*
X143243127Y-72153807D02*
X143243127Y-72082378D01*
X143243127Y-72082378D02*
X143266937Y-72010950D01*
X143266937Y-72010950D02*
X143290746Y-71975235D01*
X143290746Y-71975235D02*
X143338365Y-71939521D01*
X143338365Y-71939521D02*
X143433603Y-71903807D01*
X143433603Y-71903807D02*
X143481222Y-71868092D01*
X143481222Y-71868092D02*
X143505032Y-71832378D01*
X143505032Y-71832378D02*
X143528841Y-71760950D01*
X143528841Y-71760950D02*
X143528841Y-71689521D01*
X143528841Y-71689521D02*
X143505032Y-71618092D01*
X143505032Y-71618092D02*
X143481222Y-71582378D01*
X143481222Y-71582378D02*
X143433603Y-71546664D01*
X143433603Y-71546664D02*
X143314556Y-71546664D01*
X143314556Y-71546664D02*
X143243127Y-71582378D01*
X143028842Y-72296664D02*
X143028842Y-71546664D01*
X143028842Y-71546664D02*
X142909794Y-71546664D01*
X142909794Y-71546664D02*
X142838366Y-71582378D01*
X142838366Y-71582378D02*
X142790747Y-71653807D01*
X142790747Y-71653807D02*
X142766937Y-71725235D01*
X142766937Y-71725235D02*
X142743128Y-71868092D01*
X142743128Y-71868092D02*
X142743128Y-71975235D01*
X142743128Y-71975235D02*
X142766937Y-72118092D01*
X142766937Y-72118092D02*
X142790747Y-72189521D01*
X142790747Y-72189521D02*
X142838366Y-72260950D01*
X142838366Y-72260950D02*
X142909794Y-72296664D01*
X142909794Y-72296664D02*
X143028842Y-72296664D01*
X142552651Y-72082378D02*
X142314556Y-72082378D01*
X142600270Y-72296664D02*
X142433604Y-71546664D01*
X142433604Y-71546664D02*
X142266937Y-72296664D01*
X143520699Y-64781164D02*
X143520699Y-64031164D01*
X143520699Y-64031164D02*
X143401651Y-64031164D01*
X143401651Y-64031164D02*
X143330223Y-64066878D01*
X143330223Y-64066878D02*
X143282604Y-64138307D01*
X143282604Y-64138307D02*
X143258794Y-64209735D01*
X143258794Y-64209735D02*
X143234985Y-64352592D01*
X143234985Y-64352592D02*
X143234985Y-64459735D01*
X143234985Y-64459735D02*
X143258794Y-64602592D01*
X143258794Y-64602592D02*
X143282604Y-64674021D01*
X143282604Y-64674021D02*
X143330223Y-64745450D01*
X143330223Y-64745450D02*
X143401651Y-64781164D01*
X143401651Y-64781164D02*
X143520699Y-64781164D01*
X143044508Y-64566878D02*
X142806413Y-64566878D01*
X143092127Y-64781164D02*
X142925461Y-64031164D01*
X142925461Y-64031164D02*
X142758794Y-64781164D01*
X142663556Y-64031164D02*
X142377842Y-64031164D01*
X142520699Y-64781164D02*
X142520699Y-64031164D01*
X142234985Y-64566878D02*
X141996890Y-64566878D01*
X142282604Y-64781164D02*
X142115938Y-64031164D01*
X142115938Y-64031164D02*
X141949271Y-64781164D01*
D11*
X154384230Y-97298106D02*
X154860328Y-96964640D01*
X154921197Y-97493546D02*
X155263217Y-96553854D01*
X155263217Y-96553854D02*
X154905239Y-96423560D01*
X154905239Y-96423560D02*
X154799458Y-96435734D01*
X154799458Y-96435734D02*
X154738424Y-96464195D01*
X154738424Y-96464195D02*
X154661104Y-96537403D01*
X154661104Y-96537403D02*
X154612244Y-96671644D01*
X154612244Y-96671644D02*
X154624417Y-96777426D01*
X154624417Y-96777426D02*
X154652878Y-96838460D01*
X154652878Y-96838460D02*
X154726086Y-96915780D01*
X154726086Y-96915780D02*
X155084064Y-97046074D01*
X153639813Y-96976485D02*
X153713021Y-97053806D01*
X153713021Y-97053806D02*
X153892010Y-97118953D01*
X153892010Y-97118953D02*
X153997791Y-97106779D01*
X153997791Y-97106779D02*
X154075112Y-97033571D01*
X154075112Y-97033571D02*
X154205405Y-96675593D01*
X154205405Y-96675593D02*
X154193231Y-96569812D01*
X154193231Y-96569812D02*
X154120024Y-96492491D01*
X154120024Y-96492491D02*
X153941035Y-96427344D01*
X153941035Y-96427344D02*
X153835253Y-96439518D01*
X153835253Y-96439518D02*
X153757933Y-96512726D01*
X153757933Y-96512726D02*
X153725359Y-96602221D01*
X153725359Y-96602221D02*
X154140259Y-96854582D01*
X153237088Y-96829905D02*
X153131307Y-96842079D01*
X153131307Y-96842079D02*
X152952317Y-96776932D01*
X152952317Y-96776932D02*
X152879110Y-96699612D01*
X152879110Y-96699612D02*
X152866936Y-96593831D01*
X152866936Y-96593831D02*
X152883222Y-96549083D01*
X152883222Y-96549083D02*
X152960543Y-96475876D01*
X152960543Y-96475876D02*
X153066324Y-96463702D01*
X153066324Y-96463702D02*
X153200566Y-96512562D01*
X153200566Y-96512562D02*
X153306347Y-96500388D01*
X153306347Y-96500388D02*
X153383668Y-96427180D01*
X153383668Y-96427180D02*
X153399954Y-96382433D01*
X153399954Y-96382433D02*
X153387781Y-96276651D01*
X153387781Y-96276651D02*
X153314573Y-96199331D01*
X153314573Y-96199331D02*
X153180331Y-96150471D01*
X153180331Y-96150471D02*
X153074550Y-96162645D01*
X152073659Y-96406452D02*
X152146866Y-96483772D01*
X152146866Y-96483772D02*
X152325856Y-96548919D01*
X152325856Y-96548919D02*
X152431637Y-96536745D01*
X152431637Y-96536745D02*
X152508957Y-96463537D01*
X152508957Y-96463537D02*
X152639251Y-96105559D01*
X152639251Y-96105559D02*
X152627077Y-95999778D01*
X152627077Y-95999778D02*
X152553869Y-95922457D01*
X152553869Y-95922457D02*
X152374880Y-95857311D01*
X152374880Y-95857311D02*
X152269099Y-95869484D01*
X152269099Y-95869484D02*
X152191778Y-95942692D01*
X152191778Y-95942692D02*
X152159205Y-96032187D01*
X152159205Y-96032187D02*
X152574104Y-96284548D01*
X151972154Y-95710730D02*
X151614176Y-95580437D01*
X151951919Y-95348640D02*
X151658759Y-96154090D01*
X151658759Y-96154090D02*
X151581439Y-96227298D01*
X151581439Y-96227298D02*
X151475657Y-96239472D01*
X151475657Y-96239472D02*
X151386163Y-96206899D01*
X157156413Y-57772900D02*
X157013556Y-57820519D01*
X157013556Y-57820519D02*
X156775461Y-57820519D01*
X156775461Y-57820519D02*
X156680223Y-57772900D01*
X156680223Y-57772900D02*
X156632604Y-57725280D01*
X156632604Y-57725280D02*
X156584985Y-57630042D01*
X156584985Y-57630042D02*
X156584985Y-57534804D01*
X156584985Y-57534804D02*
X156632604Y-57439566D01*
X156632604Y-57439566D02*
X156680223Y-57391947D01*
X156680223Y-57391947D02*
X156775461Y-57344328D01*
X156775461Y-57344328D02*
X156965937Y-57296709D01*
X156965937Y-57296709D02*
X157061175Y-57249090D01*
X157061175Y-57249090D02*
X157108794Y-57201471D01*
X157108794Y-57201471D02*
X157156413Y-57106233D01*
X157156413Y-57106233D02*
X157156413Y-57010995D01*
X157156413Y-57010995D02*
X157108794Y-56915757D01*
X157108794Y-56915757D02*
X157061175Y-56868138D01*
X157061175Y-56868138D02*
X156965937Y-56820519D01*
X156965937Y-56820519D02*
X156727842Y-56820519D01*
X156727842Y-56820519D02*
X156584985Y-56868138D01*
X156251651Y-56820519D02*
X156013556Y-57820519D01*
X156013556Y-57820519D02*
X155823080Y-57106233D01*
X155823080Y-57106233D02*
X155632604Y-57820519D01*
X155632604Y-57820519D02*
X155394509Y-56820519D01*
X155251652Y-57915757D02*
X154489747Y-57915757D01*
X154251651Y-57820519D02*
X154251651Y-56820519D01*
X154251651Y-56820519D02*
X153870699Y-56820519D01*
X153870699Y-56820519D02*
X153775461Y-56868138D01*
X153775461Y-56868138D02*
X153727842Y-56915757D01*
X153727842Y-56915757D02*
X153680223Y-57010995D01*
X153680223Y-57010995D02*
X153680223Y-57153852D01*
X153680223Y-57153852D02*
X153727842Y-57249090D01*
X153727842Y-57249090D02*
X153775461Y-57296709D01*
X153775461Y-57296709D02*
X153870699Y-57344328D01*
X153870699Y-57344328D02*
X154251651Y-57344328D01*
X153061175Y-56820519D02*
X152870699Y-56820519D01*
X152870699Y-56820519D02*
X152775461Y-56868138D01*
X152775461Y-56868138D02*
X152680223Y-56963376D01*
X152680223Y-56963376D02*
X152632604Y-57153852D01*
X152632604Y-57153852D02*
X152632604Y-57487185D01*
X152632604Y-57487185D02*
X152680223Y-57677661D01*
X152680223Y-57677661D02*
X152775461Y-57772900D01*
X152775461Y-57772900D02*
X152870699Y-57820519D01*
X152870699Y-57820519D02*
X153061175Y-57820519D01*
X153061175Y-57820519D02*
X153156413Y-57772900D01*
X153156413Y-57772900D02*
X153251651Y-57677661D01*
X153251651Y-57677661D02*
X153299270Y-57487185D01*
X153299270Y-57487185D02*
X153299270Y-57153852D01*
X153299270Y-57153852D02*
X153251651Y-56963376D01*
X153251651Y-56963376D02*
X153156413Y-56868138D01*
X153156413Y-56868138D02*
X153061175Y-56820519D01*
X152299270Y-56820519D02*
X152061175Y-57820519D01*
X152061175Y-57820519D02*
X151870699Y-57106233D01*
X151870699Y-57106233D02*
X151680223Y-57820519D01*
X151680223Y-57820519D02*
X151442128Y-56820519D01*
X151061175Y-57296709D02*
X150727842Y-57296709D01*
X150584985Y-57820519D02*
X151061175Y-57820519D01*
X151061175Y-57820519D02*
X151061175Y-56820519D01*
X151061175Y-56820519D02*
X150584985Y-56820519D01*
X149584985Y-57820519D02*
X149918318Y-57344328D01*
X150156413Y-57820519D02*
X150156413Y-56820519D01*
X150156413Y-56820519D02*
X149775461Y-56820519D01*
X149775461Y-56820519D02*
X149680223Y-56868138D01*
X149680223Y-56868138D02*
X149632604Y-56915757D01*
X149632604Y-56915757D02*
X149584985Y-57010995D01*
X149584985Y-57010995D02*
X149584985Y-57153852D01*
X149584985Y-57153852D02*
X149632604Y-57249090D01*
X149632604Y-57249090D02*
X149680223Y-57296709D01*
X149680223Y-57296709D02*
X149775461Y-57344328D01*
X149775461Y-57344328D02*
X150156413Y-57344328D01*
X65120700Y-62515700D02*
X66020700Y-63015700D01*
X68320700Y-63765700D02*
X68320700Y-62265700D01*
X62920700Y-62265700D02*
X62920700Y-63765700D01*
X62920700Y-63765700D02*
X68320700Y-63765700D01*
X65120700Y-63515700D02*
X65120700Y-62515700D01*
X66120700Y-63515700D02*
X66120700Y-62515700D01*
X66020700Y-63015700D02*
X65120700Y-63515700D01*
X68320700Y-62265700D02*
X62920700Y-62265700D01*
X83120700Y-52765700D02*
X83120700Y-51765700D01*
X82120700Y-51765700D02*
X83020700Y-52265700D01*
X85320700Y-53015700D02*
X85320700Y-51515700D01*
X82120700Y-52765700D02*
X82120700Y-51765700D01*
X79920700Y-51515700D02*
X79920700Y-53015700D01*
X79920700Y-53015700D02*
X85320700Y-53015700D01*
X85320700Y-51515700D02*
X79920700Y-51515700D01*
X83020700Y-52265700D02*
X82120700Y-52765700D01*
X99120700Y-48390700D02*
X100020700Y-48890700D01*
X96920700Y-48140700D02*
X96920700Y-49640700D01*
X102320700Y-48140700D02*
X96920700Y-48140700D01*
X99120700Y-49390700D02*
X99120700Y-48390700D01*
X96920700Y-49640700D02*
X102320700Y-49640700D01*
X102320700Y-49640700D02*
X102320700Y-48140700D01*
X100120700Y-49390700D02*
X100120700Y-48390700D01*
X100020700Y-48890700D02*
X99120700Y-49390700D01*
X119320700Y-57015700D02*
X119320700Y-55515700D01*
X117120700Y-56765700D02*
X117120700Y-55765700D01*
X113920700Y-55515700D02*
X113920700Y-57015700D01*
X116120700Y-55765700D02*
X117020700Y-56265700D01*
X116120700Y-56765700D02*
X116120700Y-55765700D01*
X119320700Y-55515700D02*
X113920700Y-55515700D01*
X117020700Y-56265700D02*
X116120700Y-56765700D01*
X113920700Y-57015700D02*
X119320700Y-57015700D01*
X130970700Y-58265700D02*
X136370700Y-58265700D01*
X133170700Y-58015700D02*
X133170700Y-57015700D01*
X134070700Y-57515700D02*
X133170700Y-58015700D01*
X134170700Y-58015700D02*
X134170700Y-57015700D01*
X133170700Y-57015700D02*
X134070700Y-57515700D01*
X130970700Y-56765700D02*
X130970700Y-58265700D01*
X136370700Y-58265700D02*
X136370700Y-56765700D01*
X136370700Y-56765700D02*
X130970700Y-56765700D01*
X45395700Y-84215700D02*
X44395700Y-84215700D01*
X45395700Y-85215700D02*
X44395700Y-85215700D01*
X44145700Y-82015700D02*
X44145700Y-87415700D01*
X45645700Y-82015700D02*
X44145700Y-82015700D01*
X44395700Y-85215700D02*
X44895700Y-84315700D01*
X44145700Y-87415700D02*
X45645700Y-87415700D01*
X45645700Y-87415700D02*
X45645700Y-82015700D01*
X44895700Y-84315700D02*
X45395700Y-85215700D01*
X63020700Y-80765700D02*
X68420700Y-80765700D01*
X65220700Y-79515700D02*
X66120700Y-80015700D01*
X63020700Y-79265700D02*
X63020700Y-80765700D01*
X65220700Y-80515700D02*
X65220700Y-79515700D01*
X66120700Y-80015700D02*
X65220700Y-80515700D01*
X66220700Y-80515700D02*
X66220700Y-79515700D01*
X68420700Y-79265700D02*
X63020700Y-79265700D01*
X68420700Y-80765700D02*
X68420700Y-79265700D01*
X80020700Y-68515700D02*
X80020700Y-70015700D01*
X83220700Y-69765700D02*
X83220700Y-68765700D01*
X83120700Y-69265700D02*
X82220700Y-69765700D01*
X80020700Y-70015700D02*
X85420700Y-70015700D01*
X82220700Y-69765700D02*
X82220700Y-68765700D01*
X85420700Y-70015700D02*
X85420700Y-68515700D01*
X85420700Y-68515700D02*
X80020700Y-68515700D01*
X82220700Y-68765700D02*
X83120700Y-69265700D01*
X102420700Y-66640700D02*
X102420700Y-65140700D01*
X102420700Y-65140700D02*
X97020700Y-65140700D01*
X97020700Y-65140700D02*
X97020700Y-66640700D01*
X99220700Y-65390700D02*
X100120700Y-65890700D01*
X99220700Y-66390700D02*
X99220700Y-65390700D01*
X100220700Y-66390700D02*
X100220700Y-65390700D01*
X100120700Y-65890700D02*
X99220700Y-66390700D01*
X97020700Y-66640700D02*
X102420700Y-66640700D01*
X117120700Y-73265700D02*
X116220700Y-73765700D01*
X119420700Y-74015700D02*
X119420700Y-72515700D01*
X114020700Y-72515700D02*
X114020700Y-74015700D01*
X116220700Y-73765700D02*
X116220700Y-72765700D01*
X116220700Y-72765700D02*
X117120700Y-73265700D01*
X117220700Y-73765700D02*
X117220700Y-72765700D01*
X114020700Y-74015700D02*
X119420700Y-74015700D01*
X119420700Y-72515700D02*
X114020700Y-72515700D01*
X134070700Y-74715700D02*
X133170700Y-75215700D01*
X130970700Y-75465700D02*
X136370700Y-75465700D01*
X134170700Y-75215700D02*
X134170700Y-74215700D01*
X136370700Y-75465700D02*
X136370700Y-73965700D01*
X136370700Y-73965700D02*
X130970700Y-73965700D01*
X133170700Y-74215700D02*
X134070700Y-74715700D01*
X133170700Y-75215700D02*
X133170700Y-74215700D01*
X130970700Y-73965700D02*
X130970700Y-75465700D01*
X66070700Y-97615700D02*
X66070700Y-96615700D01*
X68270700Y-97865700D02*
X68270700Y-96365700D01*
X62870700Y-96365700D02*
X62870700Y-97865700D01*
X65070700Y-96615700D02*
X65970700Y-97115700D01*
X68270700Y-96365700D02*
X62870700Y-96365700D01*
X62870700Y-97865700D02*
X68270700Y-97865700D01*
X65970700Y-97115700D02*
X65070700Y-97615700D01*
X65070700Y-97615700D02*
X65070700Y-96615700D01*
X82070700Y-86865700D02*
X82070700Y-85865700D01*
X79870700Y-87115700D02*
X85270700Y-87115700D01*
X82970700Y-86365700D02*
X82070700Y-86865700D01*
X82070700Y-85865700D02*
X82970700Y-86365700D01*
X79870700Y-85615700D02*
X79870700Y-87115700D01*
X83070700Y-86865700D02*
X83070700Y-85865700D01*
X85270700Y-87115700D02*
X85270700Y-85615700D01*
X85270700Y-85615700D02*
X79870700Y-85615700D01*
X99070700Y-83490700D02*
X99070700Y-82490700D01*
X100070700Y-83490700D02*
X100070700Y-82490700D01*
X99070700Y-82490700D02*
X99970700Y-82990700D01*
X102270700Y-82240700D02*
X96870700Y-82240700D01*
X102270700Y-83740700D02*
X102270700Y-82240700D01*
X96870700Y-82240700D02*
X96870700Y-83740700D01*
X99970700Y-82990700D02*
X99070700Y-83490700D01*
X96870700Y-83740700D02*
X102270700Y-83740700D01*
X116970700Y-90365700D02*
X116070700Y-90865700D01*
X113870700Y-91115700D02*
X119270700Y-91115700D01*
X116070700Y-89865700D02*
X116970700Y-90365700D01*
X116070700Y-90865700D02*
X116070700Y-89865700D01*
X113870700Y-89615700D02*
X113870700Y-91115700D01*
X119270700Y-89615700D02*
X113870700Y-89615700D01*
X117070700Y-90865700D02*
X117070700Y-89865700D01*
X119270700Y-91115700D02*
X119270700Y-89615700D01*
X133120700Y-91065700D02*
X134020700Y-91565700D01*
X136320700Y-90815700D02*
X130920700Y-90815700D01*
X130920700Y-92315700D02*
X136320700Y-92315700D01*
X133120700Y-92065700D02*
X133120700Y-91065700D01*
X130920700Y-90815700D02*
X130920700Y-92315700D01*
X136320700Y-92315700D02*
X136320700Y-90815700D01*
X134120700Y-92065700D02*
X134120700Y-91065700D01*
X134020700Y-91565700D02*
X133120700Y-92065700D01*
X112645700Y-116440700D02*
X113545700Y-116940700D01*
X115845700Y-117690700D02*
X115845700Y-116190700D01*
X110445700Y-116190700D02*
X110445700Y-117690700D01*
X113645700Y-117440700D02*
X113645700Y-116440700D01*
X115845700Y-116190700D02*
X110445700Y-116190700D01*
X113545700Y-116940700D02*
X112645700Y-117440700D01*
X112645700Y-117440700D02*
X112645700Y-116440700D01*
X110445700Y-117690700D02*
X115845700Y-117690700D01*
X131485123Y-118555759D02*
X130511972Y-118891880D01*
X133619945Y-119693756D02*
X133880417Y-118216544D01*
X131496780Y-119065528D02*
X131670428Y-118080720D01*
X130685620Y-117907072D02*
X131485123Y-118555759D01*
X128562455Y-117278844D02*
X128301983Y-118756056D01*
X130511972Y-118891880D02*
X130685620Y-117907072D01*
X133880417Y-118216544D02*
X128562455Y-117278844D01*
X128301983Y-118756056D02*
X133619945Y-119693756D01*
X156598024Y-113313045D02*
X155188485Y-112800015D01*
X155610656Y-115294864D02*
X154670964Y-114952844D01*
X154328944Y-115892536D02*
X155106608Y-115217823D01*
X155106608Y-115217823D02*
X155268636Y-116234556D01*
X153341576Y-117874355D02*
X154751115Y-118387385D01*
X155188485Y-112800015D02*
X153341576Y-117874355D01*
X154751115Y-118387385D02*
X156598024Y-113313045D01*
X155268636Y-116234556D02*
X154328944Y-115892536D01*
X65720700Y-75040700D02*
X65720700Y-70440700D01*
X62120700Y-72940700D02*
X62120700Y-68390700D01*
X65120700Y-75040700D02*
X65120700Y-70440700D01*
X58370700Y-69240700D02*
X59395700Y-68215700D01*
X58970700Y-72440700D02*
X58970700Y-68640700D01*
X62420700Y-73090700D02*
X62420700Y-68640700D01*
X66020700Y-75040700D02*
X66020700Y-70440700D01*
X66970700Y-75065700D02*
X64370700Y-75065700D01*
X62720700Y-73290700D02*
X62720700Y-68890700D01*
X67820700Y-74490700D02*
X67820700Y-70940700D01*
X67220700Y-74990700D02*
X67220700Y-70490700D01*
X63920700Y-74890700D02*
X63920700Y-70340700D01*
X60320700Y-72840700D02*
X60320700Y-68240700D01*
X59420700Y-72840700D02*
X59420700Y-68240700D01*
X63470700Y-74240700D02*
X63470700Y-70090700D01*
X63020700Y-73540700D02*
X63020700Y-69090700D01*
X67970700Y-71415700D02*
X67970700Y-74065700D01*
X64520700Y-75040700D02*
X64520700Y-70490700D01*
X66470700Y-75040700D02*
X66470700Y-70440700D01*
X63670700Y-74640700D02*
X63670700Y-70240700D01*
X65870700Y-75040700D02*
X65870700Y-70440700D01*
X67520700Y-74840700D02*
X67520700Y-70640700D01*
X67620700Y-74740700D02*
X67620700Y-70790700D01*
X63370700Y-74040700D02*
X63370700Y-69890700D01*
X59570700Y-72840700D02*
X59570700Y-68240700D01*
X59720700Y-72840700D02*
X59720700Y-68240700D01*
X66970700Y-70415700D02*
X64395700Y-70415700D01*
X64820700Y-75040700D02*
X64820700Y-70440700D01*
X63770700Y-74790700D02*
X63770700Y-70290700D01*
X61670700Y-72890700D02*
X61670700Y-68240700D01*
X61220700Y-72840700D02*
X61220700Y-68240700D01*
X61945700Y-68215700D02*
X63220700Y-69240700D01*
X58520700Y-71990700D02*
X58520700Y-69090700D01*
X60920700Y-72840700D02*
X60920700Y-68240700D01*
X64970700Y-75040700D02*
X64970700Y-70440700D01*
X61945700Y-68215700D02*
X59395700Y-68215700D01*
X60770700Y-72840700D02*
X60770700Y-68240700D01*
X66620700Y-75040700D02*
X66620700Y-70440700D01*
X59870700Y-72840700D02*
X59870700Y-68240700D01*
X64370700Y-75040700D02*
X64370700Y-70440700D01*
X62570700Y-73190700D02*
X62570700Y-68740700D01*
X60020700Y-72840700D02*
X60020700Y-68240700D01*
X62870700Y-73390700D02*
X62870700Y-68990700D01*
X61970700Y-72890700D02*
X61970700Y-68290700D01*
X58670700Y-72090700D02*
X58670700Y-68940700D01*
X63170700Y-73690700D02*
X63170700Y-69240700D01*
X61370700Y-72840700D02*
X61370700Y-68240700D01*
X60620700Y-72840700D02*
X60620700Y-68240700D01*
X67720700Y-74640700D02*
X67720700Y-70890700D01*
X66170700Y-75040700D02*
X66170700Y-70440700D01*
X65420700Y-75040700D02*
X65420700Y-70440700D01*
X66770700Y-75040700D02*
X66770700Y-70440700D01*
X61370700Y-72865700D02*
X59395700Y-72865700D01*
X63270700Y-73890700D02*
X63270700Y-69740700D01*
X59270700Y-72690700D02*
X59270700Y-68340700D01*
X60470700Y-72840700D02*
X60470700Y-68240700D01*
X64220700Y-75040700D02*
X64220700Y-70440700D01*
X61520700Y-72840700D02*
X61520700Y-68290700D01*
X66920700Y-75040700D02*
X66920700Y-70440700D01*
X58370700Y-71840700D02*
X59395700Y-72865700D01*
X63570700Y-74390700D02*
X63570700Y-70190700D01*
X61070700Y-72840700D02*
X61070700Y-68240700D01*
X67370700Y-74940700D02*
X67370700Y-70540700D01*
X67070700Y-75040700D02*
X67070700Y-70490700D01*
X65570700Y-75040700D02*
X65570700Y-70440700D01*
X60170700Y-72840700D02*
X60170700Y-68240700D01*
X66320700Y-75040700D02*
X66320700Y-70440700D01*
X58370700Y-69240700D02*
X58370700Y-71840700D01*
X62270700Y-73040700D02*
X62270700Y-68490700D01*
X64670700Y-75040700D02*
X64670700Y-70440700D01*
X59120700Y-72590700D02*
X59120700Y-68490700D01*
X58820700Y-72290700D02*
X58820700Y-68790700D01*
X65270700Y-75040700D02*
X65270700Y-70440700D01*
X64070700Y-74990700D02*
X64070700Y-70440700D01*
X61820700Y-72890700D02*
X61820700Y-68240700D01*
X61370700Y-72865700D02*
G75*
G02*
X63508501Y-74362604I0J-2275000D01*
G01*
X66970700Y-70415700D02*
G75*
G02*
X67970700Y-71415700I1J-999999D01*
G01*
X64395700Y-70415700D02*
G75*
G02*
X63220700Y-69240700I0J1175000D01*
G01*
X67970700Y-74065700D02*
G75*
G02*
X66970700Y-75065700I-999999J-1D01*
G01*
X64369705Y-75064491D02*
G75*
G02*
X63508497Y-74362605I38795J926891D01*
G01*
X83620700Y-64290700D02*
X83620700Y-59690700D01*
X83020700Y-64290700D02*
X83020700Y-59690700D01*
X82720700Y-64290700D02*
X82720700Y-59690700D01*
X83770700Y-64290700D02*
X83770700Y-59690700D01*
X76870700Y-62090700D02*
X76870700Y-57490700D01*
X84620700Y-63990700D02*
X84620700Y-60040700D01*
X79270700Y-62290700D02*
X79270700Y-57740700D01*
X80370700Y-63290700D02*
X80370700Y-59140700D01*
X77320700Y-62090700D02*
X77320700Y-57490700D01*
X78820700Y-62140700D02*
X78820700Y-57490700D01*
X80170700Y-62940700D02*
X80170700Y-58490700D01*
X81820700Y-64290700D02*
X81820700Y-59690700D01*
X82870700Y-64290700D02*
X82870700Y-59690700D01*
X80920700Y-64140700D02*
X80920700Y-59590700D01*
X81220700Y-64290700D02*
X81220700Y-59690700D01*
X79120700Y-62190700D02*
X79120700Y-57640700D01*
X78070700Y-62090700D02*
X78070700Y-57490700D01*
X78220700Y-62090700D02*
X78220700Y-57490700D01*
X84070700Y-64290700D02*
X84070700Y-59740700D01*
X77620700Y-62090700D02*
X77620700Y-57490700D01*
X79420700Y-62340700D02*
X79420700Y-57890700D01*
X76720700Y-62090700D02*
X76720700Y-57490700D01*
X75520700Y-61240700D02*
X75520700Y-58340700D01*
X77770700Y-62090700D02*
X77770700Y-57490700D01*
X80270700Y-63140700D02*
X80270700Y-58990700D01*
X75970700Y-61690700D02*
X75970700Y-57890700D01*
X83970700Y-64315700D02*
X81370700Y-64315700D01*
X75370700Y-58490700D02*
X75370700Y-61090700D01*
X75370700Y-61090700D02*
X76395700Y-62115700D01*
X76570700Y-62090700D02*
X76570700Y-57490700D01*
X84820700Y-63740700D02*
X84820700Y-60190700D01*
X84970700Y-60665700D02*
X84970700Y-63315700D01*
X76420700Y-62090700D02*
X76420700Y-57490700D01*
X77470700Y-62090700D02*
X77470700Y-57490700D01*
X78945700Y-57465700D02*
X80220700Y-58490700D01*
X83920700Y-64290700D02*
X83920700Y-59690700D01*
X75820700Y-61540700D02*
X75820700Y-58040700D01*
X75370700Y-58490700D02*
X76395700Y-57465700D01*
X77920700Y-62090700D02*
X77920700Y-57490700D01*
X76120700Y-61840700D02*
X76120700Y-57740700D01*
X75670700Y-61340700D02*
X75670700Y-58190700D01*
X84220700Y-64240700D02*
X84220700Y-59740700D01*
X80570700Y-63640700D02*
X80570700Y-59440700D01*
X80470700Y-63490700D02*
X80470700Y-59340700D01*
X82270700Y-64290700D02*
X82270700Y-59690700D01*
X82420700Y-64290700D02*
X82420700Y-59690700D01*
X79720700Y-62540700D02*
X79720700Y-58140700D01*
X82120700Y-64290700D02*
X82120700Y-59690700D01*
X84370700Y-64190700D02*
X84370700Y-59790700D01*
X78520700Y-62090700D02*
X78520700Y-57540700D01*
X80670700Y-63890700D02*
X80670700Y-59490700D01*
X84520700Y-64090700D02*
X84520700Y-59890700D01*
X78945700Y-57465700D02*
X76395700Y-57465700D01*
X77170700Y-62090700D02*
X77170700Y-57490700D01*
X78970700Y-62140700D02*
X78970700Y-57540700D01*
X78370700Y-62090700D02*
X78370700Y-57490700D01*
X81370700Y-64290700D02*
X81370700Y-59690700D01*
X83470700Y-64290700D02*
X83470700Y-59690700D01*
X83170700Y-64290700D02*
X83170700Y-59690700D01*
X82570700Y-64290700D02*
X82570700Y-59690700D01*
X76270700Y-61940700D02*
X76270700Y-57590700D01*
X81070700Y-64240700D02*
X81070700Y-59690700D01*
X81970700Y-64290700D02*
X81970700Y-59690700D01*
X81670700Y-64290700D02*
X81670700Y-59690700D01*
X78670700Y-62140700D02*
X78670700Y-57490700D01*
X77020700Y-62090700D02*
X77020700Y-57490700D01*
X84720700Y-63890700D02*
X84720700Y-60140700D01*
X79570700Y-62440700D02*
X79570700Y-57990700D01*
X78370700Y-62115700D02*
X76395700Y-62115700D01*
X79870700Y-62640700D02*
X79870700Y-58240700D01*
X80020700Y-62790700D02*
X80020700Y-58340700D01*
X80770700Y-64040700D02*
X80770700Y-59540700D01*
X83970700Y-59665700D02*
X81395700Y-59665700D01*
X81520700Y-64290700D02*
X81520700Y-59740700D01*
X83320700Y-64290700D02*
X83320700Y-59690700D01*
X81395700Y-59665700D02*
G75*
G02*
X80220700Y-58490700I0J1175000D01*
G01*
X78370700Y-62115700D02*
G75*
G02*
X80508501Y-63612604I0J-2275000D01*
G01*
X83970700Y-59665700D02*
G75*
G02*
X84970700Y-60665700I1J-999999D01*
G01*
X81369705Y-64314491D02*
G75*
G02*
X80508497Y-63612605I38795J926891D01*
G01*
X84970700Y-63315700D02*
G75*
G02*
X83970700Y-64315700I-999999J-1D01*
G01*
X101070700Y-60915700D02*
X101070700Y-56365700D01*
X92370700Y-55115700D02*
X93395700Y-54090700D01*
X99420700Y-60915700D02*
X99420700Y-56315700D01*
X98220700Y-60915700D02*
X98220700Y-56315700D01*
X100920700Y-60915700D02*
X100920700Y-56315700D01*
X101220700Y-60865700D02*
X101220700Y-56365700D01*
X100020700Y-60915700D02*
X100020700Y-56315700D01*
X98820700Y-60915700D02*
X98820700Y-56315700D01*
X100320700Y-60915700D02*
X100320700Y-56315700D01*
X101620700Y-60615700D02*
X101620700Y-56665700D01*
X100970700Y-56290700D02*
X98395700Y-56290700D01*
X96720700Y-59165700D02*
X96720700Y-54765700D01*
X94470700Y-58715700D02*
X94470700Y-54115700D01*
X98670700Y-60915700D02*
X98670700Y-56315700D01*
X95670700Y-58765700D02*
X95670700Y-54115700D01*
X92370700Y-57715700D02*
X93395700Y-58740700D01*
X95945700Y-54090700D02*
X93395700Y-54090700D01*
X98070700Y-60865700D02*
X98070700Y-56315700D01*
X92520700Y-57865700D02*
X92520700Y-54965700D01*
X98970700Y-60915700D02*
X98970700Y-56315700D01*
X94320700Y-58715700D02*
X94320700Y-54115700D01*
X95220700Y-58715700D02*
X95220700Y-54115700D01*
X93870700Y-58715700D02*
X93870700Y-54115700D01*
X92670700Y-57965700D02*
X92670700Y-54815700D01*
X94620700Y-58715700D02*
X94620700Y-54115700D01*
X95070700Y-58715700D02*
X95070700Y-54115700D01*
X94920700Y-58715700D02*
X94920700Y-54115700D01*
X93120700Y-58465700D02*
X93120700Y-54365700D01*
X96120700Y-58815700D02*
X96120700Y-54265700D01*
X98520700Y-60915700D02*
X98520700Y-56365700D01*
X99870700Y-60915700D02*
X99870700Y-56315700D01*
X100470700Y-60915700D02*
X100470700Y-56315700D01*
X95820700Y-58765700D02*
X95820700Y-54115700D01*
X97920700Y-60765700D02*
X97920700Y-56215700D01*
X94020700Y-58715700D02*
X94020700Y-54115700D01*
X99570700Y-60915700D02*
X99570700Y-56315700D01*
X100970700Y-60940700D02*
X98370700Y-60940700D01*
X98370700Y-60915700D02*
X98370700Y-56315700D01*
X101820700Y-60365700D02*
X101820700Y-56815700D01*
X96420700Y-58965700D02*
X96420700Y-54515700D01*
X96870700Y-59265700D02*
X96870700Y-54865700D01*
X92820700Y-58165700D02*
X92820700Y-54665700D01*
X95970700Y-58765700D02*
X95970700Y-54165700D01*
X99120700Y-60915700D02*
X99120700Y-56315700D01*
X96270700Y-58915700D02*
X96270700Y-54365700D01*
X97570700Y-60265700D02*
X97570700Y-56065700D01*
X97170700Y-59565700D02*
X97170700Y-55115700D01*
X100770700Y-60915700D02*
X100770700Y-56315700D01*
X95945700Y-54090700D02*
X97220700Y-55115700D01*
X94170700Y-58715700D02*
X94170700Y-54115700D01*
X93570700Y-58715700D02*
X93570700Y-54115700D01*
X94770700Y-58715700D02*
X94770700Y-54115700D01*
X95370700Y-58740700D02*
X93395700Y-58740700D01*
X97270700Y-59765700D02*
X97270700Y-55615700D01*
X99720700Y-60915700D02*
X99720700Y-56315700D01*
X101370700Y-60815700D02*
X101370700Y-56415700D01*
X97770700Y-60665700D02*
X97770700Y-56165700D01*
X99270700Y-60915700D02*
X99270700Y-56315700D01*
X95520700Y-58715700D02*
X95520700Y-54165700D01*
X100620700Y-60915700D02*
X100620700Y-56315700D01*
X93420700Y-58715700D02*
X93420700Y-54115700D01*
X97370700Y-59915700D02*
X97370700Y-55765700D01*
X100170700Y-60915700D02*
X100170700Y-56315700D01*
X95370700Y-58715700D02*
X95370700Y-54115700D01*
X93720700Y-58715700D02*
X93720700Y-54115700D01*
X97470700Y-60115700D02*
X97470700Y-55965700D01*
X97670700Y-60515700D02*
X97670700Y-56115700D01*
X101520700Y-60715700D02*
X101520700Y-56515700D01*
X93270700Y-58565700D02*
X93270700Y-54215700D01*
X97020700Y-59415700D02*
X97020700Y-54965700D01*
X101970700Y-57290700D02*
X101970700Y-59940700D01*
X92370700Y-55115700D02*
X92370700Y-57715700D01*
X92970700Y-58315700D02*
X92970700Y-54515700D01*
X96570700Y-59065700D02*
X96570700Y-54615700D01*
X101720700Y-60515700D02*
X101720700Y-56765700D01*
X100970700Y-56290700D02*
G75*
G02*
X101970700Y-57290700I1J-999999D01*
G01*
X98395700Y-56290700D02*
G75*
G02*
X97220700Y-55115700I0J1175000D01*
G01*
X98369705Y-60939491D02*
G75*
G02*
X97508497Y-60237605I38795J926891D01*
G01*
X95370700Y-58740700D02*
G75*
G02*
X97508501Y-60237604I0J-2275000D01*
G01*
X101970700Y-59940700D02*
G75*
G02*
X100970700Y-60940700I-999999J-1D01*
G01*
X110570700Y-66090700D02*
X110570700Y-61490700D01*
X115070700Y-68240700D02*
X115070700Y-63690700D01*
X110720700Y-66090700D02*
X110720700Y-61490700D01*
X109670700Y-65340700D02*
X109670700Y-62190700D01*
X112670700Y-66140700D02*
X112670700Y-61490700D01*
X114570700Y-67640700D02*
X114570700Y-63440700D01*
X118720700Y-67890700D02*
X118720700Y-64140700D01*
X112520700Y-66090700D02*
X112520700Y-61540700D01*
X117970700Y-63665700D02*
X115395700Y-63665700D01*
X112070700Y-66090700D02*
X112070700Y-61490700D01*
X109820700Y-65540700D02*
X109820700Y-62040700D01*
X113120700Y-66190700D02*
X113120700Y-61640700D01*
X116720700Y-68290700D02*
X116720700Y-63690700D01*
X114920700Y-68140700D02*
X114920700Y-63590700D01*
X110270700Y-65940700D02*
X110270700Y-61590700D01*
X111620700Y-66090700D02*
X111620700Y-61490700D01*
X111770700Y-66090700D02*
X111770700Y-61490700D01*
X116120700Y-68290700D02*
X116120700Y-63690700D01*
X115970700Y-68290700D02*
X115970700Y-63690700D01*
X118520700Y-68090700D02*
X118520700Y-63890700D01*
X118820700Y-67740700D02*
X118820700Y-64190700D01*
X111470700Y-66090700D02*
X111470700Y-61490700D01*
X114470700Y-67490700D02*
X114470700Y-63340700D01*
X111170700Y-66090700D02*
X111170700Y-61490700D01*
X114770700Y-68040700D02*
X114770700Y-63540700D01*
X117020700Y-68290700D02*
X117020700Y-63690700D01*
X118620700Y-67990700D02*
X118620700Y-64040700D01*
X115220700Y-68290700D02*
X115220700Y-63690700D01*
X113870700Y-66640700D02*
X113870700Y-62240700D01*
X109370700Y-62490700D02*
X109370700Y-65090700D01*
X109970700Y-65690700D02*
X109970700Y-61890700D01*
X118970700Y-64665700D02*
X118970700Y-67315700D01*
X110870700Y-66090700D02*
X110870700Y-61490700D01*
X111320700Y-66090700D02*
X111320700Y-61490700D01*
X116870700Y-68290700D02*
X116870700Y-63690700D01*
X110120700Y-65840700D02*
X110120700Y-61740700D01*
X112820700Y-66140700D02*
X112820700Y-61490700D01*
X115670700Y-68290700D02*
X115670700Y-63690700D01*
X111020700Y-66090700D02*
X111020700Y-61490700D01*
X114020700Y-66790700D02*
X114020700Y-62340700D01*
X112945700Y-61465700D02*
X114220700Y-62490700D01*
X115820700Y-68290700D02*
X115820700Y-63690700D01*
X118370700Y-68190700D02*
X118370700Y-63790700D01*
X116570700Y-68290700D02*
X116570700Y-63690700D01*
X113420700Y-66340700D02*
X113420700Y-61890700D01*
X117970700Y-68315700D02*
X115370700Y-68315700D01*
X111920700Y-66090700D02*
X111920700Y-61490700D01*
X112220700Y-66090700D02*
X112220700Y-61490700D01*
X117170700Y-68290700D02*
X117170700Y-63690700D01*
X117920700Y-68290700D02*
X117920700Y-63690700D01*
X115520700Y-68290700D02*
X115520700Y-63740700D01*
X112370700Y-66090700D02*
X112370700Y-61490700D01*
X112970700Y-66140700D02*
X112970700Y-61540700D01*
X113570700Y-66440700D02*
X113570700Y-61990700D01*
X114270700Y-67140700D02*
X114270700Y-62990700D01*
X110420700Y-66090700D02*
X110420700Y-61490700D01*
X109370700Y-62490700D02*
X110395700Y-61465700D01*
X109520700Y-65240700D02*
X109520700Y-62340700D01*
X116420700Y-68290700D02*
X116420700Y-63690700D01*
X118220700Y-68240700D02*
X118220700Y-63740700D01*
X117320700Y-68290700D02*
X117320700Y-63690700D01*
X115370700Y-68290700D02*
X115370700Y-63690700D01*
X117470700Y-68290700D02*
X117470700Y-63690700D01*
X109370700Y-65090700D02*
X110395700Y-66115700D01*
X114370700Y-67290700D02*
X114370700Y-63140700D01*
X116270700Y-68290700D02*
X116270700Y-63690700D01*
X114170700Y-66940700D02*
X114170700Y-62490700D01*
X112945700Y-61465700D02*
X110395700Y-61465700D01*
X113270700Y-66290700D02*
X113270700Y-61740700D01*
X112370700Y-66115700D02*
X110395700Y-66115700D01*
X118070700Y-68290700D02*
X118070700Y-63740700D01*
X117620700Y-68290700D02*
X117620700Y-63690700D01*
X117770700Y-68290700D02*
X117770700Y-63690700D01*
X114670700Y-67890700D02*
X114670700Y-63490700D01*
X113720700Y-66540700D02*
X113720700Y-62140700D01*
X117970700Y-63665700D02*
G75*
G02*
X118970700Y-64665700I1J-999999D01*
G01*
X118970700Y-67315700D02*
G75*
G02*
X117970700Y-68315700I-999999J-1D01*
G01*
X115395700Y-63665700D02*
G75*
G02*
X114220700Y-62490700I0J1175000D01*
G01*
X115369705Y-68314491D02*
G75*
G02*
X114508497Y-67612605I38795J926891D01*
G01*
X112370700Y-66115700D02*
G75*
G02*
X114508501Y-67612604I0J-2275000D01*
G01*
X135620700Y-69365700D02*
X135620700Y-65415700D01*
X128470700Y-67465700D02*
X128470700Y-62865700D01*
X127270700Y-67315700D02*
X127270700Y-62965700D01*
X128920700Y-67465700D02*
X128920700Y-62865700D01*
X130120700Y-67565700D02*
X130120700Y-63015700D01*
X134320700Y-69665700D02*
X134320700Y-65065700D01*
X135820700Y-69115700D02*
X135820700Y-65565700D01*
X128620700Y-67465700D02*
X128620700Y-62865700D01*
X126820700Y-66915700D02*
X126820700Y-63415700D01*
X129370700Y-67465700D02*
X129370700Y-62865700D01*
X133120700Y-69665700D02*
X133120700Y-65065700D01*
X127570700Y-67465700D02*
X127570700Y-62865700D01*
X131670700Y-69265700D02*
X131670700Y-64865700D01*
X126370700Y-63865700D02*
X126370700Y-66465700D01*
X132070700Y-69615700D02*
X132070700Y-65065700D01*
X126520700Y-66615700D02*
X126520700Y-63715700D01*
X129970700Y-67515700D02*
X129970700Y-62915700D01*
X134470700Y-69665700D02*
X134470700Y-65065700D01*
X129070700Y-67465700D02*
X129070700Y-62865700D01*
X135370700Y-69565700D02*
X135370700Y-65165700D01*
X134920700Y-69665700D02*
X134920700Y-65065700D01*
X134170700Y-69665700D02*
X134170700Y-65065700D01*
X129820700Y-67515700D02*
X129820700Y-62865700D01*
X135720700Y-69265700D02*
X135720700Y-65515700D01*
X132370700Y-69665700D02*
X132370700Y-65065700D01*
X134020700Y-69665700D02*
X134020700Y-65065700D01*
X133420700Y-69665700D02*
X133420700Y-65065700D01*
X126670700Y-66715700D02*
X126670700Y-63565700D01*
X132820700Y-69665700D02*
X132820700Y-65065700D01*
X131370700Y-68665700D02*
X131370700Y-64515700D01*
X126370700Y-63865700D02*
X127395700Y-62840700D01*
X127420700Y-67465700D02*
X127420700Y-62865700D01*
X127870700Y-67465700D02*
X127870700Y-62865700D01*
X131020700Y-68165700D02*
X131020700Y-63715700D01*
X133270700Y-69665700D02*
X133270700Y-65065700D01*
X131770700Y-69415700D02*
X131770700Y-64915700D01*
X135220700Y-69615700D02*
X135220700Y-65115700D01*
X131170700Y-68315700D02*
X131170700Y-63865700D01*
X128770700Y-67465700D02*
X128770700Y-62865700D01*
X128020700Y-67465700D02*
X128020700Y-62865700D01*
X129945700Y-62840700D02*
X127395700Y-62840700D01*
X131570700Y-69015700D02*
X131570700Y-64815700D01*
X132970700Y-69665700D02*
X132970700Y-65065700D01*
X133720700Y-69665700D02*
X133720700Y-65065700D01*
X130870700Y-68015700D02*
X130870700Y-63615700D01*
X129520700Y-67465700D02*
X129520700Y-62915700D01*
X134770700Y-69665700D02*
X134770700Y-65065700D01*
X129370700Y-67490700D02*
X127395700Y-67490700D01*
X127120700Y-67215700D02*
X127120700Y-63115700D01*
X135070700Y-69665700D02*
X135070700Y-65115700D01*
X131920700Y-69515700D02*
X131920700Y-64965700D01*
X130270700Y-67665700D02*
X130270700Y-63115700D01*
X131270700Y-68515700D02*
X131270700Y-64365700D01*
X127720700Y-67465700D02*
X127720700Y-62865700D01*
X129670700Y-67515700D02*
X129670700Y-62865700D01*
X132670700Y-69665700D02*
X132670700Y-65065700D01*
X126370700Y-66465700D02*
X127395700Y-67490700D01*
X135970700Y-66040700D02*
X135970700Y-68690700D01*
X134970700Y-69690700D02*
X132370700Y-69690700D01*
X131470700Y-68865700D02*
X131470700Y-64715700D01*
X130570700Y-67815700D02*
X130570700Y-63365700D01*
X132220700Y-69665700D02*
X132220700Y-65065700D01*
X133570700Y-69665700D02*
X133570700Y-65065700D01*
X129220700Y-67465700D02*
X129220700Y-62865700D01*
X129945700Y-62840700D02*
X131220700Y-63865700D01*
X128320700Y-67465700D02*
X128320700Y-62865700D01*
X134620700Y-69665700D02*
X134620700Y-65065700D01*
X126970700Y-67065700D02*
X126970700Y-63265700D01*
X130420700Y-67715700D02*
X130420700Y-63265700D01*
X133870700Y-69665700D02*
X133870700Y-65065700D01*
X134970700Y-65040700D02*
X132395700Y-65040700D01*
X128170700Y-67465700D02*
X128170700Y-62865700D01*
X132520700Y-69665700D02*
X132520700Y-65115700D01*
X135520700Y-69465700D02*
X135520700Y-65265700D01*
X130720700Y-67915700D02*
X130720700Y-63515700D01*
X135970700Y-68690700D02*
G75*
G02*
X134970700Y-69690700I-999999J-1D01*
G01*
X129370700Y-67490700D02*
G75*
G02*
X131508501Y-68987604I0J-2275000D01*
G01*
X134970700Y-65040700D02*
G75*
G02*
X135970700Y-66040700I1J-999999D01*
G01*
X132369705Y-69689491D02*
G75*
G02*
X131508497Y-68987605I38795J926891D01*
G01*
X132395700Y-65040700D02*
G75*
G02*
X131220700Y-63865700I0J1175000D01*
G01*
X56870700Y-85065700D02*
X52270700Y-85065700D01*
X56870700Y-86115700D02*
X52270700Y-86115700D01*
X56070700Y-87015700D02*
X51920700Y-87015700D01*
X54720700Y-88515700D02*
X50120700Y-88515700D01*
X56870700Y-85515700D02*
X52270700Y-85515700D01*
X56820700Y-86415700D02*
X52270700Y-86415700D01*
X55720700Y-87215700D02*
X51570700Y-87215700D01*
X54870700Y-88215700D02*
X50320700Y-88215700D01*
X54670700Y-90165700D02*
X50070700Y-90165700D01*
X56870700Y-83715700D02*
X52270700Y-83715700D01*
X54670700Y-90765700D02*
X50070700Y-90765700D01*
X56870700Y-85365700D02*
X52270700Y-85365700D01*
X56220700Y-86915700D02*
X52020700Y-86915700D01*
X53920700Y-91815700D02*
X50770700Y-91815700D01*
X56870700Y-84765700D02*
X52270700Y-84765700D01*
X54670700Y-90015700D02*
X50070700Y-90015700D01*
X56895700Y-83515700D02*
X56895700Y-86115700D01*
X54670700Y-88965700D02*
X50120700Y-88965700D01*
X56870700Y-85815700D02*
X52270700Y-85815700D01*
X54270700Y-91515700D02*
X50470700Y-91515700D01*
X56470700Y-82765700D02*
X52720700Y-82765700D01*
X55220700Y-87615700D02*
X50820700Y-87615700D01*
X54695700Y-89115700D02*
X54695700Y-91090700D01*
X55370700Y-87465700D02*
X50920700Y-87465700D01*
X56820700Y-83265700D02*
X52320700Y-83265700D01*
X54670700Y-89115700D02*
X50070700Y-89115700D01*
X56870700Y-84615700D02*
X52270700Y-84615700D01*
X55020700Y-87915700D02*
X50570700Y-87915700D01*
X56870700Y-83565700D02*
X52270700Y-83565700D01*
X56870700Y-84915700D02*
X52270700Y-84915700D01*
X50045700Y-88540700D02*
X51070700Y-87265700D01*
X55120700Y-87765700D02*
X50720700Y-87765700D01*
X56870700Y-83415700D02*
X52320700Y-83415700D01*
X54770700Y-88365700D02*
X50220700Y-88365700D01*
X54670700Y-90915700D02*
X50070700Y-90915700D01*
X54670700Y-89265700D02*
X50070700Y-89265700D01*
X54670700Y-89565700D02*
X50070700Y-89565700D01*
X54670700Y-89415700D02*
X50070700Y-89415700D01*
X56870700Y-84165700D02*
X52270700Y-84165700D01*
X54420700Y-91365700D02*
X50320700Y-91365700D01*
X54520700Y-91215700D02*
X50170700Y-91215700D01*
X54670700Y-89715700D02*
X50070700Y-89715700D01*
X53245700Y-82515700D02*
X55895700Y-82515700D01*
X56770700Y-83115700D02*
X52370700Y-83115700D01*
X56870700Y-85215700D02*
X52270700Y-85215700D01*
X54720700Y-88665700D02*
X50070700Y-88665700D01*
X56870700Y-85665700D02*
X52270700Y-85665700D01*
X56570700Y-82865700D02*
X52620700Y-82865700D01*
X54670700Y-89865700D02*
X50070700Y-89865700D01*
X56720700Y-86565700D02*
X52170700Y-86565700D01*
X55520700Y-87315700D02*
X51070700Y-87315700D01*
X56620700Y-86715700D02*
X52120700Y-86715700D01*
X54920700Y-88065700D02*
X50470700Y-88065700D01*
X50045700Y-88540700D02*
X50045700Y-91090700D01*
X54670700Y-90315700D02*
X50070700Y-90315700D01*
X51070700Y-92115700D02*
X50045700Y-91090700D01*
X56320700Y-82665700D02*
X52770700Y-82665700D01*
X56870700Y-84015700D02*
X52270700Y-84015700D01*
X53670700Y-92115700D02*
X54695700Y-91090700D01*
X54120700Y-91665700D02*
X50620700Y-91665700D01*
X56870700Y-83865700D02*
X52270700Y-83865700D01*
X54670700Y-91065700D02*
X50070700Y-91065700D01*
X51070700Y-92115700D02*
X53670700Y-92115700D01*
X53820700Y-91965700D02*
X50920700Y-91965700D01*
X56870700Y-86265700D02*
X52270700Y-86265700D01*
X55870700Y-87115700D02*
X51720700Y-87115700D01*
X56870700Y-84315700D02*
X52270700Y-84315700D01*
X56870700Y-84465700D02*
X52270700Y-84465700D01*
X52245700Y-83515700D02*
X52245700Y-86090700D01*
X56470700Y-86815700D02*
X52070700Y-86815700D01*
X54670700Y-90465700D02*
X50070700Y-90465700D01*
X56870700Y-85965700D02*
X52320700Y-85965700D01*
X54670700Y-90615700D02*
X50070700Y-90615700D01*
X54720700Y-88815700D02*
X50070700Y-88815700D01*
X56670700Y-82965700D02*
X52470700Y-82965700D01*
X52245700Y-83515700D02*
G75*
G02*
X53245700Y-82515700I999999J1D01*
G01*
X56894491Y-86116695D02*
G75*
G02*
X56192605Y-86977903I-926891J38795D01*
G01*
X54695700Y-89115700D02*
G75*
G02*
X56192604Y-86977899I2275000J0D01*
G01*
X55895700Y-82515700D02*
G75*
G02*
X56895700Y-83515700I1J-999999D01*
G01*
X52245700Y-86090700D02*
G75*
G02*
X51070700Y-87265700I-1175000J0D01*
G01*
X61670700Y-89890700D02*
X61670700Y-85240700D01*
X59870700Y-89840700D02*
X59870700Y-85240700D01*
X61370700Y-89840700D02*
X61370700Y-85240700D01*
X63570700Y-91390700D02*
X63570700Y-87190700D01*
X67220700Y-91990700D02*
X67220700Y-87490700D01*
X67720700Y-91640700D02*
X67720700Y-87890700D01*
X65720700Y-92040700D02*
X65720700Y-87440700D01*
X61945700Y-85215700D02*
X59395700Y-85215700D01*
X64670700Y-92040700D02*
X64670700Y-87440700D01*
X64070700Y-91990700D02*
X64070700Y-87440700D01*
X63370700Y-91040700D02*
X63370700Y-86890700D01*
X65570700Y-92040700D02*
X65570700Y-87440700D01*
X61945700Y-85215700D02*
X63220700Y-86240700D01*
X58970700Y-89440700D02*
X58970700Y-85640700D01*
X63920700Y-91890700D02*
X63920700Y-87340700D01*
X60020700Y-89840700D02*
X60020700Y-85240700D01*
X60920700Y-89840700D02*
X60920700Y-85240700D01*
X66020700Y-92040700D02*
X66020700Y-87440700D01*
X62270700Y-90040700D02*
X62270700Y-85490700D01*
X67970700Y-88415700D02*
X67970700Y-91065700D01*
X58370700Y-86240700D02*
X59395700Y-85215700D01*
X61220700Y-89840700D02*
X61220700Y-85240700D01*
X59720700Y-89840700D02*
X59720700Y-85240700D01*
X58370700Y-88840700D02*
X59395700Y-89865700D01*
X66320700Y-92040700D02*
X66320700Y-87440700D01*
X63670700Y-91640700D02*
X63670700Y-87240700D01*
X58670700Y-89090700D02*
X58670700Y-85940700D01*
X61820700Y-89890700D02*
X61820700Y-85240700D01*
X61520700Y-89840700D02*
X61520700Y-85290700D01*
X64520700Y-92040700D02*
X64520700Y-87490700D01*
X67620700Y-91740700D02*
X67620700Y-87790700D01*
X64970700Y-92040700D02*
X64970700Y-87440700D01*
X63770700Y-91790700D02*
X63770700Y-87290700D01*
X59420700Y-89840700D02*
X59420700Y-85240700D01*
X58820700Y-89290700D02*
X58820700Y-85790700D01*
X66620700Y-92040700D02*
X66620700Y-87440700D01*
X62120700Y-89940700D02*
X62120700Y-85390700D01*
X65270700Y-92040700D02*
X65270700Y-87440700D01*
X61070700Y-89840700D02*
X61070700Y-85240700D01*
X62420700Y-90090700D02*
X62420700Y-85640700D01*
X66920700Y-92040700D02*
X66920700Y-87440700D01*
X62570700Y-90190700D02*
X62570700Y-85740700D01*
X67820700Y-91490700D02*
X67820700Y-87940700D01*
X62870700Y-90390700D02*
X62870700Y-85990700D01*
X64220700Y-92040700D02*
X64220700Y-87440700D01*
X65870700Y-92040700D02*
X65870700Y-87440700D01*
X67520700Y-91840700D02*
X67520700Y-87640700D01*
X60770700Y-89840700D02*
X60770700Y-85240700D01*
X63170700Y-90690700D02*
X63170700Y-86240700D01*
X63470700Y-91240700D02*
X63470700Y-87090700D01*
X66170700Y-92040700D02*
X66170700Y-87440700D01*
X66770700Y-92040700D02*
X66770700Y-87440700D01*
X63020700Y-90540700D02*
X63020700Y-86090700D01*
X64820700Y-92040700D02*
X64820700Y-87440700D01*
X58520700Y-88990700D02*
X58520700Y-86090700D01*
X60320700Y-89840700D02*
X60320700Y-85240700D01*
X59570700Y-89840700D02*
X59570700Y-85240700D01*
X60170700Y-89840700D02*
X60170700Y-85240700D01*
X66470700Y-92040700D02*
X66470700Y-87440700D01*
X64370700Y-92040700D02*
X64370700Y-87440700D01*
X67370700Y-91940700D02*
X67370700Y-87540700D01*
X66970700Y-92065700D02*
X64370700Y-92065700D01*
X61370700Y-89865700D02*
X59395700Y-89865700D01*
X58370700Y-86240700D02*
X58370700Y-88840700D01*
X62720700Y-90290700D02*
X62720700Y-85890700D01*
X65420700Y-92040700D02*
X65420700Y-87440700D01*
X60620700Y-89840700D02*
X60620700Y-85240700D01*
X61970700Y-89890700D02*
X61970700Y-85290700D01*
X63270700Y-90890700D02*
X63270700Y-86740700D01*
X59120700Y-89590700D02*
X59120700Y-85490700D01*
X65120700Y-92040700D02*
X65120700Y-87440700D01*
X59270700Y-89690700D02*
X59270700Y-85340700D01*
X60470700Y-89840700D02*
X60470700Y-85240700D01*
X66970700Y-87415700D02*
X64395700Y-87415700D01*
X67070700Y-92040700D02*
X67070700Y-87490700D01*
X66970700Y-87415700D02*
G75*
G02*
X67970700Y-88415700I1J-999999D01*
G01*
X67970700Y-91065700D02*
G75*
G02*
X66970700Y-92065700I-999999J-1D01*
G01*
X61370700Y-89865700D02*
G75*
G02*
X63508501Y-91362604I0J-2275000D01*
G01*
X64369705Y-92064491D02*
G75*
G02*
X63508497Y-91362605I38795J926891D01*
G01*
X64395700Y-87415700D02*
G75*
G02*
X63220700Y-86240700I0J1175000D01*
G01*
X77320700Y-79090700D02*
X77320700Y-74490700D01*
X78220700Y-79090700D02*
X78220700Y-74490700D01*
X77470700Y-79090700D02*
X77470700Y-74490700D01*
X82870700Y-81290700D02*
X82870700Y-76690700D01*
X77620700Y-79090700D02*
X77620700Y-74490700D01*
X80670700Y-80890700D02*
X80670700Y-76490700D01*
X83320700Y-81290700D02*
X83320700Y-76690700D01*
X76120700Y-78840700D02*
X76120700Y-74740700D01*
X84370700Y-81190700D02*
X84370700Y-76790700D01*
X82270700Y-81290700D02*
X82270700Y-76690700D01*
X83970700Y-81315700D02*
X81370700Y-81315700D01*
X84720700Y-80890700D02*
X84720700Y-77140700D01*
X80470700Y-80490700D02*
X80470700Y-76340700D01*
X84520700Y-81090700D02*
X84520700Y-76890700D01*
X77170700Y-79090700D02*
X77170700Y-74490700D01*
X76270700Y-78940700D02*
X76270700Y-74590700D01*
X75670700Y-78340700D02*
X75670700Y-75190700D01*
X77920700Y-79090700D02*
X77920700Y-74490700D01*
X80370700Y-80290700D02*
X80370700Y-76140700D01*
X79570700Y-79440700D02*
X79570700Y-74990700D01*
X78945700Y-74465700D02*
X80220700Y-75490700D01*
X79870700Y-79640700D02*
X79870700Y-75240700D01*
X82420700Y-81290700D02*
X82420700Y-76690700D01*
X78370700Y-79115700D02*
X76395700Y-79115700D01*
X75970700Y-78690700D02*
X75970700Y-74890700D01*
X81070700Y-81240700D02*
X81070700Y-76690700D01*
X75370700Y-78090700D02*
X76395700Y-79115700D01*
X76870700Y-79090700D02*
X76870700Y-74490700D01*
X83620700Y-81290700D02*
X83620700Y-76690700D01*
X75370700Y-75490700D02*
X75370700Y-78090700D01*
X80170700Y-79940700D02*
X80170700Y-75490700D01*
X75820700Y-78540700D02*
X75820700Y-75040700D01*
X81670700Y-81290700D02*
X81670700Y-76690700D01*
X83970700Y-76665700D02*
X81395700Y-76665700D01*
X79720700Y-79540700D02*
X79720700Y-75140700D01*
X76720700Y-79090700D02*
X76720700Y-74490700D01*
X79420700Y-79340700D02*
X79420700Y-74890700D01*
X84220700Y-81240700D02*
X84220700Y-76740700D01*
X83770700Y-81290700D02*
X83770700Y-76690700D01*
X82720700Y-81290700D02*
X82720700Y-76690700D01*
X80270700Y-80140700D02*
X80270700Y-75990700D01*
X75370700Y-75490700D02*
X76395700Y-74465700D01*
X79120700Y-79190700D02*
X79120700Y-74640700D01*
X77020700Y-79090700D02*
X77020700Y-74490700D01*
X76420700Y-79090700D02*
X76420700Y-74490700D01*
X78370700Y-79090700D02*
X78370700Y-74490700D01*
X78945700Y-74465700D02*
X76395700Y-74465700D01*
X78070700Y-79090700D02*
X78070700Y-74490700D01*
X80770700Y-81040700D02*
X80770700Y-76540700D01*
X78820700Y-79140700D02*
X78820700Y-74490700D01*
X80920700Y-81140700D02*
X80920700Y-76590700D01*
X84070700Y-81290700D02*
X84070700Y-76740700D01*
X81970700Y-81290700D02*
X81970700Y-76690700D01*
X83020700Y-81290700D02*
X83020700Y-76690700D01*
X75520700Y-78240700D02*
X75520700Y-75340700D01*
X78520700Y-79090700D02*
X78520700Y-74540700D01*
X84820700Y-80740700D02*
X84820700Y-77190700D01*
X78670700Y-79140700D02*
X78670700Y-74490700D01*
X81370700Y-81290700D02*
X81370700Y-76690700D01*
X81820700Y-81290700D02*
X81820700Y-76690700D01*
X84970700Y-77665700D02*
X84970700Y-80315700D01*
X79270700Y-79290700D02*
X79270700Y-74740700D01*
X83470700Y-81290700D02*
X83470700Y-76690700D01*
X77770700Y-79090700D02*
X77770700Y-74490700D01*
X80020700Y-79790700D02*
X80020700Y-75340700D01*
X76570700Y-79090700D02*
X76570700Y-74490700D01*
X82120700Y-81290700D02*
X82120700Y-76690700D01*
X78970700Y-79140700D02*
X78970700Y-74540700D01*
X81520700Y-81290700D02*
X81520700Y-76740700D01*
X83170700Y-81290700D02*
X83170700Y-76690700D01*
X84620700Y-80990700D02*
X84620700Y-77040700D01*
X81220700Y-81290700D02*
X81220700Y-76690700D01*
X83920700Y-81290700D02*
X83920700Y-76690700D01*
X80570700Y-80640700D02*
X80570700Y-76440700D01*
X82570700Y-81290700D02*
X82570700Y-76690700D01*
X83970700Y-76665700D02*
G75*
G02*
X84970700Y-77665700I1J-999999D01*
G01*
X84970700Y-80315700D02*
G75*
G02*
X83970700Y-81315700I-999999J-1D01*
G01*
X78370700Y-79115700D02*
G75*
G02*
X80508501Y-80612604I0J-2275000D01*
G01*
X81395700Y-76665700D02*
G75*
G02*
X80220700Y-75490700I0J1175000D01*
G01*
X81369705Y-81314491D02*
G75*
G02*
X80508497Y-80612605I38795J926891D01*
G01*
X95370700Y-75715700D02*
X95370700Y-71115700D01*
X93570700Y-75715700D02*
X93570700Y-71115700D01*
X98070700Y-77865700D02*
X98070700Y-73315700D01*
X94170700Y-75715700D02*
X94170700Y-71115700D01*
X100620700Y-77915700D02*
X100620700Y-73315700D01*
X92370700Y-72115700D02*
X92370700Y-74715700D01*
X98970700Y-77915700D02*
X98970700Y-73315700D01*
X92670700Y-74965700D02*
X92670700Y-71815700D01*
X100170700Y-77915700D02*
X100170700Y-73315700D01*
X93720700Y-75715700D02*
X93720700Y-71115700D01*
X99720700Y-77915700D02*
X99720700Y-73315700D01*
X101970700Y-74290700D02*
X101970700Y-76940700D01*
X96870700Y-76265700D02*
X96870700Y-71865700D01*
X101370700Y-77815700D02*
X101370700Y-73415700D01*
X97270700Y-76765700D02*
X97270700Y-72615700D01*
X100970700Y-77940700D02*
X98370700Y-77940700D01*
X99870700Y-77915700D02*
X99870700Y-73315700D01*
X93870700Y-75715700D02*
X93870700Y-71115700D01*
X100970700Y-73290700D02*
X98395700Y-73290700D01*
X97770700Y-77665700D02*
X97770700Y-73165700D01*
X98670700Y-77915700D02*
X98670700Y-73315700D01*
X98220700Y-77915700D02*
X98220700Y-73315700D01*
X94320700Y-75715700D02*
X94320700Y-71115700D01*
X100920700Y-77915700D02*
X100920700Y-73315700D01*
X101820700Y-77365700D02*
X101820700Y-73815700D01*
X97020700Y-76415700D02*
X97020700Y-71965700D01*
X95370700Y-75740700D02*
X93395700Y-75740700D01*
X94770700Y-75715700D02*
X94770700Y-71115700D01*
X97570700Y-77265700D02*
X97570700Y-73065700D01*
X92970700Y-75315700D02*
X92970700Y-71515700D01*
X92370700Y-74715700D02*
X93395700Y-75740700D01*
X99420700Y-77915700D02*
X99420700Y-73315700D01*
X95945700Y-71090700D02*
X97220700Y-72115700D01*
X98520700Y-77915700D02*
X98520700Y-73365700D01*
X101620700Y-77615700D02*
X101620700Y-73665700D01*
X101520700Y-77715700D02*
X101520700Y-73515700D01*
X92820700Y-75165700D02*
X92820700Y-71665700D01*
X94020700Y-75715700D02*
X94020700Y-71115700D01*
X99120700Y-77915700D02*
X99120700Y-73315700D01*
X96570700Y-76065700D02*
X96570700Y-71615700D01*
X101220700Y-77865700D02*
X101220700Y-73365700D01*
X97370700Y-76915700D02*
X97370700Y-72765700D01*
X93120700Y-75465700D02*
X93120700Y-71365700D01*
X100320700Y-77915700D02*
X100320700Y-73315700D01*
X97470700Y-77115700D02*
X97470700Y-72965700D01*
X92520700Y-74865700D02*
X92520700Y-71965700D01*
X95520700Y-75715700D02*
X95520700Y-71165700D01*
X100770700Y-77915700D02*
X100770700Y-73315700D01*
X98370700Y-77915700D02*
X98370700Y-73315700D01*
X94920700Y-75715700D02*
X94920700Y-71115700D01*
X96720700Y-76165700D02*
X96720700Y-71765700D01*
X97170700Y-76565700D02*
X97170700Y-72115700D01*
X99570700Y-77915700D02*
X99570700Y-73315700D01*
X101070700Y-77915700D02*
X101070700Y-73365700D01*
X95670700Y-75765700D02*
X95670700Y-71115700D01*
X94620700Y-75715700D02*
X94620700Y-71115700D01*
X93420700Y-75715700D02*
X93420700Y-71115700D01*
X97670700Y-77515700D02*
X97670700Y-73115700D01*
X100470700Y-77915700D02*
X100470700Y-73315700D01*
X96120700Y-75815700D02*
X96120700Y-71265700D01*
X97920700Y-77765700D02*
X97920700Y-73215700D01*
X94470700Y-75715700D02*
X94470700Y-71115700D01*
X98820700Y-77915700D02*
X98820700Y-73315700D01*
X93270700Y-75565700D02*
X93270700Y-71215700D01*
X92370700Y-72115700D02*
X93395700Y-71090700D01*
X96270700Y-75915700D02*
X96270700Y-71365700D01*
X99270700Y-77915700D02*
X99270700Y-73315700D01*
X100020700Y-77915700D02*
X100020700Y-73315700D01*
X95820700Y-75765700D02*
X95820700Y-71115700D01*
X95970700Y-75765700D02*
X95970700Y-71165700D01*
X95945700Y-71090700D02*
X93395700Y-71090700D01*
X96420700Y-75965700D02*
X96420700Y-71515700D01*
X101720700Y-77515700D02*
X101720700Y-73765700D01*
X95220700Y-75715700D02*
X95220700Y-71115700D01*
X95070700Y-75715700D02*
X95070700Y-71115700D01*
X95370700Y-75740700D02*
G75*
G02*
X97508501Y-77237604I0J-2275000D01*
G01*
X98395700Y-73290700D02*
G75*
G02*
X97220700Y-72115700I0J1175000D01*
G01*
X100970700Y-73290700D02*
G75*
G02*
X101970700Y-74290700I1J-999999D01*
G01*
X101970700Y-76940700D02*
G75*
G02*
X100970700Y-77940700I-999999J-1D01*
G01*
X98369705Y-77939491D02*
G75*
G02*
X97508497Y-77237605I38795J926891D01*
G01*
X117770700Y-85290700D02*
X117770700Y-80690700D01*
X114920700Y-85140700D02*
X114920700Y-80590700D01*
X117970700Y-80665700D02*
X115395700Y-80665700D01*
X118820700Y-84740700D02*
X118820700Y-81190700D01*
X111020700Y-83090700D02*
X111020700Y-78490700D01*
X110870700Y-83090700D02*
X110870700Y-78490700D01*
X112945700Y-78465700D02*
X114220700Y-79490700D01*
X117020700Y-85290700D02*
X117020700Y-80690700D01*
X118970700Y-81665700D02*
X118970700Y-84315700D01*
X109670700Y-82340700D02*
X109670700Y-79190700D01*
X112220700Y-83090700D02*
X112220700Y-78490700D01*
X112970700Y-83140700D02*
X112970700Y-78540700D01*
X115520700Y-85290700D02*
X115520700Y-80740700D01*
X113270700Y-83290700D02*
X113270700Y-78740700D01*
X116270700Y-85290700D02*
X116270700Y-80690700D01*
X116720700Y-85290700D02*
X116720700Y-80690700D01*
X109970700Y-82690700D02*
X109970700Y-78890700D01*
X115220700Y-85290700D02*
X115220700Y-80690700D01*
X114770700Y-85040700D02*
X114770700Y-80540700D01*
X113420700Y-83340700D02*
X113420700Y-78890700D01*
X113720700Y-83540700D02*
X113720700Y-79140700D01*
X109370700Y-82090700D02*
X110395700Y-83115700D01*
X117620700Y-85290700D02*
X117620700Y-80690700D01*
X115070700Y-85240700D02*
X115070700Y-80690700D01*
X109820700Y-82540700D02*
X109820700Y-79040700D01*
X111620700Y-83090700D02*
X111620700Y-78490700D01*
X110570700Y-83090700D02*
X110570700Y-78490700D01*
X112520700Y-83090700D02*
X112520700Y-78540700D01*
X118720700Y-84890700D02*
X118720700Y-81140700D01*
X115670700Y-85290700D02*
X115670700Y-80690700D01*
X110270700Y-82940700D02*
X110270700Y-78590700D01*
X111470700Y-83090700D02*
X111470700Y-78490700D01*
X109370700Y-79490700D02*
X110395700Y-78465700D01*
X112820700Y-83140700D02*
X112820700Y-78490700D01*
X118370700Y-85190700D02*
X118370700Y-80790700D01*
X116870700Y-85290700D02*
X116870700Y-80690700D01*
X110720700Y-83090700D02*
X110720700Y-78490700D01*
X114020700Y-83790700D02*
X114020700Y-79340700D01*
X113120700Y-83190700D02*
X113120700Y-78640700D01*
X112945700Y-78465700D02*
X110395700Y-78465700D01*
X114670700Y-84890700D02*
X114670700Y-80490700D01*
X112370700Y-83115700D02*
X110395700Y-83115700D01*
X110120700Y-82840700D02*
X110120700Y-78740700D01*
X114570700Y-84640700D02*
X114570700Y-80440700D01*
X112370700Y-83090700D02*
X112370700Y-78490700D01*
X111170700Y-83090700D02*
X111170700Y-78490700D01*
X111320700Y-83090700D02*
X111320700Y-78490700D01*
X110420700Y-83090700D02*
X110420700Y-78490700D01*
X114270700Y-84140700D02*
X114270700Y-79990700D01*
X109520700Y-82240700D02*
X109520700Y-79340700D01*
X113570700Y-83440700D02*
X113570700Y-78990700D01*
X115370700Y-85290700D02*
X115370700Y-80690700D01*
X117320700Y-85290700D02*
X117320700Y-80690700D01*
X111770700Y-83090700D02*
X111770700Y-78490700D01*
X118620700Y-84990700D02*
X118620700Y-81040700D01*
X115820700Y-85290700D02*
X115820700Y-80690700D01*
X113870700Y-83640700D02*
X113870700Y-79240700D01*
X116120700Y-85290700D02*
X116120700Y-80690700D01*
X115970700Y-85290700D02*
X115970700Y-80690700D01*
X117920700Y-85290700D02*
X117920700Y-80690700D01*
X114170700Y-83940700D02*
X114170700Y-79490700D01*
X118070700Y-85290700D02*
X118070700Y-80740700D01*
X118520700Y-85090700D02*
X118520700Y-80890700D01*
X116570700Y-85290700D02*
X116570700Y-80690700D01*
X109370700Y-79490700D02*
X109370700Y-82090700D01*
X114470700Y-84490700D02*
X114470700Y-80340700D01*
X112670700Y-83140700D02*
X112670700Y-78490700D01*
X117470700Y-85290700D02*
X117470700Y-80690700D01*
X114370700Y-84290700D02*
X114370700Y-80140700D01*
X111920700Y-83090700D02*
X111920700Y-78490700D01*
X118220700Y-85240700D02*
X118220700Y-80740700D01*
X112070700Y-83090700D02*
X112070700Y-78490700D01*
X117170700Y-85290700D02*
X117170700Y-80690700D01*
X117970700Y-85315700D02*
X115370700Y-85315700D01*
X116420700Y-85290700D02*
X116420700Y-80690700D01*
X117970700Y-80665700D02*
G75*
G02*
X118970700Y-81665700I1J-999999D01*
G01*
X115395700Y-80665700D02*
G75*
G02*
X114220700Y-79490700I0J1175000D01*
G01*
X112370700Y-83115700D02*
G75*
G02*
X114508501Y-84612604I0J-2275000D01*
G01*
X118970700Y-84315700D02*
G75*
G02*
X117970700Y-85315700I-999999J-1D01*
G01*
X115369705Y-85314491D02*
G75*
G02*
X114508497Y-84612605I38795J926891D01*
G01*
X131370700Y-85665700D02*
X131370700Y-81515700D01*
X133420700Y-86665700D02*
X133420700Y-82065700D01*
X133720700Y-86665700D02*
X133720700Y-82065700D01*
X130720700Y-84915700D02*
X130720700Y-80515700D01*
X126520700Y-83615700D02*
X126520700Y-80715700D01*
X131570700Y-86015700D02*
X131570700Y-81815700D01*
X135720700Y-86265700D02*
X135720700Y-82515700D01*
X126370700Y-83465700D02*
X127395700Y-84490700D01*
X129370700Y-84465700D02*
X129370700Y-79865700D01*
X127120700Y-84215700D02*
X127120700Y-80115700D01*
X131170700Y-85315700D02*
X131170700Y-80865700D01*
X129945700Y-79840700D02*
X131220700Y-80865700D01*
X131670700Y-86265700D02*
X131670700Y-81865700D01*
X130570700Y-84815700D02*
X130570700Y-80365700D01*
X129370700Y-84490700D02*
X127395700Y-84490700D01*
X128320700Y-84465700D02*
X128320700Y-79865700D01*
X134020700Y-86665700D02*
X134020700Y-82065700D01*
X128470700Y-84465700D02*
X128470700Y-79865700D01*
X127720700Y-84465700D02*
X127720700Y-79865700D01*
X134620700Y-86665700D02*
X134620700Y-82065700D01*
X135970700Y-83040700D02*
X135970700Y-85690700D01*
X126370700Y-80865700D02*
X126370700Y-83465700D01*
X129945700Y-79840700D02*
X127395700Y-79840700D01*
X129970700Y-84515700D02*
X129970700Y-79915700D01*
X134470700Y-86665700D02*
X134470700Y-82065700D01*
X134970700Y-86690700D02*
X132370700Y-86690700D01*
X130420700Y-84715700D02*
X130420700Y-80265700D01*
X128170700Y-84465700D02*
X128170700Y-79865700D01*
X127870700Y-84465700D02*
X127870700Y-79865700D01*
X135520700Y-86465700D02*
X135520700Y-82265700D01*
X134170700Y-86665700D02*
X134170700Y-82065700D01*
X129070700Y-84465700D02*
X129070700Y-79865700D01*
X132670700Y-86665700D02*
X132670700Y-82065700D01*
X135070700Y-86665700D02*
X135070700Y-82115700D01*
X133870700Y-86665700D02*
X133870700Y-82065700D01*
X129670700Y-84515700D02*
X129670700Y-79865700D01*
X131020700Y-85165700D02*
X131020700Y-80715700D01*
X134320700Y-86665700D02*
X134320700Y-82065700D01*
X126370700Y-80865700D02*
X127395700Y-79840700D01*
X127270700Y-84315700D02*
X127270700Y-79965700D01*
X132220700Y-86665700D02*
X132220700Y-82065700D01*
X127420700Y-84465700D02*
X127420700Y-79865700D01*
X134920700Y-86665700D02*
X134920700Y-82065700D01*
X134770700Y-86665700D02*
X134770700Y-82065700D01*
X130270700Y-84665700D02*
X130270700Y-80115700D01*
X129820700Y-84515700D02*
X129820700Y-79865700D01*
X133570700Y-86665700D02*
X133570700Y-82065700D01*
X131920700Y-86515700D02*
X131920700Y-81965700D01*
X132820700Y-86665700D02*
X132820700Y-82065700D01*
X133270700Y-86665700D02*
X133270700Y-82065700D01*
X129520700Y-84465700D02*
X129520700Y-79915700D01*
X130120700Y-84565700D02*
X130120700Y-80015700D01*
X135370700Y-86565700D02*
X135370700Y-82165700D01*
X128920700Y-84465700D02*
X128920700Y-79865700D01*
X130870700Y-85015700D02*
X130870700Y-80615700D01*
X135820700Y-86115700D02*
X135820700Y-82565700D01*
X128620700Y-84465700D02*
X128620700Y-79865700D01*
X127570700Y-84465700D02*
X127570700Y-79865700D01*
X133120700Y-86665700D02*
X133120700Y-82065700D01*
X135220700Y-86615700D02*
X135220700Y-82115700D01*
X128770700Y-84465700D02*
X128770700Y-79865700D01*
X132970700Y-86665700D02*
X132970700Y-82065700D01*
X135620700Y-86365700D02*
X135620700Y-82415700D01*
X126670700Y-83715700D02*
X126670700Y-80565700D01*
X126970700Y-84065700D02*
X126970700Y-80265700D01*
X134970700Y-82040700D02*
X132395700Y-82040700D01*
X132370700Y-86665700D02*
X132370700Y-82065700D01*
X131270700Y-85515700D02*
X131270700Y-81365700D01*
X128020700Y-84465700D02*
X128020700Y-79865700D01*
X131470700Y-85865700D02*
X131470700Y-81715700D01*
X132520700Y-86665700D02*
X132520700Y-82115700D01*
X129220700Y-84465700D02*
X129220700Y-79865700D01*
X131770700Y-86415700D02*
X131770700Y-81915700D01*
X126820700Y-83915700D02*
X126820700Y-80415700D01*
X132070700Y-86615700D02*
X132070700Y-82065700D01*
X129370700Y-84490700D02*
G75*
G02*
X131508501Y-85987604I0J-2275000D01*
G01*
X132369705Y-86689491D02*
G75*
G02*
X131508497Y-85987605I38795J926891D01*
G01*
X134970700Y-82040700D02*
G75*
G02*
X135970700Y-83040700I1J-999999D01*
G01*
X132395700Y-82040700D02*
G75*
G02*
X131220700Y-80865700I0J1175000D01*
G01*
X135970700Y-85690700D02*
G75*
G02*
X134970700Y-86690700I-999999J-1D01*
G01*
X63020700Y-107540700D02*
X63020700Y-103090700D01*
X61520700Y-106840700D02*
X61520700Y-102290700D01*
X61970700Y-106890700D02*
X61970700Y-102290700D01*
X67370700Y-108940700D02*
X67370700Y-104540700D01*
X66970700Y-109065700D02*
X64370700Y-109065700D01*
X66620700Y-109040700D02*
X66620700Y-104440700D01*
X60770700Y-106840700D02*
X60770700Y-102240700D01*
X66020700Y-109040700D02*
X66020700Y-104440700D01*
X61370700Y-106840700D02*
X61370700Y-102240700D01*
X67070700Y-109040700D02*
X67070700Y-104490700D01*
X60170700Y-106840700D02*
X60170700Y-102240700D01*
X66770700Y-109040700D02*
X66770700Y-104440700D01*
X61820700Y-106890700D02*
X61820700Y-102240700D01*
X67220700Y-108990700D02*
X67220700Y-104490700D01*
X64220700Y-109040700D02*
X64220700Y-104440700D01*
X67620700Y-108740700D02*
X67620700Y-104790700D01*
X62420700Y-107090700D02*
X62420700Y-102640700D01*
X63570700Y-108390700D02*
X63570700Y-104190700D01*
X62120700Y-106940700D02*
X62120700Y-102390700D01*
X64670700Y-109040700D02*
X64670700Y-104440700D01*
X58970700Y-106440700D02*
X58970700Y-102640700D01*
X59420700Y-106840700D02*
X59420700Y-102240700D01*
X67970700Y-105415700D02*
X67970700Y-108065700D01*
X64070700Y-108990700D02*
X64070700Y-104440700D01*
X60470700Y-106840700D02*
X60470700Y-102240700D01*
X58370700Y-103240700D02*
X58370700Y-105840700D01*
X60620700Y-106840700D02*
X60620700Y-102240700D01*
X65120700Y-109040700D02*
X65120700Y-104440700D01*
X59570700Y-106840700D02*
X59570700Y-102240700D01*
X64370700Y-109040700D02*
X64370700Y-104440700D01*
X62870700Y-107390700D02*
X62870700Y-102990700D01*
X67520700Y-108840700D02*
X67520700Y-104640700D01*
X66920700Y-109040700D02*
X66920700Y-104440700D01*
X59870700Y-106840700D02*
X59870700Y-102240700D01*
X63370700Y-108040700D02*
X63370700Y-103890700D01*
X66470700Y-109040700D02*
X66470700Y-104440700D01*
X65720700Y-109040700D02*
X65720700Y-104440700D01*
X63170700Y-107690700D02*
X63170700Y-103240700D01*
X58820700Y-106290700D02*
X58820700Y-102790700D01*
X59720700Y-106840700D02*
X59720700Y-102240700D01*
X59270700Y-106690700D02*
X59270700Y-102340700D01*
X65570700Y-109040700D02*
X65570700Y-104440700D01*
X64970700Y-109040700D02*
X64970700Y-104440700D01*
X64520700Y-109040700D02*
X64520700Y-104490700D01*
X58520700Y-105990700D02*
X58520700Y-103090700D01*
X63770700Y-108790700D02*
X63770700Y-104290700D01*
X63470700Y-108240700D02*
X63470700Y-104090700D01*
X58370700Y-103240700D02*
X59395700Y-102215700D01*
X58670700Y-106090700D02*
X58670700Y-102940700D01*
X61670700Y-106890700D02*
X61670700Y-102240700D01*
X63270700Y-107890700D02*
X63270700Y-103740700D01*
X60020700Y-106840700D02*
X60020700Y-102240700D01*
X61070700Y-106840700D02*
X61070700Y-102240700D01*
X67820700Y-108490700D02*
X67820700Y-104940700D01*
X65420700Y-109040700D02*
X65420700Y-104440700D01*
X64820700Y-109040700D02*
X64820700Y-104440700D01*
X63920700Y-108890700D02*
X63920700Y-104340700D01*
X66970700Y-104415700D02*
X64395700Y-104415700D01*
X67720700Y-108640700D02*
X67720700Y-104890700D01*
X61370700Y-106865700D02*
X59395700Y-106865700D01*
X66320700Y-109040700D02*
X66320700Y-104440700D01*
X59120700Y-106590700D02*
X59120700Y-102490700D01*
X61220700Y-106840700D02*
X61220700Y-102240700D01*
X61945700Y-102215700D02*
X59395700Y-102215700D01*
X65270700Y-109040700D02*
X65270700Y-104440700D01*
X62720700Y-107290700D02*
X62720700Y-102890700D01*
X62570700Y-107190700D02*
X62570700Y-102740700D01*
X62270700Y-107040700D02*
X62270700Y-102490700D01*
X66170700Y-109040700D02*
X66170700Y-104440700D01*
X60920700Y-106840700D02*
X60920700Y-102240700D01*
X61945700Y-102215700D02*
X63220700Y-103240700D01*
X58370700Y-105840700D02*
X59395700Y-106865700D01*
X65870700Y-109040700D02*
X65870700Y-104440700D01*
X60320700Y-106840700D02*
X60320700Y-102240700D01*
X63670700Y-108640700D02*
X63670700Y-104240700D01*
X67970700Y-108065700D02*
G75*
G02*
X66970700Y-109065700I-999999J-1D01*
G01*
X66970700Y-104415700D02*
G75*
G02*
X67970700Y-105415700I1J-999999D01*
G01*
X64395700Y-104415700D02*
G75*
G02*
X63220700Y-103240700I0J1175000D01*
G01*
X61370700Y-106865700D02*
G75*
G02*
X63508501Y-108362604I0J-2275000D01*
G01*
X64369705Y-109064491D02*
G75*
G02*
X63508497Y-108362605I38795J926891D01*
G01*
X82270700Y-98290700D02*
X82270700Y-93690700D01*
X84720700Y-97890700D02*
X84720700Y-94140700D01*
X84620700Y-97990700D02*
X84620700Y-94040700D01*
X84370700Y-98190700D02*
X84370700Y-93790700D01*
X83020700Y-98290700D02*
X83020700Y-93690700D01*
X83320700Y-98290700D02*
X83320700Y-93690700D01*
X78945700Y-91465700D02*
X76395700Y-91465700D01*
X80570700Y-97640700D02*
X80570700Y-93440700D01*
X78070700Y-96090700D02*
X78070700Y-91490700D01*
X75370700Y-92490700D02*
X75370700Y-95090700D01*
X77620700Y-96090700D02*
X77620700Y-91490700D01*
X82420700Y-98290700D02*
X82420700Y-93690700D01*
X76870700Y-96090700D02*
X76870700Y-91490700D01*
X83970700Y-98315700D02*
X81370700Y-98315700D01*
X75520700Y-95240700D02*
X75520700Y-92340700D01*
X81970700Y-98290700D02*
X81970700Y-93690700D01*
X84070700Y-98290700D02*
X84070700Y-93740700D01*
X84820700Y-97740700D02*
X84820700Y-94190700D01*
X80670700Y-97890700D02*
X80670700Y-93490700D01*
X79570700Y-96440700D02*
X79570700Y-91990700D01*
X79270700Y-96290700D02*
X79270700Y-91740700D01*
X80920700Y-98140700D02*
X80920700Y-93590700D01*
X79120700Y-96190700D02*
X79120700Y-91640700D01*
X80470700Y-97490700D02*
X80470700Y-93340700D01*
X81520700Y-98290700D02*
X81520700Y-93740700D01*
X84970700Y-94665700D02*
X84970700Y-97315700D01*
X80370700Y-97290700D02*
X80370700Y-93140700D01*
X79870700Y-96640700D02*
X79870700Y-92240700D01*
X81220700Y-98290700D02*
X81220700Y-93690700D01*
X75820700Y-95540700D02*
X75820700Y-92040700D01*
X83470700Y-98290700D02*
X83470700Y-93690700D01*
X80270700Y-97140700D02*
X80270700Y-92990700D01*
X76120700Y-95840700D02*
X76120700Y-91740700D01*
X83170700Y-98290700D02*
X83170700Y-93690700D01*
X75370700Y-95090700D02*
X76395700Y-96115700D01*
X81670700Y-98290700D02*
X81670700Y-93690700D01*
X75970700Y-95690700D02*
X75970700Y-91890700D01*
X78970700Y-96140700D02*
X78970700Y-91540700D01*
X82570700Y-98290700D02*
X82570700Y-93690700D01*
X79420700Y-96340700D02*
X79420700Y-91890700D01*
X82120700Y-98290700D02*
X82120700Y-93690700D01*
X75670700Y-95340700D02*
X75670700Y-92190700D01*
X80770700Y-98040700D02*
X80770700Y-93540700D01*
X78370700Y-96115700D02*
X76395700Y-96115700D01*
X82870700Y-98290700D02*
X82870700Y-93690700D01*
X77770700Y-96090700D02*
X77770700Y-91490700D01*
X83620700Y-98290700D02*
X83620700Y-93690700D01*
X82720700Y-98290700D02*
X82720700Y-93690700D01*
X78370700Y-96090700D02*
X78370700Y-91490700D01*
X77020700Y-96090700D02*
X77020700Y-91490700D01*
X78820700Y-96140700D02*
X78820700Y-91490700D01*
X84520700Y-98090700D02*
X84520700Y-93890700D01*
X75370700Y-92490700D02*
X76395700Y-91465700D01*
X83770700Y-98290700D02*
X83770700Y-93690700D01*
X80020700Y-96790700D02*
X80020700Y-92340700D01*
X81070700Y-98240700D02*
X81070700Y-93690700D01*
X77470700Y-96090700D02*
X77470700Y-91490700D01*
X76570700Y-96090700D02*
X76570700Y-91490700D01*
X76270700Y-95940700D02*
X76270700Y-91590700D01*
X76720700Y-96090700D02*
X76720700Y-91490700D01*
X78220700Y-96090700D02*
X78220700Y-91490700D01*
X78520700Y-96090700D02*
X78520700Y-91540700D01*
X84220700Y-98240700D02*
X84220700Y-93740700D01*
X77920700Y-96090700D02*
X77920700Y-91490700D01*
X81370700Y-98290700D02*
X81370700Y-93690700D01*
X77170700Y-96090700D02*
X77170700Y-91490700D01*
X78945700Y-91465700D02*
X80220700Y-92490700D01*
X83920700Y-98290700D02*
X83920700Y-93690700D01*
X83970700Y-93665700D02*
X81395700Y-93665700D01*
X76420700Y-96090700D02*
X76420700Y-91490700D01*
X80170700Y-96940700D02*
X80170700Y-92490700D01*
X77320700Y-96090700D02*
X77320700Y-91490700D01*
X81820700Y-98290700D02*
X81820700Y-93690700D01*
X78670700Y-96140700D02*
X78670700Y-91490700D01*
X79720700Y-96540700D02*
X79720700Y-92140700D01*
X84970700Y-97315700D02*
G75*
G02*
X83970700Y-98315700I-999999J-1D01*
G01*
X83970700Y-93665700D02*
G75*
G02*
X84970700Y-94665700I1J-999999D01*
G01*
X81395700Y-93665700D02*
G75*
G02*
X80220700Y-92490700I0J1175000D01*
G01*
X81369705Y-98314491D02*
G75*
G02*
X80508497Y-97612605I38795J926891D01*
G01*
X78370700Y-96115700D02*
G75*
G02*
X80508501Y-97612604I0J-2275000D01*
G01*
X97770700Y-94665700D02*
X97770700Y-90165700D01*
X92670700Y-91965700D02*
X92670700Y-88815700D01*
X92370700Y-91715700D02*
X93395700Y-92740700D01*
X95820700Y-92765700D02*
X95820700Y-88115700D01*
X100470700Y-94915700D02*
X100470700Y-90315700D01*
X100620700Y-94915700D02*
X100620700Y-90315700D01*
X95370700Y-92740700D02*
X93395700Y-92740700D01*
X101720700Y-94515700D02*
X101720700Y-90765700D01*
X94170700Y-92715700D02*
X94170700Y-88115700D01*
X100320700Y-94915700D02*
X100320700Y-90315700D01*
X97920700Y-94765700D02*
X97920700Y-90215700D01*
X95220700Y-92715700D02*
X95220700Y-88115700D01*
X100770700Y-94915700D02*
X100770700Y-90315700D01*
X101220700Y-94865700D02*
X101220700Y-90365700D01*
X92970700Y-92315700D02*
X92970700Y-88515700D01*
X94320700Y-92715700D02*
X94320700Y-88115700D01*
X95370700Y-92715700D02*
X95370700Y-88115700D01*
X97370700Y-93915700D02*
X97370700Y-89765700D01*
X92370700Y-89115700D02*
X93395700Y-88090700D01*
X93570700Y-92715700D02*
X93570700Y-88115700D01*
X96120700Y-92815700D02*
X96120700Y-88265700D01*
X99120700Y-94915700D02*
X99120700Y-90315700D01*
X95070700Y-92715700D02*
X95070700Y-88115700D01*
X93870700Y-92715700D02*
X93870700Y-88115700D01*
X97270700Y-93765700D02*
X97270700Y-89615700D01*
X97670700Y-94515700D02*
X97670700Y-90115700D01*
X101820700Y-94365700D02*
X101820700Y-90815700D01*
X97020700Y-93415700D02*
X97020700Y-88965700D01*
X99570700Y-94915700D02*
X99570700Y-90315700D01*
X94920700Y-92715700D02*
X94920700Y-88115700D01*
X98970700Y-94915700D02*
X98970700Y-90315700D01*
X96870700Y-93265700D02*
X96870700Y-88865700D01*
X100020700Y-94915700D02*
X100020700Y-90315700D01*
X97470700Y-94115700D02*
X97470700Y-89965700D01*
X94620700Y-92715700D02*
X94620700Y-88115700D01*
X101520700Y-94715700D02*
X101520700Y-90515700D01*
X95970700Y-92765700D02*
X95970700Y-88165700D01*
X98370700Y-94915700D02*
X98370700Y-90315700D01*
X99720700Y-94915700D02*
X99720700Y-90315700D01*
X92820700Y-92165700D02*
X92820700Y-88665700D01*
X95520700Y-92715700D02*
X95520700Y-88165700D01*
X93270700Y-92565700D02*
X93270700Y-88215700D01*
X101620700Y-94615700D02*
X101620700Y-90665700D01*
X94020700Y-92715700D02*
X94020700Y-88115700D01*
X96420700Y-92965700D02*
X96420700Y-88515700D01*
X100920700Y-94915700D02*
X100920700Y-90315700D01*
X101970700Y-91290700D02*
X101970700Y-93940700D01*
X95945700Y-88090700D02*
X93395700Y-88090700D01*
X96270700Y-92915700D02*
X96270700Y-88365700D01*
X92370700Y-89115700D02*
X92370700Y-91715700D01*
X93420700Y-92715700D02*
X93420700Y-88115700D01*
X97570700Y-94265700D02*
X97570700Y-90065700D01*
X100170700Y-94915700D02*
X100170700Y-90315700D01*
X101370700Y-94815700D02*
X101370700Y-90415700D01*
X98070700Y-94865700D02*
X98070700Y-90315700D01*
X94770700Y-92715700D02*
X94770700Y-88115700D01*
X99870700Y-94915700D02*
X99870700Y-90315700D01*
X100970700Y-94940700D02*
X98370700Y-94940700D01*
X96570700Y-93065700D02*
X96570700Y-88615700D01*
X94470700Y-92715700D02*
X94470700Y-88115700D01*
X98820700Y-94915700D02*
X98820700Y-90315700D01*
X98520700Y-94915700D02*
X98520700Y-90365700D01*
X99420700Y-94915700D02*
X99420700Y-90315700D01*
X92520700Y-91865700D02*
X92520700Y-88965700D01*
X98220700Y-94915700D02*
X98220700Y-90315700D01*
X97170700Y-93565700D02*
X97170700Y-89115700D01*
X95670700Y-92765700D02*
X95670700Y-88115700D01*
X96720700Y-93165700D02*
X96720700Y-88765700D01*
X100970700Y-90290700D02*
X98395700Y-90290700D01*
X95945700Y-88090700D02*
X97220700Y-89115700D01*
X93720700Y-92715700D02*
X93720700Y-88115700D01*
X98670700Y-94915700D02*
X98670700Y-90315700D01*
X93120700Y-92465700D02*
X93120700Y-88365700D01*
X101070700Y-94915700D02*
X101070700Y-90365700D01*
X99270700Y-94915700D02*
X99270700Y-90315700D01*
X100970700Y-90290700D02*
G75*
G02*
X101970700Y-91290700I1J-999999D01*
G01*
X98395700Y-90290700D02*
G75*
G02*
X97220700Y-89115700I0J1175000D01*
G01*
X101970700Y-93940700D02*
G75*
G02*
X100970700Y-94940700I-999999J-1D01*
G01*
X95370700Y-92740700D02*
G75*
G02*
X97508501Y-94237604I0J-2275000D01*
G01*
X98369705Y-94939491D02*
G75*
G02*
X97508497Y-94237605I38795J926891D01*
G01*
X115820700Y-102290700D02*
X115820700Y-97690700D01*
X113270700Y-100290700D02*
X113270700Y-95740700D01*
X110720700Y-100090700D02*
X110720700Y-95490700D01*
X113570700Y-100440700D02*
X113570700Y-95990700D01*
X109520700Y-99240700D02*
X109520700Y-96340700D01*
X111170700Y-100090700D02*
X111170700Y-95490700D01*
X114670700Y-101890700D02*
X114670700Y-97490700D01*
X113720700Y-100540700D02*
X113720700Y-96140700D01*
X109670700Y-99340700D02*
X109670700Y-96190700D01*
X109820700Y-99540700D02*
X109820700Y-96040700D01*
X114170700Y-100940700D02*
X114170700Y-96490700D01*
X117620700Y-102290700D02*
X117620700Y-97690700D01*
X112945700Y-95465700D02*
X114220700Y-96490700D01*
X116570700Y-102290700D02*
X116570700Y-97690700D01*
X109970700Y-99690700D02*
X109970700Y-95890700D01*
X111770700Y-100090700D02*
X111770700Y-95490700D01*
X118370700Y-102190700D02*
X118370700Y-97790700D01*
X112070700Y-100090700D02*
X112070700Y-95490700D01*
X118070700Y-102290700D02*
X118070700Y-97740700D01*
X115520700Y-102290700D02*
X115520700Y-97740700D01*
X116420700Y-102290700D02*
X116420700Y-97690700D01*
X117170700Y-102290700D02*
X117170700Y-97690700D01*
X110120700Y-99840700D02*
X110120700Y-95740700D01*
X114270700Y-101140700D02*
X114270700Y-96990700D01*
X111920700Y-100090700D02*
X111920700Y-95490700D01*
X114770700Y-102040700D02*
X114770700Y-97540700D01*
X113420700Y-100340700D02*
X113420700Y-95890700D01*
X110420700Y-100090700D02*
X110420700Y-95490700D01*
X118970700Y-98665700D02*
X118970700Y-101315700D01*
X115070700Y-102240700D02*
X115070700Y-97690700D01*
X112520700Y-100090700D02*
X112520700Y-95540700D01*
X112220700Y-100090700D02*
X112220700Y-95490700D01*
X114020700Y-100790700D02*
X114020700Y-96340700D01*
X117920700Y-102290700D02*
X117920700Y-97690700D01*
X117970700Y-102315700D02*
X115370700Y-102315700D01*
X112370700Y-100090700D02*
X112370700Y-95490700D01*
X110270700Y-99940700D02*
X110270700Y-95590700D01*
X114470700Y-101490700D02*
X114470700Y-97340700D01*
X116270700Y-102290700D02*
X116270700Y-97690700D01*
X111470700Y-100090700D02*
X111470700Y-95490700D01*
X111020700Y-100090700D02*
X111020700Y-95490700D01*
X117970700Y-97665700D02*
X115395700Y-97665700D01*
X118620700Y-101990700D02*
X118620700Y-98040700D01*
X118820700Y-101740700D02*
X118820700Y-98190700D01*
X117470700Y-102290700D02*
X117470700Y-97690700D01*
X113120700Y-100190700D02*
X113120700Y-95640700D01*
X116870700Y-102290700D02*
X116870700Y-97690700D01*
X112970700Y-100140700D02*
X112970700Y-95540700D01*
X112820700Y-100140700D02*
X112820700Y-95490700D01*
X115670700Y-102290700D02*
X115670700Y-97690700D01*
X117020700Y-102290700D02*
X117020700Y-97690700D01*
X113870700Y-100640700D02*
X113870700Y-96240700D01*
X110570700Y-100090700D02*
X110570700Y-95490700D01*
X118220700Y-102240700D02*
X118220700Y-97740700D01*
X115220700Y-102290700D02*
X115220700Y-97690700D01*
X118520700Y-102090700D02*
X118520700Y-97890700D01*
X111320700Y-100090700D02*
X111320700Y-95490700D01*
X114920700Y-102140700D02*
X114920700Y-97590700D01*
X116120700Y-102290700D02*
X116120700Y-97690700D01*
X112670700Y-100140700D02*
X112670700Y-95490700D01*
X109370700Y-96490700D02*
X110395700Y-95465700D01*
X116720700Y-102290700D02*
X116720700Y-97690700D01*
X114370700Y-101290700D02*
X114370700Y-97140700D01*
X109370700Y-99090700D02*
X110395700Y-100115700D01*
X111620700Y-100090700D02*
X111620700Y-95490700D01*
X110870700Y-100090700D02*
X110870700Y-95490700D01*
X118720700Y-101890700D02*
X118720700Y-98140700D01*
X115970700Y-102290700D02*
X115970700Y-97690700D01*
X117770700Y-102290700D02*
X117770700Y-97690700D01*
X109370700Y-96490700D02*
X109370700Y-99090700D01*
X112370700Y-100115700D02*
X110395700Y-100115700D01*
X117320700Y-102290700D02*
X117320700Y-97690700D01*
X115370700Y-102290700D02*
X115370700Y-97690700D01*
X114570700Y-101640700D02*
X114570700Y-97440700D01*
X112945700Y-95465700D02*
X110395700Y-95465700D01*
X115395700Y-97665700D02*
G75*
G02*
X114220700Y-96490700I0J1175000D01*
G01*
X117970700Y-97665700D02*
G75*
G02*
X118970700Y-98665700I1J-999999D01*
G01*
X112370700Y-100115700D02*
G75*
G02*
X114508501Y-101612604I0J-2275000D01*
G01*
X118970700Y-101315700D02*
G75*
G02*
X117970700Y-102315700I-999999J-1D01*
G01*
X115369705Y-102314491D02*
G75*
G02*
X114508497Y-101612605I38795J926891D01*
G01*
X128770700Y-101465700D02*
X128770700Y-96865700D01*
X127270700Y-101315700D02*
X127270700Y-96965700D01*
X129820700Y-101515700D02*
X129820700Y-96865700D01*
X131020700Y-102165700D02*
X131020700Y-97715700D01*
X135220700Y-103615700D02*
X135220700Y-99115700D01*
X134970700Y-99040700D02*
X132395700Y-99040700D01*
X126370700Y-100465700D02*
X127395700Y-101490700D01*
X127120700Y-101215700D02*
X127120700Y-97115700D01*
X135520700Y-103465700D02*
X135520700Y-99265700D01*
X134020700Y-103665700D02*
X134020700Y-99065700D01*
X134620700Y-103665700D02*
X134620700Y-99065700D01*
X127420700Y-101465700D02*
X127420700Y-96865700D01*
X126370700Y-97865700D02*
X126370700Y-100465700D01*
X132370700Y-103665700D02*
X132370700Y-99065700D01*
X131470700Y-102865700D02*
X131470700Y-98715700D01*
X134470700Y-103665700D02*
X134470700Y-99065700D01*
X127720700Y-101465700D02*
X127720700Y-96865700D01*
X133120700Y-103665700D02*
X133120700Y-99065700D01*
X135720700Y-103265700D02*
X135720700Y-99515700D01*
X134320700Y-103665700D02*
X134320700Y-99065700D01*
X131670700Y-103265700D02*
X131670700Y-98865700D01*
X131770700Y-103415700D02*
X131770700Y-98915700D01*
X129945700Y-96840700D02*
X127395700Y-96840700D01*
X130120700Y-101565700D02*
X130120700Y-97015700D01*
X130420700Y-101715700D02*
X130420700Y-97265700D01*
X130870700Y-102015700D02*
X130870700Y-97615700D01*
X132670700Y-103665700D02*
X132670700Y-99065700D01*
X127870700Y-101465700D02*
X127870700Y-96865700D01*
X129670700Y-101515700D02*
X129670700Y-96865700D01*
X132220700Y-103665700D02*
X132220700Y-99065700D01*
X133570700Y-103665700D02*
X133570700Y-99065700D01*
X131170700Y-102315700D02*
X131170700Y-97865700D01*
X126520700Y-100615700D02*
X126520700Y-97715700D01*
X129370700Y-101465700D02*
X129370700Y-96865700D01*
X135070700Y-103665700D02*
X135070700Y-99115700D01*
X130720700Y-101915700D02*
X130720700Y-97515700D01*
X131370700Y-102665700D02*
X131370700Y-98515700D01*
X132520700Y-103665700D02*
X132520700Y-99115700D01*
X130270700Y-101665700D02*
X130270700Y-97115700D01*
X129970700Y-101515700D02*
X129970700Y-96915700D01*
X135620700Y-103365700D02*
X135620700Y-99415700D01*
X126970700Y-101065700D02*
X126970700Y-97265700D01*
X126820700Y-100915700D02*
X126820700Y-97415700D01*
X133720700Y-103665700D02*
X133720700Y-99065700D01*
X135820700Y-103115700D02*
X135820700Y-99565700D01*
X128170700Y-101465700D02*
X128170700Y-96865700D01*
X129945700Y-96840700D02*
X131220700Y-97865700D01*
X132820700Y-103665700D02*
X132820700Y-99065700D01*
X128320700Y-101465700D02*
X128320700Y-96865700D01*
X134920700Y-103665700D02*
X134920700Y-99065700D01*
X129370700Y-101490700D02*
X127395700Y-101490700D01*
X128620700Y-101465700D02*
X128620700Y-96865700D01*
X133270700Y-103665700D02*
X133270700Y-99065700D01*
X135370700Y-103565700D02*
X135370700Y-99165700D01*
X134970700Y-103690700D02*
X132370700Y-103690700D01*
X129220700Y-101465700D02*
X129220700Y-96865700D01*
X127570700Y-101465700D02*
X127570700Y-96865700D01*
X128020700Y-101465700D02*
X128020700Y-96865700D01*
X130570700Y-101815700D02*
X130570700Y-97365700D01*
X133420700Y-103665700D02*
X133420700Y-99065700D01*
X126670700Y-100715700D02*
X126670700Y-97565700D01*
X129070700Y-101465700D02*
X129070700Y-96865700D01*
X131270700Y-102515700D02*
X131270700Y-98365700D01*
X128470700Y-101465700D02*
X128470700Y-96865700D01*
X134770700Y-103665700D02*
X134770700Y-99065700D01*
X128920700Y-101465700D02*
X128920700Y-96865700D01*
X126370700Y-97865700D02*
X127395700Y-96840700D01*
X131570700Y-103015700D02*
X131570700Y-98815700D01*
X129520700Y-101465700D02*
X129520700Y-96915700D01*
X132970700Y-103665700D02*
X132970700Y-99065700D01*
X134170700Y-103665700D02*
X134170700Y-99065700D01*
X135970700Y-100040700D02*
X135970700Y-102690700D01*
X131920700Y-103515700D02*
X131920700Y-98965700D01*
X132070700Y-103615700D02*
X132070700Y-99065700D01*
X133870700Y-103665700D02*
X133870700Y-99065700D01*
X134970700Y-99040700D02*
G75*
G02*
X135970700Y-100040700I1J-999999D01*
G01*
X135970700Y-102690700D02*
G75*
G02*
X134970700Y-103690700I-999999J-1D01*
G01*
X132395700Y-99040700D02*
G75*
G02*
X131220700Y-97865700I0J1175000D01*
G01*
X129370700Y-101490700D02*
G75*
G02*
X131508501Y-102987604I0J-2275000D01*
G01*
X132369705Y-103689491D02*
G75*
G02*
X131508497Y-102987605I38795J926891D01*
G01*
X115570700Y-106165700D02*
X115570700Y-110315700D01*
X116570700Y-107015700D02*
X116570700Y-111565700D01*
X112070700Y-105015700D02*
X112070700Y-109615700D01*
X111220700Y-105315700D02*
X111220700Y-109265700D01*
X114770700Y-105065700D02*
X114770700Y-109615700D01*
X112970700Y-105015700D02*
X112970700Y-109615700D01*
X118370700Y-107215700D02*
X118370700Y-111815700D01*
X111920700Y-105015700D02*
X111920700Y-109615700D01*
X115270700Y-105665700D02*
X115270700Y-109865700D01*
X113270700Y-105015700D02*
X113270700Y-109615700D01*
X116420700Y-106965700D02*
X116420700Y-111415700D01*
X119270700Y-107215700D02*
X119270700Y-111815700D01*
X117020700Y-107165700D02*
X117020700Y-111815700D01*
X114320700Y-105015700D02*
X114320700Y-109565700D01*
X115470700Y-106015700D02*
X115470700Y-110165700D01*
X118670700Y-107215700D02*
X118670700Y-111815700D01*
X113570700Y-105015700D02*
X113570700Y-109615700D01*
X111870700Y-109640700D02*
X114445700Y-109640700D01*
X117470700Y-107190700D02*
X119445700Y-107190700D01*
X112370700Y-105015700D02*
X112370700Y-109615700D01*
X115070700Y-105265700D02*
X115070700Y-109765700D01*
X115170700Y-105415700D02*
X115170700Y-109815700D01*
X116895700Y-111840700D02*
X115620700Y-110815700D01*
X119420700Y-107215700D02*
X119420700Y-111815700D01*
X120320700Y-108065700D02*
X120320700Y-110965700D01*
X118970700Y-107215700D02*
X118970700Y-111815700D01*
X117620700Y-107215700D02*
X117620700Y-111815700D01*
X113120700Y-105015700D02*
X113120700Y-109615700D01*
X113870700Y-105015700D02*
X113870700Y-109615700D01*
X113720700Y-105015700D02*
X113720700Y-109615700D01*
X118820700Y-107215700D02*
X118820700Y-111815700D01*
X119870700Y-107615700D02*
X119870700Y-111415700D01*
X120020700Y-107765700D02*
X120020700Y-111265700D01*
X117920700Y-107215700D02*
X117920700Y-111815700D01*
X114920700Y-105165700D02*
X114920700Y-109715700D01*
X112670700Y-105015700D02*
X112670700Y-109615700D01*
X120470700Y-110815700D02*
X120470700Y-108215700D01*
X114620700Y-105015700D02*
X114620700Y-109615700D01*
X117170700Y-107165700D02*
X117170700Y-111815700D01*
X114170700Y-105015700D02*
X114170700Y-109615700D01*
X112820700Y-105015700D02*
X112820700Y-109615700D01*
X117470700Y-107215700D02*
X117470700Y-111815700D01*
X114020700Y-105015700D02*
X114020700Y-109615700D01*
X113420700Y-105015700D02*
X113420700Y-109615700D01*
X119720700Y-107465700D02*
X119720700Y-111565700D01*
X111620700Y-105065700D02*
X111620700Y-109565700D01*
X119120700Y-107215700D02*
X119120700Y-111815700D01*
X118220700Y-107215700D02*
X118220700Y-111815700D01*
X117320700Y-107215700D02*
X117320700Y-111765700D01*
X111770700Y-105015700D02*
X111770700Y-109565700D01*
X115670700Y-106365700D02*
X115670700Y-110815700D01*
X116120700Y-106765700D02*
X116120700Y-111165700D01*
X120470700Y-108215700D02*
X119445700Y-107190700D01*
X115820700Y-106515700D02*
X115820700Y-110965700D01*
X116870700Y-107165700D02*
X116870700Y-111765700D01*
X115370700Y-105815700D02*
X115370700Y-109965700D01*
X119570700Y-107365700D02*
X119570700Y-111715700D01*
X116270700Y-106865700D02*
X116270700Y-111315700D01*
X112520700Y-105015700D02*
X112520700Y-109615700D01*
X111120700Y-105415700D02*
X111120700Y-109165700D01*
X117770700Y-107215700D02*
X117770700Y-111815700D01*
X110870700Y-108640700D02*
X110870700Y-105990700D01*
X116720700Y-107115700D02*
X116720700Y-111665700D01*
X115970700Y-106665700D02*
X115970700Y-111065700D01*
X118520700Y-107215700D02*
X118520700Y-111815700D01*
X120170700Y-107965700D02*
X120170700Y-111115700D01*
X118070700Y-107215700D02*
X118070700Y-111815700D01*
X111470700Y-105115700D02*
X111470700Y-109515700D01*
X111870700Y-104990700D02*
X114470700Y-104990700D01*
X112220700Y-105015700D02*
X112220700Y-109615700D01*
X114470700Y-105015700D02*
X114470700Y-109615700D01*
X120470700Y-110815700D02*
X119445700Y-111840700D01*
X111320700Y-105215700D02*
X111320700Y-109415700D01*
X111020700Y-105565700D02*
X111020700Y-109115700D01*
X116895700Y-111840700D02*
X119445700Y-111840700D01*
X117470700Y-107190700D02*
G75*
G02*
X115332899Y-105693796I0J2275000D01*
G01*
X114445700Y-109640700D02*
G75*
G02*
X115620700Y-110815700I0J-1175000D01*
G01*
X111870700Y-109640700D02*
G75*
G02*
X110870700Y-108640700I-1J999999D01*
G01*
X110870700Y-105990700D02*
G75*
G02*
X111870700Y-104990700I999999J1D01*
G01*
X114471695Y-104991909D02*
G75*
G02*
X115332903Y-105693795I-38795J-926891D01*
G01*
X133910102Y-106895977D02*
X133111320Y-111426093D01*
X138550595Y-109948160D02*
X137751814Y-114478276D01*
X132137448Y-106583411D02*
X131338666Y-111113526D01*
X139219742Y-110472319D02*
X138559879Y-114214589D01*
X130989642Y-111077370D02*
X133525522Y-111524514D01*
X134770381Y-107199982D02*
X133980282Y-111680857D01*
X137073384Y-109687688D02*
X136274602Y-114217804D01*
X132580611Y-106661552D02*
X131781830Y-111191668D01*
X131100545Y-106705205D02*
X130414635Y-110595195D01*
X139098068Y-110298551D02*
X138386110Y-114336263D01*
X136638902Y-109560306D02*
X135831438Y-114139662D01*
X135935026Y-109233108D02*
X135162292Y-113615503D01*
X135674314Y-108984052D02*
X134910262Y-113317206D01*
X135300609Y-108511987D02*
X134527875Y-112894382D01*
X133466938Y-106817836D02*
X132668157Y-111347951D01*
X135543957Y-108859524D02*
X134779905Y-113192678D01*
X133614659Y-106843883D02*
X132815878Y-111373999D01*
X133023775Y-106739694D02*
X132224993Y-111269810D01*
X135236858Y-108297661D02*
X134516218Y-112384613D01*
X139706437Y-111167393D02*
X138874999Y-109979976D01*
X136074065Y-109308396D02*
X135283966Y-113789271D01*
X131797106Y-106498014D02*
X134357606Y-106949499D01*
X133762380Y-106869930D02*
X132963599Y-111400046D01*
X134500986Y-107000166D02*
X133702205Y-111530282D01*
X136204421Y-109432924D02*
X135414322Y-113913799D01*
X135164425Y-108132575D02*
X134443785Y-112219527D01*
X139584764Y-110993625D02*
X139081184Y-113849567D01*
X136343460Y-109508211D02*
X135544679Y-114038327D01*
X138107432Y-109870018D02*
X137308650Y-114400134D01*
X133171496Y-106765741D02*
X132372714Y-111295857D01*
X133319217Y-106791788D02*
X132520435Y-111321904D01*
X137221105Y-109713735D02*
X136422323Y-114243851D01*
X139254952Y-113727893D02*
X139706437Y-111167393D01*
X137959711Y-109843971D02*
X137160929Y-114374087D01*
X131381477Y-106551655D02*
X130617425Y-110884809D01*
X130178483Y-109918914D02*
X130638650Y-107309173D01*
X139341416Y-110646088D02*
X138733647Y-114092915D01*
X137368826Y-109739782D02*
X136570044Y-114269898D01*
X134205544Y-106948072D02*
X133415445Y-111428947D01*
X135422283Y-108685756D02*
X134649549Y-113068150D01*
X136491181Y-109534259D02*
X135683717Y-114113615D01*
X136777941Y-109635593D02*
X135987842Y-114116469D01*
X131842005Y-106531316D02*
X131043224Y-111061432D01*
X132285169Y-106609458D02*
X131486387Y-111139574D01*
X137664268Y-109791877D02*
X136865487Y-114321992D01*
X131216391Y-106624089D02*
X130487069Y-110760281D01*
X138402874Y-109922113D02*
X137604092Y-114452229D01*
X137811989Y-109817924D02*
X137013208Y-114348040D01*
X134973171Y-107489596D02*
X134209119Y-111822750D01*
X130860172Y-106916677D02*
X130243721Y-110412745D01*
X132728332Y-106687600D02*
X131929551Y-111217715D01*
X132432890Y-106635505D02*
X131634108Y-111165621D01*
X135028240Y-107753163D02*
X134298918Y-111889355D01*
X132876054Y-106713647D02*
X132077272Y-111243762D01*
X137516547Y-109765830D02*
X136717765Y-114295945D01*
X139454407Y-110869097D02*
X138907415Y-113971241D01*
X135100674Y-107918249D02*
X134380034Y-112005201D01*
X134900738Y-107324510D02*
X134119321Y-111756145D01*
X138698316Y-109974207D02*
X137899535Y-114504323D01*
X138846038Y-110000255D02*
X138047256Y-114530370D01*
X138967711Y-110174023D02*
X138212342Y-114457937D01*
X136930004Y-109637020D02*
X138874999Y-109979976D01*
X131694284Y-106505269D02*
X130904185Y-110986144D01*
X139254952Y-113727893D02*
X138067535Y-114559332D01*
X136925662Y-109661641D02*
X136126881Y-114191756D01*
X134640025Y-107075454D02*
X133849926Y-111556329D01*
X131989727Y-106557363D02*
X131190945Y-111087479D01*
X135804670Y-109108580D02*
X135031936Y-113490975D01*
X134057823Y-106922025D02*
X133259041Y-111452140D01*
X135556275Y-114116529D02*
X138067535Y-114559332D01*
X130984700Y-106786321D02*
X130333519Y-110479350D01*
X135556275Y-114116529D02*
X134478635Y-112885699D01*
X138255153Y-109896066D02*
X137456371Y-114426181D01*
X131537881Y-106528462D02*
X130756464Y-110960097D01*
X134353265Y-106974119D02*
X133554484Y-111504235D01*
X130989642Y-111077370D02*
G75*
G02*
X130178482Y-109918914I173647J984807D01*
G01*
X130638650Y-107309173D02*
G75*
G02*
X131797106Y-106498013I984807J-173647D01*
G01*
X136930004Y-109637020D02*
G75*
G02*
X135084616Y-107791633I395049J2240437D01*
G01*
X133525522Y-111524514D02*
G75*
G02*
X134478635Y-112885699I-204036J-1157149D01*
G01*
X134358376Y-106950862D02*
G75*
G02*
X135084619Y-107791633I-199158J-906073D01*
G01*
X159050700Y-90942700D02*
X159050700Y-60462700D01*
X143810700Y-60462700D02*
X146350700Y-60462700D01*
X143810700Y-90942700D02*
X143810700Y-60462700D01*
X146350700Y-60462700D02*
X146350700Y-90942700D01*
X161590700Y-90942700D02*
X159050700Y-90942700D01*
X161590700Y-60462700D02*
X161590700Y-90942700D01*
X159050700Y-60462700D02*
X161590700Y-60462700D01*
X146350700Y-90942700D02*
X143810700Y-90942700D01*
X150078087Y-97109102D02*
X150163592Y-96874179D01*
X155801748Y-98926299D02*
X155716243Y-99161223D01*
X151189652Y-94055101D02*
X151275157Y-93820177D01*
X155716243Y-99161223D02*
X150078087Y-97109102D01*
X151275157Y-93820177D02*
X156913313Y-95872298D01*
X156913313Y-95872298D02*
X156827808Y-96107221D01*
X151741485Y-106519396D02*
X152354099Y-107833151D01*
X146447942Y-109221877D02*
X150582590Y-110726765D01*
X143931329Y-111019558D02*
X148253915Y-112592850D01*
X146982047Y-108777768D02*
X151257648Y-110333960D01*
X143315692Y-112711004D02*
X147591293Y-114267197D01*
X146836774Y-108884521D02*
X151112376Y-110440712D01*
X146738487Y-109008373D02*
X150920119Y-110530363D01*
X143366995Y-112570051D02*
X147689582Y-114143344D01*
X144239147Y-110173834D02*
X148561733Y-111747127D01*
X144085238Y-110596695D02*
X148407824Y-112169988D01*
X147845562Y-106697662D02*
X152168147Y-108270956D01*
X148960755Y-105826546D02*
X151920786Y-106903909D01*
X151741485Y-106519396D02*
X149298284Y-105630143D01*
X143409489Y-113330442D02*
X147121276Y-114681421D01*
X143623510Y-111865281D02*
X147946097Y-113438574D01*
X147537744Y-107543386D02*
X151860329Y-109116679D01*
X147742955Y-106979570D02*
X152065540Y-108552862D01*
X144033935Y-110737650D02*
X148356521Y-112310943D01*
X147794258Y-106838615D02*
X152116843Y-108411908D01*
X149298284Y-105630143D02*
X147984528Y-106242757D01*
X143726116Y-111583373D02*
X148048703Y-113156666D01*
X144136541Y-110455742D02*
X148459128Y-112029035D01*
X143418298Y-112429097D02*
X147740884Y-114002389D01*
X147435137Y-107825293D02*
X151757723Y-109398586D01*
X143982632Y-110878604D02*
X148305218Y-112451897D01*
X143880026Y-111160512D02*
X148202613Y-112733805D01*
X143307056Y-113027114D02*
X147441703Y-114532003D01*
X143469256Y-113458613D02*
X146993104Y-114741188D01*
X147589047Y-107402432D02*
X151911632Y-108975724D01*
X148529256Y-105988747D02*
X152100088Y-107288423D01*
X147182940Y-108372008D02*
X151552510Y-109962401D01*
X147383834Y-107966247D02*
X151706420Y-109539540D01*
X148336999Y-106078398D02*
X152189739Y-107480680D01*
X143349722Y-113202270D02*
X147296431Y-114638755D01*
X144854438Y-109652858D02*
X148989085Y-111157746D01*
X147691652Y-107120524D02*
X152014238Y-108693816D01*
X144388737Y-109909028D02*
X148664339Y-111465218D01*
X149106027Y-105719794D02*
X151831136Y-106711652D01*
X145123563Y-109644393D02*
X149070272Y-111080878D01*
X144187844Y-110314788D02*
X148463445Y-111870980D01*
X144290450Y-110032881D02*
X148613036Y-111606173D01*
X147896864Y-106556708D02*
X152219450Y-108130001D01*
X144534009Y-109802277D02*
X148809611Y-111358467D01*
X147999470Y-106274800D02*
X152322056Y-107848093D01*
X146414260Y-114796551D02*
X143924074Y-113890197D01*
X146302670Y-109328629D02*
X150437317Y-110833517D01*
X145918156Y-109507930D02*
X150099788Y-111029920D01*
X147131637Y-108512962D02*
X151501208Y-110103355D01*
X147281229Y-108248155D02*
X151556829Y-109804346D01*
X148191726Y-106185149D02*
X152279390Y-107672937D01*
X143469601Y-112288143D02*
X147792187Y-113861435D01*
X147486440Y-107684339D02*
X151809025Y-109257632D01*
X147640349Y-107261478D02*
X151962935Y-108834770D01*
X147332531Y-108107201D02*
X151655117Y-109680494D01*
X143576008Y-113603885D02*
X146911917Y-114818057D01*
X147080334Y-108653915D02*
X151402920Y-110227208D01*
X143326402Y-112608485D02*
X144215654Y-110165284D01*
X151481948Y-110229367D02*
X152354099Y-107833151D01*
X148721513Y-105899096D02*
X152010437Y-107096166D01*
X147309039Y-108098650D02*
X147984528Y-106242757D01*
X145696015Y-109533496D02*
X149595740Y-110952879D01*
X145298719Y-109601727D02*
X149198443Y-111021111D01*
X146593214Y-109115125D02*
X150774846Y-110637115D01*
X145520859Y-109576162D02*
X149420585Y-110995546D01*
X151481948Y-110229367D02*
X150082687Y-111076905D01*
X143520904Y-112147189D02*
X147843491Y-113720481D01*
X143828723Y-111301465D02*
X148151309Y-112874757D01*
X143311374Y-112869059D02*
X147539991Y-114408150D01*
X143777420Y-111442419D02*
X148100006Y-113015712D01*
X147948167Y-106415754D02*
X152270753Y-107989047D01*
X144679282Y-109695524D02*
X148907899Y-111234615D01*
X143572208Y-112006235D02*
X147894794Y-113579528D01*
X143674813Y-111724327D02*
X147997400Y-113297620D01*
X146110413Y-109418280D02*
X150292045Y-110940269D01*
X147695973Y-114198878D02*
X148576675Y-111779170D01*
X147695973Y-114198878D02*
G75*
G02*
X146414260Y-114796551I-939692J342018D01*
G01*
X147309039Y-108098650D02*
G75*
G02*
X145171238Y-109595555I-2137801J778095D01*
G01*
X144217131Y-110164761D02*
G75*
G02*
X145171239Y-109595551I857724J-353472D01*
G01*
X143924074Y-113890197D02*
G75*
G02*
X143326401Y-112608485I342019J939692D01*
G01*
X148576675Y-111779170D02*
G75*
G02*
X150082687Y-111076906I1104138J-401874D01*
G01*
X148245700Y-59165700D02*
X146245700Y-59165700D01*
X146245700Y-59165700D02*
X146245700Y-57165700D01*
X146245700Y-57165700D02*
X148245700Y-57165700D01*
X148245700Y-57165700D02*
X148245700Y-59165700D01*
X160495700Y-57165700D02*
X160495700Y-59165700D01*
X158495700Y-57165700D02*
X160495700Y-57165700D01*
X158495700Y-59165700D02*
X158495700Y-57165700D01*
X160495700Y-59165700D02*
X158495700Y-59165700D01*
D12*
G36*
X153472245Y-69210221D02*
G01*
X153817833Y-69227188D01*
X154093991Y-69286681D01*
X154331720Y-69409419D01*
X154562017Y-69616122D01*
X154815879Y-69927512D01*
X155124306Y-70364307D01*
X155390108Y-70751831D01*
X155652944Y-71132479D01*
X155881191Y-71460583D01*
X156044538Y-71692400D01*
X156110685Y-71786293D01*
X156234858Y-71987838D01*
X156302071Y-72174957D01*
X156328955Y-72408854D01*
X156332144Y-72750733D01*
X156312751Y-73061794D01*
X156248719Y-73452592D01*
X156151591Y-73819601D01*
X156033348Y-74126599D01*
X155905973Y-74337362D01*
X155781446Y-74415667D01*
X155774561Y-74416346D01*
X155660067Y-74492306D01*
X155487865Y-74669468D01*
X155292457Y-74912757D01*
X155167074Y-75076285D01*
X154942288Y-75317706D01*
X154690339Y-75497061D01*
X154343331Y-75668404D01*
X154302710Y-75686708D01*
X154020695Y-75828688D01*
X153809594Y-75960071D01*
X153712474Y-76054498D01*
X153716827Y-76123904D01*
X153795618Y-76312701D01*
X153937842Y-76563972D01*
X154116088Y-76836668D01*
X154302941Y-77089738D01*
X154470990Y-77282131D01*
X154592819Y-77372796D01*
X154613177Y-77378419D01*
X154803470Y-77421742D01*
X155050910Y-77469527D01*
X155119805Y-77483110D01*
X155299763Y-77550347D01*
X155328734Y-77643375D01*
X155322046Y-77701973D01*
X155408324Y-77760000D01*
X155464158Y-77768224D01*
X155532666Y-77836740D01*
X155491481Y-77874263D01*
X155349052Y-77865464D01*
X155318309Y-77857885D01*
X155209555Y-77859106D01*
X155219395Y-77958057D01*
X155231097Y-78022636D01*
X155168158Y-78094125D01*
X155028818Y-78080951D01*
X154862000Y-77980098D01*
X154713268Y-77872953D01*
X154438995Y-77743217D01*
X154164263Y-77671378D01*
X153956618Y-77679836D01*
X153833478Y-77703425D01*
X153662439Y-77670106D01*
X153629248Y-77644268D01*
X153646382Y-77589849D01*
X153818166Y-77540284D01*
X153840933Y-77535488D01*
X154019932Y-77480008D01*
X154093333Y-77423876D01*
X154091702Y-77415545D01*
X154033178Y-77298275D01*
X153907554Y-77086927D01*
X153737882Y-76820626D01*
X153727353Y-76804538D01*
X153533961Y-76501665D01*
X153363238Y-76222042D01*
X153251049Y-76024333D01*
X153230358Y-75986032D01*
X153083598Y-75817389D01*
X152878342Y-75770333D01*
X152806453Y-75773291D01*
X152679783Y-75816857D01*
X152581309Y-75943790D01*
X152473154Y-76193667D01*
X152309291Y-76617000D01*
X153023166Y-77303495D01*
X153051931Y-77331130D01*
X153363874Y-77624124D01*
X153593433Y-77818913D01*
X153773341Y-77937353D01*
X153936330Y-78001299D01*
X154115133Y-78032607D01*
X154439302Y-78112922D01*
X154674278Y-78256278D01*
X154855333Y-78437333D01*
X154603990Y-78437333D01*
X154547960Y-78438468D01*
X154409009Y-78471895D01*
X154401382Y-78564333D01*
X154409989Y-78606783D01*
X154355304Y-78682242D01*
X154238808Y-78682956D01*
X154131336Y-78599660D01*
X154066350Y-78530557D01*
X153849781Y-78404757D01*
X153561695Y-78299344D01*
X153265322Y-78235232D01*
X153023892Y-78233337D01*
X152813386Y-78249115D01*
X152738666Y-78192756D01*
X152771705Y-78137474D01*
X152910657Y-78098667D01*
X152920111Y-78098613D01*
X153085308Y-78063821D01*
X153130210Y-77959043D01*
X153051325Y-77775978D01*
X152845162Y-77506325D01*
X152508231Y-77141784D01*
X152266971Y-76888489D01*
X152031224Y-76628856D01*
X151863232Y-76429699D01*
X151788966Y-76320667D01*
X151750187Y-76266310D01*
X151657349Y-76292262D01*
X151486689Y-76435749D01*
X151421456Y-76492493D01*
X151248042Y-76603053D01*
X151133171Y-76618960D01*
X151061825Y-76603491D01*
X150914624Y-76662411D01*
X150824583Y-76719295D01*
X150791333Y-76666721D01*
X150759890Y-76612128D01*
X150628830Y-76655678D01*
X150511475Y-76699387D01*
X150434600Y-76647466D01*
X150432156Y-76641139D01*
X150340680Y-76609714D01*
X150135641Y-76690476D01*
X149995922Y-76760526D01*
X149844673Y-76818309D01*
X149806308Y-76785363D01*
X149860000Y-76659333D01*
X149912737Y-76541632D01*
X149889302Y-76501839D01*
X149764454Y-76554750D01*
X149519651Y-76702729D01*
X149473516Y-76730939D01*
X149267651Y-76823754D01*
X149179534Y-76803844D01*
X149218612Y-76687246D01*
X149394333Y-76490000D01*
X149503024Y-76382441D01*
X149594670Y-76258823D01*
X149548794Y-76230318D01*
X149367171Y-76297087D01*
X149051574Y-76459288D01*
X149003675Y-76485370D01*
X148739649Y-76619694D01*
X148543305Y-76704016D01*
X148454142Y-76721031D01*
X148453531Y-76706889D01*
X148534321Y-76604187D01*
X148721312Y-76424691D01*
X148992785Y-76187035D01*
X149327025Y-75909855D01*
X149702312Y-75611783D01*
X150096930Y-75311454D01*
X150339513Y-75124032D01*
X150595001Y-74891346D01*
X150773944Y-74663002D01*
X150918222Y-74392121D01*
X151011360Y-74173664D01*
X151080027Y-73974728D01*
X151090007Y-73881785D01*
X151085026Y-73866930D01*
X151121476Y-73745044D01*
X151222688Y-73556021D01*
X151237011Y-73532779D01*
X151331018Y-73367487D01*
X151334150Y-73309654D01*
X151250010Y-73329398D01*
X151194133Y-73348944D01*
X151151914Y-73347630D01*
X151162977Y-73292985D01*
X151238244Y-73163636D01*
X151388634Y-72938210D01*
X151625068Y-72595333D01*
X151649973Y-72559423D01*
X151916381Y-72185155D01*
X152118819Y-71928303D01*
X152281052Y-71764575D01*
X152426846Y-71669681D01*
X152579966Y-71619331D01*
X152706764Y-71581309D01*
X152801616Y-71483200D01*
X152823333Y-71280256D01*
X152807769Y-71050975D01*
X152693749Y-70714979D01*
X152460882Y-70484496D01*
X152099484Y-70351843D01*
X151599871Y-70309333D01*
X151348052Y-70301487D01*
X151125318Y-70269966D01*
X151045333Y-70218260D01*
X151064127Y-70148041D01*
X151210027Y-69984278D01*
X151473070Y-69807010D01*
X151820459Y-69630294D01*
X152219399Y-69468188D01*
X152637092Y-69334747D01*
X153040742Y-69244029D01*
X153397553Y-69210091D01*
X153472245Y-69210221D01*
G37*
M02*
