M48
; DRILL file {KiCad (6.0.10-0)} date Monday, 23 October 2023 at 21:39:27
; FORMAT={-:-/ absolute / inch / decimal}
; #@! TF.CreationDate,2023-10-23T21:39:27+01:00
; #@! TF.GenerationSoftware,Kicad,Pcbnew,(6.0.10-0)
; #@! TF.FileFunction,NonPlated,1,2,NPTH
FMAT,2
INCH
; #@! TA.AperFunction,NonPlated,NPTH,ComponentDrill
T1C0.0354
; #@! TA.AperFunction,NonPlated,NPTH,ComponentDrill
T2C0.0394
; #@! TA.AperFunction,NonPlated,NPTH,ComponentDrill
T3C0.0709
; #@! TA.AperFunction,NonPlated,NPTH,ComponentDrill
T4C0.1181
; #@! TA.AperFunction,NonPlated,NPTH,ComponentDrill
T5C0.1339
%
G90
G05
T1
X5.9792Y-2.2585
X6.0973Y-2.2585
T2
X1.7508Y-3.1337
X1.7508Y-3.5447
X2.3799Y-2.4662
X2.3799Y-3.1355
X2.3799Y-3.8048
X2.791Y-2.4662
X2.791Y-3.1355
X2.791Y-3.8048
X3.0492Y-2.0429
X3.0492Y-2.7122
X3.0492Y-3.3815
X3.4603Y-2.0429
X3.4603Y-2.7122
X3.4603Y-3.3815
X3.7185Y-1.9101
X3.7185Y-2.5794
X3.7185Y-3.2486
X4.1296Y-1.9101
X4.1296Y-2.5794
X4.1296Y-3.2486
X4.25Y-4.6227
X4.3878Y-2.2004
X4.3878Y-2.8697
X4.3878Y-3.539
X4.6611Y-4.6227
X4.7988Y-2.2004
X4.7988Y-2.8697
X4.7988Y-3.539
X4.9519Y-4.6478
X5.0571Y-2.2546
X5.0571Y-2.9238
X5.0571Y-3.5931
X5.3567Y-4.7192
X5.4681Y-2.2546
X5.4681Y-2.9238
X5.4681Y-3.5931
X6.0497Y-4.7457
X6.1902Y-4.3595
T3
X1.9162Y-3.1227
X1.9162Y-3.5557
X2.3689Y-2.6315
X2.3689Y-3.3008
X2.3689Y-3.9701
X2.802Y-2.6315
X2.802Y-3.3008
X2.802Y-3.9701
X3.0382Y-2.2083
X3.0382Y-2.8776
X3.0382Y-3.5469
X3.4713Y-2.2083
X3.4713Y-2.8776
X3.4713Y-3.5469
X3.7075Y-2.0754
X3.7075Y-2.7447
X3.7075Y-3.414
X4.1406Y-2.0754
X4.1406Y-2.7447
X4.1406Y-3.414
X4.239Y-4.4573
X4.3768Y-2.3658
X4.3768Y-3.0351
X4.3768Y-3.7044
X4.6721Y-4.4573
X4.8099Y-2.3658
X4.8099Y-3.0351
X4.8099Y-3.7044
X4.9698Y-4.483
X5.0461Y-2.4199
X5.0461Y-3.0892
X5.0461Y-3.7585
X5.3963Y-4.5582
X5.4792Y-2.4199
X5.4792Y-3.0892
X5.4792Y-3.7585
X5.8905Y-4.6995
X6.0386Y-4.2926
T4
X2.0618Y-3.1424
X2.0618Y-3.5361
X2.1485Y-3.3392
X2.3886Y-2.7772
X2.3886Y-3.4465
X2.3886Y-4.1158
X2.5855Y-2.8638
X2.5855Y-3.5331
X2.5855Y-4.2024
X2.7823Y-2.7772
X2.7823Y-3.4465
X2.7823Y-4.1158
X3.0579Y-2.354
X3.0579Y-3.0233
X3.0579Y-3.6925
X3.2548Y-2.4406
X3.2548Y-3.1099
X3.2548Y-3.7792
X3.4516Y-2.354
X3.4516Y-3.0233
X3.4516Y-3.6925
X3.7272Y-2.2211
X3.7272Y-2.8904
X3.7272Y-3.5597
X3.924Y-2.3077
X3.924Y-2.977
X3.924Y-3.6463
X4.1209Y-2.2211
X4.1209Y-2.8904
X4.1209Y-3.5597
X4.2587Y-4.3116
X4.3965Y-2.5114
X4.3965Y-3.1807
X4.3965Y-3.85
X4.4555Y-4.225
X4.5933Y-2.5981
X4.5933Y-3.2674
X4.5933Y-3.9366
X4.6524Y-4.3116
X4.7902Y-2.5114
X4.7902Y-3.1807
X4.7902Y-3.85
X5.0145Y-4.343
X5.0658Y-2.5656
X5.0658Y-3.2349
X5.0658Y-3.9042
X5.2234Y-4.2919
X5.2626Y-2.6522
X5.2626Y-3.3215
X5.2626Y-3.9908
X5.4022Y-4.4113
X5.4595Y-2.5656
X5.4595Y-3.2349
X5.4595Y-3.9042
X5.7463Y-4.4166
X5.7604Y-4.6312
X5.895Y-4.2613
T5
X1.9162Y-3.3392
X2.5855Y-2.6315
X2.5855Y-3.3008
X2.5855Y-3.9701
X3.2548Y-2.2083
X3.2548Y-2.8776
X3.2548Y-3.5469
X3.924Y-2.0754
X3.924Y-2.7447
X3.924Y-3.414
X4.4555Y-4.4573
X4.5933Y-2.3658
X4.5933Y-3.0351
X4.5933Y-3.7044
X5.183Y-4.5206
X5.2626Y-2.4199
X5.2626Y-3.0892
X5.2626Y-3.7585
X5.9646Y-4.4961
T0
M30
