M48
; DRILL file {KiCad (6.0.10-0)} date Monday, 23 October 2023 at 21:39:27
; FORMAT={-:-/ absolute / inch / decimal}
; #@! TF.CreationDate,2023-10-23T21:39:27+01:00
; #@! TF.GenerationSoftware,Kicad,Pcbnew,(6.0.10-0)
; #@! TF.FileFunction,Plated,1,2,PTH
FMAT,2
INCH
; #@! TA.AperFunction,Plated,PTH,ViaDrill
T1C0.0157
; #@! TA.AperFunction,Plated,PTH,ComponentDrill
T2C0.0320
; #@! TA.AperFunction,Plated,PTH,ComponentDrill
T3C0.0512
; #@! TA.AperFunction,Plated,PTH,ComponentDrill
T4C0.0866
%
G90
G05
T1
X1.7675Y-3.2654
X1.7675Y-3.4051
X2.063Y-3.0295
X2.5116Y-3.8235
X2.5136Y-2.4809
X2.517Y-3.1508
X2.6514Y-3.8235
X2.6534Y-2.4809
X2.6573Y-3.1502
X2.8965Y-2.7772
X2.8965Y-3.4465
X2.8965Y-4.1158
X3.1809Y-3.4002
X3.1829Y-2.0577
X3.1868Y-2.727
X3.3202Y-3.4002
X3.3227Y-2.0577
X3.3266Y-2.727
X3.5658Y-2.354
X3.5658Y-3.0233
X3.5658Y-3.6925
X3.8482Y-3.2694
X3.8522Y-1.9248
X3.8561Y-2.5941
X3.99Y-3.2674
X3.9922Y-1.9251
X3.9959Y-2.5941
X4.1445Y-4.3116
X4.2351Y-2.2211
X4.2351Y-2.8904
X4.2351Y-3.5597
X4.3847Y-4.604
X4.5195Y-3.5577
X4.5215Y-2.2152
X4.5244Y-4.604
X4.5254Y-2.8845
X4.6593Y-3.5577
X4.6612Y-2.2152
X4.6652Y-2.8845
X4.902Y-4.3232
X4.9035Y-2.5079
X4.9044Y-3.1783
X4.9044Y-3.8456
X5.0923Y-4.6527
X5.1908Y-3.6049
X5.1927Y-2.2644
X5.1927Y-2.9416
X5.2299Y-4.6769
X5.3305Y-3.6049
X5.3323Y-2.2642
X5.3323Y-2.9413
X5.5736Y-2.5656
X5.5736Y-3.2349
X5.5736Y-3.9042
X5.7227Y-4.7348
X6.0773Y-4.6166
X6.1251Y-4.4853
T2
X5.7118Y-2.4304
X5.7118Y-2.5304
X5.7118Y-2.6304
X5.7118Y-2.7304
X5.7118Y-2.8304
X5.7118Y-2.9304
X5.7118Y-3.0304
X5.7118Y-3.1304
X5.7118Y-3.2304
X5.7118Y-3.3304
X5.7118Y-3.4304
X5.7118Y-3.5304
X5.7641Y-2.3804
X5.7641Y-2.4804
X5.7641Y-2.5804
X5.7641Y-2.6804
X5.7641Y-2.7804
X5.7641Y-2.8804
X5.7641Y-2.9804
X5.7641Y-3.0804
X5.7641Y-3.1804
X5.7641Y-3.2804
X5.7641Y-3.3804
X5.7641Y-3.4804
X5.7971Y-2.29
X6.2794Y-2.29
X6.3118Y-2.4304
X6.3118Y-2.5304
X6.3118Y-2.6304
X6.3118Y-2.7304
X6.3118Y-2.8304
X6.3118Y-2.9304
X6.3118Y-3.0304
X6.3118Y-3.1304
X6.3118Y-3.2304
X6.3118Y-3.3304
X6.3118Y-3.4304
X6.3118Y-3.5304
X6.3633Y-2.3804
X6.3633Y-2.4804
X6.3633Y-2.5804
X6.3633Y-2.6804
X6.3633Y-2.7804
X6.3633Y-2.8804
X6.3633Y-2.9804
X6.3633Y-3.0804
X6.3633Y-3.1804
X6.3633Y-3.2804
X6.3633Y-3.3804
X6.3633Y-3.4804
T3
X5.9229Y-3.7551
X6.1634Y-3.8426
T4
X5.7174Y-3.6778
X6.363Y-3.912
T0
M30
