G04 #@! TF.GenerationSoftware,KiCad,Pcbnew,(6.0.10-0)*
G04 #@! TF.CreationDate,2023-10-23T21:39:34+01:00*
G04 #@! TF.ProjectId,raven-split-38key__choc-hotswap-n!n,72617665-6e2d-4737-906c-69742d33386b,0.1*
G04 #@! TF.SameCoordinates,Original*
G04 #@! TF.FileFunction,Soldermask,Top*
G04 #@! TF.FilePolarity,Negative*
%FSLAX46Y46*%
G04 Gerber Fmt 4.6, Leading zero omitted, Abs format (unit mm)*
G04 Created by KiCad (PCBNEW (6.0.10-0)) date 2023-10-23 21:39:34*
%MOMM*%
%LPD*%
G01*
G04 APERTURE LIST*
G04 Aperture macros list*
%AMRoundRect*
0 Rectangle with rounded corners*
0 $1 Rounding radius*
0 $2 $3 $4 $5 $6 $7 $8 $9 X,Y pos of 4 corners*
0 Add a 4 corners polygon primitive as box body*
4,1,4,$2,$3,$4,$5,$6,$7,$8,$9,$2,$3,0*
0 Add four circle primitives for the rounded corners*
1,1,$1+$1,$2,$3*
1,1,$1+$1,$4,$5*
1,1,$1+$1,$6,$7*
1,1,$1+$1,$8,$9*
0 Add four rect primitives between the rounded corners*
20,1,$1+$1,$2,$3,$4,$5,0*
20,1,$1+$1,$4,$5,$6,$7,0*
20,1,$1+$1,$6,$7,$8,$9,0*
20,1,$1+$1,$8,$9,$2,$3,0*%
G04 Aperture macros list end*
%ADD10C,2.200000*%
%ADD11C,1.400000*%
%ADD12C,3.400000*%
%ADD13C,3.800000*%
%ADD14RoundRect,0.200000X-1.100000X0.800000X-1.100000X-0.800000X1.100000X-0.800000X1.100000X0.800000X0*%
%ADD15RoundRect,0.200000X-0.450000X-0.450000X0.450000X-0.450000X0.450000X0.450000X-0.450000X0.450000X0*%
%ADD16RoundRect,0.200000X-0.450000X-0.625000X0.450000X-0.625000X0.450000X0.625000X-0.450000X0.625000X0*%
%ADD17C,1.924000*%
%ADD18RoundRect,0.200000X0.800000X1.100000X-0.800000X1.100000X-0.800000X-1.100000X0.800000X-1.100000X0*%
%ADD19RoundRect,0.200000X0.650000X0.475000X-0.650000X0.475000X-0.650000X-0.475000X0.650000X-0.475000X0*%
%ADD20RoundRect,0.200000X-0.475000X0.650000X-0.475000X-0.650000X0.475000X-0.650000X0.475000X0.650000X0*%
%ADD21RoundRect,0.200000X0.722608X0.354912X-0.557642X0.580655X-0.722608X-0.354912X0.557642X-0.580655X0*%
%ADD22RoundRect,0.200000X-0.224041X0.773260X-0.668667X-0.448341X0.224041X-0.773260X0.668667X0.448341X0*%
%ADD23RoundRect,0.200000X0.600000X1.100000X-0.600000X1.100000X-0.600000X-1.100000X0.600000X-1.100000X0*%
%ADD24RoundRect,0.200000X-0.600000X-1.100000X0.600000X-1.100000X0.600000X1.100000X-0.600000X1.100000X0*%
%ADD25RoundRect,0.200000X-0.800000X-1.100000X0.800000X-1.100000X0.800000X1.100000X-0.800000X1.100000X0*%
%ADD26RoundRect,0.200000X-0.978859X-0.944370X0.596833X-1.222207X0.978859X0.944370X-0.596833X1.222207X0*%
%ADD27C,2.400000*%
%ADD28RoundRect,0.200000X0.760046X-1.127976X1.307278X0.375532X-0.760046X1.127976X-1.307278X-0.375532X0*%
%ADD29C,4.800000*%
%ADD30C,1.797000*%
G04 APERTURE END LIST*
D10*
X48670700Y-90315700D03*
D11*
X44470700Y-90035700D03*
X44470700Y-79595700D03*
D10*
X48670700Y-79315700D03*
D12*
X52370700Y-79815700D03*
X52370700Y-89815700D03*
D13*
X48670700Y-84815700D03*
D12*
X54570700Y-84815700D03*
D14*
X52370700Y-76915700D03*
X54570700Y-87615700D03*
D11*
X154870700Y-57365700D03*
X151870700Y-57365700D03*
D15*
X149670700Y-58465700D03*
X157070700Y-56265700D03*
X149670700Y-56265700D03*
X157070700Y-58465700D03*
D16*
X155620700Y-59440700D03*
X152620700Y-59440700D03*
X151120700Y-59440700D03*
D17*
X146407100Y-60462700D03*
X160320700Y-61732700D03*
X146407100Y-63002700D03*
X160320700Y-64272700D03*
X146407100Y-65542700D03*
X160320700Y-66812700D03*
X146407100Y-68082700D03*
X160320700Y-69352700D03*
X160320700Y-71892700D03*
X146407100Y-70622700D03*
X146407100Y-73162700D03*
X160320700Y-74432700D03*
X146407100Y-75702700D03*
X160320700Y-76972700D03*
X146407100Y-78242700D03*
X160320700Y-79512700D03*
X160320700Y-82052700D03*
X146407100Y-80782700D03*
X146407100Y-83322700D03*
X160320700Y-84592700D03*
X160320700Y-87132700D03*
X146407100Y-85862700D03*
X146407100Y-88402700D03*
X160320700Y-89672700D03*
X161627100Y-88402700D03*
X145080700Y-89672700D03*
X161627100Y-85862700D03*
X145080700Y-87132700D03*
X145080700Y-84592700D03*
X161627100Y-83322700D03*
X145080700Y-82052700D03*
X161627100Y-80782700D03*
X161627100Y-78242700D03*
X145080700Y-79512700D03*
X161627100Y-75702700D03*
X145080700Y-76972700D03*
X145080700Y-74432700D03*
X161627100Y-73162700D03*
X145080700Y-71892700D03*
X161627100Y-70622700D03*
X161627100Y-68082700D03*
X145080700Y-69352700D03*
X161627100Y-65542700D03*
X145080700Y-66812700D03*
X161627100Y-63002700D03*
X145080700Y-64272700D03*
X145080700Y-61732700D03*
X161627100Y-60462700D03*
D11*
X87890700Y-51890700D03*
D12*
X87670700Y-59790700D03*
D13*
X82670700Y-56090700D03*
D12*
X77670700Y-59790700D03*
D11*
X77450700Y-51890700D03*
D10*
X77170700Y-56090700D03*
D12*
X82670700Y-61990700D03*
D10*
X88170700Y-56090700D03*
D18*
X90570700Y-59790700D03*
X79870700Y-61990700D03*
D19*
X67395700Y-63015700D03*
X63845700Y-63015700D03*
X84395700Y-52265700D03*
X80845700Y-52265700D03*
X101395700Y-48890700D03*
X97845700Y-48890700D03*
X118395700Y-56265700D03*
X114845700Y-56265700D03*
X135445700Y-57515700D03*
X131895700Y-57515700D03*
D20*
X44895700Y-82940700D03*
X44895700Y-86490700D03*
D19*
X67495700Y-80015700D03*
X63945700Y-80015700D03*
X84495700Y-69265700D03*
X80945700Y-69265700D03*
X101495700Y-65890700D03*
X97945700Y-65890700D03*
X118495700Y-73265700D03*
X114945700Y-73265700D03*
X135445700Y-74715700D03*
X131895700Y-74715700D03*
X67345700Y-97115700D03*
X63795700Y-97115700D03*
X84345700Y-86365700D03*
X80795700Y-86365700D03*
X101345700Y-82990700D03*
X97795700Y-82990700D03*
X118345700Y-90365700D03*
X114795700Y-90365700D03*
X135395700Y-91565700D03*
X131845700Y-91565700D03*
X114920700Y-116940700D03*
X111370700Y-116940700D03*
D21*
X132839234Y-118794526D03*
X129343166Y-118178074D03*
D22*
X155576886Y-113925746D03*
X154362714Y-117261654D03*
D11*
X70890700Y-62640700D03*
D12*
X60670700Y-70540700D03*
D10*
X60170700Y-66840700D03*
D12*
X70670700Y-70540700D03*
D13*
X65670700Y-66840700D03*
D11*
X60450700Y-62640700D03*
D12*
X65670700Y-72740700D03*
D10*
X71170700Y-66840700D03*
D18*
X73570700Y-70540700D03*
X62870700Y-72740700D03*
D12*
X94670700Y-56415700D03*
X99670700Y-58615700D03*
D11*
X104890700Y-48515700D03*
X94450700Y-48515700D03*
D13*
X99670700Y-52715700D03*
D10*
X105170700Y-52715700D03*
D12*
X104670700Y-56415700D03*
D10*
X94170700Y-52715700D03*
D18*
X107570700Y-56415700D03*
X96870700Y-58615700D03*
D12*
X121670700Y-63790700D03*
X116670700Y-65990700D03*
D10*
X111170700Y-60090700D03*
D12*
X111670700Y-63790700D03*
D10*
X122170700Y-60090700D03*
D11*
X121890700Y-55890700D03*
X111450700Y-55890700D03*
D13*
X116670700Y-60090700D03*
D18*
X124570700Y-63790700D03*
X113870700Y-65990700D03*
D11*
X138890700Y-57265700D03*
D13*
X133670700Y-61465700D03*
D11*
X128450700Y-57265700D03*
D10*
X128170700Y-61465700D03*
X139170700Y-61465700D03*
D12*
X138670700Y-65165700D03*
X133670700Y-67365700D03*
X128670700Y-65165700D03*
D18*
X141570700Y-65165700D03*
X130870700Y-67365700D03*
D11*
X60450700Y-79640700D03*
D12*
X65670700Y-89740700D03*
X70670700Y-87540700D03*
D11*
X70890700Y-79640700D03*
D10*
X60170700Y-83840700D03*
D13*
X65670700Y-83840700D03*
D10*
X71170700Y-83840700D03*
D12*
X60670700Y-87540700D03*
D18*
X73570700Y-87540700D03*
X62870700Y-89740700D03*
D11*
X87890700Y-68890700D03*
D12*
X87670700Y-76790700D03*
D10*
X88170700Y-73090700D03*
D13*
X82670700Y-73090700D03*
D12*
X82670700Y-78990700D03*
D11*
X77450700Y-68890700D03*
D10*
X77170700Y-73090700D03*
D12*
X77670700Y-76790700D03*
D18*
X90570700Y-76790700D03*
X79870700Y-78990700D03*
D12*
X104670700Y-73415700D03*
D11*
X104890700Y-65515700D03*
D10*
X105170700Y-69715700D03*
D12*
X94670700Y-73415700D03*
D11*
X94450700Y-65515700D03*
D12*
X99670700Y-75615700D03*
D10*
X94170700Y-69715700D03*
D13*
X99670700Y-69715700D03*
D18*
X107570700Y-73415700D03*
X96870700Y-75615700D03*
D10*
X122170700Y-77090700D03*
X111170700Y-77090700D03*
D11*
X121890700Y-72890700D03*
D12*
X121670700Y-80790700D03*
X111670700Y-80790700D03*
X116670700Y-82990700D03*
D11*
X111450700Y-72890700D03*
D13*
X116670700Y-77090700D03*
D18*
X124570700Y-80790700D03*
X113870700Y-82990700D03*
D10*
X139170700Y-78465700D03*
D12*
X133670700Y-84365700D03*
D13*
X133670700Y-78465700D03*
D12*
X138670700Y-82165700D03*
D11*
X128450700Y-74265700D03*
D10*
X128170700Y-78465700D03*
D11*
X138890700Y-74265700D03*
D12*
X128670700Y-82165700D03*
D18*
X141570700Y-82165700D03*
X130870700Y-84365700D03*
D10*
X71170700Y-100840700D03*
D11*
X60450700Y-96640700D03*
D12*
X65670700Y-106740700D03*
X60670700Y-104540700D03*
D11*
X70890700Y-96640700D03*
D10*
X60170700Y-100840700D03*
D13*
X65670700Y-100840700D03*
D12*
X70670700Y-104540700D03*
D23*
X73570700Y-104540700D03*
D18*
X62870700Y-106740700D03*
D12*
X82670700Y-95990700D03*
D11*
X77450700Y-85890700D03*
D12*
X87670700Y-93790700D03*
D10*
X88170700Y-90090700D03*
D13*
X82670700Y-90090700D03*
D11*
X87890700Y-85890700D03*
D10*
X77170700Y-90090700D03*
D12*
X77670700Y-93790700D03*
D18*
X90570700Y-93790700D03*
X79870700Y-95990700D03*
D12*
X99670700Y-92615700D03*
X94670700Y-90415700D03*
D11*
X94450700Y-82515700D03*
D10*
X94170700Y-86715700D03*
X105170700Y-86715700D03*
D12*
X104670700Y-90415700D03*
D13*
X99670700Y-86715700D03*
D11*
X104890700Y-82515700D03*
D18*
X107570700Y-90415700D03*
X96870700Y-92615700D03*
D10*
X111170700Y-94090700D03*
D11*
X111450700Y-89890700D03*
D13*
X116670700Y-94090700D03*
D12*
X111670700Y-97790700D03*
D10*
X122170700Y-94090700D03*
D11*
X121890700Y-89890700D03*
D12*
X121670700Y-97790700D03*
X116670700Y-99990700D03*
D18*
X124570700Y-97790700D03*
X113870700Y-99990700D03*
D12*
X128670700Y-99165700D03*
X138670700Y-99165700D03*
D11*
X138890700Y-91265700D03*
D10*
X139170700Y-95465700D03*
D12*
X133670700Y-101365700D03*
D11*
X128450700Y-91265700D03*
D10*
X128170700Y-95465700D03*
D13*
X133670700Y-95465700D03*
D18*
X141570700Y-99165700D03*
X130870700Y-101365700D03*
D10*
X118670700Y-113215700D03*
D12*
X113170700Y-107315700D03*
D11*
X118390700Y-117415700D03*
D12*
X108170700Y-109515700D03*
D11*
X107950700Y-117415700D03*
D12*
X118170700Y-109515700D03*
D13*
X113170700Y-113215700D03*
D10*
X107670700Y-113215700D03*
D24*
X105270700Y-109515700D03*
D25*
X115970700Y-107315700D03*
D11*
X125779081Y-118053549D03*
D10*
X126232657Y-113868735D03*
D13*
X131649100Y-114823800D03*
D12*
X132673624Y-109013434D03*
D11*
X136060474Y-119866436D03*
D10*
X137065543Y-115778865D03*
D12*
X127367559Y-110311770D03*
X137215637Y-112048252D03*
D26*
X124511617Y-109808191D03*
X135431086Y-109499649D03*
D27*
X150441699Y-95379135D03*
X156549701Y-97602265D03*
D11*
X157232054Y-110731289D03*
D10*
X153381111Y-109031691D03*
D12*
X146313037Y-117632989D03*
D11*
X153661364Y-120541680D03*
D10*
X149618889Y-119368309D03*
D12*
X145955814Y-112182081D03*
X149733238Y-108236062D03*
D13*
X151500000Y-114200000D03*
D28*
X145355380Y-120264128D03*
X146913470Y-109550942D03*
D29*
X161620700Y-99365700D03*
D30*
X147245700Y-58165700D03*
X159495700Y-58165700D03*
D29*
X145220700Y-93415700D03*
M02*
